<svg xmlns="http://www.w3.org/2000/svg" width="12.431" height="93.936"><path d="M4.973 31.929V0l7.458 9.651-1.582 1.223-3.876-5.016v26.071ZM.14 45.58v1.582h5.278v1.246c0 1.848 1.12 2.786 2.926 2.786 1.974 0 3.136-.77 3.136-2.8V45.58Zm6.412 1.582h3.794v.742c0 1.582-.406 1.792-2.016 1.792-1.4 0-1.778-.448-1.778-1.806ZM.14 51.152v1.484l2.856.546v2.31L.14 56.01v1.5l11.34-2.422v-1.526Zm3.99 2.24 5.11.937-5.11.952ZM0 61.302a1.985 1.985 0 0 0 1.44 2.016l-1.3.154v.994h5.614v-2.87h-1.12v1.442H3.85c-1.708 0-2.59-.308-2.59-1.54s.8-1.526 2.436-1.526h4.2c1.4 0 2.45.084 2.45 1.484 0 1.274-.672 1.442-2.142 1.442h-.35v1.484h.42c2.24 0 3.3-.826 3.3-2.954 0-2.394-1.442-3.038-3.92-3.038H3.86c-2.446 0-3.86.784-3.86 2.912Zm.14 4.788v4.424h1.134v-2.842h4.158v2.282h1.12v-2.282h3.752v2.814h1.176v-4.4Zm0 10.15v1.582h10.164v1.862h1.176v-5.362h-1.176v1.918Zm-.126 7.434c0 2.282 1.442 3.094 3.668 3.094h4.312c2.226 0 3.584-.812 3.584-3.094s-1.344-3.108-3.584-3.108h-4.3c-2.254 0-3.68.798-3.68 3.108Zm1.246 0c0-1.274.826-1.512 2.086-1.512h4.97c1.26 0 2.03.238 2.03 1.512s-.77 1.5-2.03 1.5h-4.97c-1.26-.002-2.086-.245-2.086-1.5ZM.14 88.322v1.582h5.278v1.246c0 1.848 1.12 2.786 2.926 2.786 1.974 0 3.136-.77 3.136-2.8v-2.814Zm6.412 1.582h3.794v.742c0 1.582-.406 1.792-2.016 1.792-1.4 0-1.778-.448-1.778-1.806Z" fill="#052f4b"/></svg>