<svg xmlns="http://www.w3.org/2000/svg" width="18" height="18"><defs><clipPath id="a"><path fill="#fff" d="M0 0h18v18H0z"/></clipPath></defs><g clip-path="url(#a)" fill="#fff"><path d="m17.54 17.518-.022.022a1.568 1.568 0 0 1-2.218 0l-4.34-4.723 1.857-1.857 4.723 4.34a1.568 1.568 0 0 1 0 2.218M13.01 6.501a6.505 6.505 0 0 0-11.1-4.6 6.506 6.506 0 0 0 8.178 10.035l.411.411 1.842-1.842-.408-.408a6.46 6.46 0 0 0 1.077-3.596m-2.744 3.761a5.319 5.319 0 1 1 0-7.522 5.325 5.325 0 0 1 0 7.522"/><path d="M2.571 5.817h7.961v1.304H2.571z"/><path d="M5.899 2.489h1.304v7.961H5.899z"/></g></svg>