<svg xmlns="http://www.w3.org/2000/svg" width="14.25" height="13.381"><defs><clipPath id="a"><path fill="#fff" d="M0 0h14.25v13.381H0z"/></clipPath></defs><g clip-path="url(#a)" fill="#fff"><path d="M13.282 13.381H.968a.96.96 0 0 1-.968-.95V9.355a.45.45 0 1 1 .9 0v3.076a.065.065 0 0 0 .07.053h12.312a.065.065 0 0 0 .07-.053V9.355a.45.45 0 1 1 .9 0v3.076a.96.96 0 0 1-.968.95"/><path d="M7.125 9.136a.449.449 0 0 1-.449-.449V.449a.45.45 0 0 1 .9 0v8.239a.449.449 0 0 1-.449.449"/><path d="M7.125 10.027a.449.449 0 0 1-.317-.131l-3.84-3.84a.449.449 0 0 1 .635-.635l3.523 3.523 3.523-3.523a.449.449 0 0 1 .635.635l-3.84 3.84a.449.449 0 0 1-.317.131"/></g></svg>