<svg xmlns="http://www.w3.org/2000/svg" xmlns:xlink="http://www.w3.org/1999/xlink" width="1065.592" height="198.043" viewBox="0 0 1065.592 198.043"><defs><clipPath id="a"><rect width="440.198" height="198.044" fill="none"/></clipPath></defs><g transform="translate(7144 -7233.183)"><text transform="translate(-6662.408 7395)" fill="#3b3b3b" font-size="73" font-family="NotoSansJP-Bold, Noto Sans JP" font-weight="700"><tspan x="0" y="0">山富産業株式会社</tspan></text><g transform="translate(-7144 7233.183)"><path d="M1.131,26.237H10.77v4.125H6.4v1.489h3.849V35.6H6.4v5.03H1.131Z" transform="translate(2.499 57.983)" fill="#00572f"/><g transform="translate(0 0)"><g clip-path="url(#a)"><path d="M9.716,30.127h.395c.9,0,1.672.138,1.672,1.239,0,1.079-.851,1.213-1.711,1.213H9.716ZM4.587,40.6H9.716V35.975H9.81L12.1,40.6H18.13L15,35.918a3.808,3.808,0,0,0-.883-.863v-.112c1.942-.648,2.8-1.563,2.8-3.749,0-3.627-2.761-4.995-6.006-4.995H4.587Z" transform="translate(10.137 57.897)" fill="#00572f"/><rect width="5.229" height="14.4" transform="translate(29.227 84.094)" fill="#00572f"/><path d="M11.466,26.2h9.688V30.13H16.74v1.377h4.028V35.25H16.74v1.412H21.3V40.6H11.466Z" transform="translate(25.339 57.896)" fill="#00572f"/><path d="M15.181,26.2h5.014l4.7,7.98h.151a22.766,22.766,0,0,1-.433-3.659V26.2h5V40.6h-5l-4.606-7.563h-.151a17.061,17.061,0,0,1,.327,2.883V40.6h-5Z" transform="translate(33.549 57.897)" fill="#00572f"/><path d="M25.64,30.7h.315c1.916,0,3.085.86,3.085,2.879,0,1.891-1.335,2.7-3.085,2.7H25.64ZM20.405,40.6h6.629c4.224,0,7.232-2.716,7.232-6.985,0-5.3-3.7-7.415-8.538-7.415H20.405Z" transform="translate(45.094 57.897)" fill="#00572f"/><path d="M25.312,26.2h5.242v9.777h4.4V40.6H25.312Z" transform="translate(55.937 57.896)" fill="#00572f"/><path d="M34.025,26.2l1.6,3.759h.157c.151-.459.282-.912.475-1.358l1.037-2.4h5.881l-4.924,8.195v6.2H33.13v-6.2L28.106,26.2Z" transform="translate(62.113 57.897)" fill="#00572f"/><path d="M1.075,12.237H26.559V22.589H14.949v3.624h10.6v9.851h-10.6v3.72H26.96V50.14H1.075Z" transform="translate(2.376 27.043)" fill="#00572f"/><path d="M39.941,28.038c-2.205-2.061-4.972-3.823-8.089-3.823A7.423,7.423,0,0,0,24.36,31.6,7.573,7.573,0,0,0,32.055,39a10.975,10.975,0,0,0,7.887-3.521l-.4,14.172c-2.212,1.059-7.335,1.509-9.8,1.509a18.991,18.991,0,0,1-19.253-19.2A19.715,19.715,0,0,1,30.292,12.046a28.561,28.561,0,0,1,9.248,1.57Z" transform="translate(23.176 26.622)" fill="#00572f"/><path d="M41.723,24.513c4.369,0,7.078,3.367,7.078,7.392,0,4.324-2.908,7.29-7.078,7.29s-7.084-2.966-7.084-7.29c0-4.025,2.709-7.392,7.084-7.392m0-12.467c-11.511,0-20.964,7.746-20.964,19.658,0,12.166,9.4,19.455,20.964,19.455S62.674,43.869,62.674,31.7c0-11.912-9.44-19.658-20.951-19.658" transform="translate(45.876 26.622)" fill="#00572f"/><path d="M21.985,34.444l5.974,13.979h.584c.552-1.7,1.053-3.4,1.769-5.049l3.823-8.93h21.85L37.685,64.89V87.96H18.656V64.89L0,34.444Z" transform="translate(0 76.12)" fill="#004b9e"/><path d="M40.558,68.581l3.56-16.306h.7c.34,2.273.7,4.6,1.268,6.869l2.269,9.437ZM37.084,81.289h14.7l1.762,6.67H74.13L55.041,34.443h-21.5L14.923,87.959H35.531Z" transform="translate(32.979 76.118)" fill="#004b9e"/><path d="M42.607,34.444H62.617L70,62.56h.5a59.661,59.661,0,0,1,1.355-7.088L77.89,34.444h19.8L106.5,87.96H87.671l-2.613-29.3h-.353a40.526,40.526,0,0,1-1.3,5.329L75.679,87.96H64.341L57.379,65.324a35.523,35.523,0,0,1-1.194-6.661h-.658c-.132,2.128-.276,4.311-.5,6.446L52.75,87.96H33.943Z" transform="translate(75.012 76.12)" fill="#004b9e"/><path d="M82.688,68.581l3.557-16.306h.706c.376,2.273.716,4.6,1.29,6.869l2.253,9.437ZM79.231,81.289H93.91l1.775,6.67h20.576L97.171,34.443H75.687L57.076,87.959H77.661Z" transform="translate(126.135 76.118)" fill="#004b9e"/><path d="M74.958,34.444h40.9v17.4l-10.715-.51V87.96H85.692V51.338l-10.734.51Z" transform="translate(165.653 76.12)" fill="#004b9e"/><path d="M117.182,51.764c6.163,0,10.018,4.751,10.018,10.448,0,6.109-4.138,10.281-10.018,10.281-5.906,0-10.012-4.173-10.012-10.281,0-5.7,3.836-10.448,10.012-10.448m0-17.581c-16.249,0-29.586,10.936-29.586,27.734,0,17.189,13.273,27.471,29.586,27.471,16.345,0,29.6-10.281,29.6-27.471,0-16.8-13.331-27.734-29.6-27.734" transform="translate(193.582 75.544)" fill="#004b9e"/><path d="M115.058,34.444h20.024l7.373,28.116h.507a52.793,52.793,0,0,1,1.342-7.088l6.012-21.028h19.805l8.821,53.516H160.1l-2.587-29.3h-.372a43.169,43.169,0,0,1-1.278,5.329l-7.71,23.969H136.793l-6.956-22.636a36.981,36.981,0,0,1-1.229-6.661h-.636c-.148,2.128-.292,4.311-.514,6.446L125.214,87.96H106.388Z" transform="translate(235.111 76.12)" fill="#004b9e"/><rect width="19.462" height="53.516" transform="translate(420.736 110.563)" fill="#004b9e"/><path d="M103.586.274c-1.775,6.057,2.934,1.412,4.809,2.009C112.613-1.9,118.67,1.141,122.255.143c-.218,3.194-3.316,10.005-4.751,13.411,0,0-.722,3.046-.86,4.045-.119,1.027-1.868,3-1.868,3l-2.013,2.186-1.409,3.348s-.9,1.637-1.5,1.769-.777,1.92-.777,1.92l-1.538,3.059-2.167,2.147-.992,1.348L102.8,37.863l-.546,1.714-1.278.507-.472,1.47s-.828.857-1.409,1.518a5.776,5.776,0,0,0-.873,2.167l-2.327.806L95.279,48,93,49.855A2.945,2.945,0,0,0,91.719,52.2c.138,1.332-2.6,2.831-3.467,3.313-7.531,6.978-5.181,6.837-10.089,6.844l-1.111,2.369-1.165-.507-1.021.828L73.474,67.1s-2.045,1.133-2.5.774-1.894.645-1.894.645a5.54,5.54,0,0,1-1.428,1.518c-.664.379-1.123.022-2.241.581a4.869,4.869,0,0,1-2.7.2l-1.977.892-1.454.992-1.133.029-1.993-1.464a5.879,5.879,0,0,1-2.879.17l-1.7,1.207s-.684.376-1.355.751a2.356,2.356,0,0,1-1.409.238l-1.733.135L43.984,75.2s.607-1.958.921-2.927a13.139,13.139,0,0,0,.289-2.8l-.716-1.367c-.722-6.587.863-5.845,1.146-7.582l1.123-1.92.138-2.119,1.046-.86-.308-1.5,1.191-.469.17-1.406.77-1.627A5.328,5.328,0,0,0,50.4,48.6a11.479,11.479,0,0,0-.247-2.558l.735.157s.985-2.318,1.926-2.838a5.8,5.8,0,0,0,1.724-2.144l.526-1.692,2.744-3.011,1.868-1.772,3.136-2.565,1.916-2.825,1.056-.863,1.3-.806L69.8,23.944l2.449-2s.629-2.025,2.3-2.382c1.676-.379,1.83-2.5,2.151-3.512A8.792,8.792,0,0,1,78.5,13.563s1.3-.8,2.237-1.326,2.475-1.274,2.475-1.274a8.053,8.053,0,0,0,2.459-2c.571-.966,1.04-3.383,2.131-3.508,1.072-.135,1.993-1.374,3.178-1.846s2.972.331,4.083-.581a8.242,8.242,0,0,1,3.072-1.5l2.9-.116Z" transform="translate(97.202 0)" fill="#adc947"/><path d="M83.409,41.021C69.519,55.96,39.3,91.51,37.054,97.451l2.7,1.021c1.936-5.117,31.152-39.762,45.771-55.484C89.877,38.3,110.757,16.654,126.1,4.074L124.271,1.84C108.645,14.644,88.063,36,83.409,41.021" transform="translate(81.887 4.068)" fill="#00522e"/><path d="M44.9,6.238c-.3,4.407-2.257.212-3.637.151C39.5,2.624,34.8,3.157,32.676,1.632c-.626,2.147-.238,7.376-.112,9.964,0,0-.263,2.173-.433,2.863a6.653,6.653,0,0,0,.517,2.42l.8,1.923.119,2.545s.18,1.281.559,1.518c.363.234.048,1.454.048,1.454l.25,2.372.921,1.939.321,1.13.69,1.361L36.28,32.38l.735.642L36.958,34.1s.347.764.571,1.339a4.228,4.228,0,0,1,.051,1.631L38.9,38.161l-.058,1.432,1.043,1.772a2.039,2.039,0,0,1,.273,1.852c-.411.844,1.018,2.484,1.473,3.014,3.268,6.4,1.749,5.746,4.966,6.933l.164,1.826.9-.058.465.793.414,1.692s1.085,1.229,1.461,1.107,1.1.883,1.1.883a3.714,3.714,0,0,0,.568,1.342c.347.411.729.282,1.332.921a3.419,3.419,0,0,0,1.73.786L55.8,63.52l.716.992.735.3,1.66-.485a4.05,4.05,0,0,0,1.855.815l.815,1.2s.369.414.729.825a1.6,1.6,0,0,0,.851.491l1.1.517,1.695,1.688s.055-1.432.1-2.151a8.676,8.676,0,0,1,.481-1.907l.8-.725c2.07-4.147.847-4.045,1.085-5.258l-.263-1.534.414-1.422-.481-.815.562-.915-.664-.594.228-.969L68.1,52.323a3.762,3.762,0,0,1,.077-1.483,7.926,7.926,0,0,1,.777-1.627l-.526-.071a5.431,5.431,0,0,0-.571-2.33,3.969,3.969,0,0,1-.613-1.833L67.3,43.75,66.232,41.1,65.423,39.5,64,37.047l-.581-2.321-.485-.819-.658-.844-.883-3.11-1.136-1.91a2.526,2.526,0,0,0-.934-2.119c-1.008-.655-.594-2.086-.559-2.825a6.2,6.2,0,0,0-.581-2.08s-.664-.838-1.156-1.4-1.316-1.435-1.316-1.435a5.738,5.738,0,0,1-1.127-1.91c-.132-.764.125-2.472-.546-2.825-.69-.343-.985-1.374-1.65-1.968s-2.038-.507-2.545-1.371a5.627,5.627,0,0,0-1.656-1.73l-1.875-.774Z" transform="translate(70.954 3.608)" fill="#adc947"/><path d="M33.767,5.624c7.245,11.482,16.255,31.329,18.162,35.919l2.022,4.725,4.1,10.082,2.748-.905L56.6,45.119l-2-4.687C52.362,35.04,43.49,15.62,36.213,4.083Z" transform="translate(74.623 9.024)" fill="#00522e"/><path d="M1.073,61.115a3.443,3.443,0,0,0,2.934,1.692,11.863,11.863,0,0,0,2.911-.417,40.734,40.734,0,0,1-4.5,9.739,2.321,2.321,0,0,0-.465,1.38c0,.908.154,1.4.52,1.4.857,0,1.377-1.245,1.788-2.363,1.091-2.777,2.78-6.908,4.208-10.468a41.151,41.151,0,0,0,5.537-2.26.652.652,0,0,0,.3-.571c0-.311-.876-.542-1.711-.542a2.333,2.333,0,0,0-1.014.308,12.4,12.4,0,0,1-2.571,1.454,12.954,12.954,0,0,1,1.38-3.22,1.2,1.2,0,0,0,.311-.78.906.906,0,0,0-.311-.623,4.157,4.157,0,0,0-3.505-1.322l-.083.257c.934.571,1.326.809,1.326,2.468a12.29,12.29,0,0,1-.729,3.611,13.619,13.619,0,0,1-3.6.623,4.983,4.983,0,0,1-2.549-.623Zm9.713,7.977a5.593,5.593,0,0,0-.7,2.388,2.363,2.363,0,0,0,.777,1.769c1.329.96,3.354,1.4,6.157,1.4a13.57,13.57,0,0,0,3.486-.26c.209-.048.514-.205.514-.462,0-.472-1.769-1.3-2.414-1.3a20.546,20.546,0,0,1-3.3.494,7.945,7.945,0,0,1-3.065-.494,1.782,1.782,0,0,1-1.348-1.843,7.187,7.187,0,0,1,.231-1.531Zm1.3-5.377a32,32,0,0,1,4.231-.6c.372,0,.677.128.677.311a.412.412,0,0,1-.18.311,21.873,21.873,0,0,0-2,1.871l.18.132c1.926-.883,3.329-1.637,4.025-1.637a9.939,9.939,0,0,1,1.538.231.416.416,0,0,0,.437-.469c0-.883-1.843-1.842-3.659-1.842a10.5,10.5,0,0,0-5.348,1.454Z" transform="translate(2.371 120.485)" fill="#1a1311"/><path d="M16.948,54.35a3.709,3.709,0,0,1,2.388,1.534,2.738,2.738,0,0,1,.571,1.425c0,.857-.62.754-1.322,1.271-3.348,2.468-5.768,4.34-8.413,6.314-.263.183-.578.363-.578.677,0,.337.469.571.915.828,3.216,1.9,6.754,4.728,8.49,7.222a4.383,4.383,0,0,1,1.04,2.314,1.142,1.142,0,0,1-1.117,1.242c-.626,0-.725-.286-1.377-1.583a19.49,19.49,0,0,0-7.068-8.028C8.843,66.451,8.4,66.06,8.4,65.492a1.83,1.83,0,0,1,.934-1.4c2.985-2.205,6.256-4.963,7.611-6.86a2.728,2.728,0,0,0,.52-1.374,1.75,1.75,0,0,0-.677-1.249Z" transform="translate(18.57 120.111)" fill="#1a1311"/><path d="M17.36,54.727a2.989,2.989,0,0,1,1.117-.231c1.114,0,2.857.465,2.857.985A16.57,16.57,0,0,0,22.477,59.8a17.4,17.4,0,0,0,3.245-2.054,1.754,1.754,0,0,1,1.043-.337c.414,0,1.3.26,1.3.623,0,.157-.183.34-.315.469a30.261,30.261,0,0,1-4.7,2.545,18,18,0,0,0,2.629,4.208c1.3,1.451,1.894,1.92,1.894,3.114,0,.26-.132.494-.414.494-.729,0-2.761-1.92-5.977-1.92-3.329,0-5.139,1.945-5.139,3.74,0,1.5,1.422,3.114,4.33,3.114,1.589,0,2.834-.388,3.951-.388,1.14,0,2.363.52,2.363,1.351,0,.52-1.223.7-3.923.7-3.4,0-5.688-.414-6.879-1.451a4,4,0,0,1-1.428-2.963c0-2.7,2.257-4.908,6.256-4.908a18.927,18.927,0,0,1,3.926.491A35.768,35.768,0,0,1,21.7,61.689a13.429,13.429,0,0,1-4.966,1.22,4.463,4.463,0,0,1-3.274-1.894l.183-.16a7.627,7.627,0,0,0,2.908.783,12.053,12.053,0,0,0,4.52-1.3,29,29,0,0,0-1.942-4.186,3.562,3.562,0,0,0-1.769-1.114Z" transform="translate(29.746 120.434)" fill="#1a1311"/><path d="M26.167,54.54c2.34-.1,3.874,1.249,3.874,2.677,0,1.037-1.066,1.091-1.692,2a72.227,72.227,0,0,0-5.457,9.014l.058.048c3.274-2.879,4.571-3.608,6.125-3.608a2.767,2.767,0,0,1,2.992,2.468,8.635,8.635,0,0,1-.315,1.92,7.414,7.414,0,0,0-.337,1.9A1.814,1.814,0,0,0,33.29,73.01c2.488,0,4.33-1.82,6.593-6.054l.366.209c-1.249,4.571-3.868,7.791-7.328,7.791-2.491,0-3.374-1.351-3.374-3.037,0-1.637.777-3.014.777-4.157a1.745,1.745,0,0,0-1.894-1.842c-1.817,0-4.314,2.025-6.08,4.7-1.583,2.414-1.583,4.388-2.391,4.388-.52,0-.825-.963-.825-1.948,0-1.143.3-1.48.62-1.765.546-.469,1.04-1.22,2.289-3.768,1.265-2.6,2.282-4.882,3.611-7.062,1.265-2.054,1.711-3.175,1.711-3.9a1.825,1.825,0,0,0-1.223-1.74Z" transform="translate(42.285 120.519)" fill="#1a1311"/><path d="M36.463,72.8c4.494-.886,6.028-2.208,7.559-4.237a9.23,9.23,0,0,0,1.56-5.008,9.486,9.486,0,0,0-1.4-4.757c-1.454-2.157-4.288-2.908-6.34-2.908a10.618,10.618,0,0,0-1.4.1c.677,1.066,1.2,1.663,1.2,2.054s-.388.571-.52.985c-1.563,5.505-3.585,9.2-5.662,11.533a2.365,2.365,0,0,1-1.534.934,1.923,1.923,0,0,1-1.268-.491c-.915-.754-2.08-2.26-2.08-5.248,0-5.508,4.311-10.651,11.19-10.651,6.677,0,9.816,4.028,9.816,8.728,0,5.117-3.553,9.116-11.113,9.245Zm-5.4-14.233a9.546,9.546,0,0,0-2.86,6.388c0,2.546,1.274,4.054,2,4.054.912,0,1.952-1.12,3.065-3.688a35.838,35.838,0,0,0,2.5-7.765,2.211,2.211,0,0,0-.5-1.3,7.875,7.875,0,0,0-4.205,2.311" transform="translate(58.718 121.791)" fill="#1a1311"/><path d="M43.9,55.175H36.773V78.344H35.714V54.164H43.9Z" transform="translate(78.925 119.7)" fill="#1a1311"/><path d="M39.081,54.921a3.426,3.426,0,0,1,.809-.077c1.059,0,3.274.937,3.274,2.1,0,.52-.241.7-.372,1.066-.414,1.066-.982,3.091-.9,9.582.026,2.26.308,3.171.729,3.714.462.626,1.165,1.172,3.033,1.172,3.926,0,7.3-3.171,9.716-6.128l.234.205c-2.26,4.805-5.794,7.611-10.6,7.611-3.306,0-4.6-1.143-4.6-7.065,0-3.3.34-8.831.34-9.222a2.53,2.53,0,0,0-1.737-2.754Z" transform="translate(86.203 121.203)" fill="#1a1311"/><path d="M47.174,58.858a3.937,3.937,0,0,0,3.537,1.351,8.407,8.407,0,0,0,1.56-.154,12.36,12.36,0,0,0,.671-3.354,3.332,3.332,0,0,0-1.14-2.208l.074-.1c2.728.626,3.431,1.974,3.431,2.183,0,.337-.392.754-.671,1.22a7.086,7.086,0,0,0-.835,2.18,10.017,10.017,0,0,0,3.56-1.114,3.406,3.406,0,0,1,1.454-.52c.546,0,1.168.494,1.168.831,0,.494-.78.7-1.3.86a27.127,27.127,0,0,1-5.271,1.22,15.757,15.757,0,0,0-.652,3.143,10.857,10.857,0,0,1,3.351-.542,2.223,2.223,0,0,0-.08-1.223,2.784,2.784,0,0,1,1.669,1.14c2.18.34,5.37,1.611,5.37,5.483A6.34,6.34,0,0,1,59.7,74.831,12.351,12.351,0,0,1,53,76.314l.1-.234c4.52-.806,8.051-2.988,8.051-7.405,0-2.568-1.348-3.454-3.117-3.974a26.2,26.2,0,0,1-4.619,6.651c.18.78.568,1.117.568,1.82a.809.809,0,0,1-.7.854c-.677,0-1.011-.828-1.348-1.611-3.505,2.626-4.677,2.834-5.479,2.834-.886,0-1.38-1.483-1.38-2.545,0-2.648,2.074-6.314,6.208-7.9a33.643,33.643,0,0,1,.677-3.531,14.6,14.6,0,0,1-1.721.077c-1.114,0-2.85,0-3.271-2.494Zm-.382,12.573c0,1.037.382,1.714,1.268,1.714A5.627,5.627,0,0,0,51.54,71.2a16.848,16.848,0,0,1-.334-5.328c-3.717,2.029-4.414,4.526-4.414,5.563m5.762-4.574a11.064,11.064,0,0,0,.363,3.12A14.869,14.869,0,0,0,56.008,64.6a8.614,8.614,0,0,0-3.377.722,11.807,11.807,0,0,0-.077,1.534" transform="translate(99.613 120.2)" fill="#1a1311"/><path d="M56.365,54.408c1.194-.234,3.871.648,3.871,1.9,0,.52-.52.725-.652,1.817-.051.469-.157,1.3-.209,2.285.315-.205.52-.443.8-.443.34,0,2.058.783,2.058,1.329,0,.36-.363.491-1.123.722a11.989,11.989,0,0,0-2.282,3.326l.055.055c2.385-1.871,4.956-3.223,7.871-3.223a6.065,6.065,0,0,1,6.208,6,7.253,7.253,0,0,1-4.471,6.86A14.884,14.884,0,0,1,62.309,76.2l-.022-.308c3.765-.883,5.271-1.611,6.677-3.04a6.171,6.171,0,0,0,1.916-4.52c0-3.714-2.7-5.377-4.7-5.377-2.395,0-4.651,1.274-7.354,3.74a10.951,10.951,0,0,0-.106,1.586c0,1.04.083,3.22.183,5.168.026.494.08,1.168.08,1.56,0,1.165-.494,1.791-.96,1.791-.857,0-.443-1.091-1.454-2.311-.369-.443-1.12-1.377-1.483-1.9l.154-.234A10.589,10.589,0,0,0,56.939,73.5c.205,0,.279-.205.279-.6,0-1.428.183-4.025.135-4.754A56.065,56.065,0,0,0,53.428,73.5a.67.67,0,0,1-.571.286c-.388,0-.546-.337-.546-1.377,0-1.168.209-1.454.52-1.586.912-.36,1.018-.517,3.017-3.528a12.72,12.72,0,0,0,1.842-3.326c.051-.392.074-.7.1-1.3-1.165.623-2.257,1.3-3.319,1.769a1.991,1.991,0,0,1-.68.18,2.569,2.569,0,0,1-2.282-2.054l.257-.18a2.587,2.587,0,0,0,1.538.494,12.987,12.987,0,0,0,4.539-1.249c.058-.52.157-2.777.157-4.077a2.819,2.819,0,0,0-1.634-2.831Z" transform="translate(113.83 120.156)" fill="#1a1311"/><path d="M59.28,63.723a4.924,4.924,0,0,0,2.237.908,23.293,23.293,0,0,0,4.8-1.326c0-4.465,0-4.857-1.923-5.82l-.051-.308a4.582,4.582,0,0,1,.6-.055c1.8,0,3.791,1.377,3.791,2.08,0,.257-.18.462-.356.985a11.243,11.243,0,0,0-.337,2.6c2.594-.725,4.8-1.271,6.824-1.66.026-.652.083-1.509.083-2.391,0-2.131-.42-2.857-1.82-3.64l-.022-.279c.331,0,.488-.029.671-.029,1.22,0,3.454.934,3.454,1.74a1.392,1.392,0,0,1-.308.7c-.337.568-.395,1.428-.52,3.611,1.271-.183,3.091-.677,3.531-.677.831,0,2.651.546,2.651,1.2,0,.257-.263.52-.777.52-.372,0-1.2-.132-1.721-.132a23.36,23.36,0,0,0-3.743.437c-.231,4.523-.546,7.171-1.759,7.171-.523,0-.6-.286-.809-.985-.257-.937-.465-1.037-2.465-2.077l.074-.26a9.529,9.529,0,0,0,2.34.465c.414,0,.7-.231.777-.857a23.984,23.984,0,0,0,.289-3.274,36.656,36.656,0,0,0-6.808,1.663c-.074,1.172-.151,2.52-.151,4.677,0,2.883.645,4.054,3.143,4.054,1.817,0,5.659-.652,6.179-.652.623,0,1.794.34,1.794.985,0,.469-.238.6-.414.652-.289.1-4.94.311-5.848.311-5.348,0-6.388-1.014-6.388-5.505,0-.937.074-2.549.074-3.948-1.92.52-3.422,1.871-4.308,1.871-1.38,0-2.388-1.534-2.908-2.6Z" transform="translate(130.729 121.077)" fill="#1a1311"/><path d="M68.08,58.953a4.7,4.7,0,0,0,2.725,1.274,8.932,8.932,0,0,0,2.809-.7,6.249,6.249,0,0,0,.754-2.44c0-1.586-.677-2.029-1.149-2.289l.215-.308c1.842.048,3.165,1.425,3.165,2.022a.961.961,0,0,1-.311.729,3.539,3.539,0,0,0-.985,1.714c1.48-.392,2.131-1.143,2.8-1.143.7,0,1.56.6,1.56.937,0,.18-.18.334-.725.546-1.066.414-2.886,1.034-4.523,1.5-.594,1.069-4.231,10.548-6.105,11.482a.955.955,0,0,1-.414.132c-.3,0-.488-.52-.488-1.534a2.04,2.04,0,0,1,.52-1.037,36.035,36.035,0,0,0,5.117-8.7,8.666,8.666,0,0,1-2.314.443,2.834,2.834,0,0,1-2.883-2.443Zm11.479,1.92a6.291,6.291,0,0,1,1.9-.308c1.454,0,5.322.8,5.322,2.234,0,.311-.183.542-.677.542a14.9,14.9,0,0,0-2.462-.44,3.366,3.366,0,0,0-2.523.806,2.668,2.668,0,0,0-.809,2c0,.831.215.751.941,4.831a9.271,9.271,0,0,1,3.977,2.077,1.569,1.569,0,0,1,.546,1.249c0,.337-.109.777-.6.777-.725,0-2.645-2.025-3.736-2.257.282,2.388-1.2,3.248-4.626,3.248a5.877,5.877,0,0,1-3.945-1.066,2.141,2.141,0,0,1-.6-1.483c0-1.791,1.611-3.065,5.171-3.065.857,0,1.428.026,2.125.077a11.586,11.586,0,0,0-.671-2.751,2.778,2.778,0,0,1-.106-.857c0-2.443,1.528-3.817,4.545-4.234-.52-.546-.886-.754-3.768-1.143ZM76.888,71.029c-2.157,0-2.86.546-3.354,1.12a.943.943,0,0,0-.205.594c0,1.014.908,1.406,3.2,1.406,2.568,0,3.091-.626,3.091-2.054a2.032,2.032,0,0,0-.058-.571,5.572,5.572,0,0,0-2.671-.494" transform="translate(148.97 120.416)" fill="#1a1311"/><path d="M80.191,55.457H92.706l1.04-.908c.083-.08.157-.183.257-.183s.189.1.263.183l1.454,1.531a.517.517,0,0,1,.209.34c0,.154-.157.286-1.043.854-.645,5.274.058,12.339,1.355,14.962.183.366.491,1.117.86,1.117.414,0,.546-.648.594-.963.1-.7.523-2.934.623-3.788h.315c.048,1.477-.234,2.96-.234,4.414a13.574,13.574,0,0,0,.1,2.311,3.411,3.411,0,0,1,.157.7c0,.417,0,.963-.568.963-.985,0-2.051-1.38-2.545-2.054-3.3-4.6-2.8-13.4-2.546-18.858H79.928l-.048,7.871c-.026,5.9-1.563,10.493-5.743,13.482l-.183-.311c3.171-3.454,3.9-6.834,3.9-11.456v-11.2Zm8.827,7.559.934-.963c.083-.051.157-.154.266-.154s.18.1.231.154l1.2,1.3a.54.54,0,0,1,.177.334c0,.154-.1.286-.517.626v4.494c0,.571-.751.931-1.329.931-.363,0-.546-.18-.546-.44v-.6H87.41v4.468c1.088-.183,2.18-.311,3.245-.52a4.731,4.731,0,0,0-1.48-1.9l.183-.1c1.454.209,3.743,2.777,3.743,4.183a.84.84,0,0,1-.783.88c-.571,0-.754-.491-.88-.934a15.671,15.671,0,0,0-.6-1.74l-9.405,2.777c-.048.6-.18.886-.488.886-.263,0-.414-.443-.494-.648l-.8-2.208a38.953,38.953,0,0,0,6-.417V68.7H83.465v.831c0,.494-.729.857-1.271.857-.366,0-.523-.106-.523-.465V62.054l2.025.963h1.952V60a30.072,30.072,0,0,1-4.34.183v-.311a19.1,19.1,0,0,0,7.868-2.549l1.637,1.3a.687.687,0,0,1,.257.443c0,.308-.337.231-1.265,0-.809.132-1.611.363-2.395.568v3.38Zm-3.37.623H83.465v4.443h2.183Zm1.762,4.439h2.025V63.636H87.41Z" transform="translate(163.434 120.147)" fill="#1a1311"/><path d="M89.52,55.317h9.768l1.034-.908c.132-.1.289-.234.4-.234s.231.106.388.26l.851.908a.644.644,0,0,1,.238.363c0,.132-.048.286-.783.783v4.436a1.125,1.125,0,0,1-1.265,1.066c-.34,0-.5-.151-.5-.465V60.8h-4.52v2.517h7.248l1.165-1.322c.132-.128.241-.311.366-.311.157,0,.289.183.421.311l1.422,1.322a.543.543,0,0,1,.212.369.27.27,0,0,1-.289.26H82.612l-.257-.629H93.42V60.8H88.926v.337c0,.52-.414.963-1.322.963-.34,0-.523-.154-.523-.469v-7.5Zm1.743,17.764a.654.654,0,0,1,.308.523c0,.18-.183.337-1.143.205a20.8,20.8,0,0,1-7.973,4.157l-.1-.209a17.915,17.915,0,0,0,7.165-5.816ZM89.52,66.2h9.588l1.008-.937a.714.714,0,0,1,.472-.257c.132,0,.279.128.443.334l.645.758a.746.746,0,0,1,.209.414c0,.18-.157.311-.854.78v3.168A1.147,1.147,0,0,1,99.859,71.5c-.388,0-.571-.154-.571-.388v-.44H95.131v5.659c0,1.351-.568,2.08-2.568,1.9.022-.623,0-1.143-.677-1.428-.623-.26-2.26-.7-2.677-.806v-.183c1.088.08,2.029.212,3.12.26l.44.029c.571.026.571-.234.571-.751V70.67H89.208V70.9c0,.337-.517.7-1.3.7a.463.463,0,0,1-.514-.52V65.008ZM99.65,55.943H88.923v1.791H99.65Zm0,2.414H88.923v1.817H99.65ZM89.208,70.044H99.291v-3.22H89.208Zm8.237,1.9c1.531.571,6.15,2.285,6.15,4.728a.825.825,0,0,1-.876.78c-1.274,0-2.083-3.534-5.537-5.3Z" transform="translate(182 119.61)" fill="#1a1311"/><path d="M90.421,77.314h7.142V54.148H98.6V78.354H90.421Z" transform="translate(199.825 119.664)" fill="#1a1311"/><path d="M101.723,54.2a4.61,4.61,0,0,1,2.054.777,2.458,2.458,0,0,1,.934,1.695.716.716,0,0,1-.315.62,23.425,23.425,0,0,0-1.685,2.337l.048.051c2-.546,2.908-1.66,4.231-1.66.729,0,1.538.392,1.538.777,0,.677-.62.857-1.711,1.172a45.452,45.452,0,0,1-4.86,1.249c-1.637,2.462-1.875,2.751-2.777,4.1l.051.055a6.41,6.41,0,0,1,3.428-1.351,2.694,2.694,0,0,1,2.645,1.271,4.164,4.164,0,0,1,.34,1.974,22.893,22.893,0,0,1,4.494-1.634c.414-.08.6-.209.6-.5a1.059,1.059,0,0,0-.289-.62l.132-.289c1.271.186,2.831,1.018,2.831,1.974,0,.34-.363.571-.7.6a11.122,11.122,0,0,0-3.537.648l-1.762.469-1.685.542c0,1.117.074,1.769.074,2.545,0,2.029-.238,2.626-1.04,2.626-.546,0-.777-.7-.777-1.871,0-.7.077-1.4.077-2.623-1.194.494-4.414,1.868-4.414,4.106,0,1.557,1.345,2.465,4.494,2.465,2.1,0,4.125-.491,4.805-.491.722,0,1.477.465,1.477,1.091a.693.693,0,0,1-.52.7c-1.143,0-2.879.26-4.414.26a9.957,9.957,0,0,1-5.065-.934,3.521,3.521,0,0,1-1.737-3.017c0-2.128,1.916-3.711,5.373-5.377.055-1.66-.234-2.934-2-2.934-1.371,0-2.671.648-4.677,3.585-.62.934-.8,1.765-1.323,1.765-.462,0-.619-.52-.619-1.22,0-1.088.132-1.326,1.737-3.117a21.648,21.648,0,0,0,3.014-4.465,6.22,6.22,0,0,1-2.131.385,2.762,2.762,0,0,1-2.488-2.26l.308-.128a2.935,2.935,0,0,0,2.388,1.066,12.025,12.025,0,0,0,2.626-.392,10.879,10.879,0,0,0,1.48-4.337,1.733,1.733,0,0,0-.777-1.457Z" transform="translate(210.912 119.771)" fill="#1a1311"/><path d="M102.023,58.26a4.559,4.559,0,0,0,2.157.86c1.974,0,8.057-3.508,12.756-3.508,5.325,0,7.168,3.508,7.168,6.157,0,6.23-8.256,9.27-14.207,9.091l-.08-.26a21.655,21.655,0,0,0,7.816-2.754c2.783-1.688,4.263-3.9,4.263-6.311a4.655,4.655,0,0,0-4.988-4.857A19.124,19.124,0,0,0,107.428,60a3.955,3.955,0,0,1-2.131.937,4.975,4.975,0,0,1-3.425-2.491Z" transform="translate(225.131 122.9)" fill="#1a1311"/><path d="M118.759,54.35a3.709,3.709,0,0,1,2.388,1.534,2.738,2.738,0,0,1,.571,1.425c0,.857-.62.754-1.322,1.271-3.348,2.468-5.768,4.34-8.413,6.314-.263.183-.578.363-.578.677,0,.337.469.571.908.828,3.223,1.9,6.76,4.728,8.5,7.222a4.382,4.382,0,0,1,1.04,2.314,1.145,1.145,0,0,1-1.117,1.242c-.626,0-.725-.286-1.377-1.583a19.49,19.49,0,0,0-7.068-8.028c-1.634-1.117-2.074-1.509-2.074-2.077a1.83,1.83,0,0,1,.934-1.4c2.992-2.205,6.263-4.963,7.611-6.86a2.728,2.728,0,0,0,.52-1.374,1.75,1.75,0,0,0-.677-1.249Z" transform="translate(243.566 120.111)" fill="#1a1311"/><path d="M115.754,54.681a4.09,4.09,0,0,1,1.14,2.7,22.771,22.771,0,0,1-.725,3.4,21.786,21.786,0,0,0-.751,5.3c0,3.194,1.114,5.611,2.074,5.611,1.38,0,.421-2.054,1.091-5.091,1.066-4.728,3.9-8.156,5.662-8.156.806,0,1.608.854,1.948,1.74a14.818,14.818,0,0,1,.777,5.454c0,6.237-2.908,9.611-7.033,11.094l.048.311a10.019,10.019,0,0,0,7.091-4.288c1.223-1.688,1.952-5.142,1.952-7.945,0-5.768-2.314-7.585-4.263-7.585-1.663,0-3.037,1.066-4.78,3.9-2.205,3.608-2.468,6.831-3.065,6.831-.257,0-.363-.652-.363-1.351a14.421,14.421,0,0,1,1.3-6.105c.629-1.428,1.274-2.414,1.274-3.271,0-1.172-1.711-2.52-3.191-2.78Z" transform="translate(255.065 120.326)" fill="#1a1311"/><path d="M127.187,54.647a2.284,2.284,0,0,1,1.011-.209c1.611,0,3.38,1.505,3.38,2.263,0,.674-.912,1.611-.966,3.091a20.143,20.143,0,0,0,3.2-.677c.645-.183,1.066-.523,1.528-.523.523,0,1.794.183,1.794.915,0,.334-.331.594-1.091.648a53.3,53.3,0,0,0-5.527.751,32.637,32.637,0,0,0-.157,3.714c1.371-.26,3.223-1.271,4.205-1.271.652,0,1.505.286,1.505.751,0,1.014-2.751,1.509-5.637,1.952a34.971,34.971,0,0,0,.238,3.9c1.688.414,4.465,1.14,6.1,2.568a1.343,1.343,0,0,1,.469,1.091c0,.6-.311.831-.751.831-.7,0-2.754-1.842-5.585-2.908.074.908.132,1.322.132,1.66,0,1.74-1.586,2.626-4.157,2.626-3.043,0-5.354-1.014-5.354-2.78,0-1.923,2.263-3.348,5.768-3.348.751,0,1.377,0,1.923.051A31.2,31.2,0,0,1,129,66.257a20.38,20.38,0,0,1-3.216.286c-2.626,0-3.794-.831-3.794-1.663a1.119,1.119,0,0,1,.571-.934l.289.051c-.058,1.117,1.322,1.274,2.854,1.274a14.684,14.684,0,0,0,3.2-.34c0-.831.074-3.22.1-3.894-1.945.231-3.993.934-5.142.934-1.271,0-2.231-.443-3.271-2.208l.231-.209A3.487,3.487,0,0,0,123.6,60.62a27.76,27.76,0,0,0,5.431-.6c0-.729.074-1.868.074-2.52a2.569,2.569,0,0,0-1.92-2.44ZM126.3,70.831c-2.6,0-3.717.854-3.717,1.814,0,.915.783,1.74,3.454,1.74,1.663,0,3.123-.62,3.123-1.971,0-.363-.032-.937,0-1.326a12.3,12.3,0,0,0-2.86-.257" transform="translate(266.49 120.306)" fill="#1a1311"/><path d="M126.9,60.452a4.77,4.77,0,0,0,3.066,1.249c1.191,0,3.248-.6,8.413-1.2a18.239,18.239,0,0,0-.388-4.548,3.562,3.562,0,0,0-1.948-1.268l.106-.366a6.862,6.862,0,0,1,1.117-.077c1.428,0,3.608,1.3,3.608,2.08,0,.417-.494,1.037-.674,1.608a8.237,8.237,0,0,0-.315,2.363,53.677,53.677,0,0,0,5.428-.62,8.562,8.562,0,0,1,1.586-.414c.835,0,2.6,1.268,2.6,1.66,0,.234-.231.52-.828.52-.546,0-2.311-.337-5.354-.337a17.6,17.6,0,0,0-3.428.231c-.077,2.366,0,3.065.337,3.586a5.281,5.281,0,0,1,.7,3.194c0,2.311-.52,5.483-1.974,7.3a7.57,7.57,0,0,1-5.117,2.674v-.311c3.38-1.817,5.04-3.788,5.017-7.713h-.058a2.422,2.422,0,0,1-2.231,1.4c-1.04,0-2.5-1.22-2.5-4.106,0-1.714,1.2-3.711,2.94-3.711a3.534,3.534,0,0,1,1.451.231c.022-.751-.026-1.611-.077-2.388a25.249,25.249,0,0,0-6.6,1.348,8.251,8.251,0,0,1-2.411.86,3.7,3.7,0,0,1-2.7-3.2Zm11.768,6.933c0-1.817-.494-2.8-1.586-2.8-.886,0-1.538,1.14-1.538,2.86,0,1.5.578,2.436,1.586,2.436.835,0,1.538-.883,1.538-2.494" transform="translate(279.922 119.877)" fill="#1a1311"/><path d="M138.4,59.424a3.35,3.35,0,1,1-3.348,3.351,3.363,3.363,0,0,1,3.348-3.351m0,5.974a2.624,2.624,0,1,0-2.619-2.623A2.612,2.612,0,0,0,138.4,65.4" transform="translate(298.448 131.325)" fill="#1a1311"/></g></g></g></g></svg>