<svg xmlns="http://www.w3.org/2000/svg" viewBox="0 0 446.121 63.77"><defs><style>.a{fill:#221f1f}.c{fill:#7dd3f6}</style></defs><path class="a" d="M402.752 32.45V20.188h-4.67v7.6a1.747 1.747 0 0 1-1.706 1.743h-15.272a1.746 1.746 0 0 1-1.705-1.742v-7.6h-4.67V32.45a1.752 1.752 0 0 0 1.75 1.75h9.998v9.342h4.671V34.2h9.853a1.752 1.752 0 0 0 1.751-1.75M175.497 20.189h4.671v23.354h-4.671zM270.782 20.16h-5.137l-4.674 9.37h-11.792a1.75 1.75 0 0 1-1.75-1.751v-7.59h-4.67v23.353h4.67v-7.59a1.752 1.752 0 0 1 1.75-1.751h11.794l4.672 9.34h5.137l-5.84-11.675 5.84-11.705M286.126 20.189v23.353h28.023V20.188Zm6.421 18.682a1.752 1.752 0 0 1-1.752-1.752V26.611a1.752 1.752 0 0 1 1.752-1.75h15.18a1.752 1.752 0 0 1 1.752 1.75v10.508a1.752 1.752 0 0 1-1.752 1.752ZM153.615 20.189v7.59a1.752 1.752 0 0 1-1.752 1.752h-15.18a1.75 1.75 0 0 1-1.75-1.752v-7.59h-4.673v23.353h4.673v-7.59a1.751 1.751 0 0 1 1.75-1.751h15.18a1.752 1.752 0 0 1 1.752 1.752v7.589h4.67V20.188h-4.67M113.049 41.79V31.28a1.751 1.751 0 0 0-1.75-1.75H91.448a1.752 1.752 0 0 1-1.752-1.752v-1.167a1.75 1.75 0 0 1 1.75-1.751h21.603v-4.671H86.776a1.753 1.753 0 0 0-1.75 1.752V32.45a1.752 1.752 0 0 0 1.751 1.75h19.853a1.752 1.752 0 0 1 1.748 1.753v1.166a1.75 1.75 0 0 1-1.752 1.751l-21.6.001v4.67h26.273a1.75 1.75 0 0 0 1.75-1.75M359.384 41.79V31.28a1.751 1.751 0 0 0-1.751-1.75h-19.85a1.75 1.75 0 0 1-1.75-1.752v-1.167a1.75 1.75 0 0 1 1.75-1.75h21.601v-4.672h-26.272a1.752 1.752 0 0 0-1.75 1.752V32.45a1.752 1.752 0 0 0 1.751 1.75h19.853a1.752 1.752 0 0 1 1.749 1.753v1.166a1.75 1.75 0 0 1-1.752 1.751l-21.602.001v4.67h26.273a1.75 1.75 0 0 0 1.75-1.75M444.368 20.189h-24.521a1.753 1.753 0 0 0-1.75 1.752v21.6h4.67v-7.005h18.682v7.006h4.672V21.94a1.754 1.754 0 0 0-1.753-1.752m-2.919 11.678h-18.681V26.61a1.75 1.75 0 0 1 1.75-1.75h15.18a1.75 1.75 0 0 1 1.752 1.75ZM225.545 41.79V20.19h-4.67v18.164L204.53 20.188h-5.256a1.752 1.752 0 0 0-1.751 1.753v21.6h4.67V25.38l16.348 18.163h5.255a1.751 1.751 0 0 0 1.75-1.751"/><path d="M42.03 39.276 25.12 21.112h.001a9.566 9.566 0 1 1 15.798-3.65 16.648 16.648 0 0 1 5.267-2 14.347 14.347 0 1 0-24.446 9.032l.204-.204-.204.204 16.909 18.163a9.566 9.566 0 1 1-15.8 3.653 16.65 16.65 0 0 1-5.264 2 14.347 14.347 0 1 0 24.446-9.034" style="fill:red"/><path class="c" d="M21.112 38.648A9.566 9.566 0 1 1 17.46 22.85a16.646 16.646 0 0 1-1.999-5.267 14.347 14.347 0 1 0 9.034 24.448l5.562-5.178-3.256-3.5-5.688 5.295M59.566 21.739a14.348 14.348 0 0 0-20.29 0l.206.205-.207-.204-5.562 5.177 3.257 3.5 5.687-5.297a9.566 9.566 0 1 1 3.651 15.8 16.645 16.645 0 0 1 2.002 5.265A14.344 14.344 0 0 0 59.566 21.74"/></svg>