<svg xmlns="http://www.w3.org/2000/svg" viewBox="0 0 188 35"><defs><style>.a{fill:#221f1f}.c{fill:#7dd3f6}</style></defs><path class="a" d="M116.943 13.81v14.119h-2.375v-9.895a18.162 18.162 0 0 1-1.561 2.259l-.862-2.71a25.302 25.302 0 0 0 4.187-10.075l2.242.406a27.48 27.48 0 0 1-1.631 5.896m1.585-.383v-2.034h15.162v2.034Zm3.28 13.598v.904h-2.375v-6.777h13.193v6.776h-2.445v-.904Zm-2.148-10.391v-1.921h12.74v1.92Zm0 3.207v-1.896h12.74v1.896Zm.294-9.713V8.162h12.537v1.966Zm10.227 14.976v-2.032h-8.373v2.032ZM152.177 22.463a29.625 29.625 0 0 0 8.124 3.093l-.723 2.146A27.765 27.765 0 0 1 150.32 24a27.752 27.752 0 0 1-9.256 3.704l-.723-2.147a29.626 29.626 0 0 0 8.124-3.093 16.673 16.673 0 0 1-3.371-4.903l2.104-1.084a14.936 14.936 0 0 0 3.122 4.562 14.913 14.913 0 0 0 3.123-4.562l2.15.972a16.607 16.607 0 0 1-3.417 5.015m6.382-4.067a55.891 55.891 0 0 0-6.653-5.331l.949-1.22h-5.453l1.2 1.062a20.466 20.466 0 0 1-6.88 5.511l-1.086-1.874a21.76 21.76 0 0 0 6.064-4.7h-6.11V9.744h8.486v-2.71h2.49v2.71h8.486v2.102h-5.997a50.297 50.297 0 0 1 5.975 4.88ZM172.724 10.986h3.056v2.147a19.307 19.307 0 0 1-2.014 3.727q2.4 2.328 3.688 3.75l-1.582 1.535q-1.427-1.626-3.192-3.343v9.126h-2.399v-7.477a15.778 15.778 0 0 1-3.032 2.102l-.589-2.508a14.985 14.985 0 0 0 6.517-6.912h-5.883v-2.146h3.055V7.598h2.375v3.387m10.91 14.053H188v2.166h-12.446v-2.166h5.657V14.26h-4.752v-2.1h4.752V7.778h2.422v4.383h4.028v2.1h-4.028ZM59.769 20.896v1.263h-3.12a9.672 9.672 0 0 0 3.313 3.762l-.59 1.26a10.917 10.917 0 0 1-3.135-3.403v4.146h-1.445V23.82a12.734 12.734 0 0 1-3.685 3.361l-.578-1.274a10.964 10.964 0 0 0 3.96-3.748h-2.79l.371.823-1.1.755-.385-.96q-.331-.823-.496-1.223v6.37h-1.375v-5.532a13.342 13.342 0 0 1-1.142 2.705l-.824-1.36a15.912 15.912 0 0 0 1.719-4.667h-1.402v-1.235h1.65v-2.264h1.374v2.264h1.513v.81a14.032 14.032 0 0 0 .922-2.951l1.304.206q-.094.548-.274 1.249h1.238V15.57h1.445v1.578h3.162v1.235h-3.162v2.512h3.532m-7.63-.384-1.183-.618q.262-.454.44-.824h-1.142q.29.591.866 1.826h3.672v-2.512H53.17a12.268 12.268 0 0 1-1.032 2.128ZM71.223 16.257l.717-1.031a22.4 22.4 0 0 1 2.35 1.456l-.564.782h.935V18.7h-3.63q.111 1.495.337 2.785a19.052 19.052 0 0 0 .467 2.093 11.727 11.727 0 0 0 .501 1.387 4.332 4.332 0 0 0 .448.824c.122.16.222.24.294.24q.427 0 .662-2.334l1.333.466a7.06 7.06 0 0 1-.64 2.747q-.488.878-1.147.877a1.588 1.588 0 0 1-.854-.267 3.308 3.308 0 0 1-.885-.942 7.891 7.891 0 0 1-.84-1.673 15.504 15.504 0 0 1-.673-2.608 32.35 32.35 0 0 1-.433-3.595h-7.177v-1.237h7.123q-.043-.975-.042-2.03h1.403q0 .768.054 2.03h2.255q-.95-.63-1.994-1.207m-1.237 9.787a44.048 44.048 0 0 1-7.027 1.413l-.205-1.25q1.69-.232 2.655-.383v-4.325h-2.297v-1.194h6.118V21.5h-2.338v4.051q1.678-.33 2.86-.673ZM87.587 19.537v1.042h-7.839v-1.042q-1.06.66-1.95 1.139l-.62-1.222a28.795 28.795 0 0 0 5.582-3.912h1.814a28.761 28.761 0 0 0 5.584 3.912l-.62 1.222q-.892-.48-1.952-1.139m-.15 3.953q1.087 1.854 2.2 3.98l-1.279.563c-.064-.12-.172-.322-.324-.611l-.35-.666a91.26 91.26 0 0 1-9.446.824l-.068-1.235q1.304-.056 1.937-.096.84-1.604 1.43-3.062h-3.712v-1.235h11.689v1.235H83.09q-.577 1.47-1.335 2.953 2.587-.18 5.309-.522a92.17 92.17 0 0 0-.881-1.565Zm-.097-4.104a26.143 26.143 0 0 1-3.67-2.882 26.226 26.226 0 0 1-3.673 2.882ZM95.906 17.63h1.856v1.303a11.72 11.72 0 0 1-1.224 2.264q1.457 1.415 2.242 2.28l-.964.934q-.865-.99-1.937-2.032v5.545H94.42V23.38a9.486 9.486 0 0 1-1.842 1.277l-.358-1.524a9.114 9.114 0 0 0 3.962-4.2h-3.576v-1.304h1.856v-2.058h1.444v2.058m6.629 8.537h2.653v1.318h-7.564v-1.318h3.438V19.62h-2.887v-1.277h2.887V15.68h1.472v2.663h2.446v1.277h-2.446Z"/><path d="m23.108 21.555-9.296-9.967v-.001a5.255 5.255 0 1 1 8.685-2.005 9.155 9.155 0 0 1 2.896-1.099 7.884 7.884 0 1 0-13.44 4.96l.112-.112-.113.112 9.298 9.97a5.255 5.255 0 1 1-8.688 2.004 9.195 9.195 0 0 1-2.895 1.097 7.884 7.884 0 1 0 13.441-4.959" style="fill:red"/><path class="c" d="M11.606 21.212a5.254 5.254 0 1 1-2.007-8.672A9.15 9.15 0 0 1 8.5 9.65a7.878 7.878 0 1 0 4.967 13.418l3.057-2.843-1.789-1.92-3.129 2.906M32.75 11.931a7.897 7.897 0 0 0-11.156 0l.113.113-.113-.113-3.058 2.842 1.79 1.92 3.128-2.906a5.255 5.255 0 1 1 2.007 8.67 9.126 9.126 0 0 1 1.1 2.891 7.874 7.874 0 0 0 6.19-13.418"/></svg>