<svg xmlns="http://www.w3.org/2000/svg" width="12.431" height="93.936" viewBox="0 0 12.431 93.936"><path d="M29,6.667H-2.929L6.722-.791,7.945.791,2.929,4.667H29Z" transform="translate(11.64 2.929) rotate(90)" fill="#052f4b"/><path d="M-23.849,0h1.582V-5.278h1.246c1.848,0,2.786-1.12,2.786-2.926,0-1.974-.77-3.136-2.8-3.136h-2.814Zm1.582-6.412v-3.794h.742c1.582,0,1.792.406,1.792,2.016,0,1.4-.448,1.778-1.806,1.778ZM-18.277,0h1.484l.546-2.856h2.31L-13.419,0h1.5l-2.422-11.34h-1.526Zm2.24-3.99L-15.1-9.1l.952,5.11ZM-8.127.14A1.985,1.985,0,0,0-6.111-1.3L-5.957,0h.994V-5.614h-2.87v1.12h1.442v.784c0,1.708-.308,2.59-1.54,2.59s-1.526-.8-1.526-2.436v-4.2c0-1.4.084-2.45,1.484-2.45,1.274,0,1.442.672,1.442,2.142v.35h1.484v-.42c0-2.24-.826-3.3-2.954-3.3-2.394,0-3.038,1.442-3.038,3.92v3.794C-11.039-1.274-10.255.14-8.127.14ZM-3.339,0H1.085V-1.134H-1.757V-5.292H.525v-1.12H-1.757v-3.752H1.057V-11.34h-4.4ZM6.811,0H8.393V-10.164h1.862V-11.34H4.893v1.176H6.811Zm7.434.126c2.282,0,3.094-1.442,3.094-3.668V-7.854c0-2.226-.812-3.584-3.094-3.584s-3.108,1.344-3.108,3.584v4.3C11.137-1.3,11.935.126,14.245.126Zm0-1.246c-1.274,0-1.512-.826-1.512-2.086v-4.97c0-1.26.238-2.03,1.512-2.03s1.5.77,1.5,2.03v4.97C15.743-1.946,15.5-1.12,14.245-1.12ZM18.893,0h1.582V-5.278h1.246c1.848,0,2.786-1.12,2.786-2.926,0-1.974-.77-3.136-2.8-3.136H18.893Zm1.582-6.412v-3.794h.742c1.582,0,1.792.406,1.792,2.016,0,1.4-.448,1.778-1.806,1.778Z" transform="translate(0.14 69.429) rotate(90)" fill="#052f4b"/></svg>