<svg xmlns="http://www.w3.org/2000/svg" xmlns:xlink="http://www.w3.org/1999/xlink" width="23.5" height="15.69" viewBox="0 0 23.5 15.69"><defs><clipPath id="a"><rect width="23.5" height="15.69" fill="#215678"/></clipPath></defs><g clip-path="url(#a)"><path d="M22.2,0H1.3A1.3,1.3,0,0,0,0,1.3V14.39a1.3,1.3,0,0,0,1.3,1.3H22.2a1.3,1.3,0,0,0,1.3-1.3V1.3A1.3,1.3,0,0,0,22.2,0M20.382,13.257a.428.428,0,0,1-.606,0L14.895,8.375l-1.668,1.668a2.2,2.2,0,0,1-3.105,0L8.529,8.451,3.724,13.257a.428.428,0,0,1-.606-.606L7.923,7.845,3.118,3.04a.428.428,0,0,1,.606-.606l7,7a1.34,1.34,0,0,0,1.893,0l7-7a.428.428,0,1,1,.606.606L15.5,7.769l4.881,4.881a.428.428,0,0,1,0,.606" fill="#215678"/></g></svg>