<svg xmlns="http://www.w3.org/2000/svg" width="50" height="50" viewBox="0 0 50 50"><g transform="translate(-552 -2413)"><circle cx="25" cy="25" r="25" transform="translate(552 2413)" fill="#215678"/><g transform="translate(-21 -294)"><path d="M-12.018,0h1.1l.108-7.056L-9.174,0h.768l1.644-7.056L-6.654,0h1.092l-.18-9.72h-1.32L-8.79-1.836-10.506-9.72h-1.332ZM-1.59.108c1.956,0,2.652-1.236,2.652-3.144v-3.7C1.062-8.64.366-9.8-1.59-9.8S-4.254-8.652-4.254-6.732v3.684C-4.254-1.116-3.57.108-1.59.108Zm0-1.068c-1.092,0-1.3-.708-1.3-1.788v-4.26c0-1.08.2-1.74,1.3-1.74s1.284.66,1.284,1.74v4.26C-.306-1.668-.51-.96-1.59-.96ZM2.394,0H3.75V-4.56H4.806L6.078,0H7.386L6.006-4.872C6.87-5.16,7.206-6,7.206-7.14c0-1.848-.912-2.58-2.856-2.58H2.394ZM3.75-5.532V-8.748h.6C5.586-8.748,5.9-8.28,5.9-7.14c0,1.248-.492,1.608-1.632,1.608ZM8.622,0h3.792V-.972H9.978V-4.536h1.956V-5.5H9.978V-8.712H12.39V-9.72H8.622Z" transform="translate(596 2735)" fill="#fff"/><path d="M208.788,2130H177v-1h28.859l-4.233-3.271.611-.792Z" transform="translate(406 612.667)" fill="#fff"/></g></g></svg>