<svg xmlns="http://www.w3.org/2000/svg" width="23.5" height="15.69"><defs><clipPath id="a"><path fill="#215678" d="M0 0h23.5v15.69H0z"/></clipPath></defs><g clip-path="url(#a)"><path d="M22.2 0H1.3A1.3 1.3 0 0 0 0 1.3v13.09a1.3 1.3 0 0 0 1.3 1.3h20.9a1.3 1.3 0 0 0 1.3-1.3V1.3A1.3 1.3 0 0 0 22.2 0m-1.818 13.257a.428.428 0 0 1-.606 0l-4.881-4.882-1.668 1.668a2.2 2.2 0 0 1-3.105 0L8.529 8.451l-4.805 4.806a.428.428 0 0 1-.606-.606l4.805-4.806L3.118 3.04a.428.428 0 0 1 .606-.606l7 7a1.34 1.34 0 0 0 1.893 0l7-7a.428.428 0 1 1 .606.606L15.5 7.769l4.881 4.881a.428.428 0 0 1 0 .606" fill="#215678"/></g></svg>