<svg xmlns="http://www.w3.org/2000/svg" xmlns:xlink="http://www.w3.org/1999/xlink" width="18" height="18" viewBox="0 0 18 18"><defs><clipPath id="a"><rect width="18" height="18" transform="translate(0 0)" fill="#fff"/></clipPath></defs><g clip-path="url(#a)"><path d="M377.491,377.467l-.022.022a1.568,1.568,0,0,1-2.218,0l-4.34-4.723,1.857-1.857,4.723,4.34a1.568,1.568,0,0,1,0,2.218" transform="translate(-359.951 -359.949)" fill="#fff"/><path d="M13.01,6.5a6.505,6.505,0,0,0-11.1-4.6,6.506,6.506,0,0,0,8.178,10.035l.411.411,1.842-1.842-.408-.408A6.46,6.46,0,0,0,13.01,6.5m-2.744,3.761a5.319,5.319,0,1,1,0-7.522,5.325,5.325,0,0,1,0,7.522" transform="translate(0 0.001)" fill="#fff"/><rect width="7.961" height="1.304" transform="translate(2.571 5.817)" fill="#fff"/><rect width="1.304" height="7.961" transform="translate(5.899 2.489)" fill="#fff"/></g></svg>