<svg xmlns="http://www.w3.org/2000/svg" xmlns:xlink="http://www.w3.org/1999/xlink" width="23.391" height="29.333" viewBox="0 0 23.391 29.333"><defs><clipPath id="a"><rect width="23.391" height="29.333" transform="translate(0 0)" fill="#fff"/></clipPath></defs><g transform="translate(0 0.002)"><g transform="translate(0 -0.002)" clip-path="url(#a)"><path d="M23.383,25.207V4.913c0-.278.055-.63-.133-.858l-.012-.015-.01-.01L21.709,2.511,19.563.365C19.394.2,19.248.008,18.986,0c-.1,0-.2,0-.3,0H1.732A1.736,1.736,0,0,0,.667.334,1.691,1.691,0,0,0,0,1.682c0,.085,0,.171,0,.256V27.583a1.847,1.847,0,0,0,.13.725A1.685,1.685,0,0,0,1.669,29.33c.289,0,.578,0,.867,0H21.563a2.633,2.633,0,0,0,.444-.026,1.681,1.681,0,0,0,1.376-1.6c.006-.232,0-.465,0-.7ZM19.489,2.35c0-.217,0-.435,0-.653l.07.07.613.613.738.738.642.642.134.134H20.206a.722.722,0,0,1-.451-.136.681.681,0,0,1-.267-.545c0-.288,0-.576,0-.865M1.088,1.321C1.281,1,1.6.993,1.92.993H18.5c0,.75-.012,1.5,0,2.249A1.682,1.682,0,0,0,19.85,4.858a2.84,2.84,0,0,0,.518.029h2.023V20.5H1.506l-.513,0V1.881a1.014,1.014,0,0,1,.1-.56m21.3,26.345a.683.683,0,0,1-.683.672H2.051c-.128,0-.257,0-.385,0a.682.682,0,0,1-.673-.676c0-.034,0-.068,0-.1V21.485H21.507c.282,0,.564,0,.845,0h.039v5.24c0,.3-.007.6,0,.895,0,.013,0,.025,0,.038" transform="translate(0.001 0.002)" fill="#fff"/><path d="M569.277,552.934c.868,0,2.179-1.16,3.137-3.113a18.571,18.571,0,0,1,3.2-.864,5.356,5.356,0,0,0,2.063,1.176c1.158,0,1.4-.669,1.4-1.231,0-1.1-1.261-1.1-1.868-1.1a11.049,11.049,0,0,0-1.355.166,13.533,13.533,0,0,1-1.117-.964c-.356-.356-.672-.7-.948-1.029a10.454,10.454,0,0,0,.618-2.376c0-1.55-.56-1.868-1.4-1.868-.639,0-1.4.332-1.4,1.912a4.476,4.476,0,0,0,1.138,2.526c-.185.565-.4,1.217-.647,1.951-.118.352-.245.679-.38.981-.11.049-.217.1-.32.15-.371.186-.724.353-1.05.507-1.491.706-2.476,1.173-2.476,2.095,0,.669.727,1.084,1.4,1.084m7.937-4.2c.69,0,.885.067.934.17,0,.21,0,.3-.433.3a3.447,3.447,0,0,1-.784-.448c.132-.015.229-.022.284-.022m-3.131-1.071c.088.088.3.285.594.531-.575.125-1.188.281-1.773.466q.044-.122.085-.246c.173-.52.329-.987.468-1.407q.291.32.627.656m-1.538-4.021c0-.979.3-.979.467-.979.33,0,.467,0,.467.934a7.49,7.49,0,0,1-.372,1.458,2.87,2.87,0,0,1-.562-1.413m-1.793,6.958.185-.087c-.7,1.017-1.395,1.488-1.66,1.488a.738.738,0,0,1-.467-.15c0-.331.987-.8,1.942-1.251" transform="translate(-561.787 -535.919)" fill="#fff"/><path d="M547.99,2109.533h-2.179v4.644h.8v-1.74h1.378a1.4,1.4,0,0,0,1.033-.368,1.438,1.438,0,0,0,.367-1.059,1.473,1.473,0,0,0-.393-1.084,1.371,1.371,0,0,0-1.007-.394m.369,2.029a.67.67,0,0,1-.5.178h-1.248v-1.51h1.248a.7.7,0,0,1,.525.2.8.8,0,0,1,.178.577.738.738,0,0,1-.2.551" transform="translate(-539.958 -2086.913)" fill="#fff"/><path d="M932.5,2109.534h-1.66v4.644h1.66a1.863,1.863,0,0,0,1.37-.523,2.389,2.389,0,0,0,.627-1.76,2.436,2.436,0,0,0-.6-1.786,1.91,1.91,0,0,0-1.4-.575m.707,3.666a.984.984,0,0,1-.733.282h-.833v-3.25h.833a1.038,1.038,0,0,1,.759.333,1.818,1.818,0,0,1,.438,1.331,1.772,1.772,0,0,1-.464,1.3" transform="translate(-920.86 -2086.914)" fill="#fff"/><path d="M1340.087,2114.177h.8v-2h1.87v-.7h-1.87v-1.25h2.389v-.7h-3.19Z" transform="translate(-1325.717 -2086.913)" fill="#fff"/></g></g></svg>