<svg xmlns="http://www.w3.org/2000/svg" xmlns:xlink="http://www.w3.org/1999/xlink" width="26.814" height="26.814" viewBox="0 0 26.814 26.814"><defs><clipPath id="a"><rect width="26.815" height="26.815" fill="#fff"/></clipPath></defs><g clip-path="url(#a)"><path d="M380.714,380.679l-.033.033a2.336,2.336,0,0,1-3.3,0l-6.466-7.036,2.767-2.767,7.036,6.466a2.336,2.336,0,0,1,0,3.3" transform="translate(-354.584 -354.582)" fill="#fff"/><path d="M19.381,9.69A9.691,9.691,0,0,0,2.838,2.837,9.693,9.693,0,0,0,15.021,17.786l.612.612,2.744-2.744-.608-.607A9.624,9.624,0,0,0,19.381,9.69m-4.088,5.6a7.923,7.923,0,1,1,0-11.205,7.932,7.932,0,0,1,0,11.205" transform="translate(0 0.001)" fill="#fff"/></g></svg>