<svg xmlns="http://www.w3.org/2000/svg" xmlns:xlink="http://www.w3.org/1999/xlink" width="24.623" height="16.815" viewBox="0 0 24.623 16.815"><defs><clipPath id="a"><rect width="24.623" height="16.815" transform="translate(0 0)" fill="#fff"/></clipPath></defs><g transform="translate(0 0.003)"><g transform="translate(0 -0.003)" clip-path="url(#a)"><path d="M2.078,0H22.546a2.082,2.082,0,0,1,2.078,2.078v12.66a2.082,2.082,0,0,1-2.078,2.078H2.078A2.082,2.082,0,0,1,0,14.734V2.075A2.082,2.082,0,0,1,2.078,0m.014,1.2L11.2,10.346a1.519,1.519,0,0,0,2.22,0l9.111-9.154Zm21.331.8-6.468,6.5,6.471,5.82V2.075ZM16.109,9.341l-1.843,1.852a2.708,2.708,0,0,1-3.908,0L8.53,9.355,1.679,15.517a.873.873,0,0,0,.4.1H22.546a.873.873,0,0,0,.419-.107ZM7.685,8.506,1.2,1.993l0,.082V14.342Z" transform="translate(0 0.003)" fill="#fff"/></g></g></svg>