<svg xmlns="http://www.w3.org/2000/svg" width="68" height="68" viewBox="0 0 68 68"><g transform="translate(-552 -2413)"><circle cx="34" cy="34" r="34" transform="translate(552 2413)" fill="#fff"/><g transform="translate(-10 -287)"><path d="M-14.021,0h1.288l.126-8.232L-10.7,0h.9l1.918-8.232L-7.763,0h1.274L-6.7-11.34h-1.54l-2.016,9.2-2-9.2h-1.554ZM-1.855.126c2.282,0,3.094-1.442,3.094-3.668V-7.854c0-2.226-.812-3.584-3.094-3.584s-3.108,1.344-3.108,3.584v4.3C-4.963-1.3-4.165.126-1.855.126Zm0-1.246c-1.274,0-1.512-.826-1.512-2.086v-4.97c0-1.26.238-2.03,1.512-2.03s1.5.77,1.5,2.03v4.97C-.357-1.946-.6-1.12-1.855-1.12ZM2.793,0H4.375V-5.32H5.607L7.091,0H8.617L7.007-5.684C8.015-6.02,8.407-7,8.407-8.33c0-2.156-1.064-3.01-3.332-3.01H2.793ZM4.375-6.454v-3.752h.7c1.442,0,1.806.546,1.806,1.876,0,1.456-.574,1.876-1.9,1.876ZM10.059,0h4.424V-1.134H11.641V-5.292h2.282v-1.12H11.641v-3.752h2.814V-11.34h-4.4Z" transform="translate(596 2735)" fill="#052f4b"/><path d="M217.93,2132H186v-2h26.07l-5.015-3.875,1.223-1.583Z" transform="translate(395.5 619)" fill="#052f4b"/></g></g></svg>