<svg xmlns="http://www.w3.org/2000/svg" xmlns:xlink="http://www.w3.org/1999/xlink" width="14.25" height="13.381" viewBox="0 0 14.25 13.381"><defs><clipPath id="a"><rect width="14.25" height="13.381" fill="#fff"/></clipPath></defs><g clip-path="url(#a)"><path d="M13.282,232.758H.968a.96.96,0,0,1-.968-.95v-3.076a.449.449,0,1,1,.9,0v3.076a.065.065,0,0,0,.07.053H13.282a.065.065,0,0,0,.07-.053v-3.076a.449.449,0,1,1,.9,0v3.076a.96.96,0,0,1-.968.95" transform="translate(0 -219.377)" fill="#fff"/><path d="M171.58,9.136a.449.449,0,0,1-.449-.449V.449a.449.449,0,0,1,.9,0V8.688a.449.449,0,0,1-.449.449" transform="translate(-164.455)" fill="#fff"/><path d="M76.993,140.324a.449.449,0,0,1-.317-.131l-3.84-3.84a.449.449,0,0,1,.635-.635l3.523,3.523,3.523-3.523a.449.449,0,0,1,.635.635l-3.84,3.84a.449.449,0,0,1-.317.131" transform="translate(-69.868 -130.297)" fill="#fff"/></g></svg>