<svg xmlns="http://www.w3.org/2000/svg" width="24.623" height="16.815"><defs><clipPath id="a"><path fill="#fff" d="M0 0h24.623v16.815H0z"/></clipPath></defs><g clip-path="url(#a)"><path d="M2.078.003h20.468a2.082 2.082 0 0 1 2.078 2.078v12.66a2.082 2.082 0 0 1-2.078 2.078H2.078A2.082 2.082 0 0 1 0 14.737V2.078A2.082 2.082 0 0 1 2.078.003m.014 1.2 9.108 9.146a1.519 1.519 0 0 0 2.22 0l9.111-9.154Zm21.331.8-6.468 6.5 6.471 5.82V2.078Zm-7.314 7.341-1.843 1.852a2.708 2.708 0 0 1-3.908 0L8.53 9.358 1.679 15.52a.873.873 0 0 0 .4.1h20.467a.873.873 0 0 0 .419-.107Zm-8.424-.835L1.2 1.996v12.349Z" fill="#fff"/></g></svg>