<svg xmlns="http://www.w3.org/2000/svg" xmlns:xlink="http://www.w3.org/1999/xlink" width="71.127" height="32" viewBox="0 0 71.127 32"><defs><clipPath id="a"><rect width="71.127" height="32" fill="none"/></clipPath></defs><g transform="translate(0 0)"><path d="M1.131,26.237H2.688V26.9H1.981v.241H2.6v.605H1.981v.813H1.131Z" transform="translate(-0.544 -12.629)" fill="#00572f"/><g transform="translate(0 0)"><g clip-path="url(#a)"><path d="M5.416,26.833H5.48c.145,0,.27.022.27.2s-.137.2-.276.2H5.416Zm-.829,1.692h.829v-.747h.015l.37.747h.975l-.506-.756a.615.615,0,0,0-.143-.14v-.018a.552.552,0,0,0,.453-.606c0-.586-.446-.807-.97-.807H4.587Z" transform="translate(-2.208 -12.61)" fill="#00572f"/><rect width="0.845" height="2.327" transform="translate(4.722 13.588)" fill="#00572f"/><path d="M11.466,26.2h1.565v.635h-.713v.223h.651v.6h-.651v.228h.737v.636H11.466Z" transform="translate(-5.519 -12.61)" fill="#00572f"/><path d="M15.181,26.2h.81l.76,1.289h.024a3.678,3.678,0,0,1-.07-.591v-.7h.809v2.327h-.809L15.961,27.3h-.024a2.757,2.757,0,0,1,.053.466v.756h-.809Z" transform="translate(-7.307 -12.61)" fill="#00572f"/><path d="M21.251,26.926H21.3c.31,0,.5.139.5.465,0,.305-.216.436-.5.436h-.051Zm-.846,1.6h1.071A1.089,1.089,0,0,0,22.645,27.4c0-.856-.6-1.2-1.38-1.2h-.86Z" transform="translate(-9.822 -12.61)" fill="#00572f"/><path d="M25.312,26.2h.847v1.58h.711v.747H25.312Z" transform="translate(-12.183 -12.61)" fill="#00572f"/><path d="M29.062,26.2l.258.607h.025c.024-.074.046-.147.077-.219l.168-.388h.95l-.8,1.324v1h-.827v-1L28.106,26.2Z" transform="translate(-13.528 -12.61)" fill="#00572f"/><path d="M1.075,12.237H5.193v1.673H3.317v.586H5.03v1.592H3.317v.6H5.258v1.673H1.075Z" transform="translate(-0.518 -5.89)" fill="#00572f"/><path d="M15.246,14.63a1.982,1.982,0,0,0-1.307-.618,1.2,1.2,0,0,0-1.211,1.194A1.224,1.224,0,0,0,13.972,16.4a1.773,1.773,0,0,0,1.274-.569l-.065,2.29a4.911,4.911,0,0,1-1.583.244,3.069,3.069,0,0,1-3.111-3.1,3.186,3.186,0,0,1,3.2-3.217,4.615,4.615,0,0,1,1.494.254Z" transform="translate(-5.048 -5.798)" fill="#00572f"/><path d="M24.146,14.06a1.13,1.13,0,0,1,1.144,1.194,1.145,1.145,0,1,1-2.288,0,1.13,1.13,0,0,1,1.145-1.194m0-2.014a3.187,3.187,0,0,0-3.387,3.176,3.133,3.133,0,0,0,3.387,3.144,3.131,3.131,0,0,0,3.385-3.144,3.186,3.186,0,0,0-3.385-3.176" transform="translate(-9.992 -5.798)" fill="#00572f"/><path d="M3.552,34.444,4.518,36.7h.094c.089-.275.17-.549.286-.816l.618-1.443H9.046l-2.957,4.92v3.728H3.014V39.364L0,34.444Z" transform="translate(0 -16.579)" fill="#004b9e"/><path d="M19.065,39.959l.575-2.635h.114c.055.367.114.743.2,1.11l.367,1.525ZM18.5,42.012h2.374l.285,1.078H24.49l-3.084-8.647H17.931L14.923,43.09h3.33Z" transform="translate(-7.183 -16.579)" fill="#004b9e"/><path d="M35.343,34.444h3.233l1.193,4.543h.081a9.64,9.64,0,0,1,.219-1.145l.975-3.4h3.2l1.423,8.647H42.624L42.2,38.357h-.057a6.547,6.547,0,0,1-.21.861l-1.249,3.873H38.855L37.73,39.434a5.74,5.74,0,0,1-.193-1.076H37.43c-.021.344-.045.7-.081,1.041l-.368,3.692H33.943Z" transform="translate(-16.338 -16.579)" fill="#004b9e"/><path d="M61.214,39.959l.575-2.635H61.9c.061.367.116.743.209,1.11l.364,1.525Zm-.559,2.053h2.372l.287,1.078h3.325l-3.084-8.647H60.083L57.076,43.09H60.4Z" transform="translate(-27.473 -16.579)" fill="#004b9e"/><path d="M74.958,34.444h6.609v2.812l-1.731-.082v5.917H76.692V37.173l-1.734.082Z" transform="translate(-36.08 -16.579)" fill="#004b9e"/><path d="M92.377,37.024A1.6,1.6,0,0,1,94,38.712a1.619,1.619,0,1,1-3.236,0,1.6,1.6,0,0,1,1.618-1.688m0-2.841A4.5,4.5,0,0,0,87.6,38.664c0,2.777,2.145,4.439,4.781,4.439s4.783-1.661,4.783-4.439a4.5,4.5,0,0,0-4.783-4.481" transform="translate(-42.163 -16.453)" fill="#004b9e"/><path d="M107.789,34.444h3.235l1.191,4.543h.082a8.53,8.53,0,0,1,.217-1.145l.971-3.4h3.2l1.425,8.647h-3.044l-.418-4.734h-.06a6.974,6.974,0,0,1-.206.861l-1.246,3.873H111.3l-1.124-3.658a5.975,5.975,0,0,1-.2-1.076h-.1c-.024.344-.047.7-.083,1.041l-.363,3.692h-3.042Z" transform="translate(-51.209 -16.579)" fill="#004b9e"/><rect width="3.145" height="8.647" transform="translate(67.983 17.865)" fill="#004b9e"/><path d="M53.615.044c-.287.979.474.228.777.325.682-.675,1.66-.185,2.24-.346a10.155,10.155,0,0,1-.768,2.167s-.117.492-.139.654a1.474,1.474,0,0,1-.3.484l-.325.353-.228.541s-.145.265-.242.286-.126.31-.126.31l-.248.494-.35.347-.16.218-.256.241-.088.277-.206.082-.076.238s-.134.138-.228.245a.933.933,0,0,0-.141.35l-.376.13-.1.315-.369.3a.476.476,0,0,0-.206.379c.022.215-.42.457-.56.535-1.217,1.128-.837,1.1-1.63,1.106l-.179.383-.188-.082-.165.134-.225.331s-.33.183-.4.125-.306.1-.306.1a.9.9,0,0,1-.231.245c-.107.061-.182,0-.362.094a.787.787,0,0,1-.436.032l-.319.144-.235.16-.183,0-.322-.237a.95.95,0,0,1-.465.027l-.275.2-.219.121a.381.381,0,0,1-.228.038l-.28.022-.5.233s.1-.316.149-.473a2.123,2.123,0,0,0,.047-.452L44.064,11a1.541,1.541,0,0,1,.185-1.225l.182-.31.022-.342.169-.139-.05-.243.192-.076.027-.227.124-.263a.861.861,0,0,0,.1-.328,1.855,1.855,0,0,0-.04-.413l.119.025s.159-.374.311-.458a.938.938,0,0,0,.279-.346l.085-.273.443-.487.3-.286.507-.414.31-.456.171-.14.21-.13.44-.6.4-.323s.1-.327.371-.385.3-.4.348-.567a1.421,1.421,0,0,1,.292-.4s.21-.13.362-.214.4-.206.4-.206a1.3,1.3,0,0,0,.4-.323c.092-.156.168-.547.344-.567s.322-.222.513-.3.48.053.66-.094a1.332,1.332,0,0,1,.5-.242L53.2.228Z" transform="translate(-21.171 0)" fill="#adc947"/><path d="M44.544,8.171c-2.244,2.414-7.127,8.158-7.49,9.118l.437.165c.313-.827,5.034-6.425,7.4-8.965A86.117,86.117,0,0,1,51.443,2.2l-.3-.361a84.856,84.856,0,0,0-6.6,6.331" transform="translate(-17.835 -0.885)" fill="#00522e"/><path d="M34.174,2.376c-.048.712-.365.034-.588.024-.285-.608-1.045-.522-1.388-.769a7.089,7.089,0,0,0-.018,1.61s-.043.351-.07.463a1.075,1.075,0,0,0,.084.391l.129.311.019.411s.029.207.09.245.008.235.008.235l.04.383.149.313.052.183.112.22-.011.2.119.1-.009.174s.056.123.092.216a.683.683,0,0,1,.008.263l.213.177-.009.231.169.286a.329.329,0,0,1,.044.3c-.066.136.164.4.238.487.528,1.035.283.928.8,1.12l.026.3.145-.009.075.128.067.273s.175.2.236.179.177.143.177.143a.6.6,0,0,0,.092.217c.056.066.118.046.215.149a.552.552,0,0,0,.28.127l.175.172.116.16.119.049.268-.078a.654.654,0,0,0,.3.132l.132.194.118.133a.259.259,0,0,0,.137.079l.178.084.274.273s.009-.231.016-.348A1.4,1.4,0,0,1,37.671,12l.129-.117c.335-.67.137-.654.175-.85l-.043-.248.067-.23-.078-.132.091-.148-.107-.1.037-.157-.019-.2a.608.608,0,0,1,.012-.24,1.281,1.281,0,0,1,.126-.263l-.085-.011a.878.878,0,0,0-.092-.377.641.641,0,0,1-.1-.3l.009-.2-.173-.427-.131-.26-.23-.4-.094-.375-.078-.132-.106-.136-.143-.5L36.655,5.9a.408.408,0,0,0-.151-.342c-.163-.106-.1-.337-.09-.456a1,1,0,0,0-.094-.336s-.107-.135-.187-.227-.213-.232-.213-.232A.927.927,0,0,1,35.739,4c-.021-.123.02-.4-.088-.456s-.159-.222-.267-.318-.329-.082-.411-.221a.909.909,0,0,0-.268-.28L34.4,2.6Z" transform="translate(-15.454 -0.785)" fill="#adc947"/><path d="M33.767,4.332a51.464,51.464,0,0,1,2.935,5.8l.327.763.662,1.629.444-.146-.677-1.669-.324-.757a50.84,50.84,0,0,0-2.971-5.873Z" transform="translate(-16.253 -1.965)" fill="#00522e"/><path d="M1.073,55.585a.556.556,0,0,0,.474.273,1.917,1.917,0,0,0,.47-.067,6.582,6.582,0,0,1-.727,1.574.375.375,0,0,0-.075.223c0,.147.025.226.084.226.138,0,.223-.2.289-.382.176-.449.449-1.116.68-1.691a6.649,6.649,0,0,0,.895-.365.105.105,0,0,0,.049-.092c0-.05-.142-.088-.276-.088a.377.377,0,0,0-.164.05,2,2,0,0,1-.415.235,2.093,2.093,0,0,1,.223-.52.194.194,0,0,0,.05-.126.146.146,0,0,0-.05-.1.672.672,0,0,0-.566-.214L2,54.561c.151.092.214.131.214.4a1.986,1.986,0,0,1-.118.583,2.2,2.2,0,0,1-.582.1.805.805,0,0,1-.412-.1Zm1.569,1.289a.9.9,0,0,0-.114.386.382.382,0,0,0,.126.286,1.7,1.7,0,0,0,.995.226,2.193,2.193,0,0,0,.563-.042c.034-.008.083-.033.083-.075,0-.076-.286-.211-.39-.211a3.32,3.32,0,0,1-.533.08,1.284,1.284,0,0,1-.5-.08.288.288,0,0,1-.218-.3A1.161,1.161,0,0,1,2.7,56.9Zm.21-.869a5.17,5.17,0,0,1,.684-.1c.06,0,.109.021.109.05a.067.067,0,0,1-.029.05,3.534,3.534,0,0,0-.323.3l.029.021a2.7,2.7,0,0,1,.65-.265,1.606,1.606,0,0,1,.248.037.067.067,0,0,0,.071-.076c0-.143-.3-.3-.591-.3a1.7,1.7,0,0,0-.864.235Z" transform="translate(-0.516 -26.242)" fill="#1a1311"/><path d="M9.784,54.35a.6.6,0,0,1,.386.248.442.442,0,0,1,.092.23c0,.138-.1.122-.214.205-.541.4-.932.7-1.359,1.02-.043.03-.093.059-.093.109s.076.092.148.134a4.773,4.773,0,0,1,1.372,1.167.708.708,0,0,1,.168.374.184.184,0,0,1-.18.2c-.1,0-.117-.046-.223-.256a3.149,3.149,0,0,0-1.142-1.3c-.264-.18-.335-.244-.335-.336a.3.3,0,0,1,.151-.227,6.509,6.509,0,0,0,1.23-1.108.441.441,0,0,0,.084-.222.283.283,0,0,0-.109-.2Z" transform="translate(-4.045 -26.161)" fill="#1a1311"/><path d="M14.09,54.533a.483.483,0,0,1,.18-.037c.18,0,.462.075.462.159a2.677,2.677,0,0,0,.185.7,2.811,2.811,0,0,0,.524-.332.283.283,0,0,1,.169-.054c.067,0,.21.042.21.1,0,.025-.03.055-.051.076a4.89,4.89,0,0,1-.76.411,2.908,2.908,0,0,0,.425.68c.21.234.306.31.306.5,0,.042-.021.08-.067.08a2.594,2.594,0,0,0-.966-.31c-.538,0-.83.314-.83.6,0,.243.23.5.7.5.257,0,.458-.063.638-.063s.382.084.382.218c0,.084-.2.113-.634.113a1.781,1.781,0,0,1-1.111-.234.646.646,0,0,1-.231-.479c0-.437.365-.793,1.011-.793a3.058,3.058,0,0,1,.634.079,5.78,5.78,0,0,1-.474-.8,2.17,2.17,0,0,1-.8.2.721.721,0,0,1-.529-.306l.03-.026a1.232,1.232,0,0,0,.47.127,1.948,1.948,0,0,0,.73-.21,4.685,4.685,0,0,0-.314-.676.575.575,0,0,0-.286-.18Z" transform="translate(-6.479 -26.231)" fill="#1a1311"/><path d="M20.27,54.535c.378-.017.626.2.626.433,0,.168-.172.176-.273.323a11.67,11.67,0,0,0-.882,1.456l.009.008c.529-.465.739-.583.99-.583a.447.447,0,0,1,.483.4,1.4,1.4,0,0,1-.051.31,1.2,1.2,0,0,0-.054.307.293.293,0,0,0,.3.332c.4,0,.7-.294,1.065-.978l.059.034c-.2.739-.625,1.259-1.184,1.259-.4,0-.545-.218-.545-.491s.126-.487.126-.672a.282.282,0,0,0-.306-.3,1.513,1.513,0,0,0-.982.76c-.256.39-.256.709-.386.709-.084,0-.133-.156-.133-.315,0-.185.049-.239.1-.285a1.915,1.915,0,0,0,.37-.609c.2-.42.369-.789.583-1.141a1.444,1.444,0,0,0,.276-.63.3.3,0,0,0-.2-.281Z" transform="translate(-9.21 -26.249)" fill="#1a1311"/><path d="M28.169,57.968a1.682,1.682,0,0,0,1.221-.685,1.491,1.491,0,0,0,.252-.809,1.533,1.533,0,0,0-.227-.769,1.251,1.251,0,0,0-1.024-.47,1.716,1.716,0,0,0-.227.017c.109.172.193.269.193.332s-.063.092-.084.159a4.734,4.734,0,0,1-.915,1.864.382.382,0,0,1-.248.151.311.311,0,0,1-.2-.079,1.027,1.027,0,0,1-.336-.848,1.733,1.733,0,0,1,1.808-1.721,1.4,1.4,0,0,1,1.586,1.41c0,.827-.574,1.473-1.8,1.494Zm-.872-2.3a1.542,1.542,0,0,0-.462,1.032c0,.411.206.655.323.655.147,0,.315-.181.5-.6a5.791,5.791,0,0,0,.4-1.255.357.357,0,0,0-.08-.21,1.272,1.272,0,0,0-.679.373" transform="translate(-12.789 -26.526)" fill="#1a1311"/><path d="M37.036,54.327H35.885v3.744h-.171V54.164h1.322Z" transform="translate(-17.19 -26.071)" fill="#1a1311"/><path d="M39.019,54.856a.554.554,0,0,1,.131-.012c.171,0,.529.151.529.34,0,.084-.039.114-.06.172a4.161,4.161,0,0,0-.146,1.548.992.992,0,0,0,.118.6c.075.1.188.189.49.189a2.251,2.251,0,0,0,1.57-.99l.038.033a1.863,1.863,0,0,1-1.712,1.23c-.534,0-.744-.185-.744-1.142,0-.533.055-1.427.055-1.49a.409.409,0,0,0-.281-.445Z" transform="translate(-18.776 -26.398)" fill="#1a1311"/><path d="M45.414,55.112a.636.636,0,0,0,.572.218,1.359,1.359,0,0,0,.252-.025,2,2,0,0,0,.108-.542.538.538,0,0,0-.184-.357l.012-.017c.441.1.554.319.554.353,0,.054-.063.122-.108.2a1.145,1.145,0,0,0-.135.352,1.618,1.618,0,0,0,.575-.18.55.55,0,0,1,.235-.084c.088,0,.189.08.189.134,0,.08-.126.113-.21.139a4.383,4.383,0,0,1-.852.2,2.546,2.546,0,0,0-.105.508,1.754,1.754,0,0,1,.541-.088.359.359,0,0,0-.013-.2.45.45,0,0,1,.27.184.9.9,0,0,1,.868.886,1.024,1.024,0,0,1-.546.9,2,2,0,0,1-1.082.24l.016-.038c.73-.13,1.3-.483,1.3-1.2a.6.6,0,0,0-.5-.642,4.233,4.233,0,0,1-.746,1.075c.029.126.092.18.092.294a.131.131,0,0,1-.113.138c-.109,0-.163-.134-.218-.26-.566.424-.756.458-.885.458s-.223-.24-.223-.411a1.489,1.489,0,0,1,1-1.276,5.436,5.436,0,0,1,.109-.571,2.359,2.359,0,0,1-.278.012.444.444,0,0,1-.529-.4Zm-.062,2.032c0,.168.062.277.2.277a.909.909,0,0,0,.562-.315,2.722,2.722,0,0,1-.054-.861c-.6.328-.713.731-.713.9m.931-.739a1.788,1.788,0,0,0,.059.5,2.4,2.4,0,0,0,.5-.869,1.392,1.392,0,0,0-.546.117,1.908,1.908,0,0,0-.012.248" transform="translate(-21.696 -26.18)" fill="#1a1311"/><path d="M52.293,54.376c.193-.038.626.1.626.307,0,.084-.084.117-.105.294-.008.076-.025.21-.034.369.051-.033.084-.072.13-.072s.332.127.332.215c0,.058-.059.079-.182.117a1.937,1.937,0,0,0-.369.537l.009.009a2.074,2.074,0,0,1,1.272-.521.98.98,0,0,1,1,.969,1.172,1.172,0,0,1-.722,1.108,2.4,2.4,0,0,1-1,.188l0-.05a1.938,1.938,0,0,0,1.079-.491,1,1,0,0,0,.31-.73.8.8,0,0,0-.759-.869,1.817,1.817,0,0,0-1.188.6,1.769,1.769,0,0,0-.017.256c0,.168.013.52.03.835,0,.08.013.189.013.252,0,.188-.08.289-.155.289-.138,0-.072-.176-.235-.373-.06-.072-.181-.223-.24-.307l.025-.038a1.711,1.711,0,0,0,.274.185c.033,0,.045-.033.045-.1,0-.231.03-.65.022-.768a9.059,9.059,0,0,0-.634.865.108.108,0,0,1-.092.046c-.063,0-.088-.054-.088-.223,0-.189.034-.235.084-.256.147-.058.164-.084.488-.57a2.055,2.055,0,0,0,.3-.537c.008-.063.012-.114.016-.21-.188.1-.365.21-.536.286a.322.322,0,0,1-.11.029.415.415,0,0,1-.369-.332l.041-.029a.418.418,0,0,0,.248.08,2.1,2.1,0,0,0,.733-.2c.009-.084.025-.449.025-.659a.456.456,0,0,0-.264-.457Z" transform="translate(-24.793 -26.17)" fill="#1a1311"/><path d="M59.175,56.231a.8.8,0,0,0,.362.147,3.763,3.763,0,0,0,.776-.214c0-.721,0-.785-.311-.94l-.008-.05a.74.74,0,0,1,.1-.009c.29,0,.613.223.613.336,0,.041-.029.075-.058.159a1.817,1.817,0,0,0-.054.42c.419-.117.776-.205,1.1-.268,0-.105.013-.244.013-.386,0-.344-.068-.462-.294-.588l0-.045c.053,0,.079,0,.108,0,.2,0,.558.151.558.281a.225.225,0,0,1-.05.114,1.477,1.477,0,0,0-.084.583c.205-.03.5-.109.571-.109.134,0,.428.088.428.193,0,.041-.043.084-.126.084-.06,0-.193-.021-.278-.021a3.774,3.774,0,0,0-.6.071c-.037.731-.088,1.159-.284,1.159-.085,0-.1-.046-.131-.159-.041-.151-.075-.168-.4-.336l.012-.042a1.54,1.54,0,0,0,.378.075c.067,0,.114-.037.126-.138a3.875,3.875,0,0,0,.047-.529,5.923,5.923,0,0,0-1.1.269c-.012.189-.024.407-.024.756,0,.466.1.655.508.655.294,0,.914-.105,1-.105.1,0,.29.055.29.159,0,.076-.038.1-.067.105-.047.017-.8.05-.945.05-.864,0-1.032-.164-1.032-.89,0-.151.012-.412.012-.638-.31.084-.553.3-.7.3-.223,0-.386-.248-.47-.42Z" transform="translate(-28.474 -26.371)" fill="#1a1311"/><path d="M67.517,55.209a.76.76,0,0,0,.44.206,1.443,1.443,0,0,0,.454-.114,1.01,1.01,0,0,0,.122-.394c0-.256-.109-.328-.186-.37l.035-.05a.539.539,0,0,1,.511.327.155.155,0,0,1-.05.118.572.572,0,0,0-.159.277c.239-.063.344-.185.453-.185s.252.1.252.151c0,.029-.029.054-.117.088-.172.067-.466.167-.731.243-.1.173-.684,1.7-.986,1.855a.154.154,0,0,1-.067.021c-.049,0-.079-.084-.079-.248a.33.33,0,0,1,.084-.168,5.823,5.823,0,0,0,.827-1.406,1.4,1.4,0,0,1-.374.072.458.458,0,0,1-.466-.395Zm1.855.31a1.017,1.017,0,0,1,.307-.05c.235,0,.86.13.86.361,0,.05-.03.088-.109.088a2.407,2.407,0,0,0-.4-.071.544.544,0,0,0-.408.13.431.431,0,0,0-.131.323c0,.134.035.121.152.781a1.5,1.5,0,0,1,.643.336.254.254,0,0,1,.088.2c0,.054-.018.126-.1.126-.117,0-.427-.327-.6-.365.046.386-.193.525-.747.525a.95.95,0,0,1-.637-.172.346.346,0,0,1-.1-.24c0-.289.26-.5.836-.5.138,0,.231,0,.343.012a1.872,1.872,0,0,0-.108-.444.449.449,0,0,1-.017-.138c0-.395.247-.617.734-.684-.084-.088-.143-.122-.609-.185Zm-.432,1.641c-.349,0-.462.088-.542.181a.152.152,0,0,0-.033.1c0,.164.147.227.517.227.415,0,.5-.1.5-.332a.328.328,0,0,0-.009-.092.9.9,0,0,0-.432-.08" transform="translate(-32.446 -26.227)" fill="#1a1311"/><path d="M74.962,54.542h2.022l.168-.147c.013-.013.025-.03.041-.03s.031.017.043.03l.235.247a.084.084,0,0,1,.034.055c0,.025-.025.046-.169.138a5.577,5.577,0,0,0,.219,2.417c.03.059.079.18.139.18s.088-.1.1-.156c.017-.113.085-.474.1-.612h.051c.008.239-.038.478-.038.713a2.192,2.192,0,0,0,.016.373.551.551,0,0,1,.025.114c0,.067,0,.156-.092.156-.159,0-.331-.223-.411-.332a5.469,5.469,0,0,1-.411-3.047H74.919l-.008,1.272a2.476,2.476,0,0,1-.928,2.178l-.03-.05a2.437,2.437,0,0,0,.63-1.851V54.383Zm1.426,1.221.151-.156c.013-.008.025-.025.043-.025s.029.017.037.025l.193.211a.087.087,0,0,1,.029.054c0,.025-.017.046-.084.1V56.7c0,.092-.121.15-.215.15-.059,0-.088-.029-.088-.071v-.1h-.327V57.4c.176-.03.352-.05.524-.084a.765.765,0,0,0-.239-.307l.03-.016a.958.958,0,0,1,.6.676.136.136,0,0,1-.127.142c-.092,0-.122-.079-.142-.151a2.532,2.532,0,0,0-.1-.281l-1.52.449c-.008.1-.029.143-.079.143s-.067-.072-.08-.1l-.13-.357a6.294,6.294,0,0,0,.969-.067v-.763h-.353v.134c0,.08-.118.138-.205.138-.059,0-.085-.017-.085-.075V55.608l.327.156h.315v-.487a4.859,4.859,0,0,1-.7.03v-.05a3.087,3.087,0,0,0,1.271-.412l.265.21a.111.111,0,0,1,.041.072c0,.05-.054.037-.2,0-.131.021-.26.059-.387.092v.546Zm-.545.1h-.353v.718h.353Zm.285.717h.327v-.718h-.327Z" transform="translate(-35.597 -26.168)" fill="#1a1311"/><path d="M83.513,54.316h1.578l.167-.147c.021-.017.047-.038.064-.038s.037.017.063.042l.137.147a.1.1,0,0,1,.038.059c0,.021-.008.046-.127.127v.717a.182.182,0,0,1-.2.172c-.055,0-.08-.024-.08-.075V55.2h-.73v.407H85.59l.188-.214c.021-.021.039-.05.059-.05s.047.03.068.05l.23.214a.088.088,0,0,1,.034.06.044.044,0,0,1-.047.042H82.4l-.041-.1h1.788V55.2h-.726v.054c0,.084-.067.156-.214.156-.055,0-.085-.025-.085-.076V54.123Zm.282,2.87a.106.106,0,0,1,.05.085c0,.029-.03.054-.185.033a3.362,3.362,0,0,1-1.288.672l-.016-.034A2.9,2.9,0,0,0,83.513,57Zm-.282-1.111h1.549l.163-.151a.115.115,0,0,1,.076-.041c.021,0,.045.021.072.054l.1.122a.121.121,0,0,1,.034.067c0,.029-.025.05-.138.126v.512a.185.185,0,0,1-.189.168c-.063,0-.092-.025-.092-.063V56.8h-.672v.914c0,.218-.092.336-.415.307,0-.1,0-.185-.109-.231s-.365-.113-.433-.13v-.03c.176.013.328.034.5.042l.071,0c.092,0,.092-.038.092-.121V56.8h-.668v.037c0,.054-.083.114-.21.114a.075.075,0,0,1-.083-.084v-.982Zm1.637-1.658H83.416v.289H85.15Zm0,.39H83.416V55.1H85.15ZM83.462,56.7h1.629v-.52H83.462ZM84.793,57c.247.092.994.369.994.764a.133.133,0,0,1-.142.126c-.206,0-.337-.571-.895-.856Z" transform="translate(-39.641 -26.051)" fill="#1a1311"/><path d="M90.421,57.891h1.154V54.148h.168v3.911H90.421Z" transform="translate(-43.523 -26.063)" fill="#1a1311"/><path d="M96.454,54.2a.745.745,0,0,1,.332.126.4.4,0,0,1,.151.274.116.116,0,0,1-.051.1,3.785,3.785,0,0,0-.272.378l.008.008c.323-.088.47-.268.684-.268.118,0,.248.063.248.126,0,.109-.1.138-.276.189a7.342,7.342,0,0,1-.785.2c-.265.4-.3.444-.449.662l.008.009a1.036,1.036,0,0,1,.554-.218.435.435,0,0,1,.427.205.673.673,0,0,1,.055.319,3.7,3.7,0,0,1,.726-.264c.067-.013.1-.034.1-.08a.171.171,0,0,0-.047-.1l.021-.047c.205.03.457.164.457.319,0,.055-.059.092-.113.1a1.8,1.8,0,0,0-.572.1l-.285.076L97.1,56.5c0,.18.012.286.012.411,0,.328-.038.424-.168.424-.088,0-.126-.114-.126-.3,0-.113.012-.227.012-.424-.193.08-.713.3-.713.663,0,.252.217.4.726.4.339,0,.666-.079.776-.079s.239.075.239.176a.112.112,0,0,1-.084.113c-.185,0-.465.042-.713.042a1.609,1.609,0,0,1-.818-.151.569.569,0,0,1-.281-.488c0-.344.31-.6.868-.869.009-.268-.038-.474-.324-.474-.221,0-.432.1-.756.579-.1.151-.13.285-.214.285s-.1-.084-.1-.2c0-.176.021-.214.281-.5a3.5,3.5,0,0,0,.487-.721,1,1,0,0,1-.344.062.446.446,0,0,1-.4-.365l.05-.021a.474.474,0,0,0,.386.172,1.943,1.943,0,0,0,.424-.063,1.758,1.758,0,0,0,.239-.7.28.28,0,0,0-.126-.235Z" transform="translate(-45.938 -26.086)" fill="#1a1311"/><path d="M101.9,56.04a.737.737,0,0,0,.349.139,12.778,12.778,0,0,1,2.061-.567,1.024,1.024,0,0,1,1.158.995c0,1.007-1.334,1.5-2.3,1.469l-.013-.042a3.5,3.5,0,0,0,1.263-.445,1.225,1.225,0,0,0,.689-1.02.752.752,0,0,0-.806-.785,3.09,3.09,0,0,0-1.532.537.639.639,0,0,1-.344.151.8.8,0,0,1-.553-.4Z" transform="translate(-49.035 -26.768)" fill="#1a1311"/><path d="M111.595,54.35a.6.6,0,0,1,.386.248.442.442,0,0,1,.092.23c0,.138-.1.122-.214.205-.541.4-.932.7-1.359,1.02-.043.03-.093.059-.093.109s.076.092.147.134a4.765,4.765,0,0,1,1.373,1.167.708.708,0,0,1,.168.374.185.185,0,0,1-.18.2c-.1,0-.117-.046-.223-.256a3.149,3.149,0,0,0-1.142-1.3c-.264-.18-.335-.244-.335-.336a.3.3,0,0,1,.151-.227,6.444,6.444,0,0,0,1.23-1.108.441.441,0,0,0,.084-.222.283.283,0,0,0-.109-.2Z" transform="translate(-53.05 -26.161)" fill="#1a1311"/><path d="M115.471,54.485a.661.661,0,0,1,.184.437,3.679,3.679,0,0,1-.117.549,3.52,3.52,0,0,0-.121.856c0,.516.18.907.335.907.223,0,.068-.332.176-.823.172-.764.63-1.318.915-1.318.13,0,.26.138.315.281a2.394,2.394,0,0,1,.126.881,1.711,1.711,0,0,1-1.136,1.792l.008.05a1.619,1.619,0,0,0,1.146-.693,2.512,2.512,0,0,0,.315-1.284c0-.932-.374-1.226-.689-1.226-.269,0-.491.172-.772.63-.356.583-.4,1.1-.5,1.1-.041,0-.059-.105-.059-.218a2.33,2.33,0,0,1,.21-.986,1.718,1.718,0,0,0,.206-.529c0-.189-.276-.407-.516-.449Z" transform="translate(-55.555 -26.207)" fill="#1a1311"/><path d="M121.653,54.472a.369.369,0,0,1,.163-.034c.26,0,.546.243.546.366s-.147.26-.156.5a3.256,3.256,0,0,0,.517-.109c.1-.03.172-.085.247-.085s.29.03.29.148c0,.054-.053.1-.176.1a8.613,8.613,0,0,0-.893.121,5.274,5.274,0,0,0-.025.6c.221-.042.521-.205.679-.205.105,0,.243.046.243.121,0,.164-.444.244-.911.315a5.652,5.652,0,0,0,.038.63,2.5,2.5,0,0,1,.986.415.217.217,0,0,1,.076.176c0,.1-.05.134-.121.134-.114,0-.445-.3-.9-.47.012.147.021.214.021.268,0,.281-.256.424-.672.424-.492,0-.865-.164-.865-.449,0-.311.366-.541.932-.541.121,0,.223,0,.311.008a5.039,5.039,0,0,1-.034-.563,3.293,3.293,0,0,1-.52.046c-.424,0-.613-.134-.613-.269a.181.181,0,0,1,.092-.151l.047.008c-.009.18.214.206.461.206a2.372,2.372,0,0,0,.517-.055c0-.134.012-.52.016-.629-.314.037-.645.151-.831.151-.205,0-.36-.072-.529-.357l.037-.034a.563.563,0,0,0,.45.172,4.486,4.486,0,0,0,.878-.1c0-.118.012-.3.012-.407a.415.415,0,0,0-.31-.394Zm-.143,2.615c-.421,0-.6.138-.6.293s.127.281.558.281c.269,0,.5-.1.5-.318,0-.059-.005-.151,0-.214a1.987,1.987,0,0,0-.462-.041" transform="translate(-58.043 -26.203)" fill="#1a1311"/><path d="M126.7,55.247a.771.771,0,0,0,.5.2c.192,0,.525-.1,1.359-.193a2.947,2.947,0,0,0-.063-.735.576.576,0,0,0-.315-.2l.017-.059a1.11,1.11,0,0,1,.18-.012c.231,0,.583.21.583.336,0,.067-.08.168-.109.26a1.331,1.331,0,0,0-.051.382,8.674,8.674,0,0,0,.877-.1,1.383,1.383,0,0,1,.256-.067.671.671,0,0,1,.42.268c0,.038-.037.084-.134.084s-.373-.054-.865-.054a2.844,2.844,0,0,0-.554.037c-.012.382,0,.5.054.579a.853.853,0,0,1,.114.516,2.056,2.056,0,0,1-.319,1.179,1.223,1.223,0,0,1-.827.432v-.05a1.261,1.261,0,0,0,.811-1.246h-.009a.391.391,0,0,1-.36.227c-.168,0-.4-.2-.4-.663,0-.277.193-.6.475-.6a.571.571,0,0,1,.234.037c0-.121,0-.26-.012-.386a4.08,4.08,0,0,0-1.066.218,1.333,1.333,0,0,1-.39.139.6.6,0,0,1-.437-.517Zm1.9,1.12c0-.294-.08-.453-.256-.453-.143,0-.248.184-.248.462,0,.243.093.394.256.394.135,0,.248-.143.248-.4" transform="translate(-60.969 -26.109)" fill="#1a1311"/><path d="M135.589,59.424a.541.541,0,1,1-.541.541.543.543,0,0,1,.541-.541m0,.965a.424.424,0,1,0-.423-.424.422.422,0,0,0,.423.424" transform="translate(-65.004 -28.603)" fill="#1a1311"/></g></g></g></svg>