<svg xmlns="http://www.w3.org/2000/svg" width="162" height="152.006"><path d="M80.759 0a45.547 45.547 0 1 1-45.5 45.547A45.523 45.523 0 0 1 80.759 0Z" fill="#a0e9aa" opacity=".85"/><path d="M45.547 60.913A45.547 45.547 0 1 1 0 106.46a45.547 45.547 0 0 1 45.547-45.547Z" fill="#eaef5e" opacity=".85"/><path d="M116.454 60.913a45.547 45.547 0 1 1-45.547 45.547 45.547 45.547 0 0 1 45.547-45.547Z" fill="#94c8eb" opacity=".85"/><path d="M53.725 31.751h-.78v-.78h.78Zm-1.68 0h-.756v-.78h.756Zm-1.668 0h-.732v-.78h.732Zm4.536-1.74h-6.408v2.7h6.408Zm-6.936 4.224h7.38v-1.132h-7.38Zm.2 2.64-1.32.348v-2.04h1.092v-1.26h-1.092v-2.184h1.248v-1.248h-3.84v1.248h1.332v2.184h-1.224v1.26h1.224v2.352c-.564.144-1.08.264-1.512.36l.3 1.32c1.152-.288 2.6-.684 3.972-1.08Zm6 .6a10.17 10.17 0 0 1-1.068.876 4.823 4.823 0 0 1-.708-.876Zm-4.236-1.788h3.448v.78h-3.444Zm4.32 1.788h.444v-2.808h-6.012v2.808h1.944a11.363 11.363 0 0 1-3.48 1.776 5.582 5.582 0 0 1 .84 1.02 12.6 12.6 0 0 0 2.248-1.176v1.752h1.344v-2.592a6.054 6.054 0 0 0 2.916 2.592 5.349 5.349 0 0 1 .884-1.104 5.734 5.734 0 0 1-1.46-.72 13.305 13.305 0 0 0 1.272-.864Zm10.372-5.972c-.1.288-.24.636-.36.9l.06.012h-1.524l.156-.036a3.827 3.827 0 0 0-.336-.876Zm2.712.912h-1.716c.132-.24.288-.528.444-.852l-.3-.06h1.356v-1.1h-2.84v-.732h-1.4v.732h-2.6v1.1h1.464l-.444.1a3.912 3.912 0 0 1 .3.816h-1.584v1.164h7.332Zm-7.356 3.632c-.372.156-.744.324-1.116.48v-2.7h1.092v-1.344h-1.092v-2.68h-1.32v2.68h-1.188v1.344h1.188v3.24a48.97 48.97 0 0 1-1.464.552l.48 1.428c1.092-.5 2.472-1.128 3.732-1.74Zm2.028.3h3.372v.612h-3.372Zm0-1.428h3.372v.6h-3.372Zm3.552 4.656c-.216 0-.252-.036-.252-.336v-1.392h1.472v-3.8h-6.1v3.8h1.02c-.22.876-.748 1.476-2.632 1.836a4.3 4.3 0 0 1 .78 1.2c2.292-.588 2.988-1.6 3.252-3.036h.852v1.4c0 1.14.24 1.536 1.368 1.536h.936c.84 0 1.176-.36 1.308-1.74a3.419 3.419 0 0 1-1.188-.5c-.024.912-.084 1.032-.276 1.032Zm5.292-9.912a12.655 12.655 0 0 1-2.832 4.488 9.539 9.539 0 0 1 .768 1.464 13.675 13.675 0 0 0 .912-1.068v6.276h1.356v-8.364a20.065 20.065 0 0 0 1.116-2.364Zm2.916 1.752h3.512v1.608h-3.512Zm5.532 5.244v-1.3h-3.1v-1.076h2.508v-4.116h-6.3v4.116h2.352v1.08h-3.14v1.3h2.46a8.621 8.621 0 0 1-2.892 2.588 5.893 5.893 0 0 1 .984 1.14 9.623 9.623 0 0 0 2.592-2.58v3.036h1.44v-3.1a9.909 9.909 0 0 0 2.436 2.668 6.075 6.075 0 0 1 1.008-1.14 9.031 9.031 0 0 1-2.748-2.616Zm3.432-2.7a13.824 13.824 0 0 0 3-2.976 14.462 14.462 0 0 0 3.1 2.976Zm3.756 3.888h3.36v-1.244h-3.36v-1.38h2.808v-.94a15.213 15.213 0 0 0 1.3.8 6.953 6.953 0 0 1 .944-1.28 12.682 12.682 0 0 1-5.136-4.2h-1.476a13.1 13.1 0 0 1-4.872 4.344 5.272 5.272 0 0 1 .9 1.152 15.354 15.354 0 0 0 1.332-.828v.948h2.712v1.384h-3.32v1.248h3.32v1.424h-4.284v1.284h10.212v-1.284h-4.44Zm15.048-1.02a4.959 4.959 0 0 1-.7 1.092c-.1-.324-.192-.7-.276-1.092Zm-5.52-1.1c-.288-.5-.864-1.428-1.116-1.8v-.524h1.092v-1.268a7.744 7.744 0 0 1 .888.888c-.24.384-.492.744-.72 1.056l-.372.024.192 1.056c.672-.072 1.416-.168 2.2-.252.024.132.036.252.048.36l.816-.324c.036.264.072.528.1.78Zm1.716-2.324a5.66 5.66 0 0 1 .192.54l-.648.048a35.55 35.55 0 0 0 1.56-2.256c.024.96.084 1.884.168 2.76a7.153 7.153 0 0 0-.468-1.344Zm2.436.5c-.048-.6-.084-1.212-.1-1.86a8.114 8.114 0 0 1 .96.972c-.2.312-.408.612-.6.864Zm.2 1.812c-.06-.36-.108-.732-.144-1.128l.072.336c.336-.036.684-.084 1.056-.12l-.54.468a6.7 6.7 0 0 1 .576.444Zm1.236 1.1h1.68v-1.1h-.904l.228-.2a4.69 4.69 0 0 0-.912-.756l.888-.12a4.659 4.659 0 0 1 .1.468l.852-.36a7.354 7.354 0 0 0-.624-1.776l-.8.288c.072.156.144.324.2.492l-.732.052c.528-.708 1.1-1.584 1.584-2.34l-.972-.48c-.168.348-.384.756-.612 1.152l-.312-.312c.3-.468.648-1.116.984-1.716l-1.064-.404a11.88 11.88 0 0 1-.588 1.548l-.192-.148-.348.5a53.132 53.132 0 0 1 0-1.956h-1.26c0 .588.012 1.164.024 1.728l-.8-.4c-.168.36-.372.756-.612 1.164-.084-.1-.192-.2-.3-.312.288-.48.636-1.14.972-1.716l-1.056-.408a13.346 13.346 0 0 1-.588 1.548l-.2-.156-.528.78c.084.072.18.144.264.228h-1.076v-2.472h-1.272v2.472h-1.284v1.3h1.188a12.618 12.618 0 0 1-1.464 4.044 8.135 8.135 0 0 1 .6 1.212 10.268 10.268 0 0 0 .96-2.256v4.432h1.272v-5.28c.24.528.48 1.08.6 1.44l.48-.708v.54h.744a3.822 3.822 0 0 1-1.476 3.06 3.305 3.305 0 0 1 .8.936 4.1 4.1 0 0 0 1.6-2.3 7.583 7.583 0 0 1 .924.816l.768-.948a9.564 9.564 0 0 0-1.428-1.1c.024-.144.048-.3.06-.456h1.356a11.043 11.043 0 0 0 .552 2.008 7.444 7.444 0 0 1-2 1.08 5.272 5.272 0 0 1 .744.912 8.663 8.663 0 0 0 1.808-.948 1.979 1.979 0 0 0 1.644.96c.936 0 1.272-.36 1.488-1.716a3.418 3.418 0 0 1-.924-.648c-.06.948-.168 1.176-.468 1.176a1.009 1.009 0 0 1-.8-.552 6.927 6.927 0 0 0 1.356-1.86Zm12.144-1.8c1.1 0 1.476-.444 1.632-1.98a3.945 3.945 0 0 1-1.26-.528c-.04 1.056-.128 1.236-.512 1.236h-1.308c-.456 0-.528-.048-.528-.48v-.708a22.018 22.018 0 0 0 3.072-1.128l-.912-1.032a18.7 18.7 0 0 1-2.16 1v-1.716h-1.416v3.612c0 1.32.336 1.74 1.74 1.74Zm-7.544 2.496v-.708h1.8v.708Zm1.8-2.388v.624h-1.8v-.624Zm1.4-1.176h-4.524v6.888h1.32v-2.268h1.8v.8c0 .144-.048.18-.192.18a9.97 9.97 0 0 1-1.056 0 5.28 5.28 0 0 1 .456 1.26 3.557 3.557 0 0 0 1.68-.24c.4-.2.516-.552.516-1.176Zm-1.8-3.06c.192.312.384.648.564.984l-1.6.072c.3-.636.624-1.356.9-2.052l-1.488-.3a18.957 18.957 0 0 1-.868 2.412c-.336.012-.648.024-.936.024l.12 1.356c1.224-.072 2.856-.168 4.44-.276a4.432 4.432 0 0 1 .216.636l1.308-.528a11.736 11.736 0 0 0-1.452-2.784Zm4.7 8.628c-.468 0-.552-.06-.552-.48v-.96a18.193 18.193 0 0 0 3.212-1.272l-.948-1.044a13.591 13.591 0 0 1-2.256 1.128v-1.62h-1.4v3.768c0 1.32.348 1.728 1.752 1.728h1.7c1.152 0 1.512-.468 1.668-2.16a4.443 4.443 0 0 1-1.248-.528c-.06 1.212-.144 1.44-.552 1.44ZM54.109 57.003l1.14-.5a7.455 7.455 0 0 1-2.148-5.256 7.455 7.455 0 0 1 2.148-5.26l-1.14-.5a7.908 7.908 0 0 0-2.364 5.76 7.908 7.908 0 0 0 2.364 5.756Zm8.448-1.9v-2.408h3.588v-1.38h-3.588v-2.112h4.044v-1.392h-4.044v-2.16h-1.5v2.16h-1.848c.2-.552.4-1.116.564-1.692l-1.476-.324a10.324 10.324 0 0 1-2.124 4.3 11.348 11.348 0 0 1 1.284.852 9.89 9.89 0 0 0 1.116-1.744h2.484v2.112h-3.252v1.38h3.252v2.408h-4.632v1.4h10.788v-1.4Zm7.908-9.42a12.637 12.637 0 0 1-2.484 4.488 8.554 8.554 0 0 1 .792 1.488c.24-.288.492-.612.732-.936v6.1h1.356v-8.412a21.016 21.016 0 0 0 .96-2.316Zm5.508 7.872v-3.128a17.552 17.552 0 0 0 1.476 3.132Zm-2.856 0a15.593 15.593 0 0 0 1.464-3.048v3.048Zm6.172-4.424v-1.356h-3.316v-2.072h-1.392v2.072h-3.036v1.356h2.364a12.271 12.271 0 0 1-2.988 4.872 5.816 5.816 0 0 1 1.02 1.08 8.885 8.885 0 0 0 1.068-1.356v1.1h1.572v1.936h1.392v-1.932h1.608v-1.056a11 11 0 0 0 .96 1.272 5.841 5.841 0 0 1 1.068-1.104 12.964 12.964 0 0 1-2.928-4.812Zm10.26 3.7a4.959 4.959 0 0 1-.7 1.092c-.1-.324-.192-.7-.276-1.092Zm-5.52-1.1c-.288-.5-.864-1.428-1.116-1.8v-.528h1.088v-1.268a7.744 7.744 0 0 1 .888.888c-.24.384-.492.744-.72 1.056l-.372.024.192 1.056c.672-.072 1.416-.168 2.2-.252.024.132.036.252.048.36l.816-.324c.036.264.072.528.1.78Zm1.712-2.328a5.659 5.659 0 0 1 .192.54l-.648.048a35.55 35.55 0 0 0 1.56-2.256c.024.96.084 1.884.168 2.76a7.153 7.153 0 0 0-.468-1.344Zm2.436.5c-.048-.6-.084-1.212-.1-1.86a8.114 8.114 0 0 1 .96.972c-.2.312-.408.612-.6.864Zm.2 1.812c-.06-.36-.108-.732-.144-1.128l.072.336c.336-.036.684-.084 1.056-.12l-.54.468a6.7 6.7 0 0 1 .576.444Zm1.236 1.1h1.68v-1.1h-.904l.228-.2a4.69 4.69 0 0 0-.912-.756l.888-.12a4.659 4.659 0 0 1 .1.468l.852-.36a7.354 7.354 0 0 0-.624-1.776l-.8.288c.072.156.144.324.2.492l-.732.052c.528-.708 1.1-1.584 1.584-2.34l-.972-.48c-.168.348-.384.756-.612 1.152l-.308-.312c.3-.468.648-1.116.984-1.716l-1.068-.404a11.88 11.88 0 0 1-.588 1.544l-.192-.144-.348.5a53.132 53.132 0 0 1 0-1.956h-1.26c0 .588.012 1.164.024 1.728l-.8-.4c-.168.36-.372.756-.612 1.164-.084-.1-.192-.2-.3-.312.288-.48.636-1.14.972-1.716l-1.06-.4a13.346 13.346 0 0 1-.588 1.548l-.2-.156-.528.78c.084.072.18.144.264.228h-1.072v-2.472h-1.272v2.472h-1.284v1.292h1.188a12.618 12.618 0 0 1-1.464 4.048 8.135 8.135 0 0 1 .6 1.212 10.268 10.268 0 0 0 .96-2.256v4.428h1.272v-5.28c.24.528.48 1.08.6 1.44l.48-.708v.54h.744a3.822 3.822 0 0 1-1.476 3.06 3.306 3.306 0 0 1 .8.936 4.1 4.1 0 0 0 1.6-2.3 7.583 7.583 0 0 1 .924.816l.768-.948a9.564 9.564 0 0 0-1.428-1.1c.024-.144.048-.3.06-.456h1.356a11.043 11.043 0 0 0 .552 2.008 7.444 7.444 0 0 1-2 1.08 5.272 5.272 0 0 1 .744.912 8.663 8.663 0 0 0 1.812-.948 1.979 1.979 0 0 0 1.644.96c.936 0 1.272-.36 1.488-1.716a3.418 3.418 0 0 1-.924-.648c-.06.948-.168 1.176-.468 1.176a1.009 1.009 0 0 1-.8-.552 6.927 6.927 0 0 0 1.356-1.86Zm12.144-1.8c1.1 0 1.476-.444 1.632-1.98a3.945 3.945 0 0 1-1.26-.528c-.04 1.056-.128 1.236-.512 1.236h-1.308c-.456 0-.528-.048-.528-.48v-.708a22.018 22.018 0 0 0 3.072-1.128l-.912-1.032a18.7 18.7 0 0 1-2.16 1v-1.72h-1.416v3.612c0 1.32.336 1.74 1.74 1.74Zm-7.548 2.484v-.696h1.8v.708Zm1.8-2.388v.624h-1.8v-.612Zm1.4-1.176h-4.52v6.888h1.32v-2.256h1.8v.8c0 .144-.048.18-.192.18a9.969 9.969 0 0 1-1.056 0 5.28 5.28 0 0 1 .456 1.26 3.557 3.557 0 0 0 1.68-.24c.4-.2.516-.552.516-1.176Zm-1.8-3.06c.192.312.384.648.564.984l-1.6.072c.3-.636.624-1.356.9-2.052l-1.488-.3a18.957 18.957 0 0 1-.864 2.424c-.336.012-.648.024-.936.024l.12 1.356c1.224-.072 2.856-.168 4.44-.276a4.432 4.432 0 0 1 .216.636l1.308-.528a11.736 11.736 0 0 0-1.452-2.784Zm4.7 8.628c-.468 0-.552-.06-.552-.48v-.96a18.193 18.193 0 0 0 3.216-1.26l-.948-1.044a13.591 13.591 0 0 1-2.256 1.128v-1.62h-1.4v3.768c0 1.32.348 1.728 1.752 1.728h1.7c1.152 0 1.512-.468 1.668-2.16a4.443 4.443 0 0 1-1.248-.528c-.06 1.212-.144 1.44-.552 1.44Zm5.16-10.02-1.14.5a7.5 7.5 0 0 1 0 10.512l1.14.5a7.908 7.908 0 0 0 2.364-5.76 7.908 7.908 0 0 0-2.364-5.752ZM20.36 103.337h5.2v.516h-5.2Zm0-1.332h5.2v.5h-5.2Zm7.9 3.216h-4.548v-.48H27v-3.604h-8v3.612h3.264v.48H17.68v1.108h10.584Zm-8.02 4.276a9.02 9.02 0 0 1-2.856 1.332 10.3 10.3 0 0 1 1.044 1 11.968 11.968 0 0 0 3.12-1.8Zm.408-1.776h4.7v.768h-4.7Zm6.144 1.752v-2.748H19.28v2.748h3.036v1.224c0 .132-.06.168-.228.18s-.8.012-1.3-.012a4.437 4.437 0 0 1 .412 1.092 6.7 6.7 0 0 0 1.932-.156c.468-.156.6-.432.6-1.044v-1.284Zm-2.52.792a17.021 17.021 0 0 1 2.976 1.548l1.032-.84a19.093 19.093 0 0 0-3.06-1.464Zm12.288-3.972h2.208v.8H36.56Zm0-1.92h2.208v.8H36.56Zm0-1.908h2.208v.792H36.56Zm-4.908 7.1h.78v.624h-.78Zm.78-2.352h-.78v-.588h.78Zm0 1.452h-.78v-.564h.78Zm-1.832-5.012a5.677 5.677 0 0 0 .528-.792h.6c-.1.264-.2.54-.312.792Zm8.5 6.948c-.156 0-.168-.036-.168-.348v-1.908h1.14v-7.128h-4.76v7.128h.66a3.068 3.068 0 0 1-1.044 2.124v-.276h-1.3v-.624h1.132v-.9h-1.128v-.564h1.128v-.888h-1.128v-.588h1.3v-.936h-1.168c.132-.2.276-.444.408-.684l-1.284-.216a7.176 7.176 0 0 1-.3.9h-.84c.18-.3.348-.6.5-.924h2.76v-1.116h-2.252q.162-.4.288-.792H34.9v-1.116h-3.224a7.073 7.073 0 0 0 .252-.708l-1.26-.3a5.93 5.93 0 0 1-1.26 2.316 6.313 6.313 0 0 1 .864.6h-.72v1.116h1.284a7.386 7.386 0 0 1-1.56 1.884 8.4 8.4 0 0 1 .8 1.116c.108-.1.216-.2.324-.312v4.26h1.248v-.492h2.7a3.45 3.45 0 0 1 .492.744 3.989 3.989 0 0 0 2.332-3.624h.528v1.932c0 1.116.2 1.488 1.176 1.488h.7c.78 0 1.08-.42 1.188-2.064a3.51 3.51 0 0 1-1.092-.5c-.036 1.236-.072 1.4-.24 1.4Zm11.656-2.64a4.959 4.959 0 0 1-.7 1.092c-.1-.324-.192-.7-.276-1.092Zm-5.52-1.1c-.288-.5-.864-1.428-1.116-1.8v-.524h1.092v-1.268a7.744 7.744 0 0 1 .888.888c-.24.384-.492.744-.72 1.056l-.372.024.192 1.056c.672-.072 1.416-.168 2.2-.252.024.132.036.252.048.36l.812-.324c.036.264.072.528.1.78Zm1.716-2.324a5.659 5.659 0 0 1 .192.54l-.644.052a35.55 35.55 0 0 0 1.56-2.256c.024.96.084 1.884.168 2.76a7.153 7.153 0 0 0-.468-1.344Zm2.436.5c-.048-.6-.084-1.212-.1-1.86a8.113 8.113 0 0 1 .96.972c-.2.312-.408.612-.6.864Zm.2 1.812c-.06-.36-.108-.732-.144-1.128l.072.336c.336-.036.684-.084 1.056-.12l-.54.468a6.7 6.7 0 0 1 .576.444Zm1.236 1.1h1.68v-1.1H51.6l.228-.2a4.69 4.69 0 0 0-.912-.756l.888-.12a4.659 4.659 0 0 1 .1.468l.852-.36a7.354 7.354 0 0 0-.624-1.776l-.8.288c.072.156.144.324.2.492l-.732.052c.528-.708 1.1-1.584 1.584-2.34l-.972-.48c-.168.348-.384.756-.612 1.152l-.308-.312c.3-.468.648-1.116.984-1.716l-1.068-.404a11.88 11.88 0 0 1-.588 1.544l-.192-.144-.348.5a53.132 53.132 0 0 1 0-1.956h-1.26c0 .588.012 1.164.024 1.728l-.8-.4c-.168.36-.372.756-.612 1.164-.084-.1-.192-.2-.3-.312.288-.48.636-1.14.972-1.716l-1.056-.408a13.346 13.346 0 0 1-.588 1.548l-.2-.156-.528.78c.084.072.18.144.264.228H44.12v-2.472h-1.272v2.472h-1.284v1.3h1.188a12.618 12.618 0 0 1-1.464 4.048 8.135 8.135 0 0 1 .6 1.212 10.268 10.268 0 0 0 .96-2.26v4.432h1.272v-5.28c.24.528.48 1.08.6 1.44l.48-.708v.54h.744a3.822 3.822 0 0 1-1.476 3.06 3.306 3.306 0 0 1 .8.936 4.1 4.1 0 0 0 1.6-2.3 7.583 7.583 0 0 1 .924.816l.768-.948a9.564 9.564 0 0 0-1.428-1.1c.024-.144.048-.3.06-.456h1.356a11.043 11.043 0 0 0 .552 2.008 7.444 7.444 0 0 1-2 1.08 5.272 5.272 0 0 1 .744.912 8.663 8.663 0 0 0 1.808-.948 1.979 1.979 0 0 0 1.644.96c.936 0 1.272-.36 1.488-1.716a3.418 3.418 0 0 1-.924-.648c-.06.948-.168 1.176-.468 1.176a1.009 1.009 0 0 1-.8-.552 6.927 6.927 0 0 0 1.356-1.86Zm12.144-1.8c1.1 0 1.476-.444 1.632-1.98a3.945 3.945 0 0 1-1.26-.528c-.04 1.056-.128 1.236-.512 1.236H61.52c-.456 0-.528-.048-.528-.48v-.708a22.018 22.018 0 0 0 3.072-1.128l-.912-1.032a18.7 18.7 0 0 1-2.16 1v-1.716h-1.416v3.612c0 1.32.336 1.74 1.74 1.74Zm-7.544 2.496v-.708h1.8v.708Zm1.8-2.388v.624h-1.8v-.624Zm1.4-1.176H54.1v6.888h1.32v-2.268h1.8v.8c0 .144-.048.18-.192.18a9.97 9.97 0 0 1-1.056 0 5.28 5.28 0 0 1 .456 1.26 3.557 3.557 0 0 0 1.68-.24c.4-.2.516-.552.516-1.176Zm-1.8-3.06c.192.312.384.648.564.984l-1.6.072c.3-.636.624-1.356.9-2.052l-1.488-.3a18.957 18.957 0 0 1-.868 2.412c-.336.012-.648.024-.936.024l.12 1.356c1.224-.072 2.856-.168 4.44-.276a4.432 4.432 0 0 1 .216.636l1.308-.528a11.736 11.736 0 0 0-1.452-2.784Zm4.7 8.628c-.468 0-.552-.06-.552-.48v-.96a18.193 18.193 0 0 0 3.212-1.272l-.948-1.044a13.591 13.591 0 0 1-2.256 1.128v-1.62h-1.4v3.768c0 1.32.348 1.728 1.752 1.728h1.7c1.152 0 1.512-.468 1.668-2.16a4.443 4.443 0 0 1-1.248-.528c-.06 1.212-.144 1.44-.552 1.44ZM97.635 107.313a45.945 45.945 0 0 0-1.416-2.184v-.564h1.2v-1.32h-1.2v-2.472h-1.3v2.472h-1.44v1.32h1.332a12 12 0 0 1-1.604 4.02 6.847 6.847 0 0 1 .624 1.26 10.123 10.123 0 0 0 1.092-2.364v4.488h1.3v-5.112c.264.54.528 1.1.684 1.476Zm3.924 1.74v-.576h1.068v.576Zm-2.3-.576h1.02v.576h-1.02Zm1.02-1.44v.516h-1.02v-.516Zm2.352 0v.516h-1.068v-.516Zm-2.364-2.952h1.32v.5h-1.32Zm0-1.452h1.32v.492h-1.32Zm4.332 6.42h-.648v-3h-2.388v-.456h2.916v-1.008h-1.56v-.5h1.152v-.96h-1.152v-.492h1.344v-.984h-1.344v-.876h-1.332v.876h-1.32v-.876h-1.32v.876h-1.24v.984h1.236v.492h-.984v.96h.984v.5h-1.488v1.008h2.82v.456h-2.3v3h-.732v1.044h.732v1.788h1.284v-1.788h3.372v.5c0 .144-.048.18-.2.18s-.636.012-1.08-.012a4.971 4.971 0 0 1 .364 1.132 4.485 4.485 0 0 0 1.716-.192c.4-.192.516-.492.516-1.092v-.516h.648Zm7.236-5.724v1.02h-2.296a7.148 7.148 0 0 0 .792-1.02Zm-3.192 1.02v1.188h7.712v-1.188h-3.108v-1.02h2.616v-1.212h-2.616v-1.332h-1.416v1.332h-.84a8.739 8.739 0 0 0 .372-.924l-1.332-.312a6.516 6.516 0 0 1-1.7 2.8 8.891 8.891 0 0 1 1.188.672Zm2.352 2.976h3.152v1.224h-3.156Zm4.644 2.364v-3.492h-6.04v3.492Zm-7.096-6.828a9.609 9.609 0 0 0-2-1.812l-1.056.864a9.081 9.081 0 0 1 1.932 1.9Zm-.3 2.568h-2.772v1.308h1.38v2.532a15.759 15.759 0 0 1-1.644 1.104l.7 1.488c.66-.5 1.188-.972 1.716-1.44a3.992 3.992 0 0 0 3.236 1.332c1.428.06 3.84.036 5.28-.036a7.474 7.474 0 0 1 .444-1.44c-1.6.12-4.3.156-5.7.1a2.952 2.952 0 0 1-2.64-1.18Zm18.42 2.532a4.959 4.959 0 0 1-.7 1.092c-.1-.324-.192-.7-.276-1.092Zm-5.52-1.1c-.288-.5-.864-1.428-1.116-1.8v-.524h1.092v-1.268a7.744 7.744 0 0 1 .888.888c-.24.384-.492.744-.72 1.056l-.372.024.192 1.056c.672-.072 1.416-.168 2.2-.252.024.132.036.252.048.36l.812-.324c.036.264.072.528.1.78Zm1.716-2.324a5.659 5.659 0 0 1 .192.54l-.644.052a35.55 35.55 0 0 0 1.56-2.256c.024.96.084 1.884.168 2.76a7.153 7.153 0 0 0-.468-1.344Zm2.436.5c-.048-.6-.084-1.212-.1-1.86a8.113 8.113 0 0 1 .96.972c-.2.312-.408.612-.6.864Zm.2 1.812c-.06-.36-.108-.732-.144-1.128l.072.336c.336-.036.684-.084 1.056-.12l-.54.468a6.7 6.7 0 0 1 .576.444Zm1.236 1.1h1.68v-1.1h-.904l.228-.2a4.69 4.69 0 0 0-.912-.756l.888-.12a4.659 4.659 0 0 1 .1.468l.852-.36a7.354 7.354 0 0 0-.624-1.776l-.8.288c.072.156.144.324.2.492l-.732.052c.528-.708 1.1-1.584 1.584-2.34l-.972-.48c-.168.348-.384.756-.612 1.152l-.308-.312c.3-.468.648-1.116.984-1.716l-1.068-.404a11.88 11.88 0 0 1-.588 1.544l-.192-.144-.348.5a53.132 53.132 0 0 1 0-1.956h-1.26c0 .588.012 1.164.024 1.728l-.8-.4c-.168.36-.372.756-.612 1.164-.084-.1-.192-.2-.3-.312.288-.48.636-1.14.972-1.716l-1.056-.408a13.346 13.346 0 0 1-.588 1.548l-.2-.156-.528.78c.084.072.18.144.264.228h-1.076v-2.472h-1.272v2.472h-1.284v1.3h1.188a12.618 12.618 0 0 1-1.464 4.048 8.135 8.135 0 0 1 .6 1.212 10.268 10.268 0 0 0 .96-2.26v4.432h1.272v-5.28c.24.528.48 1.08.6 1.44l.48-.708v.54h.744a3.822 3.822 0 0 1-1.476 3.06 3.306 3.306 0 0 1 .8.936 4.1 4.1 0 0 0 1.6-2.3 7.583 7.583 0 0 1 .924.816l.768-.948a9.564 9.564 0 0 0-1.428-1.1c.024-.144.048-.3.06-.456h1.356a11.043 11.043 0 0 0 .552 2.008 7.444 7.444 0 0 1-2 1.08 5.272 5.272 0 0 1 .744.912 8.663 8.663 0 0 0 1.808-.948 1.979 1.979 0 0 0 1.644.96c.936 0 1.272-.36 1.488-1.716a3.418 3.418 0 0 1-.924-.648c-.06.948-.168 1.176-.468 1.176a1.009 1.009 0 0 1-.8-.552 6.927 6.927 0 0 0 1.356-1.86Zm12.144-1.8c1.1 0 1.476-.444 1.632-1.98a3.945 3.945 0 0 1-1.26-.528c-.04 1.056-.128 1.236-.512 1.236h-1.308c-.456 0-.528-.048-.528-.48v-.708a22.018 22.018 0 0 0 3.072-1.128l-.912-1.032a18.7 18.7 0 0 1-2.16 1v-1.716h-1.416v3.612c0 1.32.336 1.74 1.74 1.74Zm-7.544 2.496v-.708h1.8v.708Zm1.8-2.388v.624h-1.8v-.624Zm1.4-1.176h-4.524v6.888h1.32v-2.268h1.8v.8c0 .144-.048.18-.192.18a9.97 9.97 0 0 1-1.056 0 5.28 5.28 0 0 1 .456 1.26 3.557 3.557 0 0 0 1.68-.24c.4-.2.516-.552.516-1.176Zm-1.8-3.06c.192.312.384.648.564.984l-1.6.072c.3-.636.624-1.356.9-2.052l-1.488-.3a18.957 18.957 0 0 1-.868 2.412c-.336.012-.648.024-.936.024l.12 1.356c1.224-.072 2.856-.168 4.44-.276a4.432 4.432 0 0 1 .216.636l1.308-.528a11.736 11.736 0 0 0-1.452-2.784Zm4.7 8.628c-.468 0-.552-.06-.552-.48v-.96a18.193 18.193 0 0 0 3.212-1.272l-.948-1.044a13.591 13.591 0 0 1-2.256 1.128v-1.62h-1.4v3.768c0 1.32.348 1.728 1.752 1.728h1.7c1.152 0 1.512-.468 1.668-2.16a4.443 4.443 0 0 1-1.248-.528c-.06 1.212-.144 1.44-.552 1.44Z" fill="#3b3b3b"/></svg>