<svg xmlns="http://www.w3.org/2000/svg" width="162" height="152.006" viewBox="0 0 162 152.006"><g transform="translate(-1210.166 -3693)"><path d="M45.5,0A45.547,45.547,0,1,1,0,45.547,45.523,45.523,0,0,1,45.5,0Z" transform="translate(1245.425 3693)" fill="#a0e9aa" opacity="0.85"/><path d="M45.547,0A45.547,45.547,0,1,1,0,45.547,45.547,45.547,0,0,1,45.547,0Z" transform="translate(1210.166 3753.913)" fill="#eaef5e" opacity="0.85"/><path d="M45.547,0A45.547,45.547,0,1,1,0,45.547,45.547,45.547,0,0,1,45.547,0Z" transform="translate(1281.073 3753.913)" fill="#94c8eb" opacity="0.85"/><path d="M-26.064-8.052h-.78v-.78h.78Zm-1.68,0H-28.5v-.78h.756Zm-1.668,0h-.732v-.78h.732Zm4.536-1.74h-6.408v2.7h6.408Zm-6.936,4.224h7.38V-6.7h-7.38Zm.2,2.64-1.32.348V-4.62h1.092V-5.88h-1.092V-8.064h1.248V-9.312h-3.84v1.248h1.332V-5.88h-1.224v1.26h1.224v2.352c-.564.144-1.08.264-1.512.36l.3,1.32c1.152-.288,2.6-.684,3.972-1.08Zm6,.6a10.17,10.17,0,0,1-1.068.876,4.823,4.823,0,0,1-.708-.876Zm-4.236-1.788H-26.4v.78h-3.444Zm4.32,1.788h.444V-5.136h-6.012v2.808h1.944a11.363,11.363,0,0,1-3.48,1.776,5.582,5.582,0,0,1,.84,1.02A12.6,12.6,0,0,0-29.544-.708V1.044H-28.2V-1.548a6.054,6.054,0,0,0,2.916,2.592A5.349,5.349,0,0,1-24.4-.06,5.734,5.734,0,0,1-25.86-.78a13.305,13.305,0,0,0,1.272-.864ZM-15.156-8.3c-.1.288-.24.636-.36.9l.06.012H-16.98l.156-.036A3.827,3.827,0,0,0-17.16-8.3Zm2.712.912H-14.16c.132-.24.288-.528.444-.852l-.3-.06h1.356v-1.1H-15.5v-.732h-1.4v.732h-2.6v1.1h1.464l-.444.1a3.912,3.912,0,0,1,.3.816h-1.584v1.164h7.332ZM-19.8-3.756c-.372.156-.744.324-1.116.48v-2.7h1.092V-7.32h-1.092V-10h-1.32V-7.32h-1.188v1.344h1.188v3.24c-.552.216-1.056.408-1.464.552l.48,1.428c1.092-.5,2.472-1.128,3.732-1.74Zm2.028.3H-14.4v.612h-3.372Zm0-1.428H-14.4v.6h-3.372ZM-14.22-.228c-.216,0-.252-.036-.252-.336V-1.956H-13v-3.8H-19.1v3.8h1.02C-18.3-1.08-18.828-.48-20.712-.12a4.3,4.3,0,0,1,.78,1.2c2.292-.588,2.988-1.6,3.252-3.036h.852v1.4c0,1.14.24,1.536,1.368,1.536h.936c.84,0,1.176-.36,1.308-1.74a3.419,3.419,0,0,1-1.188-.5c-.024.912-.084,1.032-.276,1.032Zm5.292-9.912A12.655,12.655,0,0,1-11.76-5.652a9.539,9.539,0,0,1,.768,1.464,13.675,13.675,0,0,0,.912-1.068V1.02h1.356V-7.344A20.065,20.065,0,0,0-7.608-9.708Zm2.916,1.752H-2.5V-6.78H-6.012ZM-.48-3.144v-1.3h-3.1V-5.52h2.508V-9.636h-6.3V-5.52h2.352v1.08H-8.16v1.3H-5.7A8.621,8.621,0,0,1-8.592-.552,5.893,5.893,0,0,1-7.608.588a9.623,9.623,0,0,0,2.592-2.58V1.044h1.44v-3.1A9.909,9.909,0,0,0-1.14.612,6.075,6.075,0,0,1-.132-.528,9.031,9.031,0,0,1-2.88-3.144Zm3.432-2.7a13.824,13.824,0,0,0,3-2.976,14.462,14.462,0,0,0,3.1,2.976ZM6.708-1.956h3.36V-3.2H6.708v-1.38H9.516V-5.52a15.213,15.213,0,0,0,1.3.8A6.953,6.953,0,0,1,11.76-6a12.682,12.682,0,0,1-5.136-4.2H5.148A13.1,13.1,0,0,1,.276-5.856a5.272,5.272,0,0,1,.9,1.152,15.354,15.354,0,0,0,1.332-.828v.948H5.22V-3.2H1.9v1.248H5.22V-.528H.936V.756H11.148V-.528H6.708Zm15.048-1.02a4.959,4.959,0,0,1-.7,1.092c-.1-.324-.192-.7-.276-1.092Zm-5.52-1.1c-.288-.5-.864-1.428-1.116-1.8V-6.4h1.092V-7.668a7.744,7.744,0,0,1,.888.888c-.24.384-.492.744-.72,1.056l-.372.024L16.2-4.644c.672-.072,1.416-.168,2.2-.252.024.132.036.252.048.36l.816-.324c.036.264.072.528.1.78ZM17.952-6.4a5.66,5.66,0,0,1,.192.54l-.648.048c.516-.672,1.08-1.512,1.56-2.256.024.96.084,1.884.168,2.76a7.153,7.153,0,0,0-.468-1.344Zm2.436.5c-.048-.6-.084-1.212-.1-1.86a8.114,8.114,0,0,1,.96.972c-.2.312-.408.612-.6.864Zm.2,1.812c-.06-.36-.108-.732-.144-1.128l.072.336c.336-.036.684-.084,1.056-.12l-.54.468a6.7,6.7,0,0,1,.576.444Zm1.236,1.1h1.68v-1.1H22.6l.228-.2a4.69,4.69,0,0,0-.912-.756l.888-.12a4.659,4.659,0,0,1,.1.468l.852-.36a7.354,7.354,0,0,0-.624-1.776l-.8.288c.072.156.144.324.2.492L21.8-6c.528-.708,1.1-1.584,1.584-2.34l-.972-.48c-.168.348-.384.756-.612,1.152l-.312-.312c.3-.468.648-1.116.984-1.716L21.408-10.1a11.88,11.88,0,0,1-.588,1.548L20.628-8.7l-.348.5c-.012-.636-.012-1.284,0-1.956H19.02c0,.588.012,1.164.024,1.728l-.8-.4c-.168.36-.372.756-.612,1.164-.084-.1-.192-.2-.3-.312.288-.48.636-1.14.972-1.716l-1.056-.408a13.346,13.346,0,0,1-.588,1.548l-.2-.156-.528.78c.084.072.18.144.264.228H15.12v-2.472H13.848v2.472H12.564v1.3h1.188a12.618,12.618,0,0,1-1.464,4.044,8.135,8.135,0,0,1,.6,1.212,10.268,10.268,0,0,0,.96-2.256V1.032H15.12v-5.28c.24.528.48,1.08.6,1.44l.48-.708v.54h.744A3.822,3.822,0,0,1,15.468.084a3.305,3.305,0,0,1,.8.936,4.1,4.1,0,0,0,1.6-2.3,7.583,7.583,0,0,1,.924.816l.768-.948a9.564,9.564,0,0,0-1.428-1.1c.024-.144.048-.3.06-.456h1.356A11.043,11.043,0,0,0,20.1-.96a7.444,7.444,0,0,1-2,1.08,5.272,5.272,0,0,1,.744.912A8.663,8.663,0,0,0,20.652.084a1.979,1.979,0,0,0,1.644.96c.936,0,1.272-.36,1.488-1.716a3.418,3.418,0,0,1-.924-.648c-.06.948-.168,1.176-.468,1.176a1.009,1.009,0,0,1-.8-.552,6.927,6.927,0,0,0,1.356-1.86Zm12.144-1.8c1.1,0,1.476-.444,1.632-1.98a3.945,3.945,0,0,1-1.26-.528C34.3-6.24,34.212-6.06,33.828-6.06H32.52c-.456,0-.528-.048-.528-.48v-.708a22.018,22.018,0,0,0,3.072-1.128l-.912-1.032a18.7,18.7,0,0,1-2.16,1v-1.716H30.576v3.612c0,1.32.336,1.74,1.74,1.74ZM26.424-2.292V-3h1.8v.708Zm1.8-2.388v.624h-1.8V-4.68Zm1.4-1.176H25.1V1.032h1.32V-1.236h1.8v.8c0,.144-.048.18-.192.18a9.97,9.97,0,0,1-1.056,0,5.28,5.28,0,0,1,.456,1.26,3.557,3.557,0,0,0,1.68-.24c.4-.2.516-.552.516-1.176Zm-1.8-3.06c.192.312.384.648.564.984l-1.6.072c.3-.636.624-1.356.9-2.052l-1.488-.3A18.957,18.957,0,0,1,25.332-7.8c-.336.012-.648.024-.936.024l.12,1.356c1.224-.072,2.856-.168,4.44-.276a4.432,4.432,0,0,1,.216.636l1.308-.528a11.736,11.736,0,0,0-1.452-2.784Zm4.7,8.628c-.468,0-.552-.06-.552-.48v-.96A18.193,18.193,0,0,0,35.184-3l-.948-1.044A13.591,13.591,0,0,1,31.98-2.916v-1.62h-1.4V-.768c0,1.32.348,1.728,1.752,1.728h1.7C35.184.96,35.544.492,35.7-1.2a4.443,4.443,0,0,1-1.248-.528c-.06,1.212-.144,1.44-.552,1.44ZM-25.68,17.2l1.14-.5a7.455,7.455,0,0,1-2.148-5.256A7.455,7.455,0,0,1-24.54,6.184l-1.14-.5a7.908,7.908,0,0,0-2.364,5.76A7.908,7.908,0,0,0-25.68,17.2Zm8.448-1.9V12.892h3.588v-1.38h-3.588V9.4h4.044V8.008h-4.044V5.848h-1.5v2.16H-20.58c.2-.552.4-1.116.564-1.692l-1.476-.324a10.324,10.324,0,0,1-2.124,4.3,11.348,11.348,0,0,1,1.284.852A9.89,9.89,0,0,0-21.216,9.4h2.484v2.112h-3.252v1.38h3.252V15.3h-4.632v1.4h10.788V15.3Zm7.908-9.42a12.637,12.637,0,0,1-2.484,4.488,8.554,8.554,0,0,1,.792,1.488c.24-.288.492-.612.732-.936v6.1h1.356V8.608a21.016,21.016,0,0,0,.96-2.316Zm5.508,7.872V10.624A17.552,17.552,0,0,0-2.34,13.756Zm-2.856,0a15.593,15.593,0,0,0,1.464-3.048v3.048ZM-.5,9.328V7.972H-3.816V5.9H-5.208V7.972H-8.244V9.328H-5.88A12.271,12.271,0,0,1-8.868,14.2a5.816,5.816,0,0,1,1.02,1.08A8.885,8.885,0,0,0-6.78,13.924v1.1h1.572V16.96h1.392V15.028h1.608V13.972a11,11,0,0,0,.96,1.272A5.841,5.841,0,0,1-.18,14.14,12.964,12.964,0,0,1-3.108,9.328Zm10.26,3.7a4.959,4.959,0,0,1-.7,1.092c-.1-.324-.192-.7-.276-1.092Zm-5.52-1.1c-.288-.5-.864-1.428-1.116-1.8V9.6H4.212V8.332A7.744,7.744,0,0,1,5.1,9.22c-.24.384-.492.744-.72,1.056l-.372.024L4.2,11.356c.672-.072,1.416-.168,2.2-.252.024.132.036.252.048.36l.816-.324c.036.264.072.528.1.78ZM5.952,9.6a5.659,5.659,0,0,1,.192.54l-.648.048c.516-.672,1.08-1.512,1.56-2.256.024.96.084,1.884.168,2.76a7.153,7.153,0,0,0-.468-1.344Zm2.436.5c-.048-.6-.084-1.212-.1-1.86a8.114,8.114,0,0,1,.96.972c-.2.312-.408.612-.6.864Zm.2,1.812c-.06-.36-.108-.732-.144-1.128l.072.336c.336-.036.684-.084,1.056-.12l-.54.468a6.7,6.7,0,0,1,.576.444Zm1.236,1.1h1.68v-1.1H10.6l.228-.2a4.69,4.69,0,0,0-.912-.756l.888-.12a4.659,4.659,0,0,1,.1.468l.852-.36a7.354,7.354,0,0,0-.624-1.776l-.8.288c.072.156.144.324.2.492L9.8,10c.528-.708,1.1-1.584,1.584-2.34l-.972-.48c-.168.348-.384.756-.612,1.152L9.492,8.02c.3-.468.648-1.116.984-1.716L9.408,5.9A11.88,11.88,0,0,1,8.82,7.444L8.628,7.3l-.348.5c-.012-.636-.012-1.284,0-1.956H7.02c0,.588.012,1.164.024,1.728l-.8-.4c-.168.36-.372.756-.612,1.164-.084-.1-.192-.2-.3-.312.288-.48.636-1.14.972-1.716L5.244,5.908a13.346,13.346,0,0,1-.588,1.548l-.2-.156-.528.78c.084.072.18.144.264.228H3.12V5.836H1.848V8.308H.564V9.6H1.752A12.618,12.618,0,0,1,.288,13.648a8.135,8.135,0,0,1,.6,1.212,10.268,10.268,0,0,0,.96-2.256v4.428H3.12v-5.28c.24.528.48,1.08.6,1.44l.48-.708v.54h.744a3.822,3.822,0,0,1-1.476,3.06,3.306,3.306,0,0,1,.8.936,4.1,4.1,0,0,0,1.6-2.3,7.583,7.583,0,0,1,.924.816l.768-.948a9.564,9.564,0,0,0-1.428-1.1c.024-.144.048-.3.06-.456H7.548A11.043,11.043,0,0,0,8.1,15.04a7.444,7.444,0,0,1-2,1.08,5.272,5.272,0,0,1,.744.912,8.663,8.663,0,0,0,1.812-.948,1.979,1.979,0,0,0,1.644.96c.936,0,1.272-.36,1.488-1.716a3.418,3.418,0,0,1-.924-.648c-.06.948-.168,1.176-.468,1.176a1.009,1.009,0,0,1-.8-.552,6.927,6.927,0,0,0,1.356-1.86Zm12.144-1.8c1.1,0,1.476-.444,1.632-1.98a3.945,3.945,0,0,1-1.26-.528C22.3,9.76,22.212,9.94,21.828,9.94H20.52c-.456,0-.528-.048-.528-.48V8.752a22.018,22.018,0,0,0,3.072-1.128l-.912-1.032a18.7,18.7,0,0,1-2.16,1V5.872H18.576V9.484c0,1.32.336,1.74,1.74,1.74Zm-7.548,2.484V13h1.8v.708Zm1.8-2.388v.624h-1.8V11.32Zm1.4-1.176H13.1v6.888h1.32V14.764h1.8v.8c0,.144-.048.18-.192.18a9.969,9.969,0,0,1-1.056,0,5.28,5.28,0,0,1,.456,1.26,3.557,3.557,0,0,0,1.68-.24c.4-.2.516-.552.516-1.176Zm-1.8-3.06c.192.312.384.648.564.984l-1.6.072c.3-.636.624-1.356.9-2.052l-1.488-.3A18.957,18.957,0,0,1,13.332,8.2c-.336.012-.648.024-.936.024l.12,1.356c1.224-.072,2.856-.168,4.44-.276a4.432,4.432,0,0,1,.216.636l1.308-.528a11.736,11.736,0,0,0-1.452-2.784Zm4.7,8.628c-.468,0-.552-.06-.552-.48v-.96A18.193,18.193,0,0,0,23.184,13l-.948-1.044a13.591,13.591,0,0,1-2.256,1.128v-1.62h-1.4v3.768c0,1.32.348,1.728,1.752,1.728h1.7c1.152,0,1.512-.468,1.668-2.16a4.443,4.443,0,0,1-1.248-.528c-.06,1.212-.144,1.44-.552,1.44ZM25.68,5.68l-1.14.5a7.5,7.5,0,0,1,0,10.512l1.14.5a7.908,7.908,0,0,0,2.364-5.76A7.908,7.908,0,0,0,25.68,5.68Z" transform="translate(1289.955 3732.803)" fill="#3b3b3b"/><path d="M-20.64-7.6h5.2v.516h-5.2Zm0-1.332h5.2v.5h-5.2Zm7.9,3.216h-4.548v-.48H-14V-9.8h-8v3.612h3.264v.48h-4.584V-4.6h10.584ZM-20.76-1.44A9.02,9.02,0,0,1-23.616-.108a10.3,10.3,0,0,1,1.044,1,11.968,11.968,0,0,0,3.12-1.8Zm.408-1.776h4.7v.768h-4.7Zm6.144,1.752V-4.212H-21.72v2.748h3.036V-.24c0,.132-.06.168-.228.18s-.8.012-1.3-.012A4.437,4.437,0,0,1-19.8,1.02,6.7,6.7,0,0,0-17.868.864c.468-.156.6-.432.6-1.044V-1.464Zm-2.52.792A17.021,17.021,0,0,1-13.752.876l1.032-.84a19.093,19.093,0,0,0-3.06-1.464ZM-4.44-4.644h2.208v.8H-4.44Zm0-1.92h2.208v.8H-4.44Zm0-1.908h2.208v.792H-4.44Zm-4.908,7.1h.78v.624h-.78Zm.78-2.352h-.78v-.588h.78Zm0,1.452h-.78v-.564h.78ZM-10.4-7.284a5.677,5.677,0,0,0,.528-.792h.6c-.1.264-.2.54-.312.792ZM-1.9-.336c-.156,0-.168-.036-.168-.348V-2.592h1.14V-9.72H-5.688v7.128h.66A3.068,3.068,0,0,1-6.072-.468V-.744h-1.3v-.624H-6.24v-.9H-7.368v-.564H-6.24V-3.72H-7.368v-.588h1.3v-.936H-7.236c.132-.2.276-.444.408-.684l-1.284-.216a7.176,7.176,0,0,1-.3.9h-.84c.18-.3.348-.6.5-.924h2.76V-7.284H-8.244q.162-.4.288-.792H-6.1V-9.192H-9.324A7.073,7.073,0,0,0-9.072-9.9l-1.26-.3a5.93,5.93,0,0,1-1.26,2.316,6.313,6.313,0,0,1,.864.6h-.72v1.116h1.284a7.386,7.386,0,0,1-1.56,1.884,8.4,8.4,0,0,1,.8,1.116c.108-.1.216-.2.324-.312V.78h1.248V.288h2.7a3.45,3.45,0,0,1,.492.744A3.989,3.989,0,0,0-3.828-2.592H-3.3V-.66C-3.3.456-3.1.828-2.124.828h.7c.78,0,1.08-.42,1.188-2.064a3.51,3.51,0,0,1-1.092-.5c-.036,1.236-.072,1.4-.24,1.4ZM9.756-2.976a4.959,4.959,0,0,1-.7,1.092c-.1-.324-.192-.7-.276-1.092Zm-5.52-1.1c-.288-.5-.864-1.428-1.116-1.8V-6.4H4.212V-7.668A7.744,7.744,0,0,1,5.1-6.78c-.24.384-.492.744-.72,1.056L4.008-5.7,4.2-4.644c.672-.072,1.416-.168,2.2-.252.024.132.036.252.048.36L7.26-4.86c.036.264.072.528.1.78ZM5.952-6.4a5.659,5.659,0,0,1,.192.54L5.5-5.808c.516-.672,1.08-1.512,1.56-2.256.024.96.084,1.884.168,2.76a7.153,7.153,0,0,0-.468-1.344Zm2.436.5c-.048-.6-.084-1.212-.1-1.86a8.113,8.113,0,0,1,.96.972c-.2.312-.408.612-.6.864Zm.2,1.812c-.06-.36-.108-.732-.144-1.128l.072.336c.336-.036.684-.084,1.056-.12l-.54.468a6.7,6.7,0,0,1,.576.444Zm1.236,1.1h1.68v-1.1H10.6l.228-.2a4.69,4.69,0,0,0-.912-.756l.888-.12a4.659,4.659,0,0,1,.1.468l.852-.36a7.354,7.354,0,0,0-.624-1.776l-.8.288c.072.156.144.324.2.492L9.8-6c.528-.708,1.1-1.584,1.584-2.34l-.972-.48c-.168.348-.384.756-.612,1.152L9.492-7.98c.3-.468.648-1.116.984-1.716L9.408-10.1A11.88,11.88,0,0,1,8.82-8.556L8.628-8.7l-.348.5c-.012-.636-.012-1.284,0-1.956H7.02c0,.588.012,1.164.024,1.728l-.8-.4c-.168.36-.372.756-.612,1.164-.084-.1-.192-.2-.3-.312.288-.48.636-1.14.972-1.716l-1.056-.408a13.346,13.346,0,0,1-.588,1.548l-.2-.156-.528.78c.084.072.18.144.264.228H3.12v-2.472H1.848v2.472H.564v1.3H1.752A12.618,12.618,0,0,1,.288-2.352a8.135,8.135,0,0,1,.6,1.212A10.268,10.268,0,0,0,1.848-3.4V1.032H3.12v-5.28c.24.528.48,1.08.6,1.44l.48-.708v.54h.744A3.822,3.822,0,0,1,3.468.084a3.306,3.306,0,0,1,.8.936,4.1,4.1,0,0,0,1.6-2.3,7.583,7.583,0,0,1,.924.816l.768-.948a9.564,9.564,0,0,0-1.428-1.1c.024-.144.048-.3.06-.456H7.548A11.043,11.043,0,0,0,8.1-.96,7.444,7.444,0,0,1,6.1.12a5.272,5.272,0,0,1,.744.912A8.663,8.663,0,0,0,8.652.084a1.979,1.979,0,0,0,1.644.96c.936,0,1.272-.36,1.488-1.716a3.418,3.418,0,0,1-.924-.648c-.06.948-.168,1.176-.468,1.176a1.009,1.009,0,0,1-.8-.552,6.927,6.927,0,0,0,1.356-1.86Zm12.144-1.8c1.1,0,1.476-.444,1.632-1.98a3.945,3.945,0,0,1-1.26-.528C22.3-6.24,22.212-6.06,21.828-6.06H20.52c-.456,0-.528-.048-.528-.48v-.708a22.018,22.018,0,0,0,3.072-1.128l-.912-1.032a18.7,18.7,0,0,1-2.16,1v-1.716H18.576v3.612c0,1.32.336,1.74,1.74,1.74ZM14.424-2.292V-3h1.8v.708Zm1.8-2.388v.624h-1.8V-4.68Zm1.4-1.176H13.1V1.032h1.32V-1.236h1.8v.8c0,.144-.048.18-.192.18a9.97,9.97,0,0,1-1.056,0,5.28,5.28,0,0,1,.456,1.26,3.557,3.557,0,0,0,1.68-.24c.4-.2.516-.552.516-1.176Zm-1.8-3.06c.192.312.384.648.564.984l-1.6.072c.3-.636.624-1.356.9-2.052l-1.488-.3A18.957,18.957,0,0,1,13.332-7.8c-.336.012-.648.024-.936.024l.12,1.356c1.224-.072,2.856-.168,4.44-.276a4.432,4.432,0,0,1,.216.636l1.308-.528a11.736,11.736,0,0,0-1.452-2.784Zm4.7,8.628c-.468,0-.552-.06-.552-.48v-.96A18.193,18.193,0,0,0,23.184-3l-.948-1.044A13.591,13.591,0,0,1,19.98-2.916v-1.62h-1.4V-.768c0,1.32.348,1.728,1.752,1.728h1.7C23.184.96,23.544.492,23.7-1.2a4.443,4.443,0,0,1-1.248-.528c-.06,1.212-.144,1.44-.552,1.44Z" transform="translate(1251.166 3803.937)" fill="#3b3b3b"/><path d="M-19.272-3.624c-.192-.336-1.08-1.716-1.416-2.184v-.564h1.2v-1.32h-1.2v-2.472h-1.3v2.472h-1.44v1.32h1.332A12,12,0,0,1-23.7-2.352a6.847,6.847,0,0,1,.624,1.26,10.123,10.123,0,0,0,1.092-2.364V1.032h1.3V-4.08c.264.54.528,1.1.684,1.476Zm3.924,1.74V-2.46h1.068v.576Zm-2.3-.576h1.02v.576h-1.02Zm1.02-1.44v.516h-1.02V-3.9Zm2.352,0v.516h-1.068V-3.9Zm-2.364-2.952h1.32v.5h-1.32Zm0-1.452h1.32v.492h-1.32Zm4.332,6.42h-.648v-3h-2.388V-5.34h2.916V-6.348h-1.56v-.5h1.152v-.96h-1.152V-8.3h1.344v-.984h-1.344v-.876h-1.332v.876h-1.32v-.876h-1.32v.876H-19.2V-8.3h1.236v.492h-.984v.96h.984v.5h-1.488V-5.34h2.82v.456h-2.3v3h-.732V-.84h.732V.948h1.284V-.84h3.372v.5c0,.144-.048.18-.2.18s-.636.012-1.08-.012A4.971,4.971,0,0,1-15.192.96,4.485,4.485,0,0,0-13.476.768c.4-.192.516-.492.516-1.092V-.84h.648Zm7.236-5.724v1.02H-7.368a7.148,7.148,0,0,0,.792-1.02Zm-3.192,1.02V-5.4H-.552V-6.588H-3.66v-1.02h2.616V-8.82H-3.66v-1.332H-5.076V-8.82h-.84a8.739,8.739,0,0,0,.372-.924l-1.332-.312a6.516,6.516,0,0,1-1.7,2.8,8.891,8.891,0,0,1,1.188.672Zm2.352,2.976H-2.76v1.224H-5.916Zm4.644,2.364V-4.74H-7.308v3.492ZM-8.364-8.076a9.609,9.609,0,0,0-2-1.812l-1.056.864a9.081,9.081,0,0,1,1.932,1.9Zm-.3,2.568h-2.772V-4.2h1.38v2.532A15.759,15.759,0,0,1-11.7-.564L-11,.924c.66-.5,1.188-.972,1.716-1.44A3.992,3.992,0,0,0-6.048.816C-4.62.876-2.208.852-.768.78A7.474,7.474,0,0,1-.324-.66c-1.6.12-4.3.156-5.7.1A2.952,2.952,0,0,1-8.664-1.74ZM9.756-2.976a4.959,4.959,0,0,1-.7,1.092c-.1-.324-.192-.7-.276-1.092Zm-5.52-1.1c-.288-.5-.864-1.428-1.116-1.8V-6.4H4.212V-7.668A7.744,7.744,0,0,1,5.1-6.78c-.24.384-.492.744-.72,1.056L4.008-5.7,4.2-4.644c.672-.072,1.416-.168,2.2-.252.024.132.036.252.048.36L7.26-4.86c.036.264.072.528.1.78ZM5.952-6.4a5.659,5.659,0,0,1,.192.54L5.5-5.808c.516-.672,1.08-1.512,1.56-2.256.024.96.084,1.884.168,2.76a7.153,7.153,0,0,0-.468-1.344Zm2.436.5c-.048-.6-.084-1.212-.1-1.86a8.113,8.113,0,0,1,.96.972c-.2.312-.408.612-.6.864Zm.2,1.812c-.06-.36-.108-.732-.144-1.128l.072.336c.336-.036.684-.084,1.056-.12l-.54.468a6.7,6.7,0,0,1,.576.444Zm1.236,1.1h1.68v-1.1H10.6l.228-.2a4.69,4.69,0,0,0-.912-.756l.888-.12a4.659,4.659,0,0,1,.1.468l.852-.36a7.354,7.354,0,0,0-.624-1.776l-.8.288c.072.156.144.324.2.492L9.8-6c.528-.708,1.1-1.584,1.584-2.34l-.972-.48c-.168.348-.384.756-.612,1.152L9.492-7.98c.3-.468.648-1.116.984-1.716L9.408-10.1A11.88,11.88,0,0,1,8.82-8.556L8.628-8.7l-.348.5c-.012-.636-.012-1.284,0-1.956H7.02c0,.588.012,1.164.024,1.728l-.8-.4c-.168.36-.372.756-.612,1.164-.084-.1-.192-.2-.3-.312.288-.48.636-1.14.972-1.716l-1.056-.408a13.346,13.346,0,0,1-.588,1.548l-.2-.156-.528.78c.084.072.18.144.264.228H3.12v-2.472H1.848v2.472H.564v1.3H1.752A12.618,12.618,0,0,1,.288-2.352a8.135,8.135,0,0,1,.6,1.212A10.268,10.268,0,0,0,1.848-3.4V1.032H3.12v-5.28c.24.528.48,1.08.6,1.44l.48-.708v.54h.744A3.822,3.822,0,0,1,3.468.084a3.306,3.306,0,0,1,.8.936,4.1,4.1,0,0,0,1.6-2.3,7.583,7.583,0,0,1,.924.816l.768-.948a9.564,9.564,0,0,0-1.428-1.1c.024-.144.048-.3.06-.456H7.548A11.043,11.043,0,0,0,8.1-.96,7.444,7.444,0,0,1,6.1.12a5.272,5.272,0,0,1,.744.912A8.663,8.663,0,0,0,8.652.084a1.979,1.979,0,0,0,1.644.96c.936,0,1.272-.36,1.488-1.716a3.418,3.418,0,0,1-.924-.648c-.06.948-.168,1.176-.468,1.176a1.009,1.009,0,0,1-.8-.552,6.927,6.927,0,0,0,1.356-1.86Zm12.144-1.8c1.1,0,1.476-.444,1.632-1.98a3.945,3.945,0,0,1-1.26-.528C22.3-6.24,22.212-6.06,21.828-6.06H20.52c-.456,0-.528-.048-.528-.48v-.708a22.018,22.018,0,0,0,3.072-1.128l-.912-1.032a18.7,18.7,0,0,1-2.16,1v-1.716H18.576v3.612c0,1.32.336,1.74,1.74,1.74ZM14.424-2.292V-3h1.8v.708Zm1.8-2.388v.624h-1.8V-4.68Zm1.4-1.176H13.1V1.032h1.32V-1.236h1.8v.8c0,.144-.048.18-.192.18a9.97,9.97,0,0,1-1.056,0,5.28,5.28,0,0,1,.456,1.26,3.557,3.557,0,0,0,1.68-.24c.4-.2.516-.552.516-1.176Zm-1.8-3.06c.192.312.384.648.564.984l-1.6.072c.3-.636.624-1.356.9-2.052l-1.488-.3A18.957,18.957,0,0,1,13.332-7.8c-.336.012-.648.024-.936.024l.12,1.356c1.224-.072,2.856-.168,4.44-.276a4.432,4.432,0,0,1,.216.636l1.308-.528a11.736,11.736,0,0,0-1.452-2.784Zm4.7,8.628c-.468,0-.552-.06-.552-.48v-.96A18.193,18.193,0,0,0,23.184-3l-.948-1.044A13.591,13.591,0,0,1,19.98-2.916v-1.62h-1.4V-.768c0,1.32.348,1.728,1.752,1.728h1.7C23.184.96,23.544.492,23.7-1.2a4.443,4.443,0,0,1-1.248-.528c-.06,1.212-.144,1.44-.552,1.44Z" transform="translate(1327.073 3803.937)" fill="#3b3b3b"/></g></svg>