<svg xmlns="http://www.w3.org/2000/svg" width="482.04" height="166"><path d="M19.68 164.68H36.6V127.6l19.44-60.12h-16.2L28.56 106l-12-38.52H0l19.68 60.12Zm36.24 0H72.6l3.96-22.44h16.92l3.84 22.44h16.44l-19.44-97.2H75.36Zm22.44-33.72 6.6-40.8 6.6 40.8Zm44.88 33.72h13.32l1.32-67.8 14.04 67.8h10.68l13.8-67.56 1.44 67.56h13.2l-1.8-97.2h-17.88l-14.28 67.32-13.8-67.32h-18.36Zm77.28 0h16.68l3.96-22.44h16.92l3.84 22.44h16.44l-19.44-97.2h-18.96Zm22.44-33.72 6.6-40.8 6.6 40.8Zm50.28 33.72H291V80.56h15.12V67.48h-48.36v13.08h15.48Zm67.8 1.32c20.76 0 27.96-12.24 27.96-31.8V97.72c0-19.68-7.2-31.32-27.96-31.32-20.88 0-28.08 11.64-28.08 31.32v36.48c0 19.68 7.08 31.8 28.08 31.8Zm0-13.08c-8.76 0-10.08-6.48-10.08-14.52V93.64c0-8.16 1.44-14.28 10.08-14.28S351 85.48 351 93.64v44.76c0 8.04-1.32 14.52-9.96 14.52Zm40.8 11.76h13.32l1.32-67.8 14.04 67.8h10.68L435 97.12l1.44 67.56h13.2l-1.8-97.2h-17.88l-14.28 67.32-13.8-67.32h-18.36Zm82.68 0h17.52v-97.2h-17.52Zm-320.94-132h12.64v-3.24h-8.12V17.56h6.52v-3.2h-6.52V3.64h8.04V.28h-12.56Zm24.4.36c6.36 0 8.16-4.04 8.16-10v-2.4h-4.28v2.4c0 3.84-.2 6.44-3.84 6.44-3.12 0-4.2-1.6-4.2-6.48V10.16c0-4 .36-6.64 4.2-6.64 3.76 0 3.84 2.48 3.84 6.08v2.28h4.28V9.32c0-5.84-2.12-9.32-8.16-9.32-6.88 0-8.72 4.28-8.72 10.84v11.44c0 6.04 1.84 10.76 8.72 10.76Zm20.76 0c6.52 0 8.84-4.12 8.84-10.48V10.24c0-6.36-2.32-10.24-8.84-10.24-6.56 0-8.88 3.84-8.88 10.24v12.28c0 6.44 2.28 10.52 8.88 10.52Zm0-3.56c-3.64 0-4.32-2.36-4.32-5.96V9.32c0-3.6.68-5.8 4.32-5.8 3.6 0 4.28 2.2 4.28 5.8v14.2c0 3.6-.68 5.96-4.28 5.96Zm22.44 3.2h4.52V17.52h6.2v-3.2h-6.2V3.52h8V.28h-12.52Zm15.64 0h4.52v-15.2h3.52l4.24 15.2h4.36l-4.6-16.24c2.88-.96 4-3.76 4-7.56 0-6.16-3.04-8.6-9.52-8.6h-6.52Zm4.52-18.44V3.52h2c4.12 0 5.16 1.56 5.16 5.36 0 4.16-1.64 5.36-5.44 5.36Zm16.48 18.44h4.44V.28h-4.44Zm9.68 0h12.64v-3.24h-8.12V17.56h6.52v-3.2h-6.52V3.64h8.04V.28H257.5Zm16.28 0h3.84V10.56l9.32 22.12h2.88V.28h-3.76V21.8L276.86.28h-3.08Zm21.12 0h7.4c6.8 0 9.24-3.72 9.24-10.6V10.16c0-6.56-2.4-9.88-9.6-9.88h-7.04Zm4.52-3.24V3.64h2.44c4.64 0 5.12 2.08 5.12 7.08v10.52c0 5.24-.08 8.2-5 8.2Zm16.56 3.24h12.8v-3.24h-8.28V.28h-4.52Zm19.72 0h4.32V21.24L346.98.28h-4.24l-4.88 15.64L332.9.28h-4.2l7 20.96Z" fill="#fff"/></svg>