<svg xmlns="http://www.w3.org/2000/svg" width="195.1" height="19.2" viewBox="0 0 195.1 19.2"><path d="M-82.54.44c-.04-.6-.08-1.66-.08-2.36V-12.28c0-.58.04-1.38.06-1.84-.34.02-1.18.04-1.76.04H-94.38c-.7,0-1.74-.04-2.48-.12v2.78c.56-.04,1.64-.08,2.48-.08h8.98v8.28h-9.22c-.9,0-1.8-.06-2.5-.12V-.48c.66-.06,1.8-.12,2.58-.12h9.12c0,.38,0,.72-.02,1.04Zm7.36-15.64-1.88,2a41.585,41.585,0,0,1,5,4.32l2.04-2.1A42,42,0,0,0-75.18-15.2Zm-2.5,13.32L-76,.76a21.659,21.659,0,0,0,7.42-2.82,21.267,21.267,0,0,0,7.4-7.4l-1.56-2.82A18.965,18.965,0,0,1-70.02-4.5,20.614,20.614,0,0,1-77.68-1.88ZM-44.06-13.7a6.413,6.413,0,0,1-1.74.24h-4.02l.06-.1c.24-.44.74-1.34,1.22-2.04l-2.92-.96a9.622,9.622,0,0,1-.9,2.1A17.61,17.61,0,0,1-58.6-8.02l2.24,1.66a22.8,22.8,0,0,0,5.04-4.84h5.62a14.217,14.217,0,0,1-2.84,5.46A15.939,15.939,0,0,1-56.6-.8l2.36,2.12a18.842,18.842,0,0,0,8.08-5.64A20.868,20.868,0,0,0-42.68-11a8.008,8.008,0,0,1,.66-1.44Zm7.96-1.64a13.6,13.6,0,0,1,.08,1.52v6.74c0,.6-.08,1.38-.1,1.76h2.96c-.04-.46-.06-1.24-.06-1.74v-6.76c0-.64.02-1.08.06-1.52Zm9.2-.18a14.109,14.109,0,0,1,.12,2v3.8c0,3.12-.26,4.62-1.62,6.12a9.36,9.36,0,0,1-4.9,2.52l2.1,2.2a11.619,11.619,0,0,0,4.86-2.9c1.48-1.64,2.32-3.48,2.32-7.78v-3.96c0-.8.04-1.44.08-2Zm8.74,9.4c.74-.06,2.08-.1,3.22-.1H-4.2c.84,0,1.86.08,2.34.1V-9.26c-.52.04-1.42.12-2.34.12H-14.94c-1.04,0-2.5-.06-3.22-.12ZM17.38-7.36a65.321,65.321,0,0,0-8.36-3.1V-13.4a21.75,21.75,0,0,1,.18-2.42H6.08a13.949,13.949,0,0,1,.2,2.42V-1.92A21.4,21.4,0,0,1,6.08.86H9.2c-.08-.8-.18-2.2-.18-2.78V-7.58A57.767,57.767,0,0,1,16.24-4.6Zm19.34-6.86a26.378,26.378,0,0,0-1.54-2.64l-1.64.68c.38.58.78,1.28,1.12,1.94a8.391,8.391,0,0,1-.94.04H24.46a22.269,22.269,0,0,1-2.38-.16v2.82c.52-.04,1.46-.08,2.38-.08h9.32a12.843,12.843,0,0,1-2.36,5.64,13.144,13.144,0,0,1-7.84,4.7L25.76,1.1A15.828,15.828,0,0,0,33.8-4.42a20.189,20.189,0,0,0,3-7.28,10.1,10.1,0,0,1,.44-1.38l-1.26-.82Zm-.4-2.46A23.707,23.707,0,0,1,37.92-14l1.66-.72c-.38-.7-1.1-1.92-1.6-2.64ZM54.9-11.6v8.3H45.24v-8.3Zm2.68-.64c0-.6,0-1.34.04-1.94-.72.04-1.48.04-1.98.04h-11c-.54,0-1.3-.02-2.12-.04.04.56.04,1.38.04,1.94v9.78c0,.96-.04,2.7-.06,2.8h2.76l-.02-1.1h9.64L54.86.34h2.76c0-.08-.04-2-.04-2.78Zm12.52.34-2.38.78a33.312,33.312,0,0,1,1.62,4.44l2.4-.84C71.46-8.44,70.48-11.04,70.1-11.9Zm4.56.56a13.479,13.479,0,0,1-2.54,6.86A13.457,13.457,0,0,1,65.48-.3l2.1,2.14a15.619,15.619,0,0,0,6.7-4.96A16.127,16.127,0,0,0,77-8.98c.12-.4.24-.82.48-1.46Zm-9.2.5-2.4.86a40.4,40.4,0,0,1,1.82,4.62l2.44-.92C66.92-7.4,65.96-9.82,65.46-10.84ZM95.94-13.7a6.413,6.413,0,0,1-1.74.24H90.18l.06-.1c.24-.44.74-1.34,1.22-2.04l-2.92-.96a9.622,9.622,0,0,1-.9,2.1A17.61,17.61,0,0,1,81.4-8.02l2.24,1.66a22.8,22.8,0,0,0,5.04-4.84H94.3a14.217,14.217,0,0,1-2.84,5.46A15.939,15.939,0,0,1,83.4-.8l2.36,2.12a18.842,18.842,0,0,0,8.08-5.64A20.868,20.868,0,0,0,97.32-11a8.008,8.008,0,0,1,.66-1.44Z" transform="translate(97.119 17.36)" fill="#fff"/></svg>