<svg xmlns="http://www.w3.org/2000/svg" width="235.771" height="28.8" viewBox="0 0 235.771 28.8"><path d="M-91.68-13.68v-3.69h-11.79c.3-2.79.33-5.55.36-8.01h-3.9c-.03,2.46,0,5.19-.3,8.01h-10.92v3.69h10.32A17.984,17.984,0,0,1-118.8-.48a10.57,10.57,0,0,1,2.67,3.03A20.649,20.649,0,0,0-104.91-10.2c2.34,5.79,5.82,10.17,11.25,12.72A14.357,14.357,0,0,1-91.02-.84c-5.61-2.28-9.24-6.99-11.22-12.84Zm28.86-11.4h-3.39v12.75c0,.39-.15.48-.57.51-.45.03-1.89.03-3.24-.03A13.409,13.409,0,0,1-68.97-8.7a12.357,12.357,0,0,0,4.71-.57c1.14-.51,1.44-1.35,1.44-3ZM-68.4-23.7h-3.27v10.14h3.27Zm-13.2,5.61v-3.15h2.52v3.15Zm8.43,16.44v-2.4h8.67V-7.29h-8.67v-2.4h-2.58v-5.25h2.82v-3.15h-2.82v-3.15h2.13v-3.12H-87.24v3.12h2.37v3.15h-3.39v3.15h3.03a6.628,6.628,0,0,1-3.66,4.08,15.344,15.344,0,0,1,2.34,2.49,9.154,9.154,0,0,0,4.71-6.57h2.76v5.76h2.22v1.89h-8.67v3.24h8.7v2.4H-88.56v3.3h27.03v-3.3Zm25.68-7.56c-.51-.63-2.67-2.85-3.63-3.75v-.96h2.97v-1.62h16.98v-2.22h-6.81v-1.02h5.52v-2.07h-5.52v-1.02h6.21v-2.16h-6.21v-1.35h-3.57v1.35H-47.4v2.16h5.85v1.02h-5.31v2.07h5.31v1.02h-6.78v.51h-2.79V-21.3a27.3,27.3,0,0,0,3.54-1.08l-2.37-2.73a39.471,39.471,0,0,1-9,2.22,14.123,14.123,0,0,1,.96,2.73c1.08-.12,2.22-.27,3.39-.45v3.36h-3.99v3.33h3.75a29.773,29.773,0,0,1-4.53,8.28,17.709,17.709,0,0,1,1.65,3.39A26.781,26.781,0,0,0-54.6-7.83V2.58h3.48V-9.12a30.518,30.518,0,0,1,1.59,2.7Zm4.2,3.51H-36v1.26h-7.29Zm0-3.33H-36v1.29h-7.29Zm0-3.3H-36v1.26h-7.29ZM-32.61-2.22v-12.3H-46.47v12.3h2.61A23.329,23.329,0,0,1-49.77.51c.66.63,1.65,1.59,2.19,2.22A26.6,26.6,0,0,0-40.38-.9l-2.01-1.32h5.46L-38.79-.87a51.961,51.961,0,0,1,4.95,3.51L-30.72.96c-1.2-.84-3.27-2.1-5.1-3.18Zm10.44-3.51c-.54.75-.96,1.02-1.56,1.02s-1.11-.57-1.11-1.41c0-1.86,1.8-3.87,5.1-4.38A38.425,38.425,0,0,1-22.17-5.73ZM-1.35-8.1c-.87-.57-1.95-1.29-3.18-1.98a48.882,48.882,0,0,0,.57-5.52l-3.9-.45a19.265,19.265,0,0,1,.03,3.24c-.03.33-.06.66-.09,1.02a26.036,26.036,0,0,0-6.39-1.92,57.493,57.493,0,0,1,2.91-6.36,6.954,6.954,0,0,1,.99-1.26l-2.37-1.86a7.363,7.363,0,0,1-2.01.45c-1.38.12-4.56.24-6.24.24a24.039,24.039,0,0,1-2.46-.12l.15,3.84c.75-.12,1.8-.24,2.43-.27,1.35-.09,3.9-.18,5.07-.21-.69,1.41-1.53,3.42-2.37,5.34-5.97.27-10.14,3.81-10.14,8.4a4.429,4.429,0,0,0,4.56,4.8,5.077,5.077,0,0,0,4.62-2.61,61.774,61.774,0,0,0,3.45-7.14,20.824,20.824,0,0,1,6.96,2.4c-.99,2.7-3.06,5.55-7.56,7.47l3.18,2.58A14.881,14.881,0,0,0-5.61-6.06c.9.66,1.77,1.38,2.55,2.07ZM25.08-21.33a39.566,39.566,0,0,0-2.31-3.96l-2.46,1.02c.57.87,1.17,1.92,1.68,2.91a12.586,12.586,0,0,1-1.41.06H6.69a33.4,33.4,0,0,1-3.57-.24v4.23c.78-.06,2.19-.12,3.57-.12H20.67a19.264,19.264,0,0,1-3.54,8.46C14.7-5.91,11.34-3.33,5.37-1.92L8.64,1.65A23.742,23.742,0,0,0,20.7-6.63c2.52-3.33,3.81-7.98,4.5-10.92a15.152,15.152,0,0,1,.66-2.07l-1.89-1.23Zm-.6-3.69A35.561,35.561,0,0,1,26.88-21l2.49-1.08c-.57-1.05-1.65-2.88-2.4-3.96ZM52.35-17.4V-4.95H37.86V-17.4Zm4.02-.96c0-.9,0-2.01.06-2.91-1.08.06-2.22.06-2.97.06H36.96c-.81,0-1.95-.03-3.18-.06.06.84.06,2.07.06,2.91V-3.69c0,1.44-.06,4.05-.09,4.2h4.14l-.03-1.65H52.32L52.29.51h4.14c0-.12-.06-3-.06-4.17Zm18.78.51-3.57,1.17a49.969,49.969,0,0,1,2.43,6.66l3.6-1.26C77.19-12.66,75.72-16.56,75.15-17.85Zm6.84.84A20.219,20.219,0,0,1,78.18-6.72,20.186,20.186,0,0,1,68.22-.45l3.15,3.21A23.428,23.428,0,0,0,81.42-4.68a24.19,24.19,0,0,0,4.08-8.79c.18-.6.36-1.23.72-2.19Zm-13.8.75-3.6,1.29a60.6,60.6,0,0,1,2.73,6.93l3.66-1.38C70.38-11.1,68.94-14.73,68.19-16.26Zm45.72-4.29a9.62,9.62,0,0,1-2.61.36h-6.03l.09-.15c.36-.66,1.11-2.01,1.83-3.06l-4.38-1.44a14.433,14.433,0,0,1-1.35,3.15,26.415,26.415,0,0,1-9.36,9.66l3.36,2.49a34.2,34.2,0,0,0,7.56-7.26h8.43a21.326,21.326,0,0,1-4.26,8.19c-2.61,2.97-5.94,5.58-12.09,7.41l3.54,3.18c5.64-2.25,9.27-4.98,12.12-8.46a31.3,31.3,0,0,0,5.22-10.02,12.012,12.012,0,0,1,.99-2.16Z" transform="translate(118.801 26.04)" fill="#fff"/></svg>