<svg xmlns="http://www.w3.org/2000/svg" width="157.181" height="19.2" viewBox="0 0 157.181 19.2"><path d="M-61.12-9.12v-2.46h-7.86c.2-1.86.22-3.7.24-5.34h-2.6c-.02,1.64,0,3.46-.2,5.34h-7.28v2.46h6.88A11.99,11.99,0,0,1-79.2-.32,7.047,7.047,0,0,1-77.42,1.7a13.766,13.766,0,0,0,7.48-8.5c1.56,3.86,3.88,6.78,7.5,8.48A9.572,9.572,0,0,1-60.68-.56c-3.74-1.52-6.16-4.66-7.48-8.56Zm19.24-7.6h-2.26v8.5c0,.26-.1.32-.38.34-.3.02-1.26.02-2.16-.02a8.939,8.939,0,0,1,.7,2.1,8.238,8.238,0,0,0,3.14-.38c.76-.34.96-.9.96-2Zm-3.72.92h-2.18v6.76h2.18Zm-8.8,3.74v-2.1h1.68v2.1ZM-48.78-1.1V-2.7H-43V-4.86h-5.78v-1.6H-50.5v-3.5h1.88v-2.1H-50.5v-2.1h1.42v-2.08h-9.08v2.08h1.58v2.1h-2.26v2.1h2.02a4.419,4.419,0,0,1-2.44,2.72A10.229,10.229,0,0,1-57.7-5.58a6.1,6.1,0,0,0,3.14-4.38h1.84v3.84h1.48v1.26h-5.78V-2.7h5.8v1.6h-7.82V1.1h18.02V-1.1Zm17.12-5.04c-.34-.42-1.78-1.9-2.42-2.5v-.64h1.98v-1.08h11.32v-1.48h-4.54v-.68h3.68V-13.9h-3.68v-.68h4.14v-1.44h-4.14v-.9H-27.7v.9h-3.9v1.44h3.9v.68h-3.54v1.38h3.54v.68h-4.52v.34h-1.86v-2.7a18.2,18.2,0,0,0,2.36-.72l-1.58-1.82a26.314,26.314,0,0,1-6,1.48,9.416,9.416,0,0,1,.64,1.82c.72-.08,1.48-.18,2.26-.3v2.24h-2.66v2.22h2.5a19.849,19.849,0,0,1-3.02,5.52,11.806,11.806,0,0,1,1.1,2.26A17.854,17.854,0,0,0-36.4-5.22V1.72h2.32v-7.8a20.344,20.344,0,0,1,1.06,1.8Zm2.8,2.34H-24v.84h-4.86Zm0-2.22H-24v.86h-4.86Zm0-2.2H-24v.84h-4.86Zm7.12,6.74v-8.2h-9.24v8.2h1.74A15.553,15.553,0,0,1-33.18.34c.44.42,1.1,1.06,1.46,1.48A17.733,17.733,0,0,0-26.92-.6l-1.34-.88h3.64l-1.24.9a34.641,34.641,0,0,1,3.3,2.34L-20.48.64c-.8-.56-2.18-1.4-3.4-2.12Zm6.96-2.34c-.36.5-.64.68-1.04.68s-.74-.38-.74-.94c0-1.24,1.2-2.58,3.4-2.92A25.617,25.617,0,0,1-14.78-3.82ZM-.9-5.4c-.58-.38-1.3-.86-2.12-1.32a32.588,32.588,0,0,0,.38-3.68l-2.6-.3a12.844,12.844,0,0,1,.02,2.16c-.02.22-.04.44-.06.68A17.357,17.357,0,0,0-9.54-9.14,38.328,38.328,0,0,1-7.6-13.38a4.636,4.636,0,0,1,.66-.84l-1.58-1.24a4.909,4.909,0,0,1-1.34.3c-.92.08-3.04.16-4.16.16a16.026,16.026,0,0,1-1.64-.08l.1,2.56c.5-.08,1.2-.16,1.62-.18.9-.06,2.6-.12,3.38-.14-.46.94-1.02,2.28-1.58,3.56-3.98.18-6.76,2.54-6.76,5.6a2.953,2.953,0,0,0,3.04,3.2,3.385,3.385,0,0,0,3.08-1.74,41.183,41.183,0,0,0,2.3-4.76,13.883,13.883,0,0,1,4.64,1.6A8.541,8.541,0,0,1-10.88-.4l2.12,1.72A9.921,9.921,0,0,0-3.74-4.04c.6.44,1.18.92,1.7,1.38Zm17.62-8.82a26.378,26.378,0,0,0-1.54-2.64l-1.64.68c.38.58.78,1.28,1.12,1.94a8.391,8.391,0,0,1-.94.04H4.46a22.269,22.269,0,0,1-2.38-.16v2.82c.52-.04,1.46-.08,2.38-.08h9.32a12.843,12.843,0,0,1-2.36,5.64,13.144,13.144,0,0,1-7.84,4.7L5.76,1.1A15.828,15.828,0,0,0,13.8-4.42a20.189,20.189,0,0,0,3-7.28,10.1,10.1,0,0,1,.44-1.38l-1.26-.82Zm-.4-2.46A23.707,23.707,0,0,1,17.92-14l1.66-.72c-.38-.7-1.1-1.92-1.6-2.64ZM34.9-11.6v8.3H25.24v-8.3Zm2.68-.64c0-.6,0-1.34.04-1.94-.72.04-1.48.04-1.98.04h-11c-.54,0-1.3-.02-2.12-.04.04.56.04,1.38.04,1.94v9.78c0,.96-.04,2.7-.06,2.8h2.76l-.02-1.1h9.64L34.86.34h2.76c0-.08-.04-2-.04-2.78Zm12.52.34-2.38.78a33.312,33.312,0,0,1,1.62,4.44l2.4-.84C51.46-8.44,50.48-11.04,50.1-11.9Zm4.56.56a13.479,13.479,0,0,1-2.54,6.86A13.457,13.457,0,0,1,45.48-.3l2.1,2.14a15.619,15.619,0,0,0,6.7-4.96A16.127,16.127,0,0,0,57-8.98c.12-.4.24-.82.48-1.46Zm-9.2.5-2.4.86a40.4,40.4,0,0,1,1.82,4.62l2.44-.92C46.92-7.4,45.96-9.82,45.46-10.84ZM75.94-13.7a6.413,6.413,0,0,1-1.74.24H70.18l.06-.1c.24-.44.74-1.34,1.22-2.04l-2.92-.96a9.622,9.622,0,0,1-.9,2.1A17.61,17.61,0,0,1,61.4-8.02l2.24,1.66a22.8,22.8,0,0,0,5.04-4.84H74.3a14.217,14.217,0,0,1-2.84,5.46A15.939,15.939,0,0,1,63.4-.8l2.36,2.12a18.842,18.842,0,0,0,8.08-5.64A20.868,20.868,0,0,0,77.32-11a8.008,8.008,0,0,1,.66-1.44Z" transform="translate(79.2 17.36)" fill="#fff"/></svg>