<svg xmlns="http://www.w3.org/2000/svg" width="176.189" height="28.8" viewBox="0 0 176.189 28.8"><path d="M-73.23-5.91V-7.77h-3.63v1.86h-4.32A18.361,18.361,0,0,0-79.05-8.4h8.46a18.613,18.613,0,0,0,2.16,2.49Zm-6.42-6.75h9.39v1.35h-9.39Zm9.39-7.59v1.32h-9.39v-1.32Zm-9.39,3.78h9.39v1.32h-9.39Zm18.6,8.07v-2.91H-66.6v-8.94h4.11v-2.88H-66.6v-2.25h-3.66v2.25h-9.39v-2.25h-3.57v2.25h-4.14v2.88h4.14v8.94h-5.73V-8.4h5.79a18.122,18.122,0,0,1-6.06,3.78,13.287,13.287,0,0,1,2.28,2.73,20.785,20.785,0,0,0,4.77-3.06v1.86h5.31v1.95h-9.42V1.8h22.83V-1.14h-9.78V-3.09h5.46V-5.31a20.2,20.2,0,0,0,4.71,3.15,12.281,12.281,0,0,1,2.37-2.76A17.625,17.625,0,0,1-66.54-8.4Zm23.73-4.26h2.91v-3.36a10.524,10.524,0,0,0,1.98,2.76,12.792,12.792,0,0,1,1.83-1.98,11.979,11.979,0,0,1-3.27-4.56h2.76v-2.67h-3.3v-2.91h-2.91v2.91h-2.55v2.67h2.13a11.742,11.742,0,0,1-3.48,4.44,9.882,9.882,0,0,1,1.38,2.25,12.585,12.585,0,0,0,2.52-2.88Zm-8.07,0h2.88v-4.2a17.782,17.782,0,0,1,1.08,1.44l1.59-1.98a27.325,27.325,0,0,0-2.67-2.07v-.33h2.16v-2.67h-2.16v-2.91h-2.88v2.91h-2.76v2.67h2.1a13.1,13.1,0,0,1-3.24,4.44,9.926,9.926,0,0,1,1.47,2.4,16.54,16.54,0,0,0,2.43-3.09Zm-6.51,8.4h-2.13V-11.7h2.13Zm2.97,3.06V-14.76H-53.7q.675-2.925,1.08-6.03h4.32v-3.24H-58.62v3.24h2.73c-.6,4.8-1.62,9.3-3.57,12.3A18.766,18.766,0,0,1-57.6-5.13a11.868,11.868,0,0,0,.66-1.02V1.02h2.91V-1.2Zm10.77-2.64h4.95V-6.66h-4.95V-9.18h3.27c-.18.57-.36,1.08-.51,1.5l2.67.9a43.565,43.565,0,0,0,1.77-4.71l-2.28-.72-.51.15H-48.27v2.88h6.81v7.26a6.325,6.325,0,0,1-2.22-3.21c.18-1.05.27-2.13.36-3.24h-3.15c-.21,3.42-.75,6.72-3.72,8.67a7.465,7.465,0,0,1,2.01,2.34A9.621,9.621,0,0,0-44.76-1.5c1.83,2.97,4.5,3.69,8.1,3.69h5.07a10.771,10.771,0,0,1,.96-2.97c-1.2,0-4.92.03-5.82.03a15.5,15.5,0,0,1-1.71-.09ZM-4.92-21.33a39.566,39.566,0,0,0-2.31-3.96l-2.46,1.02c.57.87,1.17,1.92,1.68,2.91a12.586,12.586,0,0,1-1.41.06H-23.31a33.4,33.4,0,0,1-3.57-.24v4.23c.78-.06,2.19-.12,3.57-.12H-9.33a19.264,19.264,0,0,1-3.54,8.46c-2.43,3.06-5.79,5.64-11.76,7.05l3.27,3.57A23.742,23.742,0,0,0-9.3-6.63c2.52-3.33,3.81-7.98,4.5-10.92a15.152,15.152,0,0,1,.66-2.07l-1.89-1.23Zm-.6-3.69A35.561,35.561,0,0,1-3.12-21l2.49-1.08c-.57-1.05-1.65-2.88-2.4-3.96ZM22.35-17.4V-4.95H7.86V-17.4Zm4.02-.96c0-.9,0-2.01.06-2.91-1.08.06-2.22.06-2.97.06H6.96c-.81,0-1.95-.03-3.18-.06.06.84.06,2.07.06,2.91V-3.69c0,1.44-.06,4.05-.09,4.2H7.89L7.86-1.14H22.32L22.29.51h4.14c0-.12-.06-3-.06-4.17Zm18.78.51-3.57,1.17a49.969,49.969,0,0,1,2.43,6.66l3.6-1.26C47.19-12.66,45.72-16.56,45.15-17.85Zm6.84.84A20.219,20.219,0,0,1,48.18-6.72,20.186,20.186,0,0,1,38.22-.45l3.15,3.21A23.428,23.428,0,0,0,51.42-4.68a24.19,24.19,0,0,0,4.08-8.79c.18-.6.36-1.23.72-2.19Zm-13.8.75-3.6,1.29a60.6,60.6,0,0,1,2.73,6.93l3.66-1.38C40.38-11.1,38.94-14.73,38.19-16.26Zm45.72-4.29a9.62,9.62,0,0,1-2.61.36H75.27l.09-.15c.36-.66,1.11-2.01,1.83-3.06l-4.38-1.44a14.433,14.433,0,0,1-1.35,3.15,26.415,26.415,0,0,1-9.36,9.66l3.36,2.49a34.2,34.2,0,0,0,7.56-7.26h8.43a21.326,21.326,0,0,1-4.26,8.19C74.58-5.64,71.25-3.03,65.1-1.2l3.54,3.18C74.28-.27,77.91-3,80.76-6.48A31.3,31.3,0,0,0,85.98-16.5a12.012,12.012,0,0,1,.99-2.16Z" transform="translate(89.22 26.04)" fill="#fff"/></svg>