<svg xmlns="http://www.w3.org/2000/svg" width="298.709" height="28.05" viewBox="0 0 298.709 28.05"><path d="M-140.31-4.59v2.7h-4.14v-2.7Zm-7.23,7.14h3.09V1.02h4.14v.93h3.21V-7.47h-10.44Zm22.74-15.99v1.92h-2.49v-1.92Zm-2.49,6.75V-8.64h2.49v1.95Zm-5.49,0V-8.64h2.31v1.95Zm2.31-6.75v1.92h-2.31v-1.92Zm9.18-4.98v-3.06h-1.77l1.56-1.29a15.84,15.84,0,0,0-3.3-2.61l-2.1,1.56a19.8,19.8,0,0,1,2.82,2.34h-3.21v-3.93h-3.18v3.93h-5.94v1.2a30.09,30.09,0,0,0-4.92-5.1h-3.03a20.029,20.029,0,0,1-5.16,7.02,11.159,11.159,0,0,1,2.19,2.25v2.37h3.36v2.04h-4.35v2.88h11.7V-11.7h-4.11v-2.04h3.45v-2.73h-3.45v-2.55h-3.24v2.55h-2.76a28.4,28.4,0,0,0,4.44-5.7,27.761,27.761,0,0,1,3.87,4.89l2.01-2.52v1.38h5.94v1.98h-5.4V2.49h3.09V-3.84h2.31V2.34h3.18V-3.84h2.49V-.87c0,.27-.09.36-.36.36a15.537,15.537,0,0,1-1.71,0,10.05,10.05,0,0,1,.9,3.03,6.021,6.021,0,0,0,3.27-.6c.84-.54,1.02-1.35,1.02-2.73V-16.44h-5.61v-1.98ZM-97.32-2.64h-12v-7.2h12Zm5.52-17.22v-3.51h-26.34v3.51h7.83c-1.71,4.77-4.86,9.81-9.21,12.78A19.935,19.935,0,0,1-117-4.32a22.771,22.771,0,0,0,4.05-3.75V2.61h3.63V.81h12V2.49h3.84V-13.26h-15.78a52.587,52.587,0,0,0,3.09-6.6Zm12.96,8.46A3.867,3.867,0,0,0-75-7.56a3.867,3.867,0,0,0,3.84-3.84A3.867,3.867,0,0,0-75-15.24,3.867,3.867,0,0,0-78.84-11.4Zm26.67,2.31v-1.83h5.22v1.83Zm0-6.33h5.22v1.83h-5.22Zm14.13,0v1.83h-5.25v-1.83Zm0,6.33h-5.25v-1.83h5.25Zm6.72,4.47H-43.29V-6.24h8.85V-18.27h-8.85v-1.44h11.1v-3.24h-11.1v-2.43h-3.66v2.43H-57.84v3.24h10.89v1.44h-8.64V-6.24h8.64v1.62H-58.56v3.21h11.61V2.64h3.66V-1.41h11.97Zm19.44,2.16v-9.99h8.94v-3.6h-8.94v-9.36h-3.81V-2.46h-5.46v-16.8H-24.9v16.8h-3.81V1.11H-1.32V-2.46ZM7.26-4.29c-1.08,0-1.68-.93-1.68-2.37a9.067,9.067,0,0,1,2.16-5.58,32.7,32.7,0,0,0,2.76,5.7C9.42-5.19,8.31-4.29,7.26-4.29ZM15.39-16.2a35.4,35.4,0,0,1-2.64,6.36,29.767,29.767,0,0,1-2.1-4.71A11.583,11.583,0,0,1,15.39-16.2Zm4.83-4.23c.18-.75.45-2.19.69-3l-4.11-.39A16.033,16.033,0,0,1,16.59-21c-.09.45-.18.93-.3,1.44a15.488,15.488,0,0,0-6.72,1.77c-.21-.63-.39-1.26-.54-1.83-.24-.87-.48-1.86-.66-2.82l-3.9,1.2a21.856,21.856,0,0,1,1.2,3.09c.24.81.51,1.62.78,2.4A13.032,13.032,0,0,0,2.07-6.36c0,3.84,2.28,5.94,4.74,5.94C9-.42,10.65-1.44,12.66-3.6c.3.39.66.78,1.02,1.17L16.65-4.8c-.54-.54-1.08-1.14-1.62-1.77a36.167,36.167,0,0,0,4.02-9.45,6.364,6.364,0,0,1,4.8,6.54c0,3.72-2.55,7.05-9.09,7.62l2.28,3.42C23.25.63,27.75-2.97,27.75-9.27a9.79,9.79,0,0,0-7.8-10.02ZM41.16-11.4A3.867,3.867,0,0,0,45-7.56a3.867,3.867,0,0,0,3.84-3.84A3.867,3.867,0,0,0,45-15.24,3.867,3.867,0,0,0,41.16-11.4ZM67.44-22.89l.18,3.81c.93-.09,1.92-.21,2.67-.27,1.2-.12,4.86-.3,6.06-.39a84.165,84.165,0,0,1-8.37,6.75c-1.53.18-3.6.45-5.19.6l.36,3.6c2.97-.51,6.3-.96,9-1.17a6.946,6.946,0,0,0-2.16,4.68c0,4.95,4.44,7.23,12.06,6.9l.78-3.9a25.87,25.87,0,0,1-4.53-.06c-2.67-.33-4.5-1.23-4.5-3.57,0-2.43,2.28-4.35,5.01-4.74a44.8,44.8,0,0,1,7.62-.06v-3.51c-3.63,0-8.52.3-12.51.72,2.01-1.59,4.95-4.05,7.08-5.73.6-.51,1.71-1.23,2.31-1.65l-2.34-2.73a11.652,11.652,0,0,1-2.07.36c-1.8.21-7.38.48-8.64.48C69.24-22.77,68.37-22.8,67.44-22.89ZM98.19-5.4c-1.11,0-2.31-1.47-2.31-4.47a9.315,9.315,0,0,1,7.53-8.61,47.687,47.687,0,0,1-1.59,7.2C100.62-7.26,99.42-5.4,98.19-5.4Zm8.16,6.63c7.5-1.14,11.34-5.58,11.34-11.82,0-6.48-4.65-11.61-12-11.61-7.71,0-13.68,5.88-13.68,12.72,0,5.01,2.79,8.64,6.06,8.64,3.24,0,5.82-3.66,7.59-9.66a64.565,64.565,0,0,0,1.77-8.07c3.99.69,6.21,3.75,6.21,7.86,0,4.32-2.94,7.05-6.75,7.95-.78.18-1.62.33-2.76.48Zm20.97-26.55a31.5,31.5,0,0,1-6.84,11.25,24.781,24.781,0,0,1,1.92,3.6,24.851,24.851,0,0,0,1.89-2.25V2.55h3.54V-18.21a54.5,54.5,0,0,0,2.79-6.03Zm10.2,24.27c-1.92,0-2.22-.27-2.22-2.07v-9.6l2.91-1.14V-4.5h3.33V-15.18l3.12-1.23a58.636,58.636,0,0,1-.21,6.45c-.12.57-.33.69-.75.69-.33,0-1.17-.03-1.83-.06a9.512,9.512,0,0,1,.78,3.27,8.516,8.516,0,0,0,3.39-.42,2.839,2.839,0,0,0,1.68-2.7c.18-1.32.24-4.92.27-10.14l.12-.54-2.43-.93-.66.45-.45.36-3.03,1.14v-6.45h-3.33v7.77l-2.91,1.11v-5.67h-3.54V-15l-3.63,1.41,1.38,3.15,2.25-.87v8.19c0,4.11,1.23,5.28,5.49,5.28h6.63c3.78,0,4.83-1.5,5.31-5.94a12.411,12.411,0,0,1-3.24-1.38c-.27,3.39-.57,4.11-2.34,4.11Z" transform="translate(149.52 25.41)" fill="#fff"/></svg>