<svg xmlns="http://www.w3.org/2000/svg" width="234.12" height="77.808" viewBox="0 0 234.12 77.808"><g transform="translate(-253.456 -2457.4)"><path d="M-42.192-24.156h-2.34V-26.5h2.34Zm-5.04,0H-49.5V-26.5h2.268Zm-5,0h-2.2V-26.5h2.2Zm13.608-5.22H-57.852v8.1h19.224ZM-59.436-16.7H-37.3v-3.384h-22.14Zm.612,7.92-3.96,1.044v-6.12h3.276v-3.78h-3.276v-6.552h3.744v-3.744H-70.56v3.744h4v6.552h-3.672v3.78h3.672V-6.8c-1.692.432-3.24.792-4.536,1.08l.9,3.96c3.456-.864,7.812-2.052,11.916-3.24Zm18,1.8a30.51,30.51,0,0,1-3.2,2.628,14.469,14.469,0,0,1-2.124-2.628Zm-12.708-5.364H-43.2v2.34H-53.532Zm12.96,5.364h1.332v-8.424H-57.276v8.424h5.832a34.088,34.088,0,0,1-10.44,5.328,16.745,16.745,0,0,1,2.52,3.06,37.812,37.812,0,0,0,6.732-3.528V3.132H-48.6V-4.644a18.162,18.162,0,0,0,8.748,7.776A16.048,16.048,0,0,1-37.188-.18,17.2,17.2,0,0,1-41.58-2.34a39.918,39.918,0,0,0,3.816-2.592Zm31.1-17.928c-.288.864-.72,1.908-1.08,2.7l.18.036H-14.94l.468-.108a11.48,11.48,0,0,0-1.008-2.628Zm8.136,2.736H-6.48c.4-.72.864-1.584,1.332-2.556l-.9-.18H-1.98v-3.312h-8.532v-2.2h-4.212v2.2h-7.812v3.312h4.392l-1.332.288a11.738,11.738,0,0,1,.9,2.448h-4.752v3.492h22ZM-23.4-11.268c-1.116.468-2.232.972-3.348,1.44v-8.1h3.276V-21.96h-3.276v-8.028h-3.96v8.028h-3.564v4.032h3.564v9.72c-1.656.648-3.168,1.224-4.392,1.656l1.44,4.284c3.276-1.512,7.416-3.384,11.2-5.22Zm6.084.9H-7.2v1.836H-17.316Zm0-4.284H-7.2v1.8H-17.316ZM-6.66-.684c-.648,0-.756-.108-.756-1.008V-5.868h4.428V-17.28H-21.312V-5.868h3.06C-18.9-3.24-20.484-1.44-26.136-.36a12.893,12.893,0,0,1,2.34,3.6c6.876-1.764,8.964-4.788,9.756-9.108h2.556v4.212c0,3.42.72,4.608,4.1,4.608h2.808c2.52,0,3.528-1.08,3.924-5.22A10.258,10.258,0,0,1-4.212-3.78c-.072,2.736-.252,3.1-.828,3.1ZM9.216-30.42A37.965,37.965,0,0,1,.72-16.956a28.616,28.616,0,0,1,2.3,4.392,41.025,41.025,0,0,0,2.736-3.2V3.06H9.828V-22.032a60.194,60.194,0,0,0,3.348-7.092Zm8.748,5.256H28.512v4.824H17.964ZM34.56-9.432V-13.32H25.272v-3.24H32.8V-28.908H13.9V-16.56h7.056v3.24H11.52v3.888H18.9a25.862,25.862,0,0,1-8.676,7.776,17.679,17.679,0,0,1,2.952,3.42,28.868,28.868,0,0,0,7.776-7.74V3.132h4.32V-6.156A29.727,29.727,0,0,0,32.58,1.836,18.225,18.225,0,0,1,35.6-1.584,27.092,27.092,0,0,1,27.36-9.432Zm10.3-8.1a41.473,41.473,0,0,0,9-8.928,43.385,43.385,0,0,0,9.288,8.928ZM56.124-5.868H66.2V-9.612H56.124v-4.14h8.424V-16.56a45.638,45.638,0,0,0,3.888,2.412A20.858,20.858,0,0,1,71.28-18,38.047,38.047,0,0,1,55.872-30.6H51.444c-2.664,4.392-8.46,9.936-14.616,13.032a15.817,15.817,0,0,1,2.7,3.456,46.063,46.063,0,0,0,4-2.484v2.844H51.66v4.14H41.688v3.744H51.66v4.284H38.808V2.268H69.444V-1.584H56.124Z" transform="translate(370 2488)" fill="#fff"/><path d="M-99.048.528c-.048-.72-.1-1.992-.1-2.832V-14.736c0-.7.048-1.656.072-2.208-.408.024-1.416.048-2.112.048h-12.072c-.84,0-2.088-.048-2.976-.144V-13.7c.672-.048,1.968-.1,2.976-.1h10.776v9.936h-11.064c-1.08,0-2.16-.072-3-.144V-.576c.792-.072,2.16-.144,3.1-.144H-102.5c0,.456,0,.864-.024,1.248Zm8.832-18.768-2.256,2.4a49.9,49.9,0,0,1,6,5.184l2.448-2.52A50.4,50.4,0,0,0-90.216-18.24Zm-3,15.984L-91.2.912a25.991,25.991,0,0,0,8.9-3.384,25.52,25.52,0,0,0,8.88-8.88l-1.872-3.384A22.757,22.757,0,0,1-84.024-5.4,24.736,24.736,0,0,1-93.216-2.256ZM-52.872-16.44a7.7,7.7,0,0,1-2.088.288h-4.824l.072-.12c.288-.528.888-1.608,1.464-2.448l-3.5-1.152a11.547,11.547,0,0,1-1.08,2.52A21.132,21.132,0,0,1-70.32-9.624l2.688,1.992a27.356,27.356,0,0,0,6.048-5.808h6.744a17.061,17.061,0,0,1-3.408,6.552A19.127,19.127,0,0,1-67.92-.96l2.832,2.544a22.611,22.611,0,0,0,9.7-6.768A25.041,25.041,0,0,0-51.216-13.2a9.609,9.609,0,0,1,.792-1.728Zm9.552-1.968a16.323,16.323,0,0,1,.1,1.824V-8.5c0,.72-.1,1.656-.12,2.112h3.552c-.048-.552-.072-1.488-.072-2.088v-8.112c0-.768.024-1.3.072-1.824Zm11.04-.216a16.931,16.931,0,0,1,.144,2.4v4.56c0,3.744-.312,5.544-1.944,7.344A11.232,11.232,0,0,1-39.96-1.3l2.52,2.64a13.942,13.942,0,0,0,5.832-3.48c1.776-1.968,2.784-4.176,2.784-9.336v-4.752c0-.96.048-1.728.1-2.4Zm10.488,11.28c.888-.072,2.5-.12,3.864-.12H-5.04c1.008,0,2.232.1,2.808.12v-3.768c-.624.048-1.7.144-2.808.144H-17.928c-1.248,0-3-.072-3.864-.144ZM20.856-8.832a78.385,78.385,0,0,0-10.032-3.72V-16.08a26.1,26.1,0,0,1,.216-2.9H7.3a16.739,16.739,0,0,1,.24,2.9V-2.3A25.681,25.681,0,0,1,7.3,1.032H11.04c-.1-.96-.216-2.64-.216-3.336V-9.1A69.321,69.321,0,0,1,19.488-5.52Zm23.208-8.232a31.654,31.654,0,0,0-1.848-3.168l-1.968.816c.456.7.936,1.536,1.344,2.328a10.069,10.069,0,0,1-1.128.048H29.352a26.722,26.722,0,0,1-2.856-.192v3.384c.624-.048,1.752-.1,2.856-.1H40.536A15.412,15.412,0,0,1,37.7-7.176C35.76-4.728,33.072-2.664,28.3-1.536L30.912,1.32A18.993,18.993,0,0,0,40.56-5.3c2.016-2.664,3.048-6.384,3.6-8.736a12.121,12.121,0,0,1,.528-1.656l-1.512-.984Zm-.48-2.952A28.448,28.448,0,0,1,45.5-16.8l1.992-.864c-.456-.84-1.32-2.3-1.92-3.168Zm22.3,6.1v9.96H54.288v-9.96Zm3.216-.768c0-.72,0-1.608.048-2.328-.864.048-1.776.048-2.376.048h-13.2c-.648,0-1.56-.024-2.544-.048.048.672.048,1.656.048,2.328V-2.952c0,1.152-.048,3.24-.072,3.36h3.312l-.024-1.32H65.856L65.832.408h3.312c0-.1-.048-2.4-.048-3.336Zm15.024.408-2.856.936a39.975,39.975,0,0,1,1.944,5.328l2.88-1.008C85.752-10.128,84.576-13.248,84.12-14.28Zm5.472.672a16.175,16.175,0,0,1-3.048,8.232A16.149,16.149,0,0,1,78.576-.36L81.1,2.208a18.742,18.742,0,0,0,8.04-5.952A19.352,19.352,0,0,0,92.4-10.776c.144-.48.288-.984.576-1.752Zm-11.04.6-2.88,1.032a48.477,48.477,0,0,1,2.184,5.544l2.928-1.1C80.3-8.88,79.152-11.784,78.552-13.008Zm36.576-3.432a7.7,7.7,0,0,1-2.088.288h-4.824l.072-.12c.288-.528.888-1.608,1.464-2.448l-3.5-1.152a11.547,11.547,0,0,1-1.08,2.52A21.132,21.132,0,0,1,97.68-9.624l2.688,1.992a27.356,27.356,0,0,0,6.048-5.808h6.744a17.061,17.061,0,0,1-3.408,6.552A19.127,19.127,0,0,1,100.08-.96l2.832,2.544a22.611,22.611,0,0,0,9.7-6.768,25.041,25.041,0,0,0,4.176-8.016,9.609,9.609,0,0,1,.792-1.728Z" transform="translate(370 2533)" fill="#fff"/></g></svg>