<svg xmlns="http://www.w3.org/2000/svg" width="351.18" height="34.56" viewBox="0 0 351.18 34.56"><path d="M-148.572.792c-.072-1.08-.144-2.988-.144-4.248V-22.1c0-1.044.072-2.484.108-3.312-.612.036-2.124.072-3.168.072h-18.108c-1.26,0-3.132-.072-4.464-.216v5c1.008-.072,2.952-.144,4.464-.144h16.164V-5.8h-16.6c-1.62,0-3.24-.108-4.5-.216V-.864c1.188-.108,3.24-.216,4.644-.216h16.416c0,.684,0,1.3-.036,1.872Zm13.248-28.152-3.384,3.6a74.853,74.853,0,0,1,9,7.776l3.672-3.78A75.6,75.6,0,0,0-135.324-27.36Zm-4.5,23.976,3.024,4.752a38.987,38.987,0,0,0,13.356-5.076,38.281,38.281,0,0,0,13.32-13.32l-2.808-5.076a34.136,34.136,0,0,1-13.1,14A37.1,37.1,0,0,1-139.824-3.384ZM-79.308-24.66a11.544,11.544,0,0,1-3.132.432h-7.236l.108-.18c.432-.792,1.332-2.412,2.2-3.672l-5.256-1.728a17.32,17.32,0,0,1-1.62,3.78A31.7,31.7,0,0,1-105.48-14.436l4.032,2.988a41.034,41.034,0,0,0,9.072-8.712H-82.26a25.591,25.591,0,0,1-5.112,9.828C-90.5-6.768-94.5-3.636-101.88-1.44l4.248,3.816C-90.864-.324-86.508-3.6-83.088-7.776A37.562,37.562,0,0,0-76.824-19.8a14.414,14.414,0,0,1,1.188-2.592Zm14.328-2.952a24.484,24.484,0,0,1,.144,2.736v12.132c0,1.08-.144,2.484-.18,3.168h5.328c-.072-.828-.108-2.232-.108-3.132V-24.876c0-1.152.036-1.944.108-2.736Zm16.56-.324a25.4,25.4,0,0,1,.216,3.6v6.84c0,5.616-.468,8.316-2.916,11.016-2.2,2.34-5.22,3.708-8.82,4.536l3.78,3.96A20.914,20.914,0,0,0-47.412-3.2c2.664-2.952,4.176-6.264,4.176-14v-7.128c0-1.44.072-2.592.144-3.6Zm15.732,16.92c1.332-.108,3.744-.18,5.8-.18H-7.56c1.512,0,3.348.144,4.212.18v-5.652c-.936.072-2.556.216-4.212.216H-26.892c-1.872,0-4.5-.108-5.8-.216Zm63.972-2.232a117.577,117.577,0,0,0-15.048-5.58V-24.12a39.151,39.151,0,0,1,.324-4.356H10.944a25.108,25.108,0,0,1,.36,4.356V-3.456a38.521,38.521,0,0,1-.36,5H16.56c-.144-1.44-.324-3.96-.324-5V-13.644a103.981,103.981,0,0,1,13,5.364ZM66.1-25.6a47.48,47.48,0,0,0-2.772-4.752l-2.952,1.224c.684,1.044,1.4,2.3,2.016,3.492a15.1,15.1,0,0,1-1.692.072H44.028a40.084,40.084,0,0,1-4.284-.288v5.076c.936-.072,2.628-.144,4.284-.144H60.8a23.117,23.117,0,0,1-4.248,10.152C53.64-7.092,49.608-4,42.444-2.3L46.368,1.98A28.49,28.49,0,0,0,60.84-7.956c3.024-4,4.572-9.576,5.4-13.1a18.183,18.183,0,0,1,.792-2.484L64.764-25.02Zm-.72-4.428a42.671,42.671,0,0,1,2.88,4.824l2.988-1.3c-.684-1.26-1.98-3.456-2.88-4.752ZM98.82-20.88V-5.94H81.432V-20.88Zm4.824-1.152c0-1.08,0-2.412.072-3.492-1.3.072-2.664.072-3.564.072h-19.8c-.972,0-2.34-.036-3.816-.072.072,1.008.072,2.484.072,3.492v17.6c0,1.728-.072,4.86-.108,5.04h4.968l-.036-1.98H98.784L98.748.612h4.968c0-.144-.072-3.6-.072-5Zm22.536.612-4.284,1.4a59.961,59.961,0,0,1,2.916,7.992l4.32-1.512C128.628-15.192,126.864-19.872,126.18-21.42Zm8.208,1.008a24.262,24.262,0,0,1-4.572,12.348A24.223,24.223,0,0,1,117.864-.54l3.78,3.852A28.113,28.113,0,0,0,133.7-5.616a29.028,29.028,0,0,0,4.9-10.548c.216-.72.432-1.476.864-2.628Zm-16.56.9-4.32,1.548a72.715,72.715,0,0,1,3.276,8.316l4.392-1.656C120.456-13.32,118.728-17.676,117.828-19.512Zm54.864-5.148a11.544,11.544,0,0,1-3.132.432h-7.236l.108-.18c.432-.792,1.332-2.412,2.2-3.672l-5.256-1.728a17.319,17.319,0,0,1-1.62,3.78A31.7,31.7,0,0,1,146.52-14.436l4.032,2.988a41.034,41.034,0,0,0,9.072-8.712H169.74a25.591,25.591,0,0,1-5.112,9.828C161.5-6.768,157.5-3.636,150.12-1.44l4.248,3.816c6.768-2.7,11.124-5.976,14.544-10.152A37.562,37.562,0,0,0,175.176-19.8a14.415,14.415,0,0,1,1.188-2.592Z" transform="translate(174.816 31.248)" fill="#fff"/></svg>