<svg xmlns="http://www.w3.org/2000/svg" width="117.461" height="19.2" viewBox="0 0 117.461 19.2"><path d="M-48.82-3.94V-5.18h-2.42v1.24h-2.88A12.241,12.241,0,0,0-52.7-5.6h5.64a12.409,12.409,0,0,0,1.44,1.66Zm-4.28-4.5h6.26v.9H-53.1Zm6.26-5.06v.88H-53.1v-.88Zm-6.26,2.52h6.26v.88H-53.1ZM-40.7-5.6V-7.54h-3.7V-13.5h2.74v-1.92H-44.4v-1.5h-2.44v1.5H-53.1v-1.5h-2.38v1.5h-2.76v1.92h2.76v5.96H-59.3V-5.6h3.86a12.081,12.081,0,0,1-4.04,2.52,8.858,8.858,0,0,1,1.52,1.82A13.857,13.857,0,0,0-54.78-3.3v1.24h3.54v1.3h-6.28V1.2H-42.3V-.76h-6.52v-1.3h3.64V-3.54a13.464,13.464,0,0,0,3.14,2.1,8.188,8.188,0,0,1,1.58-1.84,11.75,11.75,0,0,1-3.9-2.32Zm15.82-2.84h1.94v-2.24a7.016,7.016,0,0,0,1.32,1.84,8.528,8.528,0,0,1,1.22-1.32,7.986,7.986,0,0,1-2.18-3.04h1.84v-1.78h-2.2v-1.94h-1.94v1.94h-1.7v1.78h1.42a7.828,7.828,0,0,1-2.32,2.96,6.588,6.588,0,0,1,.92,1.5,8.39,8.39,0,0,0,1.68-1.92Zm-5.38,0h1.92v-2.8a11.856,11.856,0,0,1,.72.96l1.06-1.32a18.216,18.216,0,0,0-1.78-1.38v-.22h1.44v-1.78h-1.44v-1.94h-1.92v1.94H-32.1v1.78h1.4a8.736,8.736,0,0,1-2.16,2.96,6.617,6.617,0,0,1,.98,1.6,11.026,11.026,0,0,0,1.62-2.06Zm-4.34,5.6h-1.42V-7.8h1.42ZM-32.62-.8V-9.84H-35.8q.45-1.95.72-4.02h2.88v-2.16h-6.88v2.16h1.82c-.4,3.2-1.08,6.2-2.38,8.2A12.51,12.51,0,0,1-38.4-3.42a7.911,7.911,0,0,0,.44-.68V.68h1.94V-.8Zm7.18-1.76h3.3V-4.44h-3.3V-6.12h2.18c-.12.38-.24.72-.34,1l1.78.6a29.044,29.044,0,0,0,1.18-3.14l-1.52-.48-.34.1h-9.68v1.92h4.54v4.84a4.217,4.217,0,0,1-1.48-2.14c.12-.7.18-1.42.24-2.16h-2.1c-.14,2.28-.5,4.48-2.48,5.78a4.977,4.977,0,0,1,1.34,1.56A6.414,6.414,0,0,0-29.84-1c1.22,1.98,3,2.46,5.4,2.46h3.38a7.181,7.181,0,0,1,.64-1.98c-.8,0-3.28.02-3.88.02a10.333,10.333,0,0,1-1.14-.06ZM-3.28-14.22a26.378,26.378,0,0,0-1.54-2.64l-1.64.68c.38.58.78,1.28,1.12,1.94a8.391,8.391,0,0,1-.94.04h-9.26a22.269,22.269,0,0,1-2.38-.16v2.82c.52-.04,1.46-.08,2.38-.08h9.32A12.843,12.843,0,0,1-8.58-5.98a13.144,13.144,0,0,1-7.84,4.7l2.18,2.38A15.828,15.828,0,0,0-6.2-4.42a20.189,20.189,0,0,0,3-7.28,10.1,10.1,0,0,1,.44-1.38l-1.26-.82Zm-.4-2.46A23.707,23.707,0,0,1-2.08-14l1.66-.72c-.38-.7-1.1-1.92-1.6-2.64ZM14.9-11.6v8.3H5.24v-8.3Zm2.68-.64c0-.6,0-1.34.04-1.94-.72.04-1.48.04-1.98.04h-11c-.54,0-1.3-.02-2.12-.04.04.56.04,1.38.04,1.94v9.78c0,.96-.04,2.7-.06,2.8H5.26L5.24-.76h9.64L14.86.34h2.76c0-.08-.04-2-.04-2.78Zm12.52.34-2.38.78a33.312,33.312,0,0,1,1.62,4.44l2.4-.84C31.46-8.44,30.48-11.04,30.1-11.9Zm4.56.56a13.479,13.479,0,0,1-2.54,6.86A13.457,13.457,0,0,1,25.48-.3l2.1,2.14a15.619,15.619,0,0,0,6.7-4.96A16.127,16.127,0,0,0,37-8.98c.12-.4.24-.82.48-1.46Zm-9.2.5-2.4.86a40.4,40.4,0,0,1,1.82,4.62l2.44-.92C26.92-7.4,25.96-9.82,25.46-10.84ZM55.94-13.7a6.413,6.413,0,0,1-1.74.24H50.18l.06-.1c.24-.44.74-1.34,1.22-2.04l-2.92-.96a9.622,9.622,0,0,1-.9,2.1A17.61,17.61,0,0,1,41.4-8.02l2.24,1.66a22.8,22.8,0,0,0,5.04-4.84H54.3a14.217,14.217,0,0,1-2.84,5.46A15.939,15.939,0,0,1,43.4-.8l2.36,2.12a18.842,18.842,0,0,0,8.08-5.64A20.868,20.868,0,0,0,57.32-11a8.008,8.008,0,0,1,.66-1.44Z" transform="translate(59.48 17.36)" fill="#fff"/></svg>