<svg xmlns="http://www.w3.org/2000/svg" width="195.101" height="59.34" viewBox="0 0 195.101 59.34"><g transform="translate(-272.88 -2462.5)"><path d="M-35.16-20.13h-1.95v-1.95h1.95Zm-4.2,0h-1.89v-1.95h1.89Zm-4.17,0h-1.83v-1.95h1.83Zm11.34-4.35H-48.21v6.75h16.02ZM-49.53-13.92h18.45v-2.82H-49.53Zm.51,6.6-3.3.87v-5.1h2.73V-14.7h-2.73v-5.46h3.12v-3.12h-9.6v3.12h3.33v5.46h-3.06v3.15h3.06v5.88c-1.41.36-2.7.66-3.78.9l.75,3.3c2.88-.72,6.51-1.71,9.93-2.7Zm15,1.5a25.424,25.424,0,0,1-2.67,2.19,12.057,12.057,0,0,1-1.77-2.19Zm-10.59-4.47H-36v1.95h-8.61Zm10.8,4.47h1.11v-7.02H-47.73v7.02h4.86a28.407,28.407,0,0,1-8.7,4.44,13.954,13.954,0,0,1,2.1,2.55,31.51,31.51,0,0,0,5.61-2.94V2.61h3.36V-3.87a15.135,15.135,0,0,0,7.29,6.48A13.373,13.373,0,0,1-30.99-.15a14.334,14.334,0,0,1-3.66-1.8,33.265,33.265,0,0,0,3.18-2.16ZM-7.89-20.76c-.24.72-.6,1.59-.9,2.25l.15.03h-3.81l.39-.09a9.567,9.567,0,0,0-.84-2.19Zm6.78,2.28H-5.4c.33-.6.72-1.32,1.11-2.13l-.75-.15h3.39v-2.76H-8.76v-1.83h-3.51v1.83h-6.51v2.76h3.66l-1.11.24a9.781,9.781,0,0,1,.75,2.04h-3.96v2.91H-1.11ZM-19.5-9.39c-.93.39-1.86.81-2.79,1.2v-6.75h2.73V-18.3h-2.73v-6.69h-3.3v6.69h-2.97v3.36h2.97v8.1c-1.38.54-2.64,1.02-3.66,1.38l1.2,3.57c2.73-1.26,6.18-2.82,9.33-4.35Zm5.07.75H-6v1.53h-8.43Zm0-3.57H-6v1.5h-8.43ZM-5.55-.57c-.54,0-.63-.09-.63-.84V-4.89h3.69V-14.4H-17.76v9.51h2.55C-15.75-2.7-17.07-1.2-21.78-.3a10.744,10.744,0,0,1,1.95,3c5.73-1.47,7.47-3.99,8.13-7.59h2.13v3.51c0,2.85.6,3.84,3.42,3.84h2.34c2.1,0,2.94-.9,3.27-4.35A8.548,8.548,0,0,1-3.51-3.15C-3.57-.87-3.72-.57-4.2-.57ZM7.68-25.35A31.638,31.638,0,0,1,.6-14.13a23.847,23.847,0,0,1,1.92,3.66A34.188,34.188,0,0,0,4.8-13.14V2.55H8.19V-18.36a50.161,50.161,0,0,0,2.79-5.91Zm7.29,4.38h8.79v4.02H14.97ZM28.8-7.86V-11.1H21.06v-2.7h6.27V-24.09H11.58V-13.8h5.88v2.7H9.6v3.24h6.15A21.552,21.552,0,0,1,8.52-1.38a14.732,14.732,0,0,1,2.46,2.85,24.057,24.057,0,0,0,6.48-6.45V2.61h3.6V-5.13a24.772,24.772,0,0,0,6.09,6.66,15.188,15.188,0,0,1,2.52-2.85A22.577,22.577,0,0,1,22.8-7.86Zm8.58-6.75a34.561,34.561,0,0,0,7.5-7.44,36.155,36.155,0,0,0,7.74,7.44Zm9.39,9.72h8.4V-8.01h-8.4v-3.45h7.02V-13.8a38.032,38.032,0,0,0,3.24,2.01A17.382,17.382,0,0,1,59.4-15,31.706,31.706,0,0,1,46.56-25.5H42.87A32.738,32.738,0,0,1,30.69-14.64a13.181,13.181,0,0,1,2.25,2.88,38.385,38.385,0,0,0,3.33-2.07v2.37h6.78v3.45H34.74v3.12h8.31v3.57H32.34V1.89H57.87V-1.32H46.77Z" transform="translate(370 2488)" fill="#fff"/><path d="M-82.54.44c-.04-.6-.08-1.66-.08-2.36V-12.28c0-.58.04-1.38.06-1.84-.34.02-1.18.04-1.76.04H-94.38c-.7,0-1.74-.04-2.48-.12v2.78c.56-.04,1.64-.08,2.48-.08h8.98v8.28h-9.22c-.9,0-1.8-.06-2.5-.12V-.48c.66-.06,1.8-.12,2.58-.12h9.12c0,.38,0,.72-.02,1.04Zm7.36-15.64-1.88,2a41.585,41.585,0,0,1,5,4.32l2.04-2.1A42,42,0,0,0-75.18-15.2Zm-2.5,13.32L-76,.76a21.659,21.659,0,0,0,7.42-2.82,21.267,21.267,0,0,0,7.4-7.4l-1.56-2.82A18.965,18.965,0,0,1-70.02-4.5,20.614,20.614,0,0,1-77.68-1.88ZM-44.06-13.7a6.413,6.413,0,0,1-1.74.24h-4.02l.06-.1c.24-.44.74-1.34,1.22-2.04l-2.92-.96a9.622,9.622,0,0,1-.9,2.1A17.61,17.61,0,0,1-58.6-8.02l2.24,1.66a22.8,22.8,0,0,0,5.04-4.84h5.62a14.217,14.217,0,0,1-2.84,5.46A15.939,15.939,0,0,1-56.6-.8l2.36,2.12a18.842,18.842,0,0,0,8.08-5.64A20.868,20.868,0,0,0-42.68-11a8.008,8.008,0,0,1,.66-1.44Zm7.96-1.64a13.6,13.6,0,0,1,.08,1.52v6.74c0,.6-.08,1.38-.1,1.76h2.96c-.04-.46-.06-1.24-.06-1.74v-6.76c0-.64.02-1.08.06-1.52Zm9.2-.18a14.109,14.109,0,0,1,.12,2v3.8c0,3.12-.26,4.62-1.62,6.12a9.36,9.36,0,0,1-4.9,2.52l2.1,2.2a11.619,11.619,0,0,0,4.86-2.9c1.48-1.64,2.32-3.48,2.32-7.78v-3.96c0-.8.04-1.44.08-2Zm8.74,9.4c.74-.06,2.08-.1,3.22-.1H-4.2c.84,0,1.86.08,2.34.1V-9.26c-.52.04-1.42.12-2.34.12H-14.94c-1.04,0-2.5-.06-3.22-.12ZM17.38-7.36a65.321,65.321,0,0,0-8.36-3.1V-13.4a21.75,21.75,0,0,1,.18-2.42H6.08a13.949,13.949,0,0,1,.2,2.42V-1.92A21.4,21.4,0,0,1,6.08.86H9.2c-.08-.8-.18-2.2-.18-2.78V-7.58A57.767,57.767,0,0,1,16.24-4.6Zm19.34-6.86a26.378,26.378,0,0,0-1.54-2.64l-1.64.68c.38.58.78,1.28,1.12,1.94a8.391,8.391,0,0,1-.94.04H24.46a22.269,22.269,0,0,1-2.38-.16v2.82c.52-.04,1.46-.08,2.38-.08h9.32a12.843,12.843,0,0,1-2.36,5.64,13.144,13.144,0,0,1-7.84,4.7L25.76,1.1A15.828,15.828,0,0,0,33.8-4.42a20.189,20.189,0,0,0,3-7.28,10.1,10.1,0,0,1,.44-1.38l-1.26-.82Zm-.4-2.46A23.707,23.707,0,0,1,37.92-14l1.66-.72c-.38-.7-1.1-1.92-1.6-2.64ZM54.9-11.6v8.3H45.24v-8.3Zm2.68-.64c0-.6,0-1.34.04-1.94-.72.04-1.48.04-1.98.04h-11c-.54,0-1.3-.02-2.12-.04.04.56.04,1.38.04,1.94v9.78c0,.96-.04,2.7-.06,2.8h2.76l-.02-1.1h9.64L54.86.34h2.76c0-.08-.04-2-.04-2.78Zm12.52.34-2.38.78a33.312,33.312,0,0,1,1.62,4.44l2.4-.84C71.46-8.44,70.48-11.04,70.1-11.9Zm4.56.56a13.479,13.479,0,0,1-2.54,6.86A13.457,13.457,0,0,1,65.48-.3l2.1,2.14a15.619,15.619,0,0,0,6.7-4.96A16.127,16.127,0,0,0,77-8.98c.12-.4.24-.82.48-1.46Zm-9.2.5-2.4.86a40.4,40.4,0,0,1,1.82,4.62l2.44-.92C66.92-7.4,65.96-9.82,65.46-10.84ZM95.94-13.7a6.413,6.413,0,0,1-1.74.24H90.18l.06-.1c.24-.44.74-1.34,1.22-2.04l-2.92-.96a9.622,9.622,0,0,1-.9,2.1A17.61,17.61,0,0,1,81.4-8.02l2.24,1.66a22.8,22.8,0,0,0,5.04-4.84H94.3a14.217,14.217,0,0,1-2.84,5.46A15.939,15.939,0,0,1,83.4-.8l2.36,2.12a18.842,18.842,0,0,0,8.08-5.64A20.868,20.868,0,0,0,97.32-11a8.008,8.008,0,0,1,.66-1.44Z" transform="translate(370 2520)" fill="#fff"/></g></svg>