<svg xmlns="http://www.w3.org/2000/svg" width="234.12" height="77.844" viewBox="0 0 234.12 77.844"><g transform="translate(-253.456 -2457.364)"><path d="M-57.816-10.872c-.576-1.008-3.24-5.148-4.248-6.552v-1.692h3.6v-3.96h-3.6v-7.416h-3.888v7.416h-4.32v3.96h4c-.9,4.248-2.808,9.252-4.824,12.06a20.541,20.541,0,0,1,1.872,3.78,30.369,30.369,0,0,0,3.276-7.092V3.1h3.888V-12.24c.792,1.62,1.584,3.312,2.052,4.428Zm11.772,5.22V-7.38h3.2v1.728ZM-52.956-7.38h3.06v1.728h-3.06Zm3.06-4.32v1.548h-3.06V-11.7Zm7.056,0v1.548h-3.2V-11.7Zm-7.092-8.856h3.96v1.512h-3.96Zm0-4.356h3.96v1.476h-3.96Zm13,19.26H-38.88v-9h-7.164V-16.02H-37.3v-3.024h-4.68v-1.512h3.456v-2.88h-3.456v-1.476h4.032v-2.952h-4.032v-2.628h-4v2.628h-3.96v-2.628h-3.96v2.628H-57.6v2.952h3.708v1.476h-2.952v2.88h2.952v1.512h-4.464v3.024h8.46v1.368h-6.912v9H-59V-2.52h2.2V2.844h3.852V-2.52H-42.84v1.512c0,.432-.144.54-.612.54-.432,0-1.908.036-3.24-.036A14.913,14.913,0,0,1-45.576,2.88c2.268,0,3.96-.036,5.148-.576C-39.24,1.728-38.88.828-38.88-.972V-2.52h1.944Zm21.708-17.172v3.06H-22.1a21.443,21.443,0,0,0,2.376-3.06Zm-9.576,3.06V-16.2H-1.656v-3.564H-10.98v-3.06h7.848V-26.46H-10.98v-4h-4.248v4h-2.52a26.216,26.216,0,0,0,1.116-2.772l-4-.936A19.548,19.548,0,0,1-25.74-21.78a26.672,26.672,0,0,1,3.564,2.016Zm7.056,8.928H-8.28v3.672h-9.468ZM-3.816-3.744V-14.22H-21.924V-3.744ZM-25.092-24.228A28.828,28.828,0,0,0-31.1-29.664l-3.168,2.592a27.243,27.243,0,0,1,5.8,5.688Zm-.9,7.7h-8.316V-12.6h4.14V-5A47.278,47.278,0,0,1-35.1-1.692l2.088,4.464c1.98-1.512,3.564-2.916,5.148-4.32,2.34,2.808,5.292,3.816,9.72,4,4.284.18,11.52.108,15.84-.108A22.421,22.421,0,0,1-.972-1.98c-4.788.36-12.888.468-17.1.288-3.744-.144-6.444-1.116-7.92-3.528Zm55.26,7.6A14.877,14.877,0,0,1,27.18-5.652c-.288-.972-.576-2.088-.828-3.276ZM12.708-12.24c-.864-1.512-2.592-4.284-3.348-5.4v-1.548h3.276V-23A23.233,23.233,0,0,1,15.3-20.34c-.72,1.152-1.476,2.232-2.16,3.168l-1.116.072.576,3.168c2.016-.216,4.248-.5,6.588-.756.072.4.108.756.144,1.08l2.448-.972c.108.792.216,1.584.288,2.34Zm5.148-6.948a16.979,16.979,0,0,1,.576,1.62l-1.944.144c1.548-2.016,3.24-4.536,4.68-6.768.072,2.88.252,5.652.5,8.28a21.459,21.459,0,0,0-1.4-4.032Zm7.308,1.512c-.144-1.8-.252-3.636-.288-5.58a24.34,24.34,0,0,1,2.88,2.916c-.612.936-1.224,1.836-1.8,2.592Zm.612,5.436c-.18-1.08-.324-2.2-.432-3.384l.216,1.008c1.008-.108,2.052-.252,3.168-.36l-1.62,1.4a20.1,20.1,0,0,1,1.728,1.332Zm3.708,3.312h5.04V-12.24H31.788l.684-.612a14.07,14.07,0,0,0-2.736-2.268l2.664-.36a13.976,13.976,0,0,1,.288,1.4l2.556-1.08a22.062,22.062,0,0,0-1.872-5.328l-2.412.864c.216.468.432.972.612,1.476L29.412-18c1.584-2.124,3.312-4.752,4.752-7.02l-2.916-1.44c-.5,1.044-1.152,2.268-1.836,3.456l-.936-.936c.9-1.4,1.944-3.348,2.952-5.148l-3.2-1.224a35.639,35.639,0,0,1-1.764,4.644l-.576-.432L24.84-24.588c-.036-1.908-.036-3.852,0-5.868H21.06c0,1.764.036,3.492.072,5.184L18.72-26.46c-.5,1.08-1.116,2.268-1.836,3.492-.252-.288-.576-.612-.9-.936.864-1.44,1.908-3.42,2.916-5.148l-3.168-1.224a40.038,40.038,0,0,1-1.764,4.644l-.612-.468-1.584,2.34c.252.216.54.432.792.684H9.36v-7.416H5.544v7.416H1.692v3.888H5.256C4.428-14.9,2.736-9.9.864-7.056a24.4,24.4,0,0,1,1.8,3.636,30.8,30.8,0,0,0,2.88-6.768V3.1H9.36v-15.84c.72,1.584,1.44,3.24,1.8,4.32l1.44-2.124v1.62h2.232c-.36,3.636-1.26,7.056-4.428,9.18A9.917,9.917,0,0,1,12.816,3.06,12.306,12.306,0,0,0,17.6-3.852,22.749,22.749,0,0,1,20.376-1.4l2.3-2.844A28.693,28.693,0,0,0,18.4-7.56c.072-.432.144-.9.18-1.368h4.068A33.129,33.129,0,0,0,24.3-2.88,22.331,22.331,0,0,1,18.288.36,15.815,15.815,0,0,1,20.52,3.1,25.99,25.99,0,0,0,25.956.252a5.938,5.938,0,0,0,4.932,2.88c2.808,0,3.816-1.08,4.464-5.148A10.253,10.253,0,0,1,32.58-3.96c-.18,2.844-.5,3.528-1.4,3.528a3.026,3.026,0,0,1-2.412-1.656,20.781,20.781,0,0,0,4.068-5.58Zm36.432-5.4c3.312,0,4.428-1.332,4.9-5.94a11.834,11.834,0,0,1-3.78-1.584c-.144,3.132-.4,3.672-1.548,3.672H61.56c-1.368,0-1.584-.144-1.584-1.44v-2.124a66.055,66.055,0,0,0,9.216-3.384l-2.736-3.1a56.088,56.088,0,0,1-6.48,2.988v-5.148H55.728v10.836c0,3.96,1.008,5.22,5.22,5.22ZM43.272-6.876V-9h5.4v2.124Zm5.4-7.164v1.872h-5.4V-14.04Zm4.212-3.528H39.312V3.1h3.96v-6.8h5.4V-1.3c0,.432-.144.54-.576.54a29.909,29.909,0,0,1-3.168,0A15.841,15.841,0,0,1,46.3,3.024c2.16,0,3.816-.036,5.04-.72,1.188-.612,1.548-1.656,1.548-3.528Zm-5.4-9.18c.576.936,1.152,1.944,1.692,2.952l-4.788.216c.9-1.908,1.872-4.068,2.7-6.156l-4.464-.9A56.871,56.871,0,0,1,40-23.4c-1.008.036-1.944.072-2.808.072l.36,4.068c3.672-.216,8.568-.5,13.32-.828a13.3,13.3,0,0,1,.648,1.908l3.924-1.584a35.209,35.209,0,0,0-4.356-8.352ZM61.6-.864c-1.4,0-1.656-.18-1.656-1.44v-2.88A54.578,54.578,0,0,0,69.552-9l-2.844-3.132A40.775,40.775,0,0,1,59.94-8.748v-4.86H55.728V-2.3c0,3.96,1.044,5.184,5.256,5.184H66.1c3.456,0,4.536-1.4,5-6.48a13.328,13.328,0,0,1-3.744-1.584c-.18,3.636-.432,4.32-1.656,4.32Z" transform="translate(370 2488)" fill="#fff"/><path d="M-99.048.528c-.048-.72-.1-1.992-.1-2.832V-14.736c0-.7.048-1.656.072-2.208-.408.024-1.416.048-2.112.048h-12.072c-.84,0-2.088-.048-2.976-.144V-13.7c.672-.048,1.968-.1,2.976-.1h10.776v9.936h-11.064c-1.08,0-2.16-.072-3-.144V-.576c.792-.072,2.16-.144,3.1-.144H-102.5c0,.456,0,.864-.024,1.248Zm8.832-18.768-2.256,2.4a49.9,49.9,0,0,1,6,5.184l2.448-2.52A50.4,50.4,0,0,0-90.216-18.24Zm-3,15.984L-91.2.912a25.991,25.991,0,0,0,8.9-3.384,25.52,25.52,0,0,0,8.88-8.88l-1.872-3.384A22.757,22.757,0,0,1-84.024-5.4,24.736,24.736,0,0,1-93.216-2.256ZM-52.872-16.44a7.7,7.7,0,0,1-2.088.288h-4.824l.072-.12c.288-.528.888-1.608,1.464-2.448l-3.5-1.152a11.547,11.547,0,0,1-1.08,2.52A21.132,21.132,0,0,1-70.32-9.624l2.688,1.992a27.356,27.356,0,0,0,6.048-5.808h6.744a17.061,17.061,0,0,1-3.408,6.552A19.127,19.127,0,0,1-67.92-.96l2.832,2.544a22.611,22.611,0,0,0,9.7-6.768A25.041,25.041,0,0,0-51.216-13.2a9.609,9.609,0,0,1,.792-1.728Zm9.552-1.968a16.323,16.323,0,0,1,.1,1.824V-8.5c0,.72-.1,1.656-.12,2.112h3.552c-.048-.552-.072-1.488-.072-2.088v-8.112c0-.768.024-1.3.072-1.824Zm11.04-.216a16.931,16.931,0,0,1,.144,2.4v4.56c0,3.744-.312,5.544-1.944,7.344A11.232,11.232,0,0,1-39.96-1.3l2.52,2.64a13.942,13.942,0,0,0,5.832-3.48c1.776-1.968,2.784-4.176,2.784-9.336v-4.752c0-.96.048-1.728.1-2.4Zm10.488,11.28c.888-.072,2.5-.12,3.864-.12H-5.04c1.008,0,2.232.1,2.808.12v-3.768c-.624.048-1.7.144-2.808.144H-17.928c-1.248,0-3-.072-3.864-.144ZM20.856-8.832a78.385,78.385,0,0,0-10.032-3.72V-16.08a26.1,26.1,0,0,1,.216-2.9H7.3a16.739,16.739,0,0,1,.24,2.9V-2.3A25.681,25.681,0,0,1,7.3,1.032H11.04c-.1-.96-.216-2.64-.216-3.336V-9.1A69.321,69.321,0,0,1,19.488-5.52Zm23.208-8.232a31.654,31.654,0,0,0-1.848-3.168l-1.968.816c.456.7.936,1.536,1.344,2.328a10.069,10.069,0,0,1-1.128.048H29.352a26.722,26.722,0,0,1-2.856-.192v3.384c.624-.048,1.752-.1,2.856-.1H40.536A15.412,15.412,0,0,1,37.7-7.176C35.76-4.728,33.072-2.664,28.3-1.536L30.912,1.32A18.993,18.993,0,0,0,40.56-5.3c2.016-2.664,3.048-6.384,3.6-8.736a12.121,12.121,0,0,1,.528-1.656l-1.512-.984Zm-.48-2.952A28.448,28.448,0,0,1,45.5-16.8l1.992-.864c-.456-.84-1.32-2.3-1.92-3.168Zm22.3,6.1v9.96H54.288v-9.96Zm3.216-.768c0-.72,0-1.608.048-2.328-.864.048-1.776.048-2.376.048h-13.2c-.648,0-1.56-.024-2.544-.048.048.672.048,1.656.048,2.328V-2.952c0,1.152-.048,3.24-.072,3.36h3.312l-.024-1.32H65.856L65.832.408h3.312c0-.1-.048-2.4-.048-3.336Zm15.024.408-2.856.936a39.975,39.975,0,0,1,1.944,5.328l2.88-1.008C85.752-10.128,84.576-13.248,84.12-14.28Zm5.472.672a16.175,16.175,0,0,1-3.048,8.232A16.149,16.149,0,0,1,78.576-.36L81.1,2.208a18.742,18.742,0,0,0,8.04-5.952A19.352,19.352,0,0,0,92.4-10.776c.144-.48.288-.984.576-1.752Zm-11.04.6-2.88,1.032a48.477,48.477,0,0,1,2.184,5.544l2.928-1.1C80.3-8.88,79.152-11.784,78.552-13.008Zm36.576-3.432a7.7,7.7,0,0,1-2.088.288h-4.824l.072-.12c.288-.528.888-1.608,1.464-2.448l-3.5-1.152a11.547,11.547,0,0,1-1.08,2.52A21.132,21.132,0,0,1,97.68-9.624l2.688,1.992a27.356,27.356,0,0,0,6.048-5.808h6.744a17.061,17.061,0,0,1-3.408,6.552A19.127,19.127,0,0,1,100.08-.96l2.832,2.544a22.611,22.611,0,0,0,9.7-6.768,25.041,25.041,0,0,0,4.176-8.016,9.609,9.609,0,0,1,.792-1.728Z" transform="translate(370 2533)" fill="#fff"/></g></svg>