<svg xmlns="http://www.w3.org/2000/svg" width="267.451" height="27.99" viewBox="0 0 267.451 27.99"><path d="M-121.83-24.99V-1.86c0,.57-.24.78-.9.78-.66.03-2.88.03-4.83-.06a16.054,16.054,0,0,1,1.41,3.72c2.91,0,4.95-.12,6.36-.69,1.32-.57,1.83-1.56,1.83-3.75V-24.99Zm7.14,7.83c2.37,4.38,4.65,10.02,5.25,13.65l3.9-1.53c-.75-3.75-3.21-9.18-5.64-13.44Zm-15-.99c-.63,3.9-2.13,9.15-4.53,12.18a30.047,30.047,0,0,1,3.48,1.86c2.49-3.3,4.11-8.88,5.13-13.35ZM-98.01-4.11V-18.84h15.9V-4.11Zm-3.75-18.36V2.01h3.75V-.42h15.9V1.95h3.93V-22.47ZM-56.88-2.46v-9.99h8.94v-3.6h-8.94v-9.36h-3.81V-2.46h-5.46v-16.8H-69.9v16.8h-3.81V1.11h27.39V-2.46Zm19.14-1.83c-1.08,0-1.68-.93-1.68-2.37a9.067,9.067,0,0,1,2.16-5.58,32.7,32.7,0,0,0,2.76,5.7C-35.58-5.19-36.69-4.29-37.74-4.29Zm8.13-11.91a35.4,35.4,0,0,1-2.64,6.36,29.767,29.767,0,0,1-2.1-4.71A11.583,11.583,0,0,1-29.61-16.2Zm4.83-4.23c.18-.75.45-2.19.69-3l-4.11-.39A16.033,16.033,0,0,1-28.41-21c-.09.45-.18.93-.3,1.44a15.488,15.488,0,0,0-6.72,1.77c-.21-.63-.39-1.26-.54-1.83-.24-.87-.48-1.86-.66-2.82l-3.9,1.2a21.856,21.856,0,0,1,1.2,3.09c.24.81.51,1.62.78,2.4a13.032,13.032,0,0,0-4.38,9.39c0,3.84,2.28,5.94,4.74,5.94,2.19,0,3.84-1.02,5.85-3.18.3.39.66.78,1.02,1.17l2.97-2.37c-.54-.54-1.08-1.14-1.62-1.77a36.166,36.166,0,0,0,4.02-9.45,6.364,6.364,0,0,1,4.8,6.54c0,3.72-2.55,7.05-9.09,7.62l2.28,3.42C-21.75.63-17.25-2.97-17.25-9.27a9.79,9.79,0,0,0-7.8-10.02ZM-3.84-11.4A3.867,3.867,0,0,0,0-7.56,3.867,3.867,0,0,0,3.84-11.4,3.867,3.867,0,0,0,0-15.24,3.867,3.867,0,0,0-3.84-11.4Zm43.5-8.37a7.3,7.3,0,0,1-2.49.33H31.95v-2.31a21.8,21.8,0,0,1,.21-2.76H27.54a14.823,14.823,0,0,1,.24,2.76v2.31H21.36a25.191,25.191,0,0,1-3.06-.15,19.155,19.155,0,0,1,.15,2.58v5.19A22.754,22.754,0,0,1,18.3-9.3h4.14c-.06-.6-.09-1.53-.09-2.22V-15.9H37.23a17.811,17.811,0,0,1-2.67,7.71,14.685,14.685,0,0,1-6.81,5.13,24.432,24.432,0,0,1-4.23,1.17l3.12,3.6a19.065,19.065,0,0,0,12.24-9,27.939,27.939,0,0,0,2.79-8.49,20.032,20.032,0,0,1,.6-2.4Zm29.79,3.81a6.329,6.329,0,0,1-2.19.3H52.41c-.93,0-2.22-.06-3.48-.18v3.9c1.26-.12,2.76-.15,3.48-.15H66.9A13.015,13.015,0,0,1,63.81-6.9,20.219,20.219,0,0,1,53.4-1.65l3,3.39A22.465,22.465,0,0,0,67.11-4.74a21.56,21.56,0,0,0,4.44-8.31,11.115,11.115,0,0,1,.57-1.26ZM51.69-19.14c.87-.06,2.16-.09,3.12-.09H66.3c1.08,0,2.49.03,3.3.09v-3.87a28.284,28.284,0,0,1-3.24.15H54.81a25.289,25.289,0,0,1-3.12-.15ZM101.19.66c-.06-.9-.12-2.49-.12-3.54V-18.42c0-.87.06-2.07.09-2.76-.51.03-1.77.06-2.64.06H83.43c-1.05,0-2.61-.06-3.72-.18v4.17c.84-.06,2.46-.12,3.72-.12H96.9V-4.83H83.07c-1.35,0-2.7-.09-3.75-.18V-.72c.99-.09,2.7-.18,3.87-.18H96.87c0,.57,0,1.08-.03,1.56ZM112.23-22.8l-2.82,3a62.378,62.378,0,0,1,7.5,6.48l3.06-3.15A63,63,0,0,0,112.23-22.8ZM108.48-2.82,111,1.14a32.489,32.489,0,0,0,11.13-4.23,31.9,31.9,0,0,0,11.1-11.1l-2.34-4.23A28.447,28.447,0,0,1,119.97-6.75,30.92,30.92,0,0,1,108.48-2.82Z" transform="translate(134.221 25.41)" fill="#fff"/></svg>