<svg xmlns="http://www.w3.org/2000/svg" width="178.301" height="18.66" viewBox="0 0 178.301 18.66"><path d="M-81.22-16.66V-1.24c0,.38-.16.52-.6.52-.44.02-1.92.02-3.22-.04a10.7,10.7,0,0,1,.94,2.48,12.23,12.23,0,0,0,4.24-.46c.88-.38,1.22-1.04,1.22-2.5V-16.66Zm4.76,5.22a34.386,34.386,0,0,1,3.5,9.1l2.6-1.02a34.978,34.978,0,0,0-3.76-8.96Zm-10-.66c-.42,2.6-1.42,6.1-3.02,8.12a20.032,20.032,0,0,1,2.32,1.24c1.66-2.2,2.74-5.92,3.42-8.9Zm21.12,9.36v-9.82h10.6v9.82Zm-2.5-12.24V1.34h2.5V-.28h10.6V1.3h2.62V-14.98ZM-37.92-1.64V-8.3h5.96v-2.4h-5.96v-6.24h-2.54v15.3H-44.1v-11.2h-2.5v11.2h-2.54V.74h18.26V-1.64Zm12.76-1.22c-.72,0-1.12-.62-1.12-1.58a6.044,6.044,0,0,1,1.44-3.72A21.8,21.8,0,0,0-23-4.36,3.238,3.238,0,0,1-25.16-2.86Zm5.42-7.94A23.6,23.6,0,0,1-21.5-6.56,19.845,19.845,0,0,1-22.9-9.7,7.722,7.722,0,0,1-19.74-10.8Zm3.22-2.82c.12-.5.3-1.46.46-2l-2.74-.26A10.689,10.689,0,0,1-18.94-14c-.06.3-.12.62-.2.96a10.325,10.325,0,0,0-4.48,1.18c-.14-.42-.26-.84-.36-1.22-.16-.58-.32-1.24-.44-1.88l-2.6.8a14.571,14.571,0,0,1,.8,2.06c.16.54.34,1.08.52,1.6a8.688,8.688,0,0,0-2.92,6.26c0,2.56,1.52,3.96,3.16,3.96,1.46,0,2.56-.68,3.9-2.12.2.26.44.52.68.78L-18.9-3.2c-.36-.36-.72-.76-1.08-1.18a24.111,24.111,0,0,0,2.68-6.3,4.243,4.243,0,0,1,3.2,4.36c0,2.48-1.7,4.7-6.06,5.08l1.52,2.28C-14.5.42-11.5-1.98-11.5-6.18a6.527,6.527,0,0,0-5.2-6.68ZM-2.56-7.6A2.578,2.578,0,0,0,0-5.04,2.578,2.578,0,0,0,2.56-7.6,2.578,2.578,0,0,0,0-10.16,2.578,2.578,0,0,0-2.56-7.6Zm29-5.58a4.866,4.866,0,0,1-1.66.22H21.3V-14.5a14.536,14.536,0,0,1,.14-1.84H18.36a9.882,9.882,0,0,1,.16,1.84v1.54H14.24a16.794,16.794,0,0,1-2.04-.1,12.77,12.77,0,0,1,.1,1.72v3.46a15.169,15.169,0,0,1-.1,1.68h2.76c-.04-.4-.06-1.02-.06-1.48V-10.6h9.92a11.874,11.874,0,0,1-1.78,5.14A9.79,9.79,0,0,1,18.5-2.04a16.288,16.288,0,0,1-2.82.78l2.08,2.4a12.71,12.71,0,0,0,8.16-6,18.626,18.626,0,0,0,1.86-5.66,13.354,13.354,0,0,1,.4-1.6ZM46.3-10.64a4.219,4.219,0,0,1-1.46.2h-9.9c-.62,0-1.48-.04-2.32-.12v2.6c.84-.08,1.84-.1,2.32-.1H44.6A8.677,8.677,0,0,1,42.54-4.6,13.479,13.479,0,0,1,35.6-1.1l2,2.26a14.976,14.976,0,0,0,7.14-4.32A14.373,14.373,0,0,0,47.7-8.7a7.41,7.41,0,0,1,.38-.84ZM34.46-12.76c.58-.04,1.44-.06,2.08-.06H44.2c.72,0,1.66.02,2.2.06v-2.58a18.857,18.857,0,0,1-2.16.1h-7.7a16.859,16.859,0,0,1-2.08-.1Zm33,13.2c-.04-.6-.08-1.66-.08-2.36V-12.28c0-.58.04-1.38.06-1.84-.34.02-1.18.04-1.76.04H55.62c-.7,0-1.74-.04-2.48-.12v2.78c.56-.04,1.64-.08,2.48-.08H64.6v8.28H55.38c-.9,0-1.8-.06-2.5-.12V-.48c.66-.06,1.8-.12,2.58-.12h9.12c0,.38,0,.72-.02,1.04ZM74.82-15.2l-1.88,2a41.585,41.585,0,0,1,5,4.32l2.04-2.1A42,42,0,0,0,74.82-15.2ZM72.32-1.88,74,.76a21.659,21.659,0,0,0,7.42-2.82,21.267,21.267,0,0,0,7.4-7.4l-1.56-2.82A18.965,18.965,0,0,1,79.98-4.5,20.614,20.614,0,0,1,72.32-1.88Z" transform="translate(89.48 16.94)" fill="#fff"/></svg>