<svg xmlns="http://www.w3.org/2000/svg" width="199.141" height="18.7" viewBox="0 0 199.141 18.7"><path d="M-93.54-3.06v1.8H-96.3v-1.8ZM-98.36,1.7h2.06V.68h2.76V1.3h2.14V-4.98h-6.96ZM-83.2-8.96v1.28h-1.66V-8.96Zm-1.66,4.5v-1.3h1.66v1.3Zm-3.66,0v-1.3h1.54v1.3Zm1.54-4.5v1.28h-1.54V-8.96Zm6.12-3.32v-2.04h-1.18l1.04-.86a10.56,10.56,0,0,0-2.2-1.74l-1.4,1.04a13.2,13.2,0,0,1,1.88,1.56h-2.14v-2.62h-2.12v2.62h-3.96v.8a20.06,20.06,0,0,0-3.28-3.4h-2.02a13.353,13.353,0,0,1-3.44,4.68,7.44,7.44,0,0,1,1.46,1.5v1.58h2.24V-7.8h-2.9v1.92h7.8V-7.8h-2.74V-9.16h2.3v-1.82h-2.3v-1.7h-2.16v1.7h-1.84a18.933,18.933,0,0,0,2.96-3.8,18.507,18.507,0,0,1,2.58,3.26l1.34-1.68v.92h3.96v1.32h-3.6V1.66h2.06V-2.56h1.54V1.56h2.12V-2.56h1.66V-.58c0,.18-.06.24-.24.24a10.358,10.358,0,0,1-1.14,0,6.7,6.7,0,0,1,.6,2.02,4.014,4.014,0,0,0,2.18-.4c.56-.36.68-.9.68-1.82V-10.96h-3.74v-1.32ZM-64.88-1.76h-8v-4.8h8Zm3.68-11.48v-2.34H-78.76v2.34h5.22a17.663,17.663,0,0,1-6.14,8.52A13.29,13.29,0,0,1-78-2.88a15.181,15.181,0,0,0,2.7-2.5V1.74h2.42V.54h8V1.66h2.56V-8.84H-72.84a35.059,35.059,0,0,0,2.06-4.4Zm8.64,5.64A2.578,2.578,0,0,0-50-5.04,2.578,2.578,0,0,0-47.44-7.6,2.578,2.578,0,0,0-50-10.16,2.578,2.578,0,0,0-52.56-7.6Zm17.78,1.54V-7.28h3.48v1.22Zm0-4.22h3.48v1.22h-3.48Zm9.42,0v1.22h-3.5v-1.22Zm0,4.22h-3.5V-7.28h3.5Zm4.48,2.98h-7.98V-4.16h5.9v-8.02h-5.9v-.96h7.4V-15.3h-7.4v-1.62H-31.3v1.62h-7.26v2.16h7.26v.96h-5.76v8.02h5.76v1.08h-7.74V-.94h7.74v2.7h2.44V-.94h7.98ZM-7.92-1.64V-8.3h5.96v-2.4H-7.92v-6.24h-2.54v15.3H-14.1v-11.2h-2.5v11.2h-2.54V.74H-.88V-1.64ZM4.84-2.86c-.72,0-1.12-.62-1.12-1.58A6.044,6.044,0,0,1,5.16-8.16,21.8,21.8,0,0,0,7-4.36,3.238,3.238,0,0,1,4.84-2.86Zm5.42-7.94A23.6,23.6,0,0,1,8.5-6.56,19.845,19.845,0,0,1,7.1-9.7,7.722,7.722,0,0,1,10.26-10.8Zm3.22-2.82c.12-.5.3-1.46.46-2l-2.74-.26A10.689,10.689,0,0,1,11.06-14c-.06.3-.12.62-.2.96a10.325,10.325,0,0,0-4.48,1.18c-.14-.42-.26-.84-.36-1.22-.16-.58-.32-1.24-.44-1.88l-2.6.8a14.57,14.57,0,0,1,.8,2.06c.16.54.34,1.08.52,1.6A8.688,8.688,0,0,0,1.38-4.24C1.38-1.68,2.9-.28,4.54-.28,6-.28,7.1-.96,8.44-2.4c.2.26.44.52.68.78L11.1-3.2c-.36-.36-.72-.76-1.08-1.18a24.111,24.111,0,0,0,2.68-6.3,4.243,4.243,0,0,1,3.2,4.36c0,2.48-1.7,4.7-6.06,5.08l1.52,2.28C15.5.42,18.5-1.98,18.5-6.18a6.527,6.527,0,0,0-5.2-6.68ZM27.44-7.6A2.578,2.578,0,0,0,30-5.04,2.578,2.578,0,0,0,32.56-7.6,2.578,2.578,0,0,0,30-10.16,2.578,2.578,0,0,0,27.44-7.6Zm17.52-7.66.12,2.54c.62-.06,1.28-.14,1.78-.18.8-.08,3.24-.2,4.04-.26a56.11,56.11,0,0,1-5.58,4.5c-1.02.12-2.4.3-3.46.4l.24,2.4c1.98-.34,4.2-.64,6-.78a4.631,4.631,0,0,0-1.44,3.12c0,3.3,2.96,4.82,8.04,4.6l.52-2.6a17.247,17.247,0,0,1-3.02-.04c-1.78-.22-3-.82-3-2.38,0-1.62,1.52-2.9,3.34-3.16a29.866,29.866,0,0,1,5.08-.04V-9.48c-2.42,0-5.68.2-8.34.48,1.34-1.06,3.3-2.7,4.72-3.82.4-.34,1.14-.82,1.54-1.1l-1.56-1.82a7.768,7.768,0,0,1-1.38.24c-1.2.14-4.92.32-5.76.32C46.16-15.18,45.58-15.2,44.96-15.26ZM65.46-3.6c-.74,0-1.54-.98-1.54-2.98a6.21,6.21,0,0,1,5.02-5.74,31.792,31.792,0,0,1-1.06,4.8C67.08-4.84,66.28-3.6,65.46-3.6ZM70.9.82c5-.76,7.56-3.72,7.56-7.88,0-4.32-3.1-7.74-8-7.74-5.14,0-9.12,3.92-9.12,8.48,0,3.34,1.86,5.76,4.04,5.76C67.54-.56,69.26-3,70.44-7a43.043,43.043,0,0,0,1.18-5.38c2.66.46,4.14,2.5,4.14,5.24a5.362,5.362,0,0,1-4.5,5.3c-.52.12-1.08.22-1.84.32Zm13.98-17.7a21,21,0,0,1-4.56,7.5,16.52,16.52,0,0,1,1.28,2.4,16.568,16.568,0,0,0,1.26-1.5V1.7h2.36V-12.14a36.335,36.335,0,0,0,1.86-4.02ZM91.68-.7C90.4-.7,90.2-.88,90.2-2.08v-6.4l1.94-.76V-3h2.22v-7.12l2.08-.82a39.094,39.094,0,0,1-.14,4.3c-.08.38-.22.46-.5.46-.22,0-.78-.02-1.22-.04a6.341,6.341,0,0,1,.52,2.18,5.677,5.677,0,0,0,2.26-.28,1.893,1.893,0,0,0,1.12-1.8c.12-.88.16-3.28.18-6.76l.08-.36-1.62-.62-.44.3-.3.24-2.02.76v-4.3H92.14v5.18l-1.94.74v-3.78H87.84V-10l-2.42.94.92,2.1,1.5-.58v5.46c0,2.74.82,3.52,3.66,3.52h4.42c2.52,0,3.22-1,3.54-3.96a8.274,8.274,0,0,1-2.16-.92C97.12-1.18,96.92-.7,95.74-.7Z" transform="translate(99.68 16.94)" fill="#fff"/></svg>