<svg xmlns="http://www.w3.org/2000/svg" width="351.18" height="34.56"><path d="M26.244 32.04a77.089 77.089 0 0 1-.144-4.248V9.148c0-1.044.072-2.484.108-3.312a72.32 72.32 0 0 1-3.168.072H4.932c-1.26 0-3.132-.072-4.464-.216v5a74.861 74.861 0 0 1 4.464-.144h16.164v14.9h-16.6c-1.62 0-3.24-.108-4.5-.216v5.152a61.048 61.048 0 0 1 4.644-.216h16.416c0 .684 0 1.3-.036 1.872ZM39.492 3.888l-3.384 3.6a74.853 74.853 0 0 1 9 7.776l3.672-3.78a75.6 75.6 0 0 0-9.288-7.596Zm-4.5 23.976 3.024 4.752a38.987 38.987 0 0 0 13.356-5.076 38.281 38.281 0 0 0 13.32-13.32l-2.808-5.076a34.136 34.136 0 0 1-13.1 14 37.1 37.1 0 0 1-13.792 4.72ZM95.508 6.588a11.544 11.544 0 0 1-3.132.432H85.14l.108-.18c.432-.792 1.332-2.412 2.2-3.672L82.192 1.44a17.32 17.32 0 0 1-1.62 3.78 31.7 31.7 0 0 1-11.236 11.592l4.032 2.988a41.034 41.034 0 0 0 9.072-8.712h10.116a25.591 25.591 0 0 1-5.112 9.828c-3.128 3.564-7.128 6.696-14.508 8.892l4.248 3.816c6.768-2.7 11.124-5.976 14.544-10.152a37.562 37.562 0 0 0 6.264-12.024 14.414 14.414 0 0 1 1.188-2.592Zm14.328-2.952a24.484 24.484 0 0 1 .144 2.736v12.132c0 1.08-.144 2.484-.18 3.168h5.328c-.072-.828-.108-2.232-.108-3.132V6.372c0-1.152.036-1.944.108-2.736Zm16.56-.324a25.4 25.4 0 0 1 .216 3.6v6.84c0 5.616-.468 8.316-2.916 11.016-2.2 2.34-5.22 3.708-8.82 4.536l3.78 3.96a20.914 20.914 0 0 0 8.748-5.216c2.664-2.952 4.176-6.264 4.176-14V6.92c0-1.44.072-2.592.144-3.6Zm15.732 16.92c1.332-.108 3.744-.18 5.8-.18h19.328c1.512 0 3.348.144 4.212.18V14.58c-.936.072-2.556.216-4.212.216h-19.332c-1.872 0-4.5-.108-5.8-.216ZM206.1 18a117.577 117.577 0 0 0-15.048-5.58V7.128a39.151 39.151 0 0 1 .324-4.356h-5.616a25.108 25.108 0 0 1 .36 4.356v20.664a38.521 38.521 0 0 1-.36 5h5.616c-.144-1.44-.324-3.96-.324-5V17.604a103.981 103.981 0 0 1 13 5.364Zm34.816-12.352a47.48 47.48 0 0 0-2.772-4.752l-2.952 1.224c.684 1.044 1.4 2.3 2.016 3.492a15.1 15.1 0 0 1-1.692.072h-16.672a40.084 40.084 0 0 1-4.284-.288v5.076a62.714 62.714 0 0 1 4.284-.144h16.772a23.117 23.117 0 0 1-4.248 10.152c-2.912 3.676-6.944 6.768-14.108 8.468l3.924 4.28a28.49 28.49 0 0 0 14.472-9.936c3.024-4 4.572-9.576 5.4-13.1a18.183 18.183 0 0 1 .792-2.484l-2.268-1.48Zm-.72-4.428a42.671 42.671 0 0 1 2.88 4.824l2.988-1.3c-.684-1.26-1.98-3.456-2.88-4.752Zm33.44 9.148v14.94h-17.388v-14.94Zm4.824-1.152c0-1.08 0-2.412.072-3.492-1.3.072-2.664.072-3.564.072h-19.8c-.972 0-2.34-.036-3.816-.072.072 1.008.072 2.484.072 3.492v17.6c0 1.728-.072 4.86-.108 5.04h4.968l-.036-1.98H273.6l-.036 1.984h4.968c0-.144-.072-3.6-.072-5Zm22.536.612-4.284 1.4a59.961 59.961 0 0 1 2.916 7.992l4.32-1.512c-.504-1.652-2.268-6.332-2.952-7.88Zm8.208 1.008a24.262 24.262 0 0 1-4.572 12.348 24.223 24.223 0 0 1-11.952 7.524l3.78 3.852a28.113 28.113 0 0 0 12.056-8.928 29.028 29.028 0 0 0 4.9-10.548c.216-.72.432-1.476.864-2.628Zm-16.56.9-4.32 1.548A72.715 72.715 0 0 1 291.6 21.6l4.392-1.656c-.72-2.016-2.448-6.372-3.348-8.208Zm54.864-5.148a11.544 11.544 0 0 1-3.132.432h-7.236l.108-.18c.432-.792 1.332-2.412 2.2-3.672l-5.256-1.728a17.319 17.319 0 0 1-1.62 3.78 31.7 31.7 0 0 1-11.236 11.592l4.032 2.988a41.034 41.034 0 0 0 9.072-8.712h10.116a25.591 25.591 0 0 1-5.112 9.828c-3.128 3.564-7.128 6.696-14.508 8.892l4.248 3.816c6.768-2.7 11.124-5.976 14.544-10.152a37.562 37.562 0 0 0 6.264-12.024 14.415 14.415 0 0 1 1.188-2.592Z" fill="#fff"/></svg>