<svg xmlns="http://www.w3.org/2000/svg" width="236.04" height="76.08" viewBox="0 0 236.04 76.08"><path d="M-95.31-4.59v2.7h-4.14v-2.7Zm-7.23,7.14h3.09V1.02h4.14v.93h3.21V-7.47h-10.44ZM-79.8-13.44v1.92h-2.49v-1.92Zm-2.49,6.75V-8.64h2.49v1.95Zm-5.49,0V-8.64h2.31v1.95Zm2.31-6.75v1.92h-2.31v-1.92Zm9.18-4.98v-3.06h-1.77l1.56-1.29a15.84,15.84,0,0,0-3.3-2.61l-2.1,1.56a19.8,19.8,0,0,1,2.82,2.34h-3.21v-3.93h-3.18v3.93h-5.94v1.2a30.09,30.09,0,0,0-4.92-5.1h-3.03a20.029,20.029,0,0,1-5.16,7.02,11.16,11.16,0,0,1,2.19,2.25v2.37h3.36v2.04h-4.35v2.88h11.7V-11.7h-4.11v-2.04h3.45v-2.73h-3.45v-2.55h-3.24v2.55h-2.76a28.4,28.4,0,0,0,4.44-5.7,27.761,27.761,0,0,1,3.87,4.89l2.01-2.52v1.38h5.94v1.98h-5.4V2.49h3.09V-3.84h2.31V2.34h3.18V-3.84h2.49V-.87c0,.27-.09.36-.36.36a15.537,15.537,0,0,1-1.71,0,10.05,10.05,0,0,1,.9,3.03,6.021,6.021,0,0,0,3.27-.6c.84-.54,1.02-1.35,1.02-2.73V-16.44h-5.61v-1.98ZM-52.32-2.64h-12v-7.2h12Zm5.52-17.22v-3.51H-73.14v3.51h7.83c-1.71,4.77-4.86,9.81-9.21,12.78A19.935,19.935,0,0,1-72-4.32a22.771,22.771,0,0,0,4.05-3.75V2.61h3.63V.81h12V2.49h3.84V-13.26H-64.26a52.587,52.587,0,0,0,3.09-6.6Zm12.96,8.46A3.867,3.867,0,0,0-30-7.56a3.867,3.867,0,0,0,3.84-3.84A3.867,3.867,0,0,0-30-15.24,3.867,3.867,0,0,0-33.84-11.4ZM-7.17-9.09v-1.83h5.22v1.83Zm0-6.33h5.22v1.83H-7.17Zm14.13,0v1.83H1.71v-1.83Zm0,6.33H1.71v-1.83H6.96Zm6.72,4.47H1.71V-6.24h8.85V-18.27H1.71v-1.44h11.1v-3.24H1.71v-2.43H-1.95v2.43H-12.84v3.24H-1.95v1.44h-8.64V-6.24h8.64v1.62H-13.56v3.21H-1.95V2.64H1.71V-1.41H13.68ZM33.12-2.46v-9.99h8.94v-3.6H33.12v-9.36H29.31V-2.46H23.85v-16.8H20.1v16.8H16.29V1.11H43.68V-2.46ZM52.26-4.29c-1.08,0-1.68-.93-1.68-2.37a9.067,9.067,0,0,1,2.16-5.58,32.7,32.7,0,0,0,2.76,5.7C54.42-5.19,53.31-4.29,52.26-4.29ZM60.39-16.2a35.4,35.4,0,0,1-2.64,6.36,29.767,29.767,0,0,1-2.1-4.71A11.583,11.583,0,0,1,60.39-16.2Zm4.83-4.23c.18-.75.45-2.19.69-3l-4.11-.39A16.033,16.033,0,0,1,61.59-21c-.09.45-.18.93-.3,1.44a15.488,15.488,0,0,0-6.72,1.77c-.21-.63-.39-1.26-.54-1.83-.24-.87-.48-1.86-.66-2.82l-3.9,1.2a21.856,21.856,0,0,1,1.2,3.09c.24.81.51,1.62.78,2.4a13.032,13.032,0,0,0-4.38,9.39c0,3.84,2.28,5.94,4.74,5.94,2.19,0,3.84-1.02,5.85-3.18.3.39.66.78,1.02,1.17L61.65-4.8c-.54-.54-1.08-1.14-1.62-1.77a36.167,36.167,0,0,0,4.02-9.45,6.364,6.364,0,0,1,4.8,6.54c0,3.72-2.55,7.05-9.09,7.62l2.28,3.42C68.25.63,72.75-2.97,72.75-9.27a9.79,9.79,0,0,0-7.8-10.02ZM86.16-11.4A3.867,3.867,0,0,0,90-7.56a3.867,3.867,0,0,0,3.84-3.84A3.867,3.867,0,0,0,90-15.24,3.867,3.867,0,0,0,86.16-11.4ZM-94.56,28.11A43.927,43.927,0,0,0-96.93,24l-2.37.96a35.9,35.9,0,0,1,2.34,4.17Zm-10.38,1.5c.06-.87.09-1.74.12-2.67.03-.72.09-1.98.18-2.7h-4.41a22.2,22.2,0,0,1,.21,2.76c0,.9-.03,1.77-.06,2.61h-4.29a36.551,36.551,0,0,1-3.96-.21v3.96c1.29-.12,2.94-.15,3.96-.15h3.96c-.66,4.56-2.16,7.95-4.95,10.71a17.029,17.029,0,0,1-3.93,2.91l3.48,2.82c5.37-3.81,8.22-8.49,9.33-16.44h6.75c0,3.24-.39,9.24-1.26,11.13a1.584,1.584,0,0,1-1.71,1.08,28.367,28.367,0,0,1-4.2-.42l.45,3.99c1.47.12,3.27.24,4.98.24,2.07,0,3.21-.78,3.87-2.28,1.29-3.06,1.65-11.46,1.77-14.7a11.882,11.882,0,0,1,.21-1.56l-2.58-1.29a11.727,11.727,0,0,1-2.28.21Zm9.18-6a31.606,31.606,0,0,1,2.4,4.14l2.4-1.05a46.923,46.923,0,0,0-2.43-4.08Zm8.52,15.21c1.11-.09,3.12-.15,4.83-.15H-66.3c1.26,0,2.79.12,3.51.15V34.11c-.78.06-2.13.18-3.51.18H-82.41c-1.56,0-3.75-.09-4.83-.18Zm56.88-12.81a39.909,39.909,0,0,0-2.4-4.08l-2.37.99a35.394,35.394,0,0,1,2.4,4.14Zm-3.57,1.38c-.57-1.11-1.62-3-2.37-4.11l-2.4.99a41.231,41.231,0,0,1,2.37,4.17Zm-7.41,1.74c1.05,0,2.22.03,3.24.09V25.35a23.548,23.548,0,0,1-3.24.24h-9.81a22.446,22.446,0,0,1-3.21-.24v3.87c.9-.06,2.19-.09,3.21-.09Zm-13.62,4.08a22.84,22.84,0,0,1-2.88-.18v3.93c.84-.06,2.01-.12,2.88-.12h8.25a12.892,12.892,0,0,1-1.86,6.63A12.251,12.251,0,0,1-54,47.76l3.51,2.55a14.4,14.4,0,0,0,6.03-5.76,19.032,19.032,0,0,0,1.92-7.71h7.23c.84,0,1.98.03,2.73.09v-3.9a22.687,22.687,0,0,1-2.73.18Zm27.54,13.68c1.11-.09,2.58-.18,3.75-.18H-6.45a32.589,32.589,0,0,1,3.3.18V42.3a30.457,30.457,0,0,1-3.3.21H-23.67c-1.17,0-2.58-.12-3.75-.21Zm2.52-14.91c1.02-.06,2.4-.12,3.54-.12H-8.97c1.05,0,2.46.09,3.33.12V27.63c-.84.09-2.13.18-3.33.18H-21.39c-1.02,0-2.43-.06-3.51-.18ZM7.23,25.2l-2.82,3a62.377,62.377,0,0,1,7.5,6.48l3.06-3.15A63,63,0,0,0,7.23,25.2ZM3.48,45.18,6,49.14a32.489,32.489,0,0,0,11.13-4.23,31.9,31.9,0,0,0,11.1-11.1l-2.34-4.23A28.447,28.447,0,0,1,14.97,41.25,30.92,30.92,0,0,1,3.48,45.18ZM55.74,27.54a43.925,43.925,0,0,0-2.37-4.11L51,24.39a34.789,34.789,0,0,1,2.19,3.87l-.21-.12a9.45,9.45,0,0,1-2.61.36H44.34l.09-.15c.36-.66,1.14-2.01,1.86-3.06l-4.41-1.44A13.116,13.116,0,0,1,40.53,27a25.668,25.668,0,0,1-9.36,9.63l3.36,2.52a32.936,32.936,0,0,0,7.56-7.26h8.46a21.222,21.222,0,0,1-4.26,8.16c-2.64,3-5.97,5.61-12.09,7.44l3.54,3.18a27.941,27.941,0,0,0,12.09-8.49,30.277,30.277,0,0,0,5.25-10.02,12.711,12.711,0,0,1,.99-2.13l-2.55-1.56Zm-1.2-4.5a28.552,28.552,0,0,1,2.4,4.14l2.4-1.02a42.834,42.834,0,0,0-2.43-4.08Zm32.85-.24H84.15V34.71c0,.39-.12.51-.57.51-.42.03-1.86.03-3.21-.03a11.067,11.067,0,0,1,1.05,2.82,12.615,12.615,0,0,0,4.59-.48c1.08-.45,1.38-1.2,1.38-2.73Zm-6.51.99H77.7v9.99h3.18Zm3.51,17.76a34.909,34.909,0,0,1-4.26,2.58A10.977,10.977,0,0,1,78,41.55ZM64.05,27.99a11.67,11.67,0,0,0,.75-1.2h2.85v1.2ZM85.47,41.55h3V38.73H76.77V37.17H73.59a3.913,3.913,0,0,0,1.41-.3c.78-.36.99-.9.99-2.04V31.44H70.68V30.39h5.79v-2.4H70.68v-1.2h4.98V24.51H70.68V22.59H67.65v1.92H65.94c.18-.42.33-.81.48-1.23l-2.61-.66a13.044,13.044,0,0,1-2.34,4.32c.48.24,1.26.69,1.86,1.05H61.5v2.4h6.15v1.05H62.7v5.88h2.7V33.6h2.25v4.38h3.03V33.6h2.46v1.23c0,.24-.09.33-.36.33-.21,0-.93,0-1.62-.03a9.127,9.127,0,0,1,.87,2.07h1.2v1.53H61.56v2.82h8.76a33.827,33.827,0,0,1-9.27,2.52,15.356,15.356,0,0,1,1.89,2.58,34.181,34.181,0,0,0,4.95-1.26v1.68c-1.08.12-2.1.24-2.97.33l.51,2.91c3.3-.48,7.77-1.08,12-1.68l-.12-2.79c-2.01.27-4.05.54-6,.78V44.01a22.589,22.589,0,0,0,3.54-2.13c2.25,4.77,6,7.59,12.24,8.79a12.311,12.311,0,0,1,1.95-2.85,20.274,20.274,0,0,1-6.51-2.01,40.441,40.441,0,0,0,4.95-2.76Zm24.78-10.32H99.75V27.18h10.5Zm3.63-7.47H96.3V34.62h17.58ZM100.02,40.53v5.16H95.55V40.53ZM92.16,50.61h3.39v-1.5h4.47v1.35h3.57V37.11H92.16Zm17.4-4.92V40.53h4.77v5.16Zm-3.42-8.58v13.5h3.42v-1.5h4.77v1.38h3.6V37.11Z" transform="translate(118.11 25.41)" fill="#fff"/></svg>