<svg xmlns="http://www.w3.org/2000/svg" viewBox="0 0 446.121 63.7698"><defs><style>.a{fill:#221f1f;}.b{fill:red;}.c{fill:#7dd3f6;}</style></defs><path class="a" d="M402.7518,32.45V20.1885h-4.6692v7.6a1.7467,1.7467,0,0,1-1.7065,1.7424H381.1037a1.7465,1.7465,0,0,1-1.7052-1.7424v-7.6h-4.67V32.45a1.752,1.752,0,0,0,1.7507,1.7508h9.9973v9.3408h4.6716V34.2009h9.8532a1.752,1.752,0,0,0,1.7508-1.7508"/><rect class="a" x="175.497" y="20.1885" width="4.6706" height="23.354"/><path class="a" d="M270.7818,20.1609h-5.1372l-4.674,9.37H249.1794a1.7507,1.7507,0,0,1-1.7508-1.752v-7.59h-4.67V43.5417h4.67V35.9529a1.7515,1.7515,0,0,1,1.7508-1.752H260.973l4.6716,9.3408h5.1372l-5.8392-11.676,5.8392-11.7048"/><path class="a" d="M286.1262,20.1885V43.5416h28.0227V20.1885Zm6.4212,18.6828a1.7525,1.7525,0,0,1-1.752-1.752V26.6109a1.7515,1.7515,0,0,1,1.752-1.7508h15.18a1.7515,1.7515,0,0,1,1.752,1.7508V37.1193a1.7525,1.7525,0,0,1-1.752,1.752Z"/><path class="a" d="M153.615,20.1885v7.59a1.7517,1.7517,0,0,1-1.752,1.752h-15.18a1.75,1.75,0,0,1-1.75-1.752v-7.59h-4.6728V43.5417h4.6728V35.9529a1.7512,1.7512,0,0,1,1.75-1.752h15.18a1.7525,1.7525,0,0,1,1.752,1.752v7.5888h4.67V20.1885h-4.67"/><path class="a" d="M113.049,41.7909v-10.51a1.751,1.751,0,0,0-1.75-1.7508H91.4478a1.7517,1.7517,0,0,1-1.752-1.752V26.6109A1.75,1.75,0,0,1,91.4466,24.86H113.049V20.1885H86.7762a1.753,1.753,0,0,0-1.7508,1.752V32.45a1.7523,1.7523,0,0,0,1.752,1.7508H106.63a1.7525,1.7525,0,0,1,1.7484,1.752v1.1664a1.7507,1.7507,0,0,1-1.752,1.7508l-21.6012.0012v4.67h26.274a1.75,1.75,0,0,0,1.75-1.7508"/><path class="a" d="M359.3838,41.7909v-10.51a1.7512,1.7512,0,0,0-1.7508-1.7508h-19.85a1.7508,1.7508,0,0,1-1.7509-1.752V26.6109a1.7506,1.7506,0,0,1,1.7509-1.7508h21.6012V20.1885H333.1121a1.7522,1.7522,0,0,0-1.7507,1.752V32.45a1.7515,1.7515,0,0,0,1.752,1.7508h19.8528a1.7525,1.7525,0,0,1,1.7483,1.752v1.1664a1.7506,1.7506,0,0,1-1.7519,1.7508l-21.6012.0012v4.67h26.2727a1.75,1.75,0,0,0,1.75-1.7508"/><path class="a" d="M444.3678,20.1885H419.8469a1.753,1.753,0,0,0-1.7507,1.752V43.5417h4.6715V36.5361h18.6816v7.0056h4.6717V21.9405a1.7543,1.7543,0,0,0-1.7532-1.752m-2.9185,11.6772H422.7677V26.6109a1.75,1.75,0,0,1,1.75-1.7508h15.1811a1.75,1.75,0,0,1,1.7508,1.7508Z"/><path class="a" d="M225.5454,41.7909V20.1885h-4.67V38.3529L204.5286,20.1885h-5.256a1.7523,1.7523,0,0,0-1.7508,1.752V43.5417h4.67V25.3785L218.54,43.5417h5.2548a1.7512,1.7512,0,0,0,1.7508-1.7508"/><path class="b" d="M42.0306,39.2757,25.12,21.1125l.0012-.0012a9.5655,9.5655,0,1,1,15.798-3.65,16.6484,16.6484,0,0,1,5.2668-2A14.3465,14.3465,0,1,0,21.74,24.4941l.204-.204-.204.204L38.649,42.6573a9.5655,9.5655,0,1,1-15.8,3.6528,16.6506,16.6506,0,0,1-5.2644,1.9992,14.3465,14.3465,0,1,0,24.4464-9.0336"/><path class="c" d="M21.1122,38.6481A9.5655,9.5655,0,1,1,17.4594,22.85,16.6457,16.6457,0,0,1,15.46,17.5833a14.3468,14.3468,0,1,0,9.0336,24.4476l5.562-5.178L26.8,33.3537l-5.688,5.2944"/><path class="c" d="M59.5662,21.7389a14.3484,14.3484,0,0,0-20.2908,0l.2064.2052-.2064-.204-5.562,5.1768L36.97,30.4161l5.6868-5.2956a9.5655,9.5655,0,1,1,3.6516,15.8A16.6452,16.6452,0,0,1,48.31,46.1853a14.3439,14.3439,0,0,0,11.256-24.4464"/></svg>