<svg xmlns="http://www.w3.org/2000/svg" viewBox="0 0 188 35"><defs><style>.a{fill:#221f1f;}.b{fill:red;}.c{fill:#7dd3f6;}</style></defs><path class="a" d="M116.943,13.81v14.119h-2.3752V18.0342a18.1616,18.1616,0,0,1-1.5612,2.2587l-.8611-2.7094a25.3025,25.3025,0,0,0,4.1864-10.0758l2.2417.4063A27.4792,27.4792,0,0,1,116.943,13.81m1.5848-.3828V11.3934H133.69v2.0333Zm3.2808,13.5978v.904h-2.3752V21.1524h13.1924v6.7761h-2.4445v-.904ZM119.66,16.6339V14.7125H132.4v1.9214Zm0,3.2071V17.9447H132.4V19.841Zm.2944-9.7128V8.1625H132.491v1.9657Zm10.2271,14.976V23.0719h-8.3732v2.0323Z"/><path class="a" d="M152.1771,22.4627a29.625,29.625,0,0,0,8.1241,3.0935l-.7237,2.1463a27.7645,27.7645,0,0,1-9.2561-3.7035,27.7521,27.7521,0,0,1-9.256,3.7035l-.7237-2.1463a29.6263,29.6263,0,0,0,8.1241-3.0935,16.6727,16.6727,0,0,1-3.3711-4.9027l2.1043-1.0842a14.9357,14.9357,0,0,0,3.1224,4.5618,14.9131,14.9131,0,0,0,3.1225-4.5618l2.15.9718a16.6069,16.6069,0,0,1-3.4169,5.0151m6.3823-4.0666a55.8911,55.8911,0,0,0-6.6532-5.3312l.9488-1.22h-5.4531l1.2,1.062a20.4657,20.4657,0,0,1-6.88,5.5115l-1.0862-1.8746A21.7606,21.7606,0,0,0,146.7,11.8448h-6.11V9.743h8.4865v-2.71h2.49v2.71h8.4853v2.1018H154.055a50.2967,50.2967,0,0,1,5.9753,4.88Z"/><path class="a" d="M172.7242,10.9865H175.78v2.1463a19.3074,19.3074,0,0,1-2.014,3.7271q2.3994,2.3283,3.6879,3.7492l-1.5823,1.5362q-1.427-1.6263-3.1917-3.3429v9.1261h-2.3988V20.451a15.7783,15.7783,0,0,1-3.0321,2.1019l-.5889-2.5082a14.9851,14.9851,0,0,0,6.5171-6.9119h-5.8837V10.9865h3.0556V7.5991h2.3753v3.3874m10.9089,14.0522H188v2.1661H175.5535V25.0387h5.6573V14.2615H176.459V12.1609h4.7518V7.7782h2.4223v4.3827h4.0279v2.1006h-4.0279Z"/><path class="a" d="M59.769,20.8956v1.2633h-3.12a9.6722,9.6722,0,0,0,3.3129,3.7616l-.59,1.2609a10.9171,10.9171,0,0,1-3.1349-3.4035v4.1456H54.7921V23.82a12.7336,12.7336,0,0,1-3.6854,3.3615l-.5777-1.2745a10.9638,10.9638,0,0,0,3.96-3.748H51.6981l.3724.8225-1.1011.7558q-.0538-.1373-.3847-.9608t-.4961-1.2226v6.37H48.7142V22.3923a13.342,13.342,0,0,1-1.1419,2.7045l-.8239-1.36A15.9121,15.9121,0,0,0,48.4667,19.07H47.0651V17.8354h1.6491V15.5706h1.3744v2.2648h1.513v.81a14.032,14.032,0,0,0,.9228-2.9514l1.3039.2062q-.0945.5482-.2746,1.2485h1.2384V15.5706H56.237v1.5782h3.1621v1.2349H56.237v2.5119h3.532m-7.63-.3841-1.1827-.6175q.2616-.4537.44-.8237H50.2544q.2894.591.866,1.8253h3.6717V18.3837H53.17A12.2681,12.2681,0,0,1,52.1385,20.5115Z"/><path class="a" d="M71.2233,16.2572,71.94,15.226a22.4008,22.4008,0,0,1,2.35,1.456l-.5641.7817h.9352v1.2374h-3.63q.1113,1.4949.3365,2.7848a19.0518,19.0518,0,0,0,.4676,2.0932,11.7271,11.7271,0,0,0,.501,1.3868,4.3325,4.3325,0,0,0,.4478.8237c.1225.16.2215.2408.2945.2408q.4268,0,.6618-2.334l1.3324.4656a7.0591,7.0591,0,0,1-.64,2.7465q-.4881.878-1.1468.8779a1.5879,1.5879,0,0,1-.8536-.2679,3.3083,3.3083,0,0,1-.8858-.9411,7.8913,7.8913,0,0,1-.8387-1.6733,15.5043,15.5043,0,0,1-.6743-2.6081,32.3509,32.3509,0,0,1-.4329-3.5949H62.4238V17.4637H69.547q-.0426-.9744-.042-2.03h1.4029q0,.7687.0544,2.03h2.2552q-.95-.63-1.9942-1.2065M69.9862,26.044a44.0483,44.0483,0,0,1-7.0268,1.4127l-.2053-1.25q1.6905-.2314,2.6548-.3829V21.4994H63.1116V20.3053H69.23v1.1941H66.8922V25.55q1.6776-.33,2.86-.6731Z"/><path class="a" d="M87.5865,19.5372v1.0422H79.7482V19.5372q-1.06.6594-1.9509,1.1385l-.62-1.2213a28.7946,28.7946,0,0,0,5.5831-3.9122h1.8136a28.7612,28.7612,0,0,0,5.5843,3.9122l-.62,1.2213q-.8927-.48-1.9522-1.1385M87.4356,23.49q1.0875,1.8543,2.2008,3.98l-1.2791.5632c-.0644-.12-.172-.3224-.3242-.6114s-.2684-.51-.35-.6655a91.2591,91.2591,0,0,1-9.4465.8236l-.0681-1.2349q1.3045-.0557,1.9373-.0964.8406-1.6039,1.43-3.0613H77.8245v-1.235H89.5127v1.235H83.0909q-.5772,1.4689-1.3348,2.9527,2.5867-.18,5.3084-.5224c-.2672-.4853-.5592-1.0064-.8808-1.5646Zm-.0965-4.1036a26.1432,26.1432,0,0,1-3.6705-2.8823,26.2261,26.2261,0,0,1-3.673,2.8823Z"/><path class="a" d="M95.9061,17.6292h1.8556v1.3041a11.72,11.72,0,0,1-1.2235,2.2636q1.4568,1.4153,2.2417,2.28l-.9637.9336q-.8649-.9893-1.9373-2.0315v5.5448H94.42V23.38a9.4857,9.4857,0,0,1-1.842,1.277l-.3576-1.524a9.1145,9.1145,0,0,0,3.9613-4.2H92.6055V17.6292h1.8569V15.5706h1.4437v2.0586m6.6284,8.537h2.6536v1.3177H97.6244V26.1662h3.4379V19.62H98.1749V18.343h2.8874V15.68h1.4722V18.343H104.98V19.62h-2.4457Z"/><path class="b" d="M23.1085,21.555l-9.2968-9.9671v-.0012a5.2553,5.2553,0,1,1,8.6857-2.0043,9.1554,9.1554,0,0,1,2.8961-1.0991,7.8837,7.8837,0,1,0-13.4412,4.96l.1126-.1124-.1126.1124,9.2981,9.97a5.2549,5.2549,0,1,1-8.6882,2.0042,9.1954,9.1954,0,0,1-2.8948,1.0967A7.884,7.884,0,1,0,23.1085,21.555"/><path class="c" d="M11.6059,21.2117A5.254,5.254,0,1,1,9.5993,12.54,9.15,9.15,0,0,1,8.5,9.65a7.8781,7.8781,0,1,0,4.967,13.4175l3.0569-2.8428-1.7888-1.9191-3.1287,2.9058"/><path class="c" d="M32.7505,11.9312a7.897,7.897,0,0,0-11.1562,0l.1126.1124-.1126-.1124-3.0581,2.8416,1.79,1.92,3.1274-2.9057a5.2545,5.2545,0,1,1,2.0078,8.67,9.1257,9.1257,0,0,1,1.1,2.8909,7.8738,7.8738,0,0,0,6.1892-13.4175"/></svg>