<svg xmlns="http://www.w3.org/2000/svg" width="26.814" height="26.814"><defs><clipPath id="a"><path fill="#fff" d="M0 0h26.815v26.815H0z"/></clipPath></defs><g clip-path="url(#a)" fill="#fff"><path d="m26.13 26.097-.033.033a2.336 2.336 0 0 1-3.3 0l-6.466-7.036 2.767-2.767 7.036 6.466a2.336 2.336 0 0 1 0 3.3M19.381 9.691A9.691 9.691 0 0 0 2.838 2.838a9.693 9.693 0 0 0 12.183 14.949l.612.612 2.744-2.744-.608-.607a9.624 9.624 0 0 0 1.612-5.357m-4.088 5.6a7.923 7.923 0 1 1 0-11.205 7.932 7.932 0 0 1 0 11.205"/></g></svg>