<svg xmlns="http://www.w3.org/2000/svg" width="68" height="68"><g transform="translate(-552 -2413)"><circle cx="34" cy="34" r="34" transform="translate(552 2413)" fill="#fff"/><path d="M571.979 2448h1.288l.126-8.232L575.3 2448h.9l1.918-8.232.119 8.232h1.274l-.211-11.34h-1.54l-2.016 9.2-2-9.2h-1.554Zm12.166.126c2.282 0 3.094-1.442 3.094-3.668v-4.312c0-2.226-.812-3.584-3.094-3.584s-3.108 1.344-3.108 3.584v4.3c0 2.254.798 3.68 3.108 3.68Zm0-1.246c-1.274 0-1.512-.826-1.512-2.086v-4.97c0-1.26.238-2.03 1.512-2.03s1.5.77 1.5 2.03v4.97c-.002 1.26-.245 2.086-1.5 2.086Zm4.648 1.12h1.582v-5.32h1.232l1.484 5.32h1.526l-1.61-5.684c1.008-.336 1.4-1.316 1.4-2.646 0-2.156-1.064-3.01-3.332-3.01h-2.282Zm1.582-6.454v-3.752h.7c1.442 0 1.806.546 1.806 1.876 0 1.456-.574 1.876-1.9 1.876Zm5.684 6.454h4.424v-1.134h-2.842v-4.158h2.282v-1.12h-2.282v-3.752h2.814v-1.176h-4.4Zm7.371 16H571.5v-2h26.07l-5.015-3.875 1.223-1.583Z" fill="#052f4b"/></g></svg>