<svg xmlns="http://www.w3.org/2000/svg" width="50" height="50"><g transform="translate(-552 -2413)"><circle cx="25" cy="25" r="25" transform="translate(552 2413)" fill="#215678"/><path d="M562.982 2441h1.1l.108-7.056 1.636 7.056h.768l1.644-7.056.108 7.056h1.092l-.18-9.72h-1.32l-1.728 7.884-1.716-7.884h-1.332Zm10.428.108c1.956 0 2.652-1.236 2.652-3.144v-3.7c0-1.904-.696-3.064-2.652-3.064s-2.664 1.148-2.664 3.068v3.684c0 1.932.684 3.156 2.664 3.156Zm0-1.068c-1.092 0-1.3-.708-1.3-1.788v-4.26c0-1.08.2-1.74 1.3-1.74s1.284.66 1.284 1.74v4.26c0 1.08-.204 1.788-1.284 1.788Zm3.984.96h1.356v-4.56h1.056l1.272 4.56h1.308l-1.38-4.872c.864-.288 1.2-1.128 1.2-2.268 0-1.848-.912-2.58-2.856-2.58h-1.956Zm1.356-5.532v-3.216h.6c1.236 0 1.55.468 1.55 1.608 0 1.248-.492 1.608-1.632 1.608Zm4.872 5.532h3.792v-.972h-2.436v-3.564h1.956v-.964h-1.956v-3.212h2.412v-1.008h-3.768Zm10.166 7.667H562v-1h28.859l-4.233-3.271.611-.792Z" fill="#fff"/></g></svg>