<svg xmlns="http://www.w3.org/2000/svg" width="23.391" height="29.333"><defs><clipPath id="a"><path fill="#fff" d="M0 0h23.391v29.333H0z"/></clipPath></defs><g clip-path="url(#a)" fill="#fff"><path d="M23.384 25.209V4.915c0-.278.055-.63-.133-.858l-.012-.015-.01-.01-1.519-1.519L19.564.367c-.169-.165-.315-.357-.577-.365H1.733A1.736 1.736 0 0 0 .668.336a1.691 1.691 0 0 0-.667 1.348v25.901a1.847 1.847 0 0 0 .13.725 1.685 1.685 0 0 0 1.539 1.022h19.894a2.633 2.633 0 0 0 .444-.026 1.681 1.681 0 0 0 1.376-1.6c.006-.232 0-.465 0-.7ZM19.49 2.352v-.653l.07.07.613.613.738.738.642.642.134.134h-1.48a.722.722 0 0 1-.451-.136.681.681 0 0 1-.267-.545V2.35m-18.4-1.027c.193-.321.512-.328.832-.328h16.58c0 .75-.012 1.5 0 2.249a1.682 1.682 0 0 0 1.35 1.616 2.84 2.84 0 0 0 .518.029h2.023v15.613H.994V1.883a1.014 1.014 0 0 1 .1-.56m21.3 26.345a.683.683 0 0 1-.683.672H1.667a.682.682 0 0 1-.673-.676v-6.177h21.398v5.24c0 .3-.007.6 0 .895v.038"/><path d="M7.49 17.015c.868 0 2.179-1.16 3.137-3.113a18.571 18.571 0 0 1 3.2-.864 5.356 5.356 0 0 0 2.063 1.176c1.158 0 1.4-.669 1.4-1.231 0-1.1-1.261-1.1-1.868-1.1a11.049 11.049 0 0 0-1.355.166 13.533 13.533 0 0 1-1.117-.964c-.356-.356-.672-.7-.948-1.029a10.454 10.454 0 0 0 .618-2.376c0-1.55-.56-1.868-1.4-1.868-.639 0-1.4.332-1.4 1.912a4.476 4.476 0 0 0 1.138 2.526c-.185.565-.4 1.217-.647 1.951-.118.352-.245.679-.38.981-.11.049-.217.1-.32.15-.371.186-.724.353-1.05.507-1.491.706-2.476 1.173-2.476 2.095 0 .669.727 1.084 1.4 1.084m7.937-4.2c.69 0 .885.067.934.17 0 .21 0 .3-.433.3a3.447 3.447 0 0 1-.784-.448c.132-.015.229-.022.284-.022m-3.131-1.071c.088.088.3.285.594.531-.575.125-1.188.281-1.773.466q.044-.122.085-.246l.468-1.407q.291.32.627.656m-1.538-4.021c0-.979.3-.979.467-.979.33 0 .467 0 .467.934a7.49 7.49 0 0 1-.372 1.458 2.87 2.87 0 0 1-.562-1.413m-1.793 6.958.185-.087c-.7 1.017-1.395 1.488-1.66 1.488a.738.738 0 0 1-.467-.15c0-.331.987-.8 1.942-1.251m-.93 7.936H5.853v4.644h.8v-1.74h1.378a1.4 1.4 0 0 0 1.033-.368 1.438 1.438 0 0 0 .367-1.059 1.473 1.473 0 0 0-.393-1.084 1.371 1.371 0 0 0-1.007-.394m.369 2.029a.67.67 0 0 1-.5.178H6.652v-1.51H7.9a.7.7 0 0 1 .525.2.8.8 0 0 1 .178.577.738.738 0 0 1-.2.551m3.237-2.024H9.98v4.644h1.66a1.863 1.863 0 0 0 1.37-.523 2.389 2.389 0 0 0 .627-1.76 2.436 2.436 0 0 0-.6-1.786 1.91 1.91 0 0 0-1.4-.575m.707 3.666a.984.984 0 0 1-.733.282h-.833v-3.25h.833a1.038 1.038 0 0 1 .759.333 1.818 1.818 0 0 1 .438 1.331 1.772 1.772 0 0 1-.464 1.3m2.026.982h.8v-2h1.87v-.7h-1.87v-1.25h2.389v-.7h-3.19Z"/></g></svg>