<svg xmlns="http://www.w3.org/2000/svg" width="234.12" height="77.844"><path d="M54.624 7.848h15.588v1.548H54.624Zm0-4h15.588V5.36H54.624Zm23.688 9.648H64.668v-1.44h9.864V1.224H50.52V12.06h9.792v1.44H46.56v3.348h31.752Zm-24.048 12.82a27.061 27.061 0 0 1-8.568 4 30.894 30.894 0 0 1 3.132 2.988 35.9 35.9 0 0 0 9.36-5.4Zm1.224-5.328H69.6v2.3H55.488Zm18.432 5.256V18H51.384v8.244h9.108v3.672c0 .4-.18.5-.684.54-.468.036-2.412.036-3.888-.036a13.312 13.312 0 0 1 1.224 3.276 20.108 20.108 0 0 0 5.8-.468c1.4-.468 1.8-1.3 1.8-3.132v-3.852Zm-7.56 2.376a51.065 51.065 0 0 1 8.928 4.644l3.1-2.52a57.28 57.28 0 0 0-9.18-4.392Zm36.864-11.916h6.62v2.412h-6.62Zm0-5.76h6.62v2.412h-6.62Zm0-5.724h6.62v2.376h-6.62ZM88.5 26.536h2.34v1.872H88.5Zm2.34-7.056H88.5v-1.764h2.34Zm0 4.356H88.5v-1.7h2.34ZM85.332 8.788a17.03 17.03 0 0 0 1.584-2.376h1.8c-.288.792-.612 1.62-.936 2.376Zm25.524 20.84c-.468 0-.5-.108-.5-1.044V22.86h3.42V1.476H99.48V22.86h1.98c-.36 2.556-1.116 4.752-3.132 6.376v-.828h-3.884v-1.872h3.384v-2.7h-3.384v-1.7h3.384v-2.66h-3.384v-1.764h3.888v-2.808H94.84c.4-.612.828-1.332 1.224-2.052l-3.852-.648a21.528 21.528 0 0 1-.9 2.7h-2.52c.54-.9 1.044-1.8 1.512-2.772h8.28V8.784h-6.768q.486-1.188.864-2.376h5.58V3.06h-9.684a21.219 21.219 0 0 0 .756-2.124l-3.788-.9a17.788 17.788 0 0 1-3.78 6.948 18.938 18.938 0 0 1 2.592 1.8h-2.16v3.352h3.852a22.158 22.158 0 0 1-4.68 5.652 25.2 25.2 0 0 1 2.416 3.348c.324-.288.648-.612.972-.936v12.776H88.5V31.5h8.1a10.35 10.35 0 0 1 1.476 2.236c4.968-2.3 6.444-6.12 6.984-10.872h1.584v5.8c0 3.348.612 4.464 3.528 4.464h2.088c2.34 0 3.24-1.26 3.564-6.192a10.531 10.531 0 0 1-3.28-1.52c-.108 3.708-.216 4.212-.72 4.212Zm34.956-7.92a14.877 14.877 0 0 1-2.088 3.276 43.263 43.263 0 0 1-.828-3.276Zm-16.56-3.312c-.864-1.512-2.592-4.284-3.348-5.4v-1.548h3.276V7.636a23.233 23.233 0 0 1 2.664 2.66 53.241 53.241 0 0 1-2.16 3.168l-1.116.072.576 3.168c2.016-.216 4.248-.5 6.588-.756.072.4.108.756.144 1.08l2.448-.972c.108.792.216 1.584.288 2.34Zm5.148-6.948a16.979 16.979 0 0 1 .576 1.62l-1.944.144c1.548-2.016 3.24-4.536 4.68-6.768.072 2.88.252 5.652.5 8.28a21.459 21.459 0 0 0-1.4-4.032Zm7.308 1.512a90.263 90.263 0 0 1-.288-5.58 24.34 24.34 0 0 1 2.88 2.916 45.35 45.35 0 0 1-1.8 2.592Zm.612 5.436c-.18-1.08-.324-2.2-.432-3.384l.216 1.008c1.008-.108 2.052-.252 3.168-.36l-1.62 1.4a20.1 20.1 0 0 1 1.728 1.332Zm3.708 3.312h5.04v-3.312h-2.736l.684-.612a14.07 14.07 0 0 0-2.736-2.268l2.664-.36a13.976 13.976 0 0 1 .288 1.4l2.556-1.08a22.062 22.062 0 0 0-1.872-5.328l-2.412.864c.216.468.432.972.612 1.476l-2.16.148c1.584-2.124 3.312-4.752 4.752-7.02l-2.916-1.44a53.7 53.7 0 0 1-1.836 3.456l-.936-.936c.9-1.4 1.944-3.348 2.952-5.148l-3.2-1.224a35.639 35.639 0 0 1-1.764 4.644l-.576-.432-1.048 1.512a159.397 159.397 0 0 1 0-5.868h-3.78c0 1.764.036 3.492.072 5.184l-2.412-1.188a40.572 40.572 0 0 1-1.836 3.492c-.252-.288-.576-.612-.9-.936.864-1.44 1.908-3.42 2.916-5.148L132.276.36a40.038 40.038 0 0 1-1.764 4.644l-.612-.468-1.584 2.34c.252.216.54.432.792.684h-3.204V.144h-3.816V7.56h-3.852v3.888h3.564c-.828 4.288-2.52 9.288-4.392 12.132a24.4 24.4 0 0 1 1.8 3.636 30.8 30.8 0 0 0 2.88-6.768v13.288h3.816v-15.84c.72 1.584 1.44 3.24 1.8 4.32l1.44-2.124v1.62h2.232c-.36 3.636-1.26 7.056-4.428 9.18a9.917 9.917 0 0 1 2.412 2.804 12.306 12.306 0 0 0 4.784-6.912 22.749 22.749 0 0 1 2.776 2.452l2.3-2.844a28.693 28.693 0 0 0-4.276-3.316c.072-.432.144-.9.18-1.368h4.068a33.129 33.129 0 0 0 1.652 6.048 22.331 22.331 0 0 1-6.012 3.24 15.815 15.815 0 0 1 2.232 2.74 25.99 25.99 0 0 0 5.436-2.848 5.938 5.938 0 0 0 4.932 2.88c2.808 0 3.816-1.08 4.464-5.148a10.253 10.253 0 0 1-2.772-1.944c-.18 2.844-.5 3.528-1.4 3.528a3.026 3.026 0 0 1-2.412-1.656 20.781 20.781 0 0 0 4.068-5.58Zm36.432-5.4c3.312 0 4.428-1.332 4.9-5.94a11.834 11.834 0 0 1-3.78-1.584c-.144 3.132-.4 3.672-1.548 3.672h-3.928c-1.368 0-1.584-.144-1.584-1.44V8.892a66.055 66.055 0 0 0 9.216-3.384L183 2.408a56.088 56.088 0 0 1-6.48 2.988V.248h-4.248v10.836c0 3.96 1.008 5.22 5.22 5.22Zm-22.644 7.452v-2.124h5.4v2.124Zm5.4-7.164v1.872h-5.4v-1.872Zm4.212-3.528h-13.572v20.668h3.96v-6.8h5.4v2.4c0 .432-.144.54-.576.54a29.909 29.909 0 0 1-3.168 0 15.841 15.841 0 0 1 1.372 3.784c2.16 0 3.816-.036 5.04-.72 1.188-.612 1.548-1.656 1.548-3.528Zm-5.4-9.18a57.573 57.573 0 0 1 1.692 2.952l-4.788.216c.9-1.908 1.872-4.068 2.7-6.156l-4.464-.9a56.871 56.871 0 0 1-2.624 7.236c-1.008.036-1.944.072-2.808.072l.36 4.068c3.672-.216 8.568-.5 13.32-.828a13.3 13.3 0 0 1 .648 1.908l3.924-1.584a35.209 35.209 0 0 0-4.356-8.352Zm14.116 25.884c-1.4 0-1.656-.18-1.656-1.44v-2.88a54.578 54.578 0 0 0 9.608-3.816l-2.844-3.132a40.775 40.775 0 0 1-6.768 3.384v-4.86h-4.212v11.308c0 3.96 1.044 5.184 5.256 5.184h5.116c3.456 0 4.536-1.4 5-6.48a13.328 13.328 0 0 1-3.744-1.584c-.18 3.636-.432 4.32-1.656 4.32ZM17.496 76.164c-.048-.72-.1-1.992-.1-2.832V60.9c0-.7.048-1.656.072-2.208-.408.024-1.416.048-2.112.048H3.284c-.84 0-2.088-.048-2.976-.144v3.34c.672-.048 1.968-.1 2.976-.1H14.06v9.936H2.996c-1.08 0-2.16-.072-3-.144v3.432a40.71 40.71 0 0 1 3.1-.144h10.948c0 .456 0 .864-.024 1.248Zm8.832-18.768-2.256 2.4a49.9 49.9 0 0 1 6 5.184l2.448-2.52a50.4 50.4 0 0 0-6.192-5.064Zm-3 15.984 2.016 3.168a25.991 25.991 0 0 0 8.9-3.384 25.52 25.52 0 0 0 8.88-8.88L41.252 60.9a22.757 22.757 0 0 1-8.732 9.336 24.736 24.736 0 0 1-9.192 3.144Zm40.344-14.184a7.7 7.7 0 0 1-2.088.288H56.76l.072-.12c.288-.528.888-1.608 1.464-2.448l-3.5-1.152a11.547 11.547 0 0 1-1.08 2.52 21.132 21.132 0 0 1-7.492 7.728l2.688 1.992a27.356 27.356 0 0 0 6.048-5.808h6.744a17.061 17.061 0 0 1-3.408 6.552 19.127 19.127 0 0 1-9.672 5.928l2.832 2.544a22.611 22.611 0 0 0 9.7-6.768 25.041 25.041 0 0 0 4.172-8.016 9.609 9.609 0 0 1 .792-1.728Zm9.552-1.968a16.323 16.323 0 0 1 .1 1.824v8.084c0 .72-.1 1.656-.12 2.112h3.552a29.32 29.32 0 0 1-.072-2.088v-8.112c0-.768.024-1.3.072-1.824Zm11.04-.216a16.931 16.931 0 0 1 .144 2.4v4.56c0 3.744-.312 5.544-1.944 7.344a11.232 11.232 0 0 1-5.88 3.02l2.52 2.64a13.942 13.942 0 0 0 5.832-3.48c1.776-1.968 2.784-4.176 2.784-9.336v-4.752c0-.96.048-1.728.1-2.4Zm10.488 11.28c.888-.072 2.5-.12 3.864-.12h12.888c1.008 0 2.232.1 2.808.12v-3.768c-.624.048-1.7.144-2.808.144H98.616c-1.248 0-3-.072-3.864-.144Zm42.648-1.488a78.385 78.385 0 0 0-10.032-3.72v-3.528a26.1 26.1 0 0 1 .216-2.9h-3.74a16.739 16.739 0 0 1 .24 2.9v13.78a25.681 25.681 0 0 1-.24 3.332h3.74c-.1-.96-.216-2.64-.216-3.336v-6.796a69.321 69.321 0 0 1 8.664 3.58Zm23.208-8.232a31.654 31.654 0 0 0-1.848-3.168l-1.968.816c.456.7.936 1.536 1.344 2.328a10.069 10.069 0 0 1-1.128.048h-11.112a26.722 26.722 0 0 1-2.856-.192v3.384c.624-.048 1.752-.1 2.856-.1h11.184a15.412 15.412 0 0 1-2.836 6.772c-1.94 2.448-4.628 4.512-9.4 5.64l2.612 2.856a18.993 18.993 0 0 0 9.648-6.62c2.016-2.664 3.048-6.384 3.6-8.736a12.121 12.121 0 0 1 .528-1.656l-1.512-.984Zm-.48-2.952a28.448 28.448 0 0 1 1.916 3.216l1.992-.864c-.456-.84-1.32-2.3-1.92-3.168Zm22.3 6.1v9.96h-11.596v-9.96Zm3.216-.768c0-.72 0-1.608.048-2.328-.864.048-1.776.048-2.376.048h-13.2c-.648 0-1.56-.024-2.544-.048.048.672.048 1.656.048 2.328v11.732c0 1.152-.048 3.24-.072 3.36h3.312l-.024-1.32H182.4l-.024 1.32h3.312c0-.1-.048-2.4-.048-3.336Zm15.024.408-2.856.936a39.975 39.975 0 0 1 1.944 5.328l2.88-1.008c-.34-1.108-1.516-4.228-1.972-5.26Zm5.472.672a16.175 16.175 0 0 1-3.048 8.232 16.149 16.149 0 0 1-7.972 5.012l2.524 2.568a18.742 18.742 0 0 0 8.04-5.952 19.352 19.352 0 0 0 3.26-7.032c.144-.48.288-.984.576-1.752Zm-11.04.6-2.88 1.032a48.477 48.477 0 0 1 2.184 5.544l2.928-1.1c-.488-1.352-1.636-4.256-2.236-5.48Zm36.576-3.432a7.7 7.7 0 0 1-2.088.288h-4.824l.072-.12c.288-.528.888-1.608 1.464-2.448l-3.5-1.152a11.547 11.547 0 0 1-1.08 2.52 21.132 21.132 0 0 1-7.496 7.724l2.688 1.992a27.356 27.356 0 0 0 6.048-5.808h6.744a17.061 17.061 0 0 1-3.408 6.552 19.127 19.127 0 0 1-9.672 5.928l2.832 2.544a22.611 22.611 0 0 0 9.7-6.768 25.041 25.041 0 0 0 4.176-8.016 9.609 9.609 0 0 1 .792-1.728Z" fill="#fff"/></svg>