<svg xmlns="http://www.w3.org/2000/svg" width="176.189" height="28.8"><path d="M15.99 20.13v-1.86h-3.63v1.86H8.04a18.361 18.361 0 0 0 2.13-2.49h8.46a18.613 18.613 0 0 0 2.16 2.49Zm-6.42-6.75h9.39v1.35H9.57Zm9.39-7.59v1.32H9.57V5.79ZM9.57 9.57h9.39v1.32H9.57Zm18.6 8.07v-2.91h-5.55V5.79h4.11V2.91h-4.11V.66h-3.66v2.25H9.57V.66H6v2.25H1.86v2.88H6v8.94H.27v2.91h5.79A18.122 18.122 0 0 1 0 21.42a13.287 13.287 0 0 1 2.28 2.73 20.785 20.785 0 0 0 4.77-3.06v1.86h5.31v1.95H2.94v2.94h22.83V24.9h-9.78v-1.95h5.46v-2.22a20.2 20.2 0 0 0 4.71 3.15 12.281 12.281 0 0 1 2.37-2.76 17.625 17.625 0 0 1-5.85-3.48Zm23.73-4.26h2.91v-3.36a10.524 10.524 0 0 0 1.98 2.76 12.792 12.792 0 0 1 1.83-1.98 11.979 11.979 0 0 1-3.27-4.56h2.76V3.57h-3.3V.66H51.9v2.91h-2.55v2.67h2.13A11.742 11.742 0 0 1 48 10.68a9.882 9.882 0 0 1 1.38 2.25 12.585 12.585 0 0 0 2.52-2.88Zm-8.07 0h2.88v-4.2a17.782 17.782 0 0 1 1.08 1.44l1.59-1.98a27.325 27.325 0 0 0-2.67-2.07v-.33h2.16V3.57h-2.16V.66h-2.88v2.91h-2.76v2.67h2.1a13.1 13.1 0 0 1-3.24 4.44 9.926 9.926 0 0 1 1.47 2.4 16.54 16.54 0 0 0 2.43-3.09Zm-6.51 8.4h-2.13v-7.44h2.13Zm2.97 3.06V11.28h-4.77q.675-2.925 1.08-6.03h4.32V2.01H30.6v3.24h2.73c-.6 4.8-1.62 9.3-3.57 12.3a18.766 18.766 0 0 1 1.86 3.36 11.868 11.868 0 0 0 .66-1.02v7.17h2.91v-2.22Zm10.77-2.64h4.95v-2.82h-4.95v-2.52h3.27c-.18.57-.36 1.08-.51 1.5l2.67.9a43.565 43.565 0 0 0 1.77-4.71l-2.28-.72-.51.15H40.95v2.88h6.81v7.26a6.325 6.325 0 0 1-2.22-3.21c.18-1.05.27-2.13.36-3.24h-3.15c-.21 3.42-.75 6.72-3.72 8.67a7.465 7.465 0 0 1 2.01 2.34 9.621 9.621 0 0 0 3.42-4.14c1.83 2.97 4.5 3.69 8.1 3.69h5.07a10.771 10.771 0 0 1 .96-2.97c-1.2 0-4.92.03-5.82.03a15.5 15.5 0 0 1-1.71-.09ZM84.3 4.71A39.566 39.566 0 0 0 81.99.75l-2.46 1.02c.57.87 1.17 1.92 1.68 2.91a12.586 12.586 0 0 1-1.41.06H65.91a33.4 33.4 0 0 1-3.57-.24v4.23c.78-.06 2.19-.12 3.57-.12h13.98a19.264 19.264 0 0 1-3.54 8.46c-2.43 3.06-5.79 5.64-11.76 7.05l3.27 3.57a23.742 23.742 0 0 0 12.06-8.28c2.52-3.33 3.81-7.98 4.5-10.92a15.152 15.152 0 0 1 .66-2.07l-1.89-1.23Zm-.6-3.69a35.561 35.561 0 0 1 2.4 4.02l2.49-1.08c-.57-1.05-1.65-2.88-2.4-3.96Zm27.87 7.62v12.45H97.08V8.64Zm4.02-.96c0-.9 0-2.01.06-2.91-1.08.06-2.22.06-2.97.06h-16.5c-.81 0-1.95-.03-3.18-.06.06.84.06 2.07.06 2.91v14.67c0 1.44-.06 4.05-.09 4.2h4.14l-.03-1.65h14.46l-.03 1.65h4.14c0-.12-.06-3-.06-4.17Zm18.78.51-3.57 1.17a49.969 49.969 0 0 1 2.43 6.66l3.6-1.26c-.42-1.38-1.89-5.28-2.46-6.57Zm6.84.84a20.219 20.219 0 0 1-3.81 10.29 20.186 20.186 0 0 1-9.96 6.27l3.15 3.21a23.428 23.428 0 0 0 10.05-7.44 24.19 24.19 0 0 0 4.08-8.79c.18-.6.36-1.23.72-2.19Zm-13.8.75-3.6 1.29a60.6 60.6 0 0 1 2.73 6.93l3.66-1.38c-.6-1.68-2.04-5.31-2.79-6.84Zm45.72-4.29a9.62 9.62 0 0 1-2.61.36h-6.03l.09-.15c.36-.66 1.11-2.01 1.83-3.06l-4.38-1.44a14.433 14.433 0 0 1-1.35 3.15 26.415 26.415 0 0 1-9.36 9.66l3.36 2.49a34.2 34.2 0 0 0 7.56-7.26h8.43a21.326 21.326 0 0 1-4.26 8.19c-2.61 2.97-5.94 5.58-12.09 7.41l3.54 3.18c5.64-2.25 9.27-4.98 12.12-8.46a31.3 31.3 0 0 0 5.22-10.02 12.012 12.012 0 0 1 .99-2.16Z" fill="#fff"/></svg>