<svg xmlns="http://www.w3.org/2000/svg" width="195.101" height="59.37"><path d="M48.94 16.47c-.48-.84-2.7-4.29-3.54-5.46V9.6h3V6.3h-3V.12h-3.24V6.3h-3.6v3.3h3.33a29.994 29.994 0 0 1-4.02 10.05 17.117 17.117 0 0 1 1.56 3.15 25.308 25.308 0 0 0 2.73-5.91v11.22h3.24V15.33c.66 1.35 1.32 2.76 1.71 3.69Zm9.81 4.35v-1.44h2.67v1.44Zm-5.76-1.44h2.55v1.44h-2.55Zm2.55-3.6v1.29h-2.55v-1.29Zm5.88 0v1.29h-2.67v-1.29ZM55.51 8.4h3.3v1.26h-3.3Zm0-3.63h3.3V6h-3.3Zm10.83 16.05h-1.62v-7.5h-5.97v-1.14h7.29V9.66h-3.9V8.4h2.88V6h-2.88V4.77h3.36V2.31h-3.36V.12h-3.33v2.19h-3.3V.12h-3.3v2.19h-3.09v2.46h3.09V6h-2.46v2.4h2.46v1.26h-3.72v2.52h7.05v1.14h-5.76v7.5h-1.83v2.61h1.83v4.47h3.21v-4.47h8.43v1.26c0 .36-.12.45-.51.45-.36 0-1.59.03-2.7-.03a12.427 12.427 0 0 1 .93 2.82 11.212 11.212 0 0 0 4.29-.48c.99-.48 1.29-1.23 1.29-2.73v-1.29h1.62ZM84.43 6.51v2.55H78.7a17.869 17.869 0 0 0 1.98-2.55Zm-7.98 2.55v2.97h19.29V9.06h-7.77V6.51h6.54V3.48h-6.54V.15h-3.54v3.33h-2.1a21.846 21.846 0 0 0 .93-2.31L79.93.39a16.29 16.29 0 0 1-4.26 6.99 22.227 22.227 0 0 1 2.97 1.68Zm5.88 7.44h7.89v3.06h-7.89Zm11.61 5.91v-8.73H78.85v8.73ZM76.21 5.34A24.023 24.023 0 0 0 71.2.81l-2.64 2.16a22.7 22.7 0 0 1 4.83 4.74Zm-.75 6.42h-6.93v3.27h3.45v6.33a39.4 39.4 0 0 1-4.11 2.76l1.74 3.72c1.65-1.26 2.97-2.43 4.29-3.6 1.95 2.34 4.41 3.18 8.1 3.33 3.57.15 9.6.09 13.2-.09a18.684 18.684 0 0 1 1.11-3.6c-3.99.3-10.74.39-14.25.24-3.12-.12-5.37-.93-6.6-2.94Zm46.05 6.33a12.4 12.4 0 0 1-1.74 2.73c-.24-.81-.48-1.74-.69-2.73Zm-13.8-2.76c-.72-1.26-2.16-3.57-2.79-4.5V9.54h2.73V6.36a19.361 19.361 0 0 1 2.22 2.22c-.6.96-1.23 1.86-1.8 2.64l-.93.06.48 2.64c1.68-.18 3.54-.42 5.49-.63.06.33.09.63.12.9l2.04-.81c.09.66.18 1.32.24 1.95ZM112 9.54a14.149 14.149 0 0 1 .48 1.35l-1.62.12c1.29-1.68 2.7-3.78 3.9-5.64.06 2.4.21 4.71.42 6.9a17.883 17.883 0 0 0-1.17-3.36Zm6.09 1.26c-.12-1.5-.21-3.03-.24-4.65a20.284 20.284 0 0 1 2.4 2.43c-.51.78-1.02 1.53-1.5 2.16Zm.51 4.53c-.15-.9-.27-1.83-.36-2.82l.18.84c.84-.09 1.71-.21 2.64-.3l-1.35 1.17a16.749 16.749 0 0 1 1.44 1.11Zm3.09 2.76h4.2v-2.76h-2.28l.57-.51a11.725 11.725 0 0 0-2.28-1.89l2.22-.3a11.647 11.647 0 0 1 .24 1.17l2.13-.9a18.385 18.385 0 0 0-1.56-4.44l-2.01.72c.18.39.36.81.51 1.23l-1.8.12c1.32-1.77 2.76-3.96 3.96-5.85l-2.43-1.2c-.42.87-.96 1.89-1.53 2.88l-.78-.78c.75-1.17 1.62-2.79 2.46-4.29L120.64.27a29.7 29.7 0 0 1-1.47 3.87l-.48-.36-.87 1.26c-.03-1.59-.03-3.21 0-4.89h-3.15c0 1.47.03 2.91.06 4.32l-2.01-.99c-.42.9-.93 1.89-1.53 2.91-.21-.24-.48-.51-.75-.78.72-1.2 1.59-2.85 2.43-4.29L110.23.3a33.365 33.365 0 0 1-1.47 3.87l-.51-.39-1.32 1.95c.21.18.45.36.66.57h-2.67V.12h-3.18V6.3h-3.21v3.24h2.97a31.544 31.544 0 0 1-3.66 10.11 20.337 20.337 0 0 1 1.5 3.03 25.67 25.67 0 0 0 2.4-5.64v11.07h3.18v-13.2c.6 1.32 1.2 2.7 1.5 3.6l1.2-1.77v1.35h1.86c-.3 3.03-1.05 5.88-3.69 7.65a8.264 8.264 0 0 1 2.01 2.34 10.255 10.255 0 0 0 3.99-5.76 18.957 18.957 0 0 1 2.31 2.04l1.92-2.37a23.911 23.911 0 0 0-3.57-2.76c.06-.36.12-.75.15-1.14h3.39a27.607 27.607 0 0 0 1.38 5.04 18.61 18.61 0 0 1-5.01 2.7 13.179 13.179 0 0 1 1.86 2.28 21.658 21.658 0 0 0 4.53-2.37 4.948 4.948 0 0 0 4.11 2.4c2.34 0 3.18-.9 3.72-4.29a8.544 8.544 0 0 1-2.31-1.62c-.15 2.37-.42 2.94-1.17 2.94a2.522 2.522 0 0 1-2.01-1.38 17.318 17.318 0 0 0 3.39-4.65Zm30.36-4.5c2.76 0 3.69-1.11 4.08-4.95a9.862 9.862 0 0 1-3.15-1.32c-.12 2.61-.33 3.06-1.29 3.06h-3.27c-1.14 0-1.32-.12-1.32-1.2V7.41a55.046 55.046 0 0 0 7.68-2.82l-2.28-2.58a46.74 46.74 0 0 1-5.4 2.49V.21h-3.54v9.03c0 3.3.84 4.35 4.35 4.35Zm-18.87 6.21v-1.77h4.5v1.77Zm4.5-5.97v1.56h-4.5v-1.56Zm3.51-2.94h-11.31v17.22h3.3v-5.67h4.5v2.01c0 .36-.12.45-.48.45a24.924 24.924 0 0 1-2.64 0 13.2 13.2 0 0 1 1.14 3.15 8.892 8.892 0 0 0 4.2-.6c.99-.51 1.29-1.38 1.29-2.94Zm-4.5-7.65c.48.78.96 1.62 1.41 2.46l-3.99.18a90.8 90.8 0 0 0 2.25-5.13L132.64 0a47.393 47.393 0 0 1-2.19 6.03c-.84.03-1.62.06-2.34.06l.3 3.39c3.06-.18 7.14-.42 11.1-.69a11.081 11.081 0 0 1 .54 1.59l3.27-1.32a29.341 29.341 0 0 0-3.63-6.96Zm11.76 21.57c-1.17 0-1.38-.15-1.38-1.2v-2.4a45.482 45.482 0 0 0 8.01-3.18l-2.37-2.61a33.979 33.979 0 0 1-5.64 2.82v-4.05h-3.51v9.42c0 3.3.87 4.32 4.38 4.32h4.26c2.88 0 3.78-1.17 4.17-5.4a11.107 11.107 0 0 1-3.12-1.32c-.15 3.03-.36 3.6-1.38 3.6ZM14.58 57.97c-.04-.6-.08-1.66-.08-2.36V45.25c0-.58.04-1.38.06-1.84-.34.02-1.18.04-1.76.04H2.74c-.7 0-1.74-.04-2.48-.12v2.78c.56-.04 1.64-.08 2.48-.08h8.98v8.28H2.5c-.9 0-1.8-.06-2.5-.12v2.86c.66-.06 1.8-.12 2.58-.12h9.12c0 .38 0 .72-.02 1.04Zm7.36-15.64-1.88 2a41.585 41.585 0 0 1 5 4.32l2.04-2.1a42 42 0 0 0-5.16-4.22Zm-2.5 13.32 1.68 2.64a21.659 21.659 0 0 0 7.42-2.82 21.267 21.267 0 0 0 7.4-7.4l-1.56-2.82a18.965 18.965 0 0 1-7.28 7.78 20.614 20.614 0 0 1-7.66 2.62Zm33.62-11.82a6.413 6.413 0 0 1-1.74.24H47.3l.06-.1c.24-.44.74-1.34 1.22-2.04l-2.92-.96a9.622 9.622 0 0 1-.9 2.1 17.61 17.61 0 0 1-6.24 6.44l2.24 1.66a22.8 22.8 0 0 0 5.04-4.84h5.62a14.217 14.217 0 0 1-2.84 5.46 15.939 15.939 0 0 1-8.06 4.94l2.36 2.12a18.842 18.842 0 0 0 8.08-5.64 20.868 20.868 0 0 0 3.48-6.68 8.008 8.008 0 0 1 .66-1.44Zm7.96-1.64a13.6 13.6 0 0 1 .08 1.52v6.74c0 .6-.08 1.38-.1 1.76h2.96c-.04-.46-.06-1.24-.06-1.74v-6.76c0-.64.02-1.08.06-1.52Zm9.2-.18a14.109 14.109 0 0 1 .12 2v3.8c0 3.12-.26 4.62-1.62 6.12a9.36 9.36 0 0 1-4.9 2.52l2.1 2.2a11.619 11.619 0 0 0 4.86-2.9c1.48-1.64 2.32-3.48 2.32-7.78v-3.96c0-.8.04-1.44.08-2Zm8.74 9.4c.74-.06 2.08-.1 3.22-.1h10.74c.84 0 1.86.08 2.34.1v-3.14c-.52.04-1.42.12-2.34.12H82.18c-1.04 0-2.5-.06-3.22-.12Zm35.54-1.24a65.321 65.321 0 0 0-8.36-3.1v-2.94a21.75 21.75 0 0 1 .18-2.42h-3.12a13.949 13.949 0 0 1 .2 2.42v11.48a21.4 21.4 0 0 1-.2 2.78h3.12c-.08-.8-.18-2.2-.18-2.78v-5.66a57.767 57.767 0 0 1 7.22 2.98Zm19.34-6.86a26.378 26.378 0 0 0-1.54-2.64l-1.64.68c.38.58.78 1.28 1.12 1.94a8.391 8.391 0 0 1-.94.04h-9.26a22.269 22.269 0 0 1-2.38-.16v2.82c.52-.04 1.46-.08 2.38-.08h9.32a12.843 12.843 0 0 1-2.36 5.64 13.144 13.144 0 0 1-7.84 4.7l2.18 2.38a15.828 15.828 0 0 0 8.04-5.52 20.189 20.189 0 0 0 3-7.28 10.1 10.1 0 0 1 .44-1.38l-1.26-.82Zm-.4-2.46a23.707 23.707 0 0 1 1.6 2.68l1.66-.72c-.38-.7-1.1-1.92-1.6-2.64Zm18.58 5.08v8.3h-9.66v-8.3Zm2.68-.64c0-.6 0-1.34.04-1.94-.72.04-1.48.04-1.98.04h-11c-.54 0-1.3-.02-2.12-.04.04.56.04 1.38.04 1.94v9.78c0 .96-.04 2.7-.06 2.8h2.76l-.02-1.1H152l-.02 1.1h2.76c0-.08-.04-2-.04-2.78Zm12.52.34-2.38.78a33.312 33.312 0 0 1 1.62 4.44l2.4-.84c-.28-.92-1.26-3.52-1.64-4.38Zm4.56.56a13.479 13.479 0 0 1-2.54 6.86 13.457 13.457 0 0 1-6.64 4.18l2.1 2.14a15.619 15.619 0 0 0 6.7-4.96 16.127 16.127 0 0 0 2.72-5.86c.12-.4.24-.82.48-1.46Zm-9.2.5-2.4.86a40.4 40.4 0 0 1 1.82 4.62l2.44-.92c-.4-1.12-1.36-3.54-1.86-4.56Zm30.48-2.86a6.413 6.413 0 0 1-1.74.24h-4.02l.06-.1c.24-.44.74-1.34 1.22-2.04l-2.92-.96a9.622 9.622 0 0 1-.9 2.1 17.61 17.61 0 0 1-6.24 6.44l2.24 1.66a22.8 22.8 0 0 0 5.04-4.84h5.62a14.217 14.217 0 0 1-2.84 5.46 15.939 15.939 0 0 1-8.06 4.94l2.36 2.12a18.842 18.842 0 0 0 8.08-5.64 20.868 20.868 0 0 0 3.48-6.68 8.008 8.008 0 0 1 .66-1.44Z" fill="#fff"/></svg>