<svg xmlns="http://www.w3.org/2000/svg" width="267.451" height="27.99"><path d="M12.391.42v23.13c0 .57-.24.78-.9.78-.66.03-2.88.03-4.83-.06a16.054 16.054 0 0 1 1.41 3.72c2.91 0 4.95-.12 6.36-.69 1.32-.57 1.83-1.56 1.83-3.75V.42Zm7.14 7.83c2.37 4.38 4.65 10.02 5.25 13.65l3.9-1.53c-.75-3.75-3.21-9.18-5.64-13.44Zm-15-.99c-.63 3.9-2.13 9.15-4.53 12.18a30.047 30.047 0 0 1 3.48 1.86c2.49-3.3 4.11-8.88 5.13-13.35Zm31.68 14.04V6.57h15.9V21.3Zm-3.75-18.36v24.48h3.75v-2.43h15.9v2.37h3.93V2.94Zm44.88 20.01v-9.99h8.94v-3.6h-8.94V0h-3.81v22.95h-5.46V6.15h-3.75v16.8h-3.81v3.57h27.39v-3.57Zm19.14-1.83c-1.08 0-1.68-.93-1.68-2.37a9.067 9.067 0 0 1 2.16-5.58 32.7 32.7 0 0 0 2.76 5.7c-1.08 1.35-2.19 2.25-3.24 2.25Zm8.13-11.91a35.4 35.4 0 0 1-2.64 6.36 29.767 29.767 0 0 1-2.1-4.71 11.583 11.583 0 0 1 4.74-1.65Zm4.83-4.23c.18-.75.45-2.19.69-3l-4.11-.39a16.033 16.033 0 0 1-.21 2.82c-.09.45-.18.93-.3 1.44a15.488 15.488 0 0 0-6.72 1.77c-.21-.63-.39-1.26-.54-1.83-.24-.87-.48-1.86-.66-2.82l-3.9 1.2a21.856 21.856 0 0 1 1.2 3.09c.24.81.51 1.62.78 2.4a13.032 13.032 0 0 0-4.38 9.39c0 3.84 2.28 5.94 4.74 5.94 2.19 0 3.84-1.02 5.85-3.18.3.39.66.78 1.02 1.17l2.97-2.37a31.58 31.58 0 0 1-1.62-1.77 36.166 36.166 0 0 0 4.02-9.45 6.364 6.364 0 0 1 4.8 6.54c0 3.72-2.55 7.05-9.09 7.62l2.28 3.42c6.21-.93 10.71-4.53 10.71-10.83a9.79 9.79 0 0 0-7.8-10.02Zm20.94 9.03a3.867 3.867 0 0 0 3.84 3.84 3.867 3.867 0 0 0 3.84-3.84 3.867 3.867 0 0 0-3.84-3.84 3.867 3.867 0 0 0-3.84 3.84Zm43.5-8.37a7.3 7.3 0 0 1-2.49.33h-5.22V3.66a21.8 21.8 0 0 1 .21-2.76h-4.62a14.823 14.823 0 0 1 .24 2.76v2.31h-6.42a25.191 25.191 0 0 1-3.06-.15 19.155 19.155 0 0 1 .15 2.58v5.19a22.754 22.754 0 0 1-.15 2.52h4.14c-.06-.6-.09-1.53-.09-2.22V9.51h14.88a17.811 17.811 0 0 1-2.67 7.71 14.685 14.685 0 0 1-6.81 5.13 24.432 24.432 0 0 1-4.23 1.17l3.12 3.6a19.065 19.065 0 0 0 12.24-9 27.939 27.939 0 0 0 2.79-8.49 20.032 20.032 0 0 1 .6-2.4Zm29.79 3.81a6.329 6.329 0 0 1-2.19.3h-14.85c-.93 0-2.22-.06-3.48-.18v3.9c1.26-.12 2.76-.15 3.48-.15h14.49a13.015 13.015 0 0 1-3.09 5.19 20.219 20.219 0 0 1-10.41 5.25l3 3.39a22.465 22.465 0 0 0 10.71-6.48 21.56 21.56 0 0 0 4.44-8.31 11.115 11.115 0 0 1 .57-1.26Zm-17.76-3.18c.87-.06 2.16-.09 3.12-.09h11.49c1.08 0 2.49.03 3.3.09V2.4a28.284 28.284 0 0 1-3.24.15h-11.55a25.289 25.289 0 0 1-3.12-.15Zm49.5 19.8c-.06-.9-.12-2.49-.12-3.54V6.99c0-.87.06-2.07.09-2.76-.51.03-1.77.06-2.64.06h-15.09c-1.05 0-2.61-.06-3.72-.18v4.17c.84-.06 2.46-.12 3.72-.12h13.47v12.42h-13.83c-1.35 0-2.7-.09-3.75-.18v4.29c.99-.09 2.7-.18 3.87-.18h13.68c0 .57 0 1.08-.03 1.56Zm11.04-23.46-2.82 3a62.378 62.378 0 0 1 7.5 6.48l3.06-3.15a63 63 0 0 0-7.74-6.33Zm-3.75 19.98 2.52 3.96a32.489 32.489 0 0 0 11.13-4.23 31.9 31.9 0 0 0 11.1-11.1l-2.34-4.23a28.447 28.447 0 0 1-10.92 11.67 30.92 30.92 0 0 1-11.49 3.93Z" fill="#fff"/></svg>