<svg xmlns="http://www.w3.org/2000/svg" width="298.709" height="28.05"><path d="M9.21 20.82v2.7H5.07v-2.7Zm-7.23 7.14h3.09v-1.53h4.14v.93h3.21v-9.42H1.98Zm22.74-15.99v1.92h-2.49v-1.92Zm-2.49 6.75v-1.95h2.49v1.95Zm-5.49 0v-1.95h2.31v1.95Zm2.31-6.75v1.92h-2.31v-1.92Zm9.18-4.98V3.93h-1.77l1.56-1.29a15.84 15.84 0 0 0-3.3-2.61l-2.1 1.56a19.8 19.8 0 0 1 2.82 2.34h-3.21V0h-3.18v3.93h-5.94v1.2A30.09 30.09 0 0 0 8.19.03H5.16A20.029 20.029 0 0 1 0 7.05 11.159 11.159 0 0 1 2.19 9.3v2.37h3.36v2.04H1.2v2.88h11.7v-2.88H8.79v-2.04h3.45V8.94H8.79V6.39H5.55v2.55H2.79a28.4 28.4 0 0 0 4.44-5.7 27.761 27.761 0 0 1 3.87 4.89l2.01-2.52v1.38h5.94v1.98h-5.4V27.9h3.09v-6.33h2.31v6.18h3.18v-6.18h2.49v2.97c0 .27-.09.36-.36.36a15.537 15.537 0 0 1-1.71 0 10.05 10.05 0 0 1 .9 3.03 6.021 6.021 0 0 0 3.27-.6c.84-.54 1.02-1.35 1.02-2.73V8.97h-5.61V6.99ZM52.2 22.77h-12v-7.2h12Zm5.52-17.22V2.04H31.38v3.51h7.83c-1.71 4.77-4.86 9.81-9.21 12.78a19.935 19.935 0 0 1 2.52 2.76 22.771 22.771 0 0 0 4.05-3.75v10.68h3.63v-1.8h12v1.68h3.84V12.15H40.26a52.587 52.587 0 0 0 3.09-6.6Zm12.96 8.46a3.867 3.867 0 0 0 3.84 3.84 3.867 3.867 0 0 0 3.84-3.84 3.867 3.867 0 0 0-3.84-3.84 3.867 3.867 0 0 0-3.84 3.84Zm26.67 2.31v-1.83h5.22v1.83Zm0-6.33h5.22v1.83h-5.22Zm14.13 0v1.83h-5.25V9.99Zm0 6.33h-5.25v-1.83h5.25Zm6.72 4.47h-11.97v-1.62h8.85V7.14h-8.85V5.7h11.1V2.46h-11.1V.03h-3.66v2.43H91.68V5.7h10.89v1.44h-8.64v12.03h8.64v1.62H90.96V24h11.61v4.05h3.66V24h11.97Zm19.44 2.16v-9.99h8.94v-3.6h-8.94V0h-3.81v22.95h-5.46V6.15h-3.75v16.8h-3.81v3.57h27.39v-3.57Zm19.14-1.83c-1.08 0-1.68-.93-1.68-2.37a9.067 9.067 0 0 1 2.16-5.58 32.7 32.7 0 0 0 2.76 5.7c-1.08 1.35-2.19 2.25-3.24 2.25Zm8.13-11.91a35.4 35.4 0 0 1-2.64 6.36 29.767 29.767 0 0 1-2.1-4.71 11.583 11.583 0 0 1 4.74-1.65Zm4.83-4.23c.18-.75.45-2.19.69-3l-4.11-.39a16.033 16.033 0 0 1-.21 2.82c-.09.45-.18.93-.3 1.44a15.488 15.488 0 0 0-6.72 1.77c-.21-.63-.39-1.26-.54-1.83-.24-.87-.48-1.86-.66-2.82l-3.9 1.2a21.856 21.856 0 0 1 1.2 3.09c.24.81.51 1.62.78 2.4a13.032 13.032 0 0 0-4.38 9.39c0 3.84 2.28 5.94 4.74 5.94 2.19 0 3.84-1.02 5.85-3.18.3.39.66.78 1.02 1.17l2.97-2.37a31.58 31.58 0 0 1-1.62-1.77 36.167 36.167 0 0 0 4.02-9.45 6.364 6.364 0 0 1 4.8 6.54c0 3.72-2.55 7.05-9.09 7.62l2.28 3.42c6.21-.93 10.71-4.53 10.71-10.83a9.79 9.79 0 0 0-7.8-10.02Zm20.94 9.03a3.867 3.867 0 0 0 3.84 3.84 3.867 3.867 0 0 0 3.84-3.84 3.867 3.867 0 0 0-3.84-3.84 3.867 3.867 0 0 0-3.84 3.84Zm26.28-11.49.18 3.81c.93-.09 1.92-.21 2.67-.27 1.2-.12 4.86-.3 6.06-.39a84.165 84.165 0 0 1-8.37 6.75c-1.53.18-3.6.45-5.19.6l.36 3.6c2.97-.51 6.3-.96 9-1.17a6.946 6.946 0 0 0-2.16 4.68c0 4.95 4.44 7.23 12.06 6.9l.78-3.9a25.87 25.87 0 0 1-4.53-.06c-2.67-.33-4.5-1.23-4.5-3.57 0-2.43 2.28-4.35 5.01-4.74a44.8 44.8 0 0 1 7.62-.06v-3.51c-3.63 0-8.52.3-12.51.72 2.01-1.59 4.95-4.05 7.08-5.73.6-.51 1.71-1.23 2.31-1.65l-2.34-2.73a11.652 11.652 0 0 1-2.07.36c-1.8.21-7.38.48-8.64.48-1.02 0-1.89-.03-2.82-.12Zm30.75 17.49c-1.11 0-2.31-1.47-2.31-4.47a9.315 9.315 0 0 1 7.53-8.61 47.687 47.687 0 0 1-1.59 7.2c-1.2 4.02-2.4 5.88-3.63 5.88Zm8.16 6.63c7.5-1.14 11.34-5.58 11.34-11.82 0-6.48-4.65-11.61-12-11.61-7.71 0-13.68 5.88-13.68 12.72 0 5.01 2.79 8.64 6.06 8.64 3.24 0 5.82-3.66 7.59-9.66a64.565 64.565 0 0 0 1.77-8.07c3.99.69 6.21 3.75 6.21 7.86 0 4.32-2.94 7.05-6.75 7.95-.78.18-1.62.33-2.76.48ZM276.84.09A31.5 31.5 0 0 1 270 11.34a24.781 24.781 0 0 1 1.92 3.6 24.851 24.851 0 0 0 1.89-2.25v15.27h3.54V7.2a54.5 54.5 0 0 0 2.79-6.03Zm10.2 24.27c-1.92 0-2.22-.27-2.22-2.07v-9.6l2.91-1.14v9.36h3.33V10.23L294.18 9a58.636 58.636 0 0 1-.21 6.45c-.12.57-.33.69-.75.69-.33 0-1.17-.03-1.83-.06a9.512 9.512 0 0 1 .78 3.27 8.516 8.516 0 0 0 3.39-.42 2.839 2.839 0 0 0 1.68-2.7c.18-1.32.24-4.92.27-10.14l.12-.54-2.43-.93-.66.45-.45.36-3.03 1.14V.12h-3.33v7.77L284.82 9V3.33h-3.54v7.08l-3.63 1.41 1.38 3.15 2.25-.87v8.19c0 4.11 1.23 5.28 5.49 5.28h6.63c3.78 0 4.83-1.5 5.31-5.94a12.411 12.411 0 0 1-3.24-1.38c-.27 3.39-.57 4.11-2.34 4.11Z" fill="#fff"/></svg>