<svg xmlns="http://www.w3.org/2000/svg" width="236.04" height="76.08"><path d="M22.8 20.82v2.7h-4.14v-2.7Zm-7.23 7.14h3.09v-1.53h4.14v.93h3.21v-9.42H15.57Zm22.74-15.99v1.92h-2.49v-1.92Zm-2.49 6.75v-1.95h2.49v1.95Zm-5.49 0v-1.95h2.31v1.95Zm2.31-6.75v1.92h-2.31v-1.92Zm9.18-4.98V3.93h-1.77l1.56-1.29a15.84 15.84 0 0 0-3.3-2.61l-2.1 1.56a19.8 19.8 0 0 1 2.82 2.34h-3.21V0h-3.18v3.93H26.7v1.2a30.09 30.09 0 0 0-4.92-5.1h-3.03a20.029 20.029 0 0 1-5.16 7.02 11.16 11.16 0 0 1 2.19 2.25v2.37h3.36v2.04h-4.35v2.88h11.7v-2.88h-4.11v-2.04h3.45V8.94h-3.45V6.39h-3.24v2.55h-2.76a28.4 28.4 0 0 0 4.44-5.7 27.761 27.761 0 0 1 3.87 4.89l2.01-2.52v1.38h5.94v1.98h-5.4V27.9h3.09v-6.33h2.31v6.18h3.18v-6.18h2.49v2.97c0 .27-.09.36-.36.36a15.537 15.537 0 0 1-1.71 0 10.05 10.05 0 0 1 .9 3.03 6.021 6.021 0 0 0 3.27-.6c.84-.54 1.02-1.35 1.02-2.73V8.97h-5.61V6.99Zm23.97 15.78h-12v-7.2h12Zm5.52-17.22V2.04H44.97v3.51h7.83c-1.71 4.77-4.86 9.81-9.21 12.78a19.935 19.935 0 0 1 2.52 2.76 22.771 22.771 0 0 0 4.05-3.75v10.68h3.63v-1.8h12v1.68h3.84V12.15H53.85a52.587 52.587 0 0 0 3.09-6.6Zm12.96 8.46a3.867 3.867 0 0 0 3.84 3.84 3.867 3.867 0 0 0 3.84-3.84 3.867 3.867 0 0 0-3.84-3.84 3.867 3.867 0 0 0-3.84 3.84Zm26.67 2.31v-1.83h5.22v1.83Zm0-6.33h5.22v1.83h-5.22Zm14.13 0v1.83h-5.25V9.99Zm0 6.33h-5.25v-1.83h5.25Zm6.72 4.47h-11.97v-1.62h8.85V7.14h-8.85V5.7h11.1V2.46h-11.1V.03h-3.66v2.43h-10.89V5.7h10.89v1.44h-8.64v12.03h8.64v1.62h-11.61V24h11.61v4.05h3.66V24h11.97Zm19.44 2.16v-9.99h8.94v-3.6h-8.94V0h-3.81v22.95h-5.46V6.15h-3.75v16.8h-3.81v3.57h27.39v-3.57Zm19.14-1.83c-1.08 0-1.68-.93-1.68-2.37a9.067 9.067 0 0 1 2.16-5.58 32.7 32.7 0 0 0 2.76 5.7c-1.08 1.35-2.19 2.25-3.24 2.25Zm8.13-11.91a35.4 35.4 0 0 1-2.64 6.36 29.767 29.767 0 0 1-2.1-4.71 11.583 11.583 0 0 1 4.74-1.65Zm4.83-4.23c.18-.75.45-2.19.69-3l-4.11-.39a16.033 16.033 0 0 1-.21 2.82c-.09.45-.18.93-.3 1.44a15.488 15.488 0 0 0-6.72 1.77c-.21-.63-.39-1.26-.54-1.83-.24-.87-.48-1.86-.66-2.82l-3.9 1.2a21.856 21.856 0 0 1 1.2 3.09c.24.81.51 1.62.78 2.4a13.032 13.032 0 0 0-4.38 9.39c0 3.84 2.28 5.94 4.74 5.94 2.19 0 3.84-1.02 5.85-3.18.3.39.66.78 1.02 1.17l2.97-2.37a31.58 31.58 0 0 1-1.62-1.77 36.167 36.167 0 0 0 4.02-9.45 6.364 6.364 0 0 1 4.8 6.54c0 3.72-2.55 7.05-9.09 7.62l2.28 3.42c6.21-.93 10.71-4.53 10.71-10.83a9.79 9.79 0 0 0-7.8-10.02Zm20.94 9.03a3.867 3.867 0 0 0 3.84 3.84 3.867 3.867 0 0 0 3.84-3.84 3.867 3.867 0 0 0-3.84-3.84 3.867 3.867 0 0 0-3.84 3.84ZM23.55 53.52a43.927 43.927 0 0 0-2.37-4.11l-2.37.96a35.9 35.9 0 0 1 2.34 4.17Zm-10.38 1.5c.06-.87.09-1.74.12-2.67.03-.72.09-1.98.18-2.7H9.06a22.2 22.2 0 0 1 .21 2.76c0 .9-.03 1.77-.06 2.61H4.92a36.551 36.551 0 0 1-3.96-.21v3.96c1.29-.12 2.94-.15 3.96-.15h3.96c-.66 4.56-2.16 7.95-4.95 10.71A17.029 17.029 0 0 1 0 72.24l3.48 2.82c5.37-3.81 8.22-8.49 9.33-16.44h6.75c0 3.24-.39 9.24-1.26 11.13a1.584 1.584 0 0 1-1.71 1.08 28.367 28.367 0 0 1-4.2-.42l.45 3.99c1.47.12 3.27.24 4.98.24 2.07 0 3.21-.78 3.87-2.28 1.29-3.06 1.65-11.46 1.77-14.7a11.882 11.882 0 0 1 .21-1.56l-2.58-1.29a11.727 11.727 0 0 1-2.28.21Zm9.18-6a31.606 31.606 0 0 1 2.4 4.14l2.4-1.05a46.923 46.923 0 0 0-2.43-4.08Zm8.52 15.21c1.11-.09 3.12-.15 4.83-.15h16.11c1.26 0 2.79.12 3.51.15v-4.71c-.78.06-2.13.18-3.51.18H35.7c-1.56 0-3.75-.09-4.83-.18Zm56.88-12.81a39.909 39.909 0 0 0-2.4-4.08l-2.37.99a35.394 35.394 0 0 1 2.4 4.14Zm-3.57 1.38c-.57-1.11-1.62-3-2.37-4.11l-2.4.99a41.231 41.231 0 0 1 2.37 4.17Zm-7.41 1.74c1.05 0 2.22.03 3.24.09v-3.87a23.548 23.548 0 0 1-3.24.24h-9.81a22.446 22.446 0 0 1-3.21-.24v3.87c.9-.06 2.19-.09 3.21-.09Zm-13.62 4.08a22.84 22.84 0 0 1-2.88-.18v3.93c.84-.06 2.01-.12 2.88-.12h8.25a12.892 12.892 0 0 1-1.86 6.63 12.251 12.251 0 0 1-5.43 4.29l3.51 2.55a14.4 14.4 0 0 0 6.03-5.76 19.032 19.032 0 0 0 1.92-7.71h7.23c.84 0 1.98.03 2.73.09v-3.9a22.687 22.687 0 0 1-2.73.18ZM90.69 72.3c1.11-.09 2.58-.18 3.75-.18h17.22a32.589 32.589 0 0 1 3.3.18v-4.59a30.457 30.457 0 0 1-3.3.21H94.44c-1.17 0-2.58-.12-3.75-.21Zm2.52-14.91c1.02-.06 2.4-.12 3.54-.12h12.39c1.05 0 2.46.09 3.33.12v-4.35c-.84.09-2.13.18-3.33.18H96.72c-1.02 0-2.43-.06-3.51-.18Zm32.13-6.78-2.82 3a62.377 62.377 0 0 1 7.5 6.48l3.06-3.15a63 63 0 0 0-7.74-6.33Zm-3.75 19.98 2.52 3.96a32.489 32.489 0 0 0 11.13-4.23 31.9 31.9 0 0 0 11.1-11.1L144 54.99a28.447 28.447 0 0 1-10.92 11.67 30.92 30.92 0 0 1-11.49 3.93Zm52.26-17.64a43.925 43.925 0 0 0-2.37-4.11l-2.37.96a34.789 34.789 0 0 1 2.19 3.87l-.21-.12a9.45 9.45 0 0 1-2.61.36h-6.03l.09-.15c.36-.66 1.14-2.01 1.86-3.06l-4.41-1.44a13.116 13.116 0 0 1-1.35 3.15 25.668 25.668 0 0 1-9.36 9.63l3.36 2.52a32.936 32.936 0 0 0 7.56-7.26h8.46a21.222 21.222 0 0 1-4.26 8.16c-2.64 3-5.97 5.61-12.09 7.44l3.54 3.18a27.941 27.941 0 0 0 12.09-8.49 30.277 30.277 0 0 0 5.25-10.02 12.711 12.711 0 0 1 .99-2.13l-2.55-1.56Zm-1.2-4.5a28.552 28.552 0 0 1 2.4 4.14l2.4-1.02a42.834 42.834 0 0 0-2.43-4.08Zm32.85-.24h-3.24v11.91c0 .39-.12.51-.57.51-.42.03-1.86.03-3.21-.03a11.067 11.067 0 0 1 1.05 2.82 12.615 12.615 0 0 0 4.59-.48c1.08-.45 1.38-1.2 1.38-2.73Zm-6.51.99h-3.18v9.99h3.18Zm3.51 17.76a34.909 34.909 0 0 1-4.26 2.58 10.977 10.977 0 0 1-2.13-2.58ZM182.16 53.4a11.67 11.67 0 0 0 .75-1.2h2.85v1.2Zm21.42 13.56h3v-2.82h-11.7v-1.56h-3.18a3.913 3.913 0 0 0 1.41-.3c.78-.36.99-.9.99-2.04v-3.39h-5.31V55.8h5.79v-2.4h-5.79v-1.2h4.98v-2.28h-4.98V48h-3.03v1.92h-1.71c.18-.42.33-.81.48-1.23l-2.61-.66a13.044 13.044 0 0 1-2.34 4.32c.48.24 1.26.69 1.86 1.05h-1.83v2.4h6.15v1.05h-4.95v5.88h2.7v-3.72h2.25v4.38h3.03v-4.38h2.46v1.23c0 .24-.09.33-.36.33-.21 0-.93 0-1.62-.03a9.127 9.127 0 0 1 .87 2.07h1.2v1.53h-11.67v2.82h8.76a33.827 33.827 0 0 1-9.27 2.52 15.356 15.356 0 0 1 1.89 2.58A34.181 34.181 0 0 0 186 70.8v1.68c-1.08.12-2.1.24-2.97.33l.51 2.91c3.3-.48 7.77-1.08 12-1.68l-.12-2.79c-2.01.27-4.05.54-6 .78v-2.61a22.589 22.589 0 0 0 3.54-2.13c2.25 4.77 6 7.59 12.24 8.79a12.311 12.311 0 0 1 1.95-2.85 20.274 20.274 0 0 1-6.51-2.01 40.441 40.441 0 0 0 4.95-2.76Zm24.78-10.32h-10.5v-4.05h10.5Zm3.63-7.47h-17.58v10.86h17.58Zm-13.86 16.77v5.16h-4.47v-5.16Zm-7.86 10.08h3.39v-1.5h4.47v1.35h3.57V62.52h-11.43Zm17.4-4.92v-5.16h4.77v5.16Zm-3.42-8.58v13.5h3.42v-1.5h4.77v1.38h3.6V62.52Z" fill="#fff"/></svg>