<svg xmlns="http://www.w3.org/2000/svg" width="234.12" height="77.808"><g fill="#fff"><path d="M74.352 6.444h-2.34V4.1h2.34Zm-5.04 0h-2.268V4.1h2.268Zm-5 0h-2.2V4.1h2.2Zm13.608-5.22H58.692v8.1h19.224ZM57.108 13.9h22.136v-3.384h-22.14Zm.612 7.92-3.96 1.044v-6.12h3.276v-3.78H53.76V6.412h3.744V2.668h-11.52v3.744h4v6.552h-3.672v3.78h3.672V23.8c-1.692.432-3.24.792-4.536 1.08l.9 3.96c3.456-.864 7.812-2.052 11.916-3.24Zm18 1.8a30.51 30.51 0 0 1-3.2 2.628 14.469 14.469 0 0 1-2.124-2.628Zm-12.708-5.364h10.332v2.34H63.012Zm12.96 5.364h1.332v-8.424H59.268v8.424H65.1a34.088 34.088 0 0 1-10.44 5.328 16.745 16.745 0 0 1 2.52 3.06 37.812 37.812 0 0 0 6.732-3.528v5.252h4.032v-7.776a18.162 18.162 0 0 0 8.748 7.776 16.048 16.048 0 0 1 2.664-3.312 17.2 17.2 0 0 1-4.392-2.16 39.918 39.918 0 0 0 3.816-2.592Zm31.1-17.928c-.288.864-.72 1.908-1.08 2.7l.18.036h-4.568l.468-.108a11.48 11.48 0 0 0-1.008-2.628Zm8.136 2.736h-5.144c.4-.72.864-1.584 1.332-2.556l-.9-.18h4.068V2.38h-8.532V.18h-4.212v2.2h-7.812v3.312H98.4l-1.332.288a11.738 11.738 0 0 1 .9 2.448h-4.752v3.492h22ZM93.144 19.332c-1.116.468-2.232.972-3.348 1.44v-8.1h3.276V8.64h-3.276V.612h-3.96V8.64h-3.564v4.032h3.564v9.72a146.907 146.907 0 0 1-4.392 1.656l1.44 4.284c3.276-1.512 7.416-3.384 11.2-5.22Zm6.084.9h10.116v1.836H99.228Zm0-4.284h10.116v1.8H99.228Zm10.656 13.968c-.648 0-.756-.108-.756-1.008v-4.176h4.428V13.32H95.232v11.412h3.06c-.648 2.628-2.232 4.428-7.884 5.508a12.893 12.893 0 0 1 2.34 3.6c6.876-1.764 8.964-4.788 9.756-9.108h2.556v4.212c0 3.42.72 4.608 4.1 4.608h2.808c2.52 0 3.528-1.08 3.924-5.22a10.258 10.258 0 0 1-3.56-1.512c-.072 2.736-.252 3.1-.828 3.1ZM125.76.18a37.965 37.965 0 0 1-8.496 13.464 28.616 28.616 0 0 1 2.3 4.392 41.025 41.025 0 0 0 2.736-3.2V33.66h4.072V8.568a60.194 60.194 0 0 0 3.348-7.092Zm8.748 5.256h10.548v4.824h-10.548Zm16.596 15.732V17.28h-9.288v-3.24h7.528V1.692h-18.9V14.04h7.056v3.24h-9.436v3.888h7.38a25.862 25.862 0 0 1-8.676 7.776 17.679 17.679 0 0 1 2.952 3.42 28.868 28.868 0 0 0 7.776-7.74v9.108h4.32v-9.288a29.727 29.727 0 0 0 7.308 7.992 18.225 18.225 0 0 1 3.02-3.42 27.092 27.092 0 0 1-8.24-7.848Zm10.3-8.1a41.473 41.473 0 0 0 9-8.928 43.385 43.385 0 0 0 9.288 8.928Zm11.264 11.664h10.076v-3.744h-10.076v-4.14h8.424V14.04a45.638 45.638 0 0 0 3.888 2.412 20.858 20.858 0 0 1 2.844-3.852A38.047 38.047 0 0 1 172.416 0h-4.428c-2.664 4.392-8.46 9.936-14.616 13.032a15.817 15.817 0 0 1 2.7 3.456 46.063 46.063 0 0 0 4-2.484v2.844h8.132v4.14h-9.972v3.744h9.972v4.284h-12.852v3.852h30.636v-3.852h-13.32ZM17.496 76.128c-.048-.72-.1-1.992-.1-2.832V60.864c0-.7.048-1.656.072-2.208-.408.024-1.416.048-2.112.048H3.284c-.84 0-2.088-.048-2.976-.144v3.34c.672-.048 1.968-.1 2.976-.1H14.06v9.936H2.996c-1.08 0-2.16-.072-3-.144v3.432a40.71 40.71 0 0 1 3.1-.144h10.948c0 .456 0 .864-.024 1.248Zm8.832-18.768-2.256 2.4a49.9 49.9 0 0 1 6 5.184l2.448-2.52a50.4 50.4 0 0 0-6.192-5.064Zm-3 15.984 2.016 3.168a25.991 25.991 0 0 0 8.9-3.384 25.52 25.52 0 0 0 8.88-8.88l-1.872-3.384A22.757 22.757 0 0 1 32.52 70.2a24.736 24.736 0 0 1-9.192 3.144ZM63.672 59.16a7.7 7.7 0 0 1-2.088.288H56.76l.072-.12c.288-.528.888-1.608 1.464-2.448l-3.5-1.152a11.547 11.547 0 0 1-1.08 2.52 21.132 21.132 0 0 1-7.492 7.728l2.688 1.992a27.356 27.356 0 0 0 6.048-5.808h6.744a17.061 17.061 0 0 1-3.408 6.552 19.127 19.127 0 0 1-9.672 5.928l2.832 2.544a22.611 22.611 0 0 0 9.7-6.768 25.041 25.041 0 0 0 4.172-8.016 9.609 9.609 0 0 1 .792-1.728Zm9.552-1.968a16.323 16.323 0 0 1 .1 1.824V67.1c0 .72-.1 1.656-.12 2.112h3.552a29.32 29.32 0 0 1-.072-2.088v-8.112c0-.768.024-1.3.072-1.824Zm11.04-.216a16.931 16.931 0 0 1 .144 2.4v4.56c0 3.744-.312 5.544-1.944 7.344a11.232 11.232 0 0 1-5.88 3.02l2.52 2.64a13.942 13.942 0 0 0 5.832-3.48c1.776-1.968 2.784-4.176 2.784-9.336v-4.752c0-.96.048-1.728.1-2.4Zm10.488 11.28c.888-.072 2.5-.12 3.864-.12h12.888c1.008 0 2.232.1 2.808.12v-3.768c-.624.048-1.7.144-2.808.144H98.616c-1.248 0-3-.072-3.864-.144Zm42.648-1.488a78.385 78.385 0 0 0-10.032-3.72V59.52a26.1 26.1 0 0 1 .216-2.9h-3.74a16.739 16.739 0 0 1 .24 2.9V73.3a25.681 25.681 0 0 1-.24 3.332h3.74c-.1-.96-.216-2.64-.216-3.336V66.5a69.321 69.321 0 0 1 8.664 3.58Zm23.208-8.232a31.654 31.654 0 0 0-1.848-3.168l-1.968.816c.456.7.936 1.536 1.344 2.328a10.069 10.069 0 0 1-1.128.048h-11.112a26.722 26.722 0 0 1-2.856-.192v3.384c.624-.048 1.752-.1 2.856-.1h11.184a15.412 15.412 0 0 1-2.836 6.772c-1.94 2.448-4.628 4.512-9.4 5.64l2.612 2.856a18.993 18.993 0 0 0 9.648-6.62c2.016-2.664 3.048-6.384 3.6-8.736a12.121 12.121 0 0 1 .528-1.656l-1.512-.984Zm-.48-2.952a28.448 28.448 0 0 1 1.916 3.216l1.992-.864c-.456-.84-1.32-2.3-1.92-3.168Zm22.3 6.1v9.96h-11.596v-9.96Zm3.216-.768c0-.72 0-1.608.048-2.328-.864.048-1.776.048-2.376.048h-13.2c-.648 0-1.56-.024-2.544-.048.048.672.048 1.656.048 2.328v11.732c0 1.152-.048 3.24-.072 3.36h3.312l-.024-1.32H182.4l-.024 1.32h3.312c0-.1-.048-2.4-.048-3.336Zm15.024.408-2.856.936a39.975 39.975 0 0 1 1.944 5.328l2.88-1.008c-.34-1.108-1.516-4.228-1.972-5.26Zm5.472.672a16.175 16.175 0 0 1-3.048 8.232 16.149 16.149 0 0 1-7.972 5.012l2.524 2.568a18.742 18.742 0 0 0 8.04-5.952 19.352 19.352 0 0 0 3.26-7.032c.144-.48.288-.984.576-1.752Zm-11.04.6-2.88 1.032a48.477 48.477 0 0 1 2.184 5.544l2.928-1.1c-.488-1.352-1.636-4.256-2.236-5.48Zm36.576-3.432a7.7 7.7 0 0 1-2.088.288h-4.824l.072-.12c.288-.528.888-1.608 1.464-2.448l-3.5-1.152a11.547 11.547 0 0 1-1.08 2.52 21.132 21.132 0 0 1-7.496 7.724l2.688 1.992a27.356 27.356 0 0 0 6.048-5.808h6.744a17.061 17.061 0 0 1-3.408 6.552 19.127 19.127 0 0 1-9.672 5.928l2.832 2.544a22.611 22.611 0 0 0 9.7-6.768 25.041 25.041 0 0 0 4.176-8.016 9.609 9.609 0 0 1 .792-1.728Z"/></g></svg>