<svg xmlns="http://www.w3.org/2000/svg" width="235.77" height="28.8"><path d="M27.12 12.36V8.67H15.33c.3-2.79.33-5.55.36-8.01h-3.9c-.03 2.46 0 5.19-.3 8.01H.57v3.69h10.32A17.984 17.984 0 0 1 0 25.56a10.57 10.57 0 0 1 2.67 3.03 20.649 20.649 0 0 0 11.22-12.75c2.34 5.79 5.82 10.17 11.25 12.72a14.357 14.357 0 0 1 2.64-3.36c-5.61-2.28-9.24-6.99-11.22-12.84ZM55.98.96h-3.39v12.75c0 .39-.15.48-.57.51-.45.03-1.89.03-3.24-.03a13.409 13.409 0 0 1 1.05 3.15 12.357 12.357 0 0 0 4.71-.57c1.14-.51 1.44-1.35 1.44-3ZM50.4 2.34h-3.27v10.14h3.27ZM37.2 7.95V4.8h2.52v3.15Zm8.43 16.44v-2.4h8.67v-3.24h-8.67v-2.4h-2.58V11.1h2.82V7.95h-2.82V4.8h2.13V1.68H31.56V4.8h2.37v3.15h-3.39v3.15h3.03a6.628 6.628 0 0 1-3.66 4.08 15.344 15.344 0 0 1 2.34 2.49 9.154 9.154 0 0 0 4.71-6.57h2.76v5.76h2.22v1.89h-8.67v3.24h8.7v2.4H30.24v3.3h27.03v-3.3Zm25.68-7.56c-.51-.63-2.67-2.85-3.63-3.75v-.96h2.97V10.5h16.98V8.28h-6.81V7.26h5.52V5.19h-5.52V4.17h6.21V2.01h-6.21V.66h-3.57v1.35H71.4v2.16h5.85v1.02h-5.31v2.07h5.31v1.02h-6.78v.51h-2.79V4.74a27.3 27.3 0 0 0 3.54-1.08L68.85.93a39.471 39.471 0 0 1-9 2.22 14.123 14.123 0 0 1 .96 2.73c1.08-.12 2.22-.27 3.39-.45v3.36h-3.99v3.33h3.75a29.773 29.773 0 0 1-4.53 8.28 17.709 17.709 0 0 1 1.65 3.39 26.781 26.781 0 0 0 3.12-5.58v10.41h3.48v-11.7a30.518 30.518 0 0 1 1.59 2.7Zm4.2 3.51h7.29v1.26h-7.29Zm0-3.33h7.29v1.29h-7.29Zm0-3.3h7.29v1.26h-7.29Zm10.68 10.11v-12.3H72.33v12.3h2.61a23.329 23.329 0 0 1-5.91 2.73c.66.63 1.65 1.59 2.19 2.22a26.6 26.6 0 0 0 7.2-3.63l-2.01-1.32h5.46l-1.86 1.35a51.961 51.961 0 0 1 4.95 3.51L88.08 27c-1.2-.84-3.27-2.1-5.1-3.18Zm10.44-3.51c-.54.75-.96 1.02-1.56 1.02s-1.11-.57-1.11-1.41c0-1.86 1.8-3.87 5.1-4.38a38.425 38.425 0 0 1-2.43 4.77Zm20.82-2.37c-.87-.57-1.95-1.29-3.18-1.98a48.882 48.882 0 0 0 .57-5.52l-3.9-.45a19.265 19.265 0 0 1 .03 3.24c-.03.33-.06.66-.09 1.02a26.036 26.036 0 0 0-6.39-1.92 57.493 57.493 0 0 1 2.91-6.36 6.954 6.954 0 0 1 .99-1.26l-2.37-1.86a7.363 7.363 0 0 1-2.01.45c-1.38.12-4.56.24-6.24.24a24.039 24.039 0 0 1-2.46-.12l.15 3.84c.75-.12 1.8-.24 2.43-.27 1.35-.09 3.9-.18 5.07-.21-.69 1.41-1.53 3.42-2.37 5.34-5.97.27-10.14 3.81-10.14 8.4a4.429 4.429 0 0 0 4.56 4.8 5.077 5.077 0 0 0 4.62-2.61 61.774 61.774 0 0 0 3.45-7.14 20.824 20.824 0 0 1 6.96 2.4c-.99 2.7-3.06 5.55-7.56 7.47l3.18 2.58a14.881 14.881 0 0 0 7.53-8.04c.9.66 1.77 1.38 2.55 2.07Zm26.43-13.23a39.566 39.566 0 0 0-2.31-3.96l-2.46 1.02c.57.87 1.17 1.92 1.68 2.91a12.586 12.586 0 0 1-1.41.06h-13.89a33.4 33.4 0 0 1-3.57-.24v4.23c.78-.06 2.19-.12 3.57-.12h13.98a19.264 19.264 0 0 1-3.54 8.46c-2.43 3.06-5.79 5.64-11.76 7.05l3.27 3.57a23.742 23.742 0 0 0 12.06-8.28c2.52-3.33 3.81-7.98 4.5-10.92a15.152 15.152 0 0 1 .66-2.07l-1.89-1.23Zm-.6-3.69a35.561 35.561 0 0 1 2.4 4.02l2.49-1.08c-.57-1.05-1.65-2.88-2.4-3.96Zm27.87 7.62v12.45h-14.49V8.64Zm4.02-.96c0-.9 0-2.01.06-2.91-1.08.06-2.22.06-2.97.06h-16.5c-.81 0-1.95-.03-3.18-.06.06.84.06 2.07.06 2.91v14.67c0 1.44-.06 4.05-.09 4.2h4.14l-.03-1.65h14.46l-.03 1.65h4.14c0-.12-.06-3-.06-4.17Zm18.78.51-3.57 1.17a49.969 49.969 0 0 1 2.43 6.66l3.6-1.26c-.42-1.38-1.89-5.28-2.46-6.57Zm6.84.84a20.219 20.219 0 0 1-3.81 10.29 20.186 20.186 0 0 1-9.96 6.27l3.15 3.21a23.428 23.428 0 0 0 10.05-7.44 24.19 24.19 0 0 0 4.08-8.79c.18-.6.36-1.23.72-2.19Zm-13.8.75-3.6 1.29a60.6 60.6 0 0 1 2.73 6.93l3.66-1.38c-.6-1.68-2.04-5.31-2.79-6.84Zm45.72-4.29a9.62 9.62 0 0 1-2.61.36h-6.03l.09-.15c.36-.66 1.11-2.01 1.83-3.06l-4.38-1.44a14.433 14.433 0 0 1-1.35 3.15 26.415 26.415 0 0 1-9.36 9.66l3.36 2.49a34.2 34.2 0 0 0 7.56-7.26h8.43a21.326 21.326 0 0 1-4.26 8.19c-2.61 2.97-5.94 5.58-12.09 7.41l3.54 3.18c5.64-2.25 9.27-4.98 12.12-8.46a31.3 31.3 0 0 0 5.22-10.02 12.012 12.012 0 0 1 .99-2.16Z" fill="#fff"/></svg>