<svg xmlns="http://www.w3.org/2000/svg" width="157.36" height="44.721"><path d="M15.2 13.88v1.8h-2.76v-1.8Zm-4.82 4.76h2.06v-1.02h2.76v.62h2.14v-6.28h-6.96ZM25.54 7.98v1.28h-1.66V7.98Zm-1.66 4.5v-1.3h1.66v1.3Zm-3.66 0v-1.3h1.54v1.3Zm1.54-4.5v1.28h-1.54V7.98Zm6.12-3.32V2.62H26.7l1.04-.86a10.56 10.56 0 0 0-2.2-1.74l-1.4 1.04a13.2 13.2 0 0 1 1.88 1.56h-2.14V0h-2.12v2.62H17.8v.8a20.06 20.06 0 0 0-3.28-3.4H12.5A13.353 13.353 0 0 1 9.06 4.7a7.44 7.44 0 0 1 1.46 1.5v1.58h2.24v1.36h-2.9v1.92h7.8V9.14h-2.74V7.78h2.3V5.96h-2.3v-1.7h-2.16v1.7h-1.84a18.933 18.933 0 0 0 2.96-3.8 18.507 18.507 0 0 1 2.58 3.26l1.34-1.68v.92h3.96v1.32h-3.6V18.6h2.06v-4.22h1.54v4.12h2.12v-4.12h1.66v1.98c0 .18-.06.24-.24.24a10.358 10.358 0 0 1-1.14 0 6.7 6.7 0 0 1 .6 2.02 4.014 4.014 0 0 0 2.18-.4c.56-.36.68-.9.68-1.82V5.98h-3.74V4.66Zm15.98 10.52h-8v-4.8h8ZM47.54 3.7V1.36H29.98V3.7h5.22a17.663 17.663 0 0 1-6.14 8.52 13.29 13.29 0 0 1 1.68 1.84 15.181 15.181 0 0 0 2.7-2.5v7.12h2.42v-1.2h8v1.12h2.56V8.1H35.9a35.059 35.059 0 0 0 2.06-4.4Zm8.64 5.64a2.578 2.578 0 0 0 2.56 2.56 2.578 2.578 0 0 0 2.56-2.56 2.578 2.578 0 0 0-2.56-2.56 2.578 2.578 0 0 0-2.56 2.56Zm17.78 1.54V9.66h3.48v1.22Zm0-4.22h3.48v1.22h-3.48Zm9.42 0v1.22h-3.5V6.66Zm0 4.22h-3.5V9.66h3.5Zm4.48 2.98h-7.98v-1.08h5.9V4.76h-5.9V3.8h7.4V1.64h-7.4V.02h-2.44v1.62h-7.26V3.8h7.26v.96h-5.76v8.02h5.76v1.08H69.7V16h7.74v2.7h2.44V16h7.98Zm12.96 1.44V8.64h5.96v-2.4h-5.96V0h-2.54v15.3h-3.64V4.1h-2.5v11.2H89.6v2.38h18.26V15.3Zm12.76-1.22c-.72 0-1.12-.62-1.12-1.58a6.044 6.044 0 0 1 1.44-3.72 21.8 21.8 0 0 0 1.84 3.8 3.238 3.238 0 0 1-2.16 1.5ZM119 6.14a23.6 23.6 0 0 1-1.76 4.24 19.845 19.845 0 0 1-1.4-3.14 7.722 7.722 0 0 1 3.16-1.1Zm3.22-2.82c.12-.5.3-1.46.46-2l-2.74-.26a10.689 10.689 0 0 1-.14 1.88c-.06.3-.12.62-.2.96a10.325 10.325 0 0 0-4.48 1.18c-.14-.42-.26-.84-.36-1.22-.16-.58-.32-1.24-.44-1.88l-2.6.8a14.57 14.57 0 0 1 .8 2.06c.16.54.34 1.08.52 1.6a8.688 8.688 0 0 0-2.92 6.26c0 2.56 1.52 3.96 3.16 3.96 1.46 0 2.56-.68 3.9-2.12.2.26.44.52.68.78l1.98-1.58c-.36-.36-.72-.76-1.08-1.18a24.111 24.111 0 0 0 2.68-6.3 4.243 4.243 0 0 1 3.2 4.36c0 2.48-1.7 4.7-6.06 5.08l1.52 2.28c4.14-.62 7.14-3.02 7.14-7.22a6.527 6.527 0 0 0-5.2-6.68Zm13.96 6.02a2.578 2.578 0 0 0 2.56 2.56 2.578 2.578 0 0 0 2.56-2.56 2.578 2.578 0 0 0-2.56-2.56 2.578 2.578 0 0 0-2.56 2.56ZM15.7 29.68a29.282 29.282 0 0 0-1.58-2.74l-1.58.64a23.937 23.937 0 0 1 1.56 2.78Zm-6.92 1c.04-.58.06-1.16.08-1.78.02-.48.06-1.32.12-1.8H6.04a14.8 14.8 0 0 1 .14 1.84c0 .6-.02 1.18-.04 1.74H3.28a24.367 24.367 0 0 1-2.64-.14v2.64c.86-.08 1.96-.1 2.64-.1h2.64a11.818 11.818 0 0 1-3.3 7.14A11.353 11.353 0 0 1 0 42.16l2.32 1.88C5.9 41.5 7.8 38.38 8.54 33.08h4.5c0 2.16-.26 6.16-.84 7.42a1.056 1.056 0 0 1-1.14.72 18.911 18.911 0 0 1-2.8-.28l.3 2.66a42 42 0 0 0 3.32.16 2.473 2.473 0 0 0 2.58-1.52c.86-2.04 1.1-7.64 1.18-9.8a7.92 7.92 0 0 1 .14-1.04l-1.72-.86a7.818 7.818 0 0 1-1.52.14Zm6.12-4a21.071 21.071 0 0 1 1.6 2.76l1.6-.7a31.281 31.281 0 0 0-1.62-2.72Zm5.68 10.14c.74-.06 2.08-.1 3.22-.1h10.74c.84 0 1.86.08 2.34.1v-3.14c-.52.04-1.42.12-2.34.12H23.8c-1.04 0-2.5-.06-3.22-.12Zm37.92-8.54a26.607 26.607 0 0 0-1.6-2.72l-1.58.66a23.6 23.6 0 0 1 1.6 2.76Zm-2.38.92c-.38-.74-1.08-2-1.58-2.74l-1.6.66a27.488 27.488 0 0 1 1.58 2.78Zm-4.94 1.16c.7 0 1.48.02 2.16.06v-2.58a15.7 15.7 0 0 1-2.16.16h-6.54a14.964 14.964 0 0 1-2.14-.16v2.58c.6-.04 1.46-.06 2.14-.06Zm-9.08 2.72a15.227 15.227 0 0 1-1.92-.12v2.62c.56-.04 1.34-.08 1.92-.08h5.5a8.6 8.6 0 0 1-1.24 4.42 8.167 8.167 0 0 1-3.62 2.86l2.34 1.7a9.6 9.6 0 0 0 4.02-3.84 12.688 12.688 0 0 0 1.28-5.14h4.82c.56 0 1.32.02 1.82.06v-2.6a15.125 15.125 0 0 1-1.82.12Zm18.36 9.12c.74-.06 1.72-.12 2.5-.12h11.48a21.726 21.726 0 0 1 2.2.12v-3.06a20.3 20.3 0 0 1-2.2.14H62.96c-.78 0-1.72-.08-2.5-.14Zm1.68-9.94c.68-.04 1.6-.08 2.36-.08h8.26c.7 0 1.64.06 2.22.08v-2.9c-.56.06-1.42.12-2.22.12h-8.28c-.68 0-1.62-.04-2.34-.12Zm21.42-4.52-1.88 2a41.585 41.585 0 0 1 5 4.32l2.04-2.1a42 42 0 0 0-5.16-4.22Zm-2.5 13.32 1.68 2.64a21.659 21.659 0 0 0 7.42-2.82 21.267 21.267 0 0 0 7.4-7.4L96 30.66a18.965 18.965 0 0 1-7.28 7.78 20.614 20.614 0 0 1-7.66 2.62ZM115.9 29.3a29.284 29.284 0 0 0-1.58-2.74l-1.58.64a23.192 23.192 0 0 1 1.46 2.58l-.14-.08a6.3 6.3 0 0 1-1.74.24h-4.02l.06-.1c.24-.44.76-1.34 1.24-2.04l-2.94-.96a8.744 8.744 0 0 1-.9 2.1 17.112 17.112 0 0 1-6.24 6.42l2.24 1.68a21.957 21.957 0 0 0 5.04-4.84h5.64a14.148 14.148 0 0 1-2.84 5.44 16 16 0 0 1-8.06 4.96l2.36 2.12a18.627 18.627 0 0 0 8.06-5.66 20.185 20.185 0 0 0 3.5-6.68 8.474 8.474 0 0 1 .66-1.42l-1.7-1.04Zm-.8-3a19.034 19.034 0 0 1 1.6 2.76l1.6-.68a28.557 28.557 0 0 0-1.62-2.72Zm21.9-.16h-2.16v7.94c0 .26-.08.34-.38.34-.28.02-1.24.02-2.14-.02a7.378 7.378 0 0 1 .7 1.88 8.41 8.41 0 0 0 3.06-.32c.72-.3.92-.8.92-1.82Zm-4.34.66h-2.12v6.66h2.12ZM135 38.64a23.273 23.273 0 0 1-2.84 1.72 7.318 7.318 0 0 1-1.42-1.72Zm-13.56-9.04a7.779 7.779 0 0 0 .5-.8h1.9v.8Zm14.28 9.04h2v-1.88h-7.8v-1.04h-2.12a2.608 2.608 0 0 0 .94-.2c.52-.24.66-.6.66-1.36V31.9h-3.54v-.7h3.86v-1.6h-3.86v-.8h3.32v-1.52h-3.32V26h-2.02v1.28h-1.14c.12-.28.22-.54.32-.82l-1.74-.44a8.7 8.7 0 0 1-1.56 2.88c.32.16.84.46 1.24.7h-1.22v1.6h4.1v.7h-3.3v3.92h1.8v-2.48h1.5v2.92h2.02v-2.92h1.64v.82c0 .16-.06.22-.24.22-.14 0-.62 0-1.08-.02a6.085 6.085 0 0 1 .58 1.38h.8v1.02h-7.78v1.88h5.84a22.552 22.552 0 0 1-6.18 1.68 10.238 10.238 0 0 1 1.26 1.72 22.787 22.787 0 0 0 3.3-.84v1.12c-.72.08-1.4.16-1.98.22l.34 1.94c2.2-.32 5.18-.72 8-1.12l-.08-1.86c-1.34.18-2.7.36-4 .52v-1.74a15.059 15.059 0 0 0 2.36-1.42c1.5 3.18 4 5.06 8.16 5.86a8.208 8.208 0 0 1 1.3-1.9 13.516 13.516 0 0 1-4.34-1.34 26.961 26.961 0 0 0 3.3-1.84Zm16.52-6.88h-7v-2.7h7Zm2.42-4.98h-11.72v7.24h11.72Zm-9.24 11.18v3.44h-2.98v-3.44Zm-5.24 6.72h2.26v-1h2.98v.9h2.38v-8.9h-7.62Zm11.6-3.28v-3.44h3.18v3.44Zm-2.28-5.72v9h2.28v-1h3.18v.92h2.4v-8.92Z" fill="#fff"/></svg>