<svg xmlns="http://www.w3.org/2000/svg" width="117.461" height="19.2"><path d="M10.66 13.42v-1.24H8.24v1.24H5.36a12.241 12.241 0 0 0 1.42-1.66h5.64a12.409 12.409 0 0 0 1.44 1.66Zm-4.28-4.5h6.26v.9H6.38Zm6.26-5.06v.88H6.38v-.88ZM6.38 6.38h6.26v.88H6.38Zm12.4 5.38V9.82h-3.7V3.86h2.74V1.94h-2.74V.44h-2.44v1.5H6.38V.44H4v1.5H1.24v1.92H4v5.96H.18v1.94h3.86A12.081 12.081 0 0 1 0 14.28a8.858 8.858 0 0 1 1.52 1.82 13.857 13.857 0 0 0 3.18-2.04v1.24h3.54v1.3H1.96v1.96h15.22V16.6h-6.52v-1.3h3.64v-1.48a13.464 13.464 0 0 0 3.14 2.1 8.188 8.188 0 0 1 1.58-1.84 11.75 11.75 0 0 1-3.9-2.32ZM34.6 8.92h1.94V6.68a7.016 7.016 0 0 0 1.32 1.84 8.528 8.528 0 0 1 1.22-1.32 7.986 7.986 0 0 1-2.18-3.04h1.84V2.38h-2.2V.44H34.6v1.94h-1.7v1.78h1.42A7.828 7.828 0 0 1 32 7.12a6.588 6.588 0 0 1 .92 1.5A8.39 8.39 0 0 0 34.6 6.7Zm-5.38 0h1.92v-2.8a11.856 11.856 0 0 1 .72.96l1.06-1.32a18.216 18.216 0 0 0-1.78-1.38v-.22h1.44V2.38h-1.44V.44h-1.92v1.94h-1.84v1.78h1.4a8.736 8.736 0 0 1-2.16 2.96 6.617 6.617 0 0 1 .98 1.6 11.026 11.026 0 0 0 1.62-2.06Zm-4.34 5.6h-1.42V9.56h1.42Zm1.98 2.04V7.52h-3.18q.45-1.95.72-4.02h2.88V1.34H20.4V3.5h1.82c-.4 3.2-1.08 6.2-2.38 8.2a12.51 12.51 0 0 1 1.24 2.24 7.911 7.911 0 0 0 .44-.68v4.78h1.94v-1.48Zm7.18-1.76h3.3v-1.88h-3.3v-1.68h2.18c-.12.38-.24.72-.34 1l1.78.6a29.044 29.044 0 0 0 1.18-3.14l-1.52-.48-.34.1H27.3v1.92h4.54v4.84a4.217 4.217 0 0 1-1.48-2.14c.12-.7.18-1.42.24-2.16h-2.1c-.14 2.28-.5 4.48-2.48 5.78a4.977 4.977 0 0 1 1.34 1.56 6.414 6.414 0 0 0 2.28-2.76c1.22 1.98 3 2.46 5.4 2.46h3.38a7.181 7.181 0 0 1 .64-1.98c-.8 0-3.28.02-3.88.02a10.333 10.333 0 0 1-1.14-.06ZM56.2 3.14A26.378 26.378 0 0 0 54.66.5l-1.64.68c.38.58.78 1.28 1.12 1.94a8.391 8.391 0 0 1-.94.04h-9.26A22.269 22.269 0 0 1 41.56 3v2.82c.52-.04 1.46-.08 2.38-.08h9.32a12.843 12.843 0 0 1-2.36 5.64 13.144 13.144 0 0 1-7.84 4.7l2.18 2.38a15.828 15.828 0 0 0 8.04-5.52 20.189 20.189 0 0 0 3-7.28 10.1 10.1 0 0 1 .44-1.38l-1.26-.82ZM55.8.68a23.707 23.707 0 0 1 1.6 2.68l1.66-.72c-.38-.7-1.1-1.92-1.6-2.64Zm18.58 5.08v8.3h-9.66v-8.3Zm2.68-.64c0-.6 0-1.34.04-1.94-.72.04-1.48.04-1.98.04h-11c-.54 0-1.3-.02-2.12-.04.04.56.04 1.38.04 1.94v9.78c0 .96-.04 2.7-.06 2.8h2.76l-.02-1.1h9.64l-.02 1.1h2.76c0-.08-.04-2-.04-2.78Zm12.52.34-2.38.78a33.312 33.312 0 0 1 1.62 4.44l2.4-.84c-.28-.92-1.26-3.52-1.64-4.38Zm4.56.56a13.479 13.479 0 0 1-2.54 6.86 13.457 13.457 0 0 1-6.64 4.18l2.1 2.14a15.619 15.619 0 0 0 6.7-4.96 16.127 16.127 0 0 0 2.72-5.86c.12-.4.24-.82.48-1.46Zm-9.2.5-2.4.86A40.4 40.4 0 0 1 84.36 12l2.44-.92c-.4-1.12-1.36-3.54-1.86-4.56Zm30.48-2.86a6.413 6.413 0 0 1-1.74.24h-4.02l.06-.1c.24-.44.74-1.34 1.22-2.04L108.02.8a9.622 9.622 0 0 1-.9 2.1 17.61 17.61 0 0 1-6.24 6.44l2.24 1.66a22.8 22.8 0 0 0 5.04-4.84h5.62a14.217 14.217 0 0 1-2.84 5.46 15.939 15.939 0 0 1-8.06 4.94l2.36 2.12a18.842 18.842 0 0 0 8.08-5.64 20.868 20.868 0 0 0 3.48-6.68 8.008 8.008 0 0 1 .66-1.44Z" fill="#fff"/></svg>