<svg xmlns="http://www.w3.org/2000/svg" width="199.141" height="18.7"><path d="M6.14 13.88v1.8H3.38v-1.8Zm-4.82 4.76h2.06v-1.02h2.76v.62h2.14v-6.28H1.32ZM16.48 7.98v1.28h-1.66V7.98Zm-1.66 4.5v-1.3h1.66v1.3Zm-3.66 0v-1.3h1.54v1.3Zm1.54-4.5v1.28h-1.54V7.98Zm6.12-3.32V2.62h-1.18l1.04-.86a10.56 10.56 0 0 0-2.2-1.74l-1.4 1.04a13.2 13.2 0 0 1 1.88 1.56h-2.14V0H12.7v2.62H8.74v.8A20.06 20.06 0 0 0 5.46.02H3.44A13.353 13.353 0 0 1 0 4.7a7.44 7.44 0 0 1 1.46 1.5v1.58H3.7v1.36H.8v1.92h7.8V9.14H5.86V7.78h2.3V5.96h-2.3v-1.7H3.7v1.7H1.86a18.933 18.933 0 0 0 2.96-3.8A18.507 18.507 0 0 1 7.4 5.42l1.34-1.68v.92h3.96v1.32H9.1V18.6h2.06v-4.22h1.54v4.12h2.12v-4.12h1.66v1.98c0 .18-.06.24-.24.24a10.358 10.358 0 0 1-1.14 0 6.7 6.7 0 0 1 .6 2.02 4.014 4.014 0 0 0 2.18-.4c.56-.36.68-.9.68-1.82V5.98h-3.74V4.66ZM34.8 15.18h-8v-4.8h8ZM38.48 3.7V1.36H20.92V3.7h5.22A17.663 17.663 0 0 1 20 12.22a13.29 13.29 0 0 1 1.68 1.84 15.181 15.181 0 0 0 2.7-2.5v7.12h2.42v-1.2h8v1.12h2.56V8.1H26.84a35.059 35.059 0 0 0 2.06-4.4Zm8.64 5.64a2.578 2.578 0 0 0 2.56 2.56 2.578 2.578 0 0 0 2.56-2.56 2.578 2.578 0 0 0-2.56-2.56 2.578 2.578 0 0 0-2.56 2.56Zm17.78 1.54V9.66h3.48v1.22Zm0-4.22h3.48v1.22H64.9Zm9.42 0v1.22h-3.5V6.66Zm0 4.22h-3.5V9.66h3.5Zm4.48 2.98h-7.98v-1.08h5.9V4.76h-5.9V3.8h7.4V1.64h-7.4V.02h-2.44v1.62h-7.26V3.8h7.26v.96h-5.76v8.02h5.76v1.08h-7.74V16h7.74v2.7h2.44V16h7.98Zm12.96 1.44V8.64h5.96v-2.4h-5.96V0h-2.54v15.3h-3.64V4.1h-2.5v11.2h-2.54v2.38H98.8V15.3Zm12.76-1.22c-.72 0-1.12-.62-1.12-1.58a6.044 6.044 0 0 1 1.44-3.72 21.8 21.8 0 0 0 1.84 3.8 3.238 3.238 0 0 1-2.16 1.5Zm5.42-7.94a23.6 23.6 0 0 1-1.76 4.24 19.845 19.845 0 0 1-1.4-3.14 7.722 7.722 0 0 1 3.16-1.1Zm3.22-2.82c.12-.5.3-1.46.46-2l-2.74-.26a10.689 10.689 0 0 1-.14 1.88c-.06.3-.12.62-.2.96a10.325 10.325 0 0 0-4.48 1.18c-.14-.42-.26-.84-.36-1.22-.16-.58-.32-1.24-.44-1.88l-2.6.8a14.57 14.57 0 0 1 .8 2.06c.16.54.34 1.08.52 1.6a8.688 8.688 0 0 0-2.92 6.26c0 2.56 1.52 3.96 3.16 3.96 1.46 0 2.56-.68 3.9-2.12.2.26.44.52.68.78l1.98-1.58c-.36-.36-.72-.76-1.08-1.18a24.111 24.111 0 0 0 2.68-6.3 4.243 4.243 0 0 1 3.2 4.36c0 2.48-1.7 4.7-6.06 5.08l1.52 2.28c4.14-.62 7.14-3.02 7.14-7.22a6.527 6.527 0 0 0-5.2-6.68Zm13.96 6.02a2.578 2.578 0 0 0 2.56 2.56 2.578 2.578 0 0 0 2.56-2.56 2.578 2.578 0 0 0-2.56-2.56 2.578 2.578 0 0 0-2.56 2.56Zm17.52-7.66.12 2.54c.62-.06 1.28-.14 1.78-.18.8-.08 3.24-.2 4.04-.26a56.11 56.11 0 0 1-5.58 4.5c-1.02.12-2.4.3-3.46.4l.24 2.4c1.98-.34 4.2-.64 6-.78a4.631 4.631 0 0 0-1.44 3.12c0 3.3 2.96 4.82 8.04 4.6l.52-2.6a17.247 17.247 0 0 1-3.02-.04c-1.78-.22-3-.82-3-2.38 0-1.62 1.52-2.9 3.34-3.16a29.866 29.866 0 0 1 5.08-.04V7.46c-2.42 0-5.68.2-8.34.48 1.34-1.06 3.3-2.7 4.72-3.82.4-.34 1.14-.82 1.54-1.1l-1.56-1.82a7.768 7.768 0 0 1-1.38.24c-1.2.14-4.92.32-5.76.32-.68 0-1.26-.02-1.88-.08Zm20.5 11.66c-.74 0-1.54-.98-1.54-2.98a6.21 6.21 0 0 1 5.02-5.74 31.792 31.792 0 0 1-1.06 4.8c-.8 2.68-1.6 3.92-2.42 3.92Zm5.44 4.42c5-.76 7.56-3.72 7.56-7.88 0-4.32-3.1-7.74-8-7.74-5.14 0-9.12 3.92-9.12 8.48 0 3.34 1.86 5.76 4.04 5.76 2.16 0 3.88-2.44 5.06-6.44a43.043 43.043 0 0 0 1.18-5.38c2.66.46 4.14 2.5 4.14 5.24a5.362 5.362 0 0 1-4.5 5.3c-.52.12-1.08.22-1.84.32ZM184.56.06a21 21 0 0 1-4.56 7.5 16.52 16.52 0 0 1 1.28 2.4 16.568 16.568 0 0 0 1.26-1.5v10.18h2.36V4.8a36.335 36.335 0 0 0 1.86-4.02Zm6.8 16.18c-1.28 0-1.48-.18-1.48-1.38v-6.4l1.94-.76v6.24h2.22V6.82l2.08-.82a39.094 39.094 0 0 1-.14 4.3c-.08.38-.22.46-.5.46-.22 0-.78-.02-1.22-.04a6.341 6.341 0 0 1 .52 2.18 5.677 5.677 0 0 0 2.26-.28 1.893 1.893 0 0 0 1.12-1.8c.12-.88.16-3.28.18-6.76l.08-.36-1.62-.62-.44.3-.3.24-2.02.76V.08h-2.22v5.18l-1.94.74V2.22h-2.36v4.72l-2.42.94.92 2.1 1.5-.58v5.46c0 2.74.82 3.52 3.66 3.52h4.42c2.52 0 3.22-1 3.54-3.96a8.274 8.274 0 0 1-2.16-.92c-.18 2.26-.38 2.74-1.56 2.74Z" fill="#fff"/></svg>