<svg xmlns="http://www.w3.org/2000/svg" width="195.101" height="59.34"><g fill="#fff"><path d="M61.96 5.37h-1.95V3.42h1.95Zm-4.2 0h-1.89V3.42h1.89Zm-4.17 0h-1.83V3.42h1.83Zm11.34-4.35H48.91v6.75h16.02ZM47.59 11.58h18.45V8.76H47.59Zm.51 6.6-3.3.87v-5.1h2.73V10.8H44.8V5.34h3.12V2.22h-9.6v3.12h3.33v5.46h-3.06v3.15h3.06v5.88c-1.41.36-2.7.66-3.78.9l.75 3.3c2.88-.72 6.51-1.71 9.93-2.7Zm15 1.5a25.424 25.424 0 0 1-2.67 2.19 12.057 12.057 0 0 1-1.77-2.19Zm-10.59-4.47h8.61v1.95h-8.61Zm10.8 4.47h1.11v-7.02H49.39v7.02h4.86a28.407 28.407 0 0 1-8.7 4.44 13.954 13.954 0 0 1 2.1 2.55 31.51 31.51 0 0 0 5.61-2.94v4.38h3.36v-6.48a15.135 15.135 0 0 0 7.29 6.48 13.373 13.373 0 0 1 2.22-2.76 14.334 14.334 0 0 1-3.66-1.8 33.265 33.265 0 0 0 3.18-2.16ZM89.23 4.74c-.24.72-.6 1.59-.9 2.25l.15.03h-3.81l.39-.09a9.567 9.567 0 0 0-.84-2.19Zm6.78 2.28h-4.29c.33-.6.72-1.32 1.11-2.13l-.75-.15h3.39V1.98h-7.11V.15h-3.51v1.83h-6.51v2.76H82l-1.11.24a9.781 9.781 0 0 1 .75 2.04h-3.96v2.91h18.33Zm-18.39 9.09c-.93.39-1.86.81-2.79 1.2v-6.75h2.73V7.2h-2.73V.51h-3.3V7.2h-2.97v3.36h2.97v8.1c-1.38.54-2.64 1.02-3.66 1.38l1.2 3.57c2.73-1.26 6.18-2.82 9.33-4.35Zm5.07.75h8.43v1.53h-8.43Zm0-3.57h8.43v1.5h-8.43Zm8.88 11.64c-.54 0-.63-.09-.63-.84v-3.48h3.69V11.1H79.36v9.51h2.55c-.54 2.19-1.86 3.69-6.57 4.59a10.744 10.744 0 0 1 1.95 3c5.73-1.47 7.47-3.99 8.13-7.59h2.13v3.51c0 2.85.6 3.84 3.42 3.84h2.34c2.1 0 2.94-.9 3.27-4.35a8.548 8.548 0 0 1-2.97-1.26c-.06 2.28-.21 2.58-.69 2.58ZM104.8.15a31.638 31.638 0 0 1-7.08 11.22 23.847 23.847 0 0 1 1.92 3.66 34.188 34.188 0 0 0 2.28-2.67v15.69h3.39V7.14a50.161 50.161 0 0 0 2.79-5.91Zm7.29 4.38h8.79v4.02h-8.79Zm13.83 13.11V14.4h-7.74v-2.7h6.27V1.41H108.7V11.7h5.88v2.7h-7.86v3.24h6.15a21.552 21.552 0 0 1-7.23 6.48 14.732 14.732 0 0 1 2.46 2.85 24.057 24.057 0 0 0 6.48-6.45v7.59h3.6v-7.74a24.772 24.772 0 0 0 6.09 6.66 15.188 15.188 0 0 1 2.52-2.85 22.577 22.577 0 0 1-6.87-6.54Zm8.58-6.75a34.561 34.561 0 0 0 7.5-7.44 36.155 36.155 0 0 0 7.74 7.44Zm9.39 9.72h8.4v-3.12h-8.4v-3.45h7.02V11.7a38.032 38.032 0 0 0 3.24 2.01 17.382 17.382 0 0 1 2.37-3.21A31.706 31.706 0 0 1 143.68 0h-3.69a32.738 32.738 0 0 1-12.18 10.86 13.181 13.181 0 0 1 2.25 2.88 38.385 38.385 0 0 0 3.33-2.07v2.37h6.78v3.45h-8.31v3.12h8.31v3.57h-10.71v3.21h25.53v-3.21h-11.1ZM14.58 57.94c-.04-.6-.08-1.66-.08-2.36V45.22c0-.58.04-1.38.06-1.84-.34.02-1.18.04-1.76.04H2.74c-.7 0-1.74-.04-2.48-.12v2.78C.82 46.04 1.9 46 2.74 46h8.98v8.28H2.5c-.9 0-1.8-.06-2.5-.12v2.86c.66-.06 1.8-.12 2.58-.12h9.12c0 .38 0 .72-.02 1.04Zm7.36-15.64-1.88 2a41.585 41.585 0 0 1 5 4.32l2.04-2.1a42 42 0 0 0-5.16-4.22Zm-2.5 13.32 1.68 2.64a21.659 21.659 0 0 0 7.42-2.82 21.267 21.267 0 0 0 7.4-7.4l-1.56-2.82A18.965 18.965 0 0 1 27.1 53a20.614 20.614 0 0 1-7.66 2.62ZM53.06 43.8a6.413 6.413 0 0 1-1.74.24H47.3l.06-.1c.24-.44.74-1.34 1.22-2.04l-2.92-.96a9.622 9.622 0 0 1-.9 2.1 17.61 17.61 0 0 1-6.24 6.44l2.24 1.66a22.8 22.8 0 0 0 5.04-4.84h5.62a14.217 14.217 0 0 1-2.84 5.46 15.939 15.939 0 0 1-8.06 4.94l2.36 2.12a18.842 18.842 0 0 0 8.08-5.64 20.868 20.868 0 0 0 3.48-6.68 8.008 8.008 0 0 1 .66-1.44Zm7.96-1.64a13.6 13.6 0 0 1 .08 1.52v6.74c0 .6-.08 1.38-.1 1.76h2.96c-.04-.46-.06-1.24-.06-1.74v-6.76c0-.64.02-1.08.06-1.52Zm9.2-.18a14.109 14.109 0 0 1 .12 2v3.8c0 3.12-.26 4.62-1.62 6.12a9.36 9.36 0 0 1-4.9 2.52l2.1 2.2a11.619 11.619 0 0 0 4.86-2.9c1.48-1.64 2.32-3.48 2.32-7.78v-3.96c0-.8.04-1.44.08-2Zm8.74 9.4c.74-.06 2.08-.1 3.22-.1h10.74c.84 0 1.86.08 2.34.1v-3.14c-.52.04-1.42.12-2.34.12H82.18c-1.04 0-2.5-.06-3.22-.12Zm35.54-1.24a65.321 65.321 0 0 0-8.36-3.1V44.1a21.75 21.75 0 0 1 .18-2.42h-3.12a13.949 13.949 0 0 1 .2 2.42v11.48a21.4 21.4 0 0 1-.2 2.78h3.12c-.08-.8-.18-2.2-.18-2.78v-5.66a57.767 57.767 0 0 1 7.22 2.98Zm19.34-6.86a26.378 26.378 0 0 0-1.54-2.64l-1.64.68c.38.58.78 1.28 1.12 1.94a8.391 8.391 0 0 1-.94.04h-9.26a22.269 22.269 0 0 1-2.38-.16v2.82c.52-.04 1.46-.08 2.38-.08h9.32a12.843 12.843 0 0 1-2.36 5.64 13.144 13.144 0 0 1-7.84 4.7l2.18 2.38a15.828 15.828 0 0 0 8.04-5.52 20.189 20.189 0 0 0 3-7.28 10.1 10.1 0 0 1 .44-1.38l-1.26-.82Zm-.4-2.46a23.707 23.707 0 0 1 1.6 2.68l1.66-.72c-.38-.7-1.1-1.92-1.6-2.64Zm18.58 5.08v8.3h-9.66v-8.3Zm2.68-.64c0-.6 0-1.34.04-1.94-.72.04-1.48.04-1.98.04h-11c-.54 0-1.3-.02-2.12-.04.04.56.04 1.38.04 1.94v9.78c0 .96-.04 2.7-.06 2.8h2.76l-.02-1.1H152l-.02 1.1h2.76c0-.08-.04-2-.04-2.78Zm12.52.34-2.38.78a33.312 33.312 0 0 1 1.62 4.44l2.4-.84c-.28-.92-1.26-3.52-1.64-4.38Zm4.56.56a13.479 13.479 0 0 1-2.54 6.86 13.457 13.457 0 0 1-6.64 4.18l2.1 2.14a15.619 15.619 0 0 0 6.7-4.96 16.127 16.127 0 0 0 2.72-5.86c.12-.4.24-.82.48-1.46Zm-9.2.5-2.4.86a40.4 40.4 0 0 1 1.82 4.62l2.44-.92c-.4-1.12-1.36-3.54-1.86-4.56Zm30.48-2.86a6.413 6.413 0 0 1-1.74.24h-4.02l.06-.1c.24-.44.74-1.34 1.22-2.04l-2.92-.96a9.622 9.622 0 0 1-.9 2.1 17.61 17.61 0 0 1-6.24 6.44l2.24 1.66a22.8 22.8 0 0 0 5.04-4.84h5.62a14.217 14.217 0 0 1-2.84 5.46 15.939 15.939 0 0 1-8.06 4.94l2.36 2.12a18.842 18.842 0 0 0 8.08-5.64 20.868 20.868 0 0 0 3.48-6.68 8.008 8.008 0 0 1 .66-1.44Z"/></g></svg>